M48
INCH,TZ
T1C0.013
T2C0.028
T3C0.039
T4C0.047
T5C0.120
T6C0.129
%
G90
G05
T1
X4.7165Y-5.5157
X4.7244Y-5.4724
X4.7362Y-5.5591
X4.8622Y-4.3268
X4.8661Y-4.126
X4.8916Y-5.2704
X4.9449Y-4.3583
X4.9467Y-4.3992
X4.9685Y-4.2795
X4.9712Y-4.1584
X4.9724Y-4.2008
X4.9724Y-5.1772
X4.9724Y-5.3031
X5.Y-5.8425
X5.0209Y-5.3826
X5.0512Y-4.3031
X5.0591Y-5.1063
X5.063Y-5.0669
X5.1184Y-5.0824
X5.1378Y-4.3543
X5.1417Y-4.2244
X5.1417Y-4.2638
X5.1435Y-5.1164
X5.1575Y-5.4094
X5.1614Y-5.2717
X5.1614Y-5.3386
X5.1877Y-5.6905
X5.1929Y-4.122
X5.2874Y-5.0551
X5.2874Y-5.3937
X5.3071Y-5.7047
X5.3228Y-5.3898
X5.3543Y-4.374
X5.3583Y-5.3858
X5.3701Y-4.874
X5.3965Y-5.0679
X5.3976Y-5.3858
X5.4055Y-4.9528
X5.4318Y-5.0679
X5.4351Y-5.2914
X5.4733Y-5.2918
X5.4961Y-5.5197
X5.5514Y-5.0343
X5.563Y-4.2047
X5.5906Y-4.3228
X5.5991Y-4.8123
X5.6024Y-4.5866
X5.6024Y-5.0276
X5.6369Y-5.2686
X5.6417Y-4.5315
X5.6496Y-4.7008
X5.6535Y-5.5472
X5.6616Y-5.2934
X5.6772Y-4.2047
X5.6864Y-5.3181
X5.7008Y-5.0315
X5.7087Y-5.1969
X5.7117Y-5.3434
X5.7302Y-5.0982
X5.7323Y-4.4213
X5.7326Y-5.2241
X5.7516Y-4.8132
X5.752Y-5.0276
X5.7573Y-5.2488
X5.7756Y-4.2559
X5.7756Y-5.063
X5.7837Y-5.2719
X5.7953Y-4.185
X5.7986Y-5.3943
X5.8028Y-4.3268
X5.8099Y-4.9262
X5.811Y-4.2913
X5.8228Y-4.2087
X5.8292Y-4.5062
X5.8292Y-4.7068
X5.8425Y-5.7047
X5.8455Y-4.9257
X5.8701Y-5.4488
X5.874Y-4.748
X5.874Y-4.7874
X5.881Y-4.9252
X5.8873Y-4.2879
X5.8976Y-5.4252
X5.9094Y-4.5472
X5.9094Y-4.5866
X5.9094Y-4.9528
X5.9173Y-4.315
X5.9291Y-5.5079
X5.9567Y-5.4803
X6.0393Y-4.1317
X6.0984Y-5.3189
X6.122Y-4.7992
X6.126Y-4.7598
X6.126Y-5.0039
X6.126Y-5.1417
X6.1339Y-5.0433
X6.1496Y-5.1063
X6.1811Y-5.0827
X6.183Y-4.9067
X6.1951Y-5.6919
X6.2126Y-5.1063
X6.2402Y-5.1378
X6.2446Y-4.1275
X6.2513Y-4.9039
X6.2812Y-4.8749
X6.2835Y-4.7986
X6.3189Y-4.1457
X6.3228Y-4.6102
X6.3228Y-5.2205
X6.3228Y-5.4016
X6.3268Y-4.6772
X6.3273Y-5.3504
X6.3387Y-4.0352
X6.3465Y-4.1181
X6.3583Y-5.0315
X6.3636Y-5.4931
X6.3898Y-4.311
X6.3937Y-5.0079
X6.4134Y-4.4173
X6.4291Y-4.3031
X6.437Y-4.9921
X6.4449Y-4.252
X6.4488Y-5.5236
X6.4567Y-4.7717
X6.4567Y-5.2795
X6.5315Y-5.8425
X6.8481Y-4.5875
X6.8498Y-4.5114
X6.8504Y-5.1732
X6.8504Y-5.2087
X6.8504Y-5.2441
X6.8504Y-5.3701
X6.8504Y-5.4094
X6.8512Y-5.3332
X6.8583Y-4.626
X6.8583Y-4.6614
X6.8622Y-4.4291
X6.8622Y-4.4685
X6.874Y-5.126
X6.8858Y-4.3346
X6.9094Y-5.5157
X6.9134Y-5.7402
X6.9213Y-4.7717
X6.9213Y-5.1811
X6.9528Y-4.1575
X6.9606Y-4.3661
T2
X7.1654Y-4.3701
X7.1654Y-4.4488
X7.1654Y-4.5276
X7.1654Y-4.6063
X7.1654Y-4.685
X7.1654Y-4.7638
X7.1654Y-5.0787
X7.1654Y-5.1575
X7.1654Y-5.2362
X7.1654Y-5.315
X7.1654Y-5.3937
X7.1654Y-5.4724
T3
X5.0953Y-5.7874
X5.1953Y-5.7874
X5.2953Y-5.7874
X5.3953Y-5.7874
X5.4953Y-5.7874
X5.5953Y-5.7874
X5.963Y-5.7835
X6.063Y-5.7835
X6.0866Y-4.2598
X6.163Y-5.7835
X6.2047Y-4.2598
X6.263Y-5.7835
X6.363Y-5.7835
X6.463Y-5.7835
X6.7717Y-4.063
X6.8717Y-4.063
X6.9717Y-4.063
T4
X4.635Y-4.6819
X4.635Y-4.7819
X4.635Y-4.8819
X4.635Y-4.9819
X4.635Y-5.0819
X4.735Y-4.6819
X4.735Y-4.7819
X4.735Y-4.8819
X4.735Y-4.9819
X4.735Y-5.0819
T5
X6.1457Y-4.0898
T6
X4.6063Y-4.0945
X4.6063Y-5.748
X7.2441Y-4.0945
X7.2441Y-5.748
T0
M30
