G04 #@! TF.FileFunction,Legend,Top*
%FSLAX46Y46*%
G04 Gerber Fmt 4.6, Leading zero omitted, Abs format (unit mm)*
G04 Created by KiCad (PCBNEW (2015-12-27 BZR 6404, Git c4ea4dc)-product) date Sat 09 Jan 2016 11:17:19 AM EST*
%MOMM*%
G01*
G04 APERTURE LIST*
%ADD10C,0.100000*%
%ADD11C,0.200000*%
%ADD12C,0.150000*%
%ADD13C,0.300000*%
%ADD14C,0.500000*%
%ADD15C,0.400000*%
%ADD16C,1.300000*%
%ADD17R,1.000000X1.450000*%
%ADD18R,1.450000X1.000000*%
%ADD19R,1.650000X3.250000*%
%ADD20R,1.650000X1.650000*%
%ADD21C,1.650000*%
%ADD22R,1.800000X1.800000*%
%ADD23C,1.800000*%
%ADD24R,1.300000X0.600000*%
%ADD25R,0.600000X1.550000*%
%ADD26R,1.080000X1.080000*%
%ADD27R,1.080000X0.550000*%
%ADD28R,0.550000X1.080000*%
%ADD29R,5.000000X5.000000*%
%ADD30C,3.050000*%
%ADD31R,3.250000X1.650000*%
%ADD32C,5.650000*%
%ADD33R,1.750000X1.050000*%
%ADD34R,1.100000X1.800000*%
%ADD35R,0.250000X0.600000*%
%ADD36R,0.600000X0.250000*%
G04 APERTURE END LIST*
D10*
D11*
X131600000Y-107800000D02*
X131600000Y-109200000D01*
X131600000Y-106980952D02*
X131600000Y-107361905D01*
X131333333Y-106561905D02*
X131600000Y-106980952D01*
X131866667Y-106561905D01*
X131600000Y-107800000D02*
X131200000Y-108200000D01*
X131600000Y-107800000D02*
X132000000Y-108200000D01*
X133533334Y-108761905D02*
X134066667Y-109561905D01*
X134066667Y-108761905D02*
X133533334Y-109561905D01*
X133000000Y-109200000D02*
X132600000Y-108800000D01*
X133000000Y-109200000D02*
X132600000Y-109600000D01*
X131600000Y-109200000D02*
X133000000Y-109200000D01*
D12*
X148552381Y-142923810D02*
X148666667Y-142961905D01*
X148857143Y-142961905D01*
X148933333Y-142923810D01*
X148971429Y-142885714D01*
X149009524Y-142809524D01*
X149009524Y-142733333D01*
X148971429Y-142657143D01*
X148933333Y-142619048D01*
X148857143Y-142580952D01*
X148704762Y-142542857D01*
X148628571Y-142504762D01*
X148590476Y-142466667D01*
X148552381Y-142390476D01*
X148552381Y-142314286D01*
X148590476Y-142238095D01*
X148628571Y-142200000D01*
X148704762Y-142161905D01*
X148895238Y-142161905D01*
X149009524Y-142200000D01*
X149238095Y-142161905D02*
X149695238Y-142161905D01*
X149466667Y-142961905D02*
X149466667Y-142161905D01*
X149923810Y-142733333D02*
X150304762Y-142733333D01*
X149847619Y-142961905D02*
X150114286Y-142161905D01*
X150380953Y-142961905D01*
X150533333Y-142161905D02*
X150990476Y-142161905D01*
X150761905Y-142961905D02*
X150761905Y-142161905D01*
X151257143Y-142161905D02*
X151257143Y-142809524D01*
X151295238Y-142885714D01*
X151333334Y-142923810D01*
X151409524Y-142961905D01*
X151561905Y-142961905D01*
X151638096Y-142923810D01*
X151676191Y-142885714D01*
X151714286Y-142809524D01*
X151714286Y-142161905D01*
X152057143Y-142923810D02*
X152171429Y-142961905D01*
X152361905Y-142961905D01*
X152438095Y-142923810D01*
X152476191Y-142885714D01*
X152514286Y-142809524D01*
X152514286Y-142733333D01*
X152476191Y-142657143D01*
X152438095Y-142619048D01*
X152361905Y-142580952D01*
X152209524Y-142542857D01*
X152133333Y-142504762D01*
X152095238Y-142466667D01*
X152057143Y-142390476D01*
X152057143Y-142314286D01*
X152095238Y-142238095D01*
X152133333Y-142200000D01*
X152209524Y-142161905D01*
X152400000Y-142161905D01*
X152514286Y-142200000D01*
D11*
X127147619Y-122652381D02*
X126814285Y-122176190D01*
X126576190Y-122652381D02*
X126576190Y-121652381D01*
X126957143Y-121652381D01*
X127052381Y-121700000D01*
X127100000Y-121747619D01*
X127147619Y-121842857D01*
X127147619Y-121985714D01*
X127100000Y-122080952D01*
X127052381Y-122128571D01*
X126957143Y-122176190D01*
X126576190Y-122176190D01*
X127576190Y-122128571D02*
X127909524Y-122128571D01*
X128052381Y-122652381D02*
X127576190Y-122652381D01*
X127576190Y-121652381D01*
X128052381Y-121652381D01*
X128433333Y-122604762D02*
X128576190Y-122652381D01*
X128814286Y-122652381D01*
X128909524Y-122604762D01*
X128957143Y-122557143D01*
X129004762Y-122461905D01*
X129004762Y-122366667D01*
X128957143Y-122271429D01*
X128909524Y-122223810D01*
X128814286Y-122176190D01*
X128623809Y-122128571D01*
X128528571Y-122080952D01*
X128480952Y-122033333D01*
X128433333Y-121938095D01*
X128433333Y-121842857D01*
X128480952Y-121747619D01*
X128528571Y-121700000D01*
X128623809Y-121652381D01*
X128861905Y-121652381D01*
X129004762Y-121700000D01*
X129433333Y-122128571D02*
X129766667Y-122128571D01*
X129909524Y-122652381D02*
X129433333Y-122652381D01*
X129433333Y-121652381D01*
X129909524Y-121652381D01*
X130195238Y-121652381D02*
X130766667Y-121652381D01*
X130480952Y-122652381D02*
X130480952Y-121652381D01*
D13*
X178478571Y-122400000D02*
X177764286Y-122900000D01*
X178478571Y-123257143D02*
X176978571Y-123257143D01*
X176978571Y-122685715D01*
X177050000Y-122542857D01*
X177121429Y-122471429D01*
X177264286Y-122400000D01*
X177478571Y-122400000D01*
X177621429Y-122471429D01*
X177692857Y-122542857D01*
X177764286Y-122685715D01*
X177764286Y-123257143D01*
X178478571Y-121757143D02*
X176978571Y-121757143D01*
X177050000Y-120257143D02*
X176978571Y-120400000D01*
X176978571Y-120614286D01*
X177050000Y-120828571D01*
X177192857Y-120971429D01*
X177335714Y-121042857D01*
X177621429Y-121114286D01*
X177835714Y-121114286D01*
X178121429Y-121042857D01*
X178264286Y-120971429D01*
X178407143Y-120828571D01*
X178478571Y-120614286D01*
X178478571Y-120471429D01*
X178407143Y-120257143D01*
X178335714Y-120185714D01*
X177835714Y-120185714D01*
X177835714Y-120471429D01*
X178478571Y-119542857D02*
X176978571Y-119542857D01*
X177692857Y-119542857D02*
X177692857Y-118685714D01*
X178478571Y-118685714D02*
X176978571Y-118685714D01*
X176978571Y-118185714D02*
X176978571Y-117328571D01*
X178478571Y-117757142D02*
X176978571Y-117757142D01*
X178478571Y-131028571D02*
X178478571Y-131742857D01*
X176978571Y-131742857D01*
X177692857Y-130528571D02*
X177692857Y-130028571D01*
X178478571Y-129814285D02*
X178478571Y-130528571D01*
X176978571Y-130528571D01*
X176978571Y-129814285D01*
X177692857Y-128671428D02*
X177692857Y-129171428D01*
X178478571Y-129171428D02*
X176978571Y-129171428D01*
X176978571Y-128457142D01*
X176978571Y-128100000D02*
X176978571Y-127242857D01*
X178478571Y-127671428D02*
X176978571Y-127671428D01*
D10*
X113000000Y-150000000D02*
X113000000Y-100000000D01*
X188000000Y-150000000D02*
X113000000Y-150000000D01*
X188000000Y-100000000D02*
X188000000Y-150000000D01*
X113000000Y-100000000D02*
X188000000Y-100000000D01*
D12*
X152742857Y-140547619D02*
X152790476Y-140500000D01*
X152885714Y-140452381D01*
X153123810Y-140452381D01*
X153219048Y-140500000D01*
X153266667Y-140547619D01*
X153314286Y-140642857D01*
X153314286Y-140738095D01*
X153266667Y-140880952D01*
X152695238Y-141452381D01*
X153314286Y-141452381D01*
X153933333Y-140452381D02*
X154028572Y-140452381D01*
X154123810Y-140500000D01*
X154171429Y-140547619D01*
X154219048Y-140642857D01*
X154266667Y-140833333D01*
X154266667Y-141071429D01*
X154219048Y-141261905D01*
X154171429Y-141357143D01*
X154123810Y-141404762D01*
X154028572Y-141452381D01*
X153933333Y-141452381D01*
X153838095Y-141404762D01*
X153790476Y-141357143D01*
X153742857Y-141261905D01*
X153695238Y-141071429D01*
X153695238Y-140833333D01*
X153742857Y-140642857D01*
X153790476Y-140547619D01*
X153838095Y-140500000D01*
X153933333Y-140452381D01*
X155219048Y-141452381D02*
X154647619Y-141452381D01*
X154933333Y-141452381D02*
X154933333Y-140452381D01*
X154838095Y-140595238D01*
X154742857Y-140690476D01*
X154647619Y-140738095D01*
X156076191Y-140452381D02*
X155885714Y-140452381D01*
X155790476Y-140500000D01*
X155742857Y-140547619D01*
X155647619Y-140690476D01*
X155600000Y-140880952D01*
X155600000Y-141261905D01*
X155647619Y-141357143D01*
X155695238Y-141404762D01*
X155790476Y-141452381D01*
X155980953Y-141452381D01*
X156076191Y-141404762D01*
X156123810Y-141357143D01*
X156171429Y-141261905D01*
X156171429Y-141023810D01*
X156123810Y-140928571D01*
X156076191Y-140880952D01*
X155980953Y-140833333D01*
X155790476Y-140833333D01*
X155695238Y-140880952D01*
X155647619Y-140928571D01*
X155600000Y-141023810D01*
X156600000Y-141071429D02*
X157361905Y-141071429D01*
X158028571Y-140452381D02*
X158123810Y-140452381D01*
X158219048Y-140500000D01*
X158266667Y-140547619D01*
X158314286Y-140642857D01*
X158361905Y-140833333D01*
X158361905Y-141071429D01*
X158314286Y-141261905D01*
X158266667Y-141357143D01*
X158219048Y-141404762D01*
X158123810Y-141452381D01*
X158028571Y-141452381D01*
X157933333Y-141404762D01*
X157885714Y-141357143D01*
X157838095Y-141261905D01*
X157790476Y-141071429D01*
X157790476Y-140833333D01*
X157838095Y-140642857D01*
X157885714Y-140547619D01*
X157933333Y-140500000D01*
X158028571Y-140452381D01*
X159314286Y-141452381D02*
X158742857Y-141452381D01*
X159028571Y-141452381D02*
X159028571Y-140452381D01*
X158933333Y-140595238D01*
X158838095Y-140690476D01*
X158742857Y-140738095D01*
X159742857Y-141071429D02*
X160504762Y-141071429D01*
X161171428Y-140452381D02*
X161266667Y-140452381D01*
X161361905Y-140500000D01*
X161409524Y-140547619D01*
X161457143Y-140642857D01*
X161504762Y-140833333D01*
X161504762Y-141071429D01*
X161457143Y-141261905D01*
X161409524Y-141357143D01*
X161361905Y-141404762D01*
X161266667Y-141452381D01*
X161171428Y-141452381D01*
X161076190Y-141404762D01*
X161028571Y-141357143D01*
X160980952Y-141261905D01*
X160933333Y-141071429D01*
X160933333Y-140833333D01*
X160980952Y-140642857D01*
X161028571Y-140547619D01*
X161076190Y-140500000D01*
X161171428Y-140452381D01*
X162409524Y-140452381D02*
X161933333Y-140452381D01*
X161885714Y-140928571D01*
X161933333Y-140880952D01*
X162028571Y-140833333D01*
X162266667Y-140833333D01*
X162361905Y-140880952D01*
X162409524Y-140928571D01*
X162457143Y-141023810D01*
X162457143Y-141261905D01*
X162409524Y-141357143D01*
X162361905Y-141404762D01*
X162266667Y-141452381D01*
X162028571Y-141452381D01*
X161933333Y-141404762D01*
X161885714Y-141357143D01*
D13*
X157107144Y-143678571D02*
X157107144Y-142178571D01*
X157607144Y-143250000D01*
X158107144Y-142178571D01*
X158107144Y-143678571D01*
X159035716Y-143678571D02*
X158892858Y-143607143D01*
X158821430Y-143535714D01*
X158750001Y-143392857D01*
X158750001Y-142964286D01*
X158821430Y-142821429D01*
X158892858Y-142750000D01*
X159035716Y-142678571D01*
X159250001Y-142678571D01*
X159392858Y-142750000D01*
X159464287Y-142821429D01*
X159535716Y-142964286D01*
X159535716Y-143392857D01*
X159464287Y-143535714D01*
X159392858Y-143607143D01*
X159250001Y-143678571D01*
X159035716Y-143678571D01*
X159964287Y-142678571D02*
X160535716Y-142678571D01*
X160178573Y-142178571D02*
X160178573Y-143464286D01*
X160250001Y-143607143D01*
X160392859Y-143678571D01*
X160535716Y-143678571D01*
X161250002Y-143678571D02*
X161107144Y-143607143D01*
X161035716Y-143535714D01*
X160964287Y-143392857D01*
X160964287Y-142964286D01*
X161035716Y-142821429D01*
X161107144Y-142750000D01*
X161250002Y-142678571D01*
X161464287Y-142678571D01*
X161607144Y-142750000D01*
X161678573Y-142821429D01*
X161750002Y-142964286D01*
X161750002Y-143392857D01*
X161678573Y-143535714D01*
X161607144Y-143607143D01*
X161464287Y-143678571D01*
X161250002Y-143678571D01*
X162392859Y-143678571D02*
X162392859Y-142678571D01*
X162392859Y-142964286D02*
X162464287Y-142821429D01*
X162535716Y-142750000D01*
X162678573Y-142678571D01*
X162821430Y-142678571D01*
X165321430Y-143535714D02*
X165250001Y-143607143D01*
X165035715Y-143678571D01*
X164892858Y-143678571D01*
X164678573Y-143607143D01*
X164535715Y-143464286D01*
X164464287Y-143321429D01*
X164392858Y-143035714D01*
X164392858Y-142821429D01*
X164464287Y-142535714D01*
X164535715Y-142392857D01*
X164678573Y-142250000D01*
X164892858Y-142178571D01*
X165035715Y-142178571D01*
X165250001Y-142250000D01*
X165321430Y-142321429D01*
X166178573Y-143678571D02*
X166035715Y-143607143D01*
X165964287Y-143535714D01*
X165892858Y-143392857D01*
X165892858Y-142964286D01*
X165964287Y-142821429D01*
X166035715Y-142750000D01*
X166178573Y-142678571D01*
X166392858Y-142678571D01*
X166535715Y-142750000D01*
X166607144Y-142821429D01*
X166678573Y-142964286D01*
X166678573Y-143392857D01*
X166607144Y-143535714D01*
X166535715Y-143607143D01*
X166392858Y-143678571D01*
X166178573Y-143678571D01*
X167321430Y-142678571D02*
X167321430Y-143678571D01*
X167321430Y-142821429D02*
X167392858Y-142750000D01*
X167535716Y-142678571D01*
X167750001Y-142678571D01*
X167892858Y-142750000D01*
X167964287Y-142892857D01*
X167964287Y-143678571D01*
X168464287Y-142678571D02*
X169035716Y-142678571D01*
X168678573Y-142178571D02*
X168678573Y-143464286D01*
X168750001Y-143607143D01*
X168892859Y-143678571D01*
X169035716Y-143678571D01*
X169535716Y-143678571D02*
X169535716Y-142678571D01*
X169535716Y-142964286D02*
X169607144Y-142821429D01*
X169678573Y-142750000D01*
X169821430Y-142678571D01*
X169964287Y-142678571D01*
X170678573Y-143678571D02*
X170535715Y-143607143D01*
X170464287Y-143535714D01*
X170392858Y-143392857D01*
X170392858Y-142964286D01*
X170464287Y-142821429D01*
X170535715Y-142750000D01*
X170678573Y-142678571D01*
X170892858Y-142678571D01*
X171035715Y-142750000D01*
X171107144Y-142821429D01*
X171178573Y-142964286D01*
X171178573Y-143392857D01*
X171107144Y-143535714D01*
X171035715Y-143607143D01*
X170892858Y-143678571D01*
X170678573Y-143678571D01*
X172035716Y-143678571D02*
X171892858Y-143607143D01*
X171821430Y-143464286D01*
X171821430Y-142178571D01*
X172821430Y-143678571D02*
X172678572Y-143607143D01*
X172607144Y-143464286D01*
X172607144Y-142178571D01*
X173964286Y-143607143D02*
X173821429Y-143678571D01*
X173535715Y-143678571D01*
X173392858Y-143607143D01*
X173321429Y-143464286D01*
X173321429Y-142892857D01*
X173392858Y-142750000D01*
X173535715Y-142678571D01*
X173821429Y-142678571D01*
X173964286Y-142750000D01*
X174035715Y-142892857D01*
X174035715Y-143035714D01*
X173321429Y-143178571D01*
X174678572Y-143678571D02*
X174678572Y-142678571D01*
X174678572Y-142964286D02*
X174750000Y-142821429D01*
X174821429Y-142750000D01*
X174964286Y-142678571D01*
X175107143Y-142678571D01*
D10*
X172428571Y-104357143D02*
X171828571Y-104557143D01*
X172428571Y-104757143D01*
X171857143Y-105214286D02*
X171828571Y-105157143D01*
X171828571Y-105042857D01*
X171857143Y-104985715D01*
X171885714Y-104957143D01*
X171942857Y-104928572D01*
X172114286Y-104928572D01*
X172171429Y-104957143D01*
X172200000Y-104985715D01*
X172228571Y-105042857D01*
X172228571Y-105157143D01*
X172200000Y-105214286D01*
X171857143Y-105728572D02*
X171828571Y-105671429D01*
X171828571Y-105557143D01*
X171857143Y-105500001D01*
X171885714Y-105471429D01*
X171942857Y-105442858D01*
X172114286Y-105442858D01*
X172171429Y-105471429D01*
X172200000Y-105500001D01*
X172228571Y-105557143D01*
X172228571Y-105671429D01*
X172200000Y-105728572D01*
X174557143Y-104442857D02*
X174557143Y-104900000D01*
X174328571Y-104671429D02*
X174785714Y-104671429D01*
X174928571Y-105128571D02*
X174928571Y-105500000D01*
X174700000Y-105300000D01*
X174700000Y-105385714D01*
X174671429Y-105442857D01*
X174642857Y-105471428D01*
X174585714Y-105500000D01*
X174442857Y-105500000D01*
X174385714Y-105471428D01*
X174357143Y-105442857D01*
X174328571Y-105385714D01*
X174328571Y-105214286D01*
X174357143Y-105157143D01*
X174385714Y-105128571D01*
X174385714Y-105757143D02*
X174357143Y-105785715D01*
X174328571Y-105757143D01*
X174357143Y-105728572D01*
X174385714Y-105757143D01*
X174328571Y-105757143D01*
X174928571Y-105985714D02*
X174928571Y-106357143D01*
X174700000Y-106157143D01*
X174700000Y-106242857D01*
X174671429Y-106300000D01*
X174642857Y-106328571D01*
X174585714Y-106357143D01*
X174442857Y-106357143D01*
X174385714Y-106328571D01*
X174357143Y-106300000D01*
X174328571Y-106242857D01*
X174328571Y-106071429D01*
X174357143Y-106014286D01*
X174385714Y-105985714D01*
X174928571Y-106528572D02*
X174328571Y-106728572D01*
X174928571Y-106928572D01*
X177400000Y-104757143D02*
X177428571Y-104700000D01*
X177428571Y-104614286D01*
X177400000Y-104528571D01*
X177342857Y-104471429D01*
X177285714Y-104442857D01*
X177171429Y-104414286D01*
X177085714Y-104414286D01*
X176971429Y-104442857D01*
X176914286Y-104471429D01*
X176857143Y-104528571D01*
X176828571Y-104614286D01*
X176828571Y-104671429D01*
X176857143Y-104757143D01*
X176885714Y-104785714D01*
X177085714Y-104785714D01*
X177085714Y-104671429D01*
X176828571Y-105042857D02*
X177428571Y-105042857D01*
X176828571Y-105385714D01*
X177428571Y-105385714D01*
X176828571Y-105671428D02*
X177428571Y-105671428D01*
X177428571Y-105814285D01*
X177400000Y-105900000D01*
X177342857Y-105957142D01*
X177285714Y-105985714D01*
X177171429Y-106014285D01*
X177085714Y-106014285D01*
X176971429Y-105985714D01*
X176914286Y-105957142D01*
X176857143Y-105900000D01*
X176828571Y-105814285D01*
X176828571Y-105671428D01*
X179714286Y-121271429D02*
X179714286Y-120671429D01*
X179914286Y-121100000D01*
X180114286Y-120671429D01*
X180114286Y-121271429D01*
X180400000Y-121042857D02*
X180857143Y-121042857D01*
X179714286Y-119271429D02*
X179714286Y-118671429D01*
X179914286Y-119100000D01*
X180114286Y-118671429D01*
X180114286Y-119271429D01*
X180400000Y-119042857D02*
X180857143Y-119042857D01*
X180628572Y-119271429D02*
X180628572Y-118814286D01*
X179314285Y-117042857D02*
X179771428Y-117042857D01*
X179542857Y-117271429D02*
X179542857Y-116814286D01*
X180342856Y-116671429D02*
X180057142Y-116671429D01*
X180028571Y-116957143D01*
X180057142Y-116928571D01*
X180114285Y-116900000D01*
X180257142Y-116900000D01*
X180314285Y-116928571D01*
X180342856Y-116957143D01*
X180371428Y-117014286D01*
X180371428Y-117157143D01*
X180342856Y-117214286D01*
X180314285Y-117242857D01*
X180257142Y-117271429D01*
X180114285Y-117271429D01*
X180057142Y-117242857D01*
X180028571Y-117214286D01*
X180542857Y-116671429D02*
X180742857Y-117271429D01*
X180942857Y-116671429D01*
X179628572Y-114700000D02*
X179571429Y-114671429D01*
X179485715Y-114671429D01*
X179400000Y-114700000D01*
X179342858Y-114757143D01*
X179314286Y-114814286D01*
X179285715Y-114928571D01*
X179285715Y-115014286D01*
X179314286Y-115128571D01*
X179342858Y-115185714D01*
X179400000Y-115242857D01*
X179485715Y-115271429D01*
X179542858Y-115271429D01*
X179628572Y-115242857D01*
X179657143Y-115214286D01*
X179657143Y-115014286D01*
X179542858Y-115014286D01*
X179914286Y-115271429D02*
X179914286Y-114671429D01*
X180257143Y-115271429D01*
X180257143Y-114671429D01*
X180542857Y-115271429D02*
X180542857Y-114671429D01*
X180685714Y-114671429D01*
X180771429Y-114700000D01*
X180828571Y-114757143D01*
X180857143Y-114814286D01*
X180885714Y-114928571D01*
X180885714Y-115014286D01*
X180857143Y-115128571D01*
X180828571Y-115185714D01*
X180771429Y-115242857D01*
X180685714Y-115271429D01*
X180542857Y-115271429D01*
X179742857Y-113214286D02*
X179714286Y-113242857D01*
X179628572Y-113271429D01*
X179571429Y-113271429D01*
X179485714Y-113242857D01*
X179428572Y-113185714D01*
X179400000Y-113128571D01*
X179371429Y-113014286D01*
X179371429Y-112928571D01*
X179400000Y-112814286D01*
X179428572Y-112757143D01*
X179485714Y-112700000D01*
X179571429Y-112671429D01*
X179628572Y-112671429D01*
X179714286Y-112700000D01*
X179742857Y-112728571D01*
X180000000Y-113271429D02*
X180000000Y-112671429D01*
X180000000Y-112957143D02*
X180342857Y-112957143D01*
X180342857Y-113271429D02*
X180342857Y-112671429D01*
X180600000Y-113100000D02*
X180885714Y-113100000D01*
X180542857Y-113271429D02*
X180742857Y-112671429D01*
X180942857Y-113271429D01*
X179657143Y-111214286D02*
X179628572Y-111242857D01*
X179542858Y-111271429D01*
X179485715Y-111271429D01*
X179400000Y-111242857D01*
X179342858Y-111185714D01*
X179314286Y-111128571D01*
X179285715Y-111014286D01*
X179285715Y-110928571D01*
X179314286Y-110814286D01*
X179342858Y-110757143D01*
X179400000Y-110700000D01*
X179485715Y-110671429D01*
X179542858Y-110671429D01*
X179628572Y-110700000D01*
X179657143Y-110728571D01*
X179914286Y-111271429D02*
X179914286Y-110671429D01*
X179914286Y-110957143D02*
X180257143Y-110957143D01*
X180257143Y-111271429D02*
X180257143Y-110671429D01*
X180742857Y-110957143D02*
X180828571Y-110985714D01*
X180857143Y-111014286D01*
X180885714Y-111071429D01*
X180885714Y-111157143D01*
X180857143Y-111214286D01*
X180828571Y-111242857D01*
X180771429Y-111271429D01*
X180542857Y-111271429D01*
X180542857Y-110671429D01*
X180742857Y-110671429D01*
X180800000Y-110700000D01*
X180828571Y-110728571D01*
X180857143Y-110785714D01*
X180857143Y-110842857D01*
X180828571Y-110900000D01*
X180800000Y-110928571D01*
X180742857Y-110957143D01*
X180542857Y-110957143D01*
X179657143Y-129214286D02*
X179628572Y-129242857D01*
X179542858Y-129271429D01*
X179485715Y-129271429D01*
X179400000Y-129242857D01*
X179342858Y-129185714D01*
X179314286Y-129128571D01*
X179285715Y-129014286D01*
X179285715Y-128928571D01*
X179314286Y-128814286D01*
X179342858Y-128757143D01*
X179400000Y-128700000D01*
X179485715Y-128671429D01*
X179542858Y-128671429D01*
X179628572Y-128700000D01*
X179657143Y-128728571D01*
X179914286Y-129271429D02*
X179914286Y-128671429D01*
X179914286Y-128957143D02*
X180257143Y-128957143D01*
X180257143Y-129271429D02*
X180257143Y-128671429D01*
X180742857Y-128957143D02*
X180828571Y-128985714D01*
X180857143Y-129014286D01*
X180885714Y-129071429D01*
X180885714Y-129157143D01*
X180857143Y-129214286D01*
X180828571Y-129242857D01*
X180771429Y-129271429D01*
X180542857Y-129271429D01*
X180542857Y-128671429D01*
X180742857Y-128671429D01*
X180800000Y-128700000D01*
X180828571Y-128728571D01*
X180857143Y-128785714D01*
X180857143Y-128842857D01*
X180828571Y-128900000D01*
X180800000Y-128928571D01*
X180742857Y-128957143D01*
X180542857Y-128957143D01*
X179742857Y-131214286D02*
X179714286Y-131242857D01*
X179628572Y-131271429D01*
X179571429Y-131271429D01*
X179485714Y-131242857D01*
X179428572Y-131185714D01*
X179400000Y-131128571D01*
X179371429Y-131014286D01*
X179371429Y-130928571D01*
X179400000Y-130814286D01*
X179428572Y-130757143D01*
X179485714Y-130700000D01*
X179571429Y-130671429D01*
X179628572Y-130671429D01*
X179714286Y-130700000D01*
X179742857Y-130728571D01*
X180000000Y-131271429D02*
X180000000Y-130671429D01*
X180000000Y-130957143D02*
X180342857Y-130957143D01*
X180342857Y-131271429D02*
X180342857Y-130671429D01*
X180600000Y-131100000D02*
X180885714Y-131100000D01*
X180542857Y-131271429D02*
X180742857Y-130671429D01*
X180942857Y-131271429D01*
X179714286Y-137271429D02*
X179714286Y-136671429D01*
X179914286Y-137100000D01*
X180114286Y-136671429D01*
X180114286Y-137271429D01*
X180400000Y-137042857D02*
X180857143Y-137042857D01*
X180628572Y-137271429D02*
X180628572Y-136814286D01*
X179714286Y-139271429D02*
X179714286Y-138671429D01*
X179914286Y-139100000D01*
X180114286Y-138671429D01*
X180114286Y-139271429D01*
X180400000Y-139042857D02*
X180857143Y-139042857D01*
X179314285Y-135042857D02*
X179771428Y-135042857D01*
X179542857Y-135271429D02*
X179542857Y-134814286D01*
X180342856Y-134671429D02*
X180057142Y-134671429D01*
X180028571Y-134957143D01*
X180057142Y-134928571D01*
X180114285Y-134900000D01*
X180257142Y-134900000D01*
X180314285Y-134928571D01*
X180342856Y-134957143D01*
X180371428Y-135014286D01*
X180371428Y-135157143D01*
X180342856Y-135214286D01*
X180314285Y-135242857D01*
X180257142Y-135271429D01*
X180114285Y-135271429D01*
X180057142Y-135242857D01*
X180028571Y-135214286D01*
X180542857Y-134671429D02*
X180742857Y-135271429D01*
X180942857Y-134671429D01*
X179628572Y-132700000D02*
X179571429Y-132671429D01*
X179485715Y-132671429D01*
X179400000Y-132700000D01*
X179342858Y-132757143D01*
X179314286Y-132814286D01*
X179285715Y-132928571D01*
X179285715Y-133014286D01*
X179314286Y-133128571D01*
X179342858Y-133185714D01*
X179400000Y-133242857D01*
X179485715Y-133271429D01*
X179542858Y-133271429D01*
X179628572Y-133242857D01*
X179657143Y-133214286D01*
X179657143Y-133014286D01*
X179542858Y-133014286D01*
X179914286Y-133271429D02*
X179914286Y-132671429D01*
X180257143Y-133271429D01*
X180257143Y-132671429D01*
X180542857Y-133271429D02*
X180542857Y-132671429D01*
X180685714Y-132671429D01*
X180771429Y-132700000D01*
X180828571Y-132757143D01*
X180857143Y-132814286D01*
X180885714Y-132928571D01*
X180885714Y-133014286D01*
X180857143Y-133128571D01*
X180828571Y-133185714D01*
X180771429Y-133242857D01*
X180685714Y-133271429D01*
X180542857Y-133271429D01*
D12*
X159738096Y-108500000D02*
X159642858Y-108452381D01*
X159500001Y-108452381D01*
X159357143Y-108500000D01*
X159261905Y-108595238D01*
X159214286Y-108690476D01*
X159166667Y-108880952D01*
X159166667Y-109023810D01*
X159214286Y-109214286D01*
X159261905Y-109309524D01*
X159357143Y-109404762D01*
X159500001Y-109452381D01*
X159595239Y-109452381D01*
X159738096Y-109404762D01*
X159785715Y-109357143D01*
X159785715Y-109023810D01*
X159595239Y-109023810D01*
X160214286Y-109452381D02*
X160214286Y-108452381D01*
X160785715Y-109452381D01*
X160785715Y-108452381D01*
X161261905Y-109452381D02*
X161261905Y-108452381D01*
X161500000Y-108452381D01*
X161642858Y-108500000D01*
X161738096Y-108595238D01*
X161785715Y-108690476D01*
X161833334Y-108880952D01*
X161833334Y-109023810D01*
X161785715Y-109214286D01*
X161738096Y-109309524D01*
X161642858Y-109404762D01*
X161500000Y-109452381D01*
X161261905Y-109452381D01*
X152571429Y-109380952D02*
X152571429Y-108619047D01*
X152952381Y-108999999D02*
X152190476Y-108999999D01*
X161452381Y-106490476D02*
X161452381Y-106966667D01*
X161928571Y-107014286D01*
X161880952Y-106966667D01*
X161833333Y-106871429D01*
X161833333Y-106633333D01*
X161880952Y-106538095D01*
X161928571Y-106490476D01*
X162023810Y-106442857D01*
X162261905Y-106442857D01*
X162357143Y-106490476D01*
X162404762Y-106538095D01*
X162452381Y-106633333D01*
X162452381Y-106871429D01*
X162404762Y-106966667D01*
X162357143Y-107014286D01*
X161452381Y-106157143D02*
X162452381Y-105823810D01*
X161452381Y-105490476D01*
X162071429Y-105157143D02*
X162071429Y-104395238D01*
X161547619Y-103966667D02*
X161500000Y-103919048D01*
X161452381Y-103823810D01*
X161452381Y-103585714D01*
X161500000Y-103490476D01*
X161547619Y-103442857D01*
X161642857Y-103395238D01*
X161738095Y-103395238D01*
X161880952Y-103442857D01*
X162452381Y-104014286D01*
X162452381Y-103395238D01*
X161880952Y-102823810D02*
X161833333Y-102919048D01*
X161785714Y-102966667D01*
X161690476Y-103014286D01*
X161642857Y-103014286D01*
X161547619Y-102966667D01*
X161500000Y-102919048D01*
X161452381Y-102823810D01*
X161452381Y-102633333D01*
X161500000Y-102538095D01*
X161547619Y-102490476D01*
X161642857Y-102442857D01*
X161690476Y-102442857D01*
X161785714Y-102490476D01*
X161833333Y-102538095D01*
X161880952Y-102633333D01*
X161880952Y-102823810D01*
X161928571Y-102919048D01*
X161976190Y-102966667D01*
X162071429Y-103014286D01*
X162261905Y-103014286D01*
X162357143Y-102966667D01*
X162404762Y-102919048D01*
X162452381Y-102823810D01*
X162452381Y-102633333D01*
X162404762Y-102538095D01*
X162357143Y-102490476D01*
X162261905Y-102442857D01*
X162071429Y-102442857D01*
X161976190Y-102490476D01*
X161928571Y-102538095D01*
X161880952Y-102633333D01*
X161452381Y-102157143D02*
X162452381Y-101823810D01*
X161452381Y-101490476D01*
D10*
X158542858Y-144700000D02*
X158485715Y-144671429D01*
X158400001Y-144671429D01*
X158314286Y-144700000D01*
X158257144Y-144757143D01*
X158228572Y-144814286D01*
X158200001Y-144928571D01*
X158200001Y-145014286D01*
X158228572Y-145128571D01*
X158257144Y-145185714D01*
X158314286Y-145242857D01*
X158400001Y-145271429D01*
X158457144Y-145271429D01*
X158542858Y-145242857D01*
X158571429Y-145214286D01*
X158571429Y-145014286D01*
X158457144Y-145014286D01*
X158828572Y-145271429D02*
X158828572Y-144671429D01*
X159171429Y-145271429D01*
X159171429Y-144671429D01*
X159457143Y-145271429D02*
X159457143Y-144671429D01*
X159600000Y-144671429D01*
X159685715Y-144700000D01*
X159742857Y-144757143D01*
X159771429Y-144814286D01*
X159800000Y-144928571D01*
X159800000Y-145014286D01*
X159771429Y-145128571D01*
X159742857Y-145185714D01*
X159685715Y-145242857D01*
X159600000Y-145271429D01*
X159457143Y-145271429D01*
X162800000Y-145042857D02*
X163257143Y-145042857D01*
X163028572Y-145271429D02*
X163028572Y-144814286D01*
X163485714Y-144671429D02*
X163857143Y-144671429D01*
X163657143Y-144900000D01*
X163742857Y-144900000D01*
X163800000Y-144928571D01*
X163828571Y-144957143D01*
X163857143Y-145014286D01*
X163857143Y-145157143D01*
X163828571Y-145214286D01*
X163800000Y-145242857D01*
X163742857Y-145271429D01*
X163571429Y-145271429D01*
X163514286Y-145242857D01*
X163485714Y-145214286D01*
X164114286Y-145214286D02*
X164142858Y-145242857D01*
X164114286Y-145271429D01*
X164085715Y-145242857D01*
X164114286Y-145214286D01*
X164114286Y-145271429D01*
X164342857Y-144671429D02*
X164714286Y-144671429D01*
X164514286Y-144900000D01*
X164600000Y-144900000D01*
X164657143Y-144928571D01*
X164685714Y-144957143D01*
X164714286Y-145014286D01*
X164714286Y-145157143D01*
X164685714Y-145214286D01*
X164657143Y-145242857D01*
X164600000Y-145271429D01*
X164428572Y-145271429D01*
X164371429Y-145242857D01*
X164342857Y-145214286D01*
X164885715Y-144671429D02*
X165085715Y-145271429D01*
X165285715Y-144671429D01*
X141390477Y-144600000D02*
X141314286Y-144561905D01*
X141200001Y-144561905D01*
X141085715Y-144600000D01*
X141009524Y-144676190D01*
X140971429Y-144752381D01*
X140933334Y-144904762D01*
X140933334Y-145019048D01*
X140971429Y-145171429D01*
X141009524Y-145247619D01*
X141085715Y-145323810D01*
X141200001Y-145361905D01*
X141276191Y-145361905D01*
X141390477Y-145323810D01*
X141428572Y-145285714D01*
X141428572Y-145019048D01*
X141276191Y-145019048D01*
X141771429Y-145361905D02*
X141771429Y-144561905D01*
X142228572Y-145361905D01*
X142228572Y-144561905D01*
X142609524Y-145361905D02*
X142609524Y-144561905D01*
X142800000Y-144561905D01*
X142914286Y-144600000D01*
X142990477Y-144676190D01*
X143028572Y-144752381D01*
X143066667Y-144904762D01*
X143066667Y-145019048D01*
X143028572Y-145171429D01*
X142990477Y-145247619D01*
X142914286Y-145323810D01*
X142800000Y-145361905D01*
X142609524Y-145361905D01*
X134366667Y-145361905D02*
X134100000Y-144980952D01*
X133909524Y-145361905D02*
X133909524Y-144561905D01*
X134214286Y-144561905D01*
X134290477Y-144600000D01*
X134328572Y-144638095D01*
X134366667Y-144714286D01*
X134366667Y-144828571D01*
X134328572Y-144904762D01*
X134290477Y-144942857D01*
X134214286Y-144980952D01*
X133909524Y-144980952D01*
X134633334Y-144561905D02*
X135166667Y-145361905D01*
X135166667Y-144561905D02*
X134633334Y-145361905D01*
X131390476Y-144561905D02*
X131847619Y-144561905D01*
X131619048Y-145361905D02*
X131619048Y-144561905D01*
X132038096Y-144561905D02*
X132571429Y-145361905D01*
X132571429Y-144561905D02*
X132038096Y-145361905D01*
D11*
X166190476Y-147404762D02*
X166333333Y-147452381D01*
X166571429Y-147452381D01*
X166666667Y-147404762D01*
X166714286Y-147357143D01*
X166761905Y-147261905D01*
X166761905Y-147166667D01*
X166714286Y-147071429D01*
X166666667Y-147023810D01*
X166571429Y-146976190D01*
X166380952Y-146928571D01*
X166285714Y-146880952D01*
X166238095Y-146833333D01*
X166190476Y-146738095D01*
X166190476Y-146642857D01*
X166238095Y-146547619D01*
X166285714Y-146500000D01*
X166380952Y-146452381D01*
X166619048Y-146452381D01*
X166761905Y-146500000D01*
X167095238Y-146452381D02*
X167333333Y-147452381D01*
X167523810Y-146738095D01*
X167714286Y-147452381D01*
X167952381Y-146452381D01*
X168333333Y-147452381D02*
X168333333Y-146452381D01*
X168571428Y-146452381D01*
X168714286Y-146500000D01*
X168809524Y-146595238D01*
X168857143Y-146690476D01*
X168904762Y-146880952D01*
X168904762Y-147023810D01*
X168857143Y-147214286D01*
X168809524Y-147309524D01*
X168714286Y-147404762D01*
X168571428Y-147452381D01*
X168333333Y-147452381D01*
X143838095Y-147252381D02*
X143838095Y-148061905D01*
X143885714Y-148157143D01*
X143933333Y-148204762D01*
X144028571Y-148252381D01*
X144219048Y-148252381D01*
X144314286Y-148204762D01*
X144361905Y-148157143D01*
X144409524Y-148061905D01*
X144409524Y-147252381D01*
X144838095Y-148204762D02*
X144980952Y-148252381D01*
X145219048Y-148252381D01*
X145314286Y-148204762D01*
X145361905Y-148157143D01*
X145409524Y-148061905D01*
X145409524Y-147966667D01*
X145361905Y-147871429D01*
X145314286Y-147823810D01*
X145219048Y-147776190D01*
X145028571Y-147728571D01*
X144933333Y-147680952D01*
X144885714Y-147633333D01*
X144838095Y-147538095D01*
X144838095Y-147442857D01*
X144885714Y-147347619D01*
X144933333Y-147300000D01*
X145028571Y-147252381D01*
X145266667Y-147252381D01*
X145409524Y-147300000D01*
X145790476Y-147966667D02*
X146266667Y-147966667D01*
X145695238Y-148252381D02*
X146028571Y-147252381D01*
X146361905Y-148252381D01*
X147266667Y-148252381D02*
X146933333Y-147776190D01*
X146695238Y-148252381D02*
X146695238Y-147252381D01*
X147076191Y-147252381D01*
X147171429Y-147300000D01*
X147219048Y-147347619D01*
X147266667Y-147442857D01*
X147266667Y-147585714D01*
X147219048Y-147680952D01*
X147171429Y-147728571D01*
X147076191Y-147776190D01*
X146695238Y-147776190D01*
X147552381Y-147252381D02*
X148123810Y-147252381D01*
X147838095Y-148252381D02*
X147838095Y-147252381D01*
D13*
X144039697Y-136551472D02*
G75*
G03X144039697Y-136551472I-100000J0D01*
G01*
D14*
X141311270Y-137400000D02*
G75*
G03X141311270Y-137400000I-200000J0D01*
G01*
D10*
X142384062Y-137400000D02*
X138000000Y-141784062D01*
X138000000Y-141784062D02*
X133615938Y-137400000D01*
X133615938Y-137400000D02*
X138000000Y-133015938D01*
X138000000Y-133015938D02*
X142384062Y-137400000D01*
D12*
X180400000Y-140950000D02*
X180400000Y-140200000D01*
X180400000Y-140200000D02*
X182000000Y-140200000D01*
X180400000Y-127050000D02*
X180400000Y-127800000D01*
X180400000Y-127800000D02*
X182000000Y-127800000D01*
X182000000Y-127800000D02*
X182000000Y-140200000D01*
X188000000Y-127050000D02*
X188000000Y-140950000D01*
X188000000Y-140950000D02*
X180400000Y-140950000D01*
X188000000Y-127050000D02*
X180400000Y-127050000D01*
D10*
X143200000Y-131050000D02*
X143200000Y-132150000D01*
X131950000Y-142400000D02*
X130850000Y-142400000D01*
X147550000Y-137400000D02*
X146450000Y-137400000D01*
X125761457Y-104444165D02*
X125761457Y-103344165D01*
X128361457Y-110044165D02*
X128361457Y-111144165D01*
X129561457Y-103344165D02*
X129561457Y-104444165D01*
X136550000Y-109000000D02*
X135450000Y-109000000D01*
X153700000Y-136400000D02*
X155300000Y-138000000D01*
X155300000Y-138000000D02*
X158700000Y-138000000D01*
X158700000Y-138000000D02*
X160300000Y-136400000D01*
X160300000Y-136400000D02*
X160300000Y-131400000D01*
X160300000Y-131400000D02*
X153700000Y-131400000D01*
X153700000Y-131400000D02*
X153700000Y-136400000D01*
X160000000Y-134700000D02*
G75*
G03X160000000Y-134700000I-3000000J0D01*
G01*
X153800000Y-117800000D02*
X155400000Y-119400000D01*
X155400000Y-119400000D02*
X158800000Y-119400000D01*
X158800000Y-119400000D02*
X160400000Y-117800000D01*
X160400000Y-117800000D02*
X160400000Y-112800000D01*
X160400000Y-112800000D02*
X153800000Y-112800000D01*
X153800000Y-112800000D02*
X153800000Y-117800000D01*
X160100000Y-116100000D02*
G75*
G03X160100000Y-116100000I-3000000J0D01*
G01*
X165800000Y-127250000D02*
X165800000Y-126150000D01*
X166200000Y-108350000D02*
X166200000Y-107250000D01*
X166300000Y-140450000D02*
X166300000Y-139350000D01*
X162900000Y-114250000D02*
X162900000Y-113150000D01*
X162800000Y-136050000D02*
X162800000Y-134950000D01*
X166300000Y-121750000D02*
X166300000Y-120650000D01*
X162800000Y-133150000D02*
X162800000Y-132050000D01*
X162900000Y-117150000D02*
X162900000Y-116050000D01*
X165800000Y-129450000D02*
X165800000Y-128350000D01*
X166200000Y-110650000D02*
X166200000Y-109550000D01*
X136919145Y-121481052D02*
X135819145Y-121481052D01*
X165410000Y-148150000D02*
X150160000Y-148150000D01*
X150160000Y-148150000D02*
X150160000Y-145650000D01*
X150160000Y-145650000D02*
X165410000Y-145650000D01*
X165410000Y-145650000D02*
X165410000Y-148150000D01*
D12*
X123550000Y-121750000D02*
X122300000Y-121750000D01*
X123550000Y-126250000D02*
X122300000Y-126250000D01*
X123572000Y-129080000D02*
X125096000Y-130096000D01*
X125096000Y-130096000D02*
X125096000Y-128064000D01*
X125096000Y-128064000D02*
X123572000Y-129080000D01*
X114450000Y-135430000D02*
X123550000Y-135430000D01*
X123550000Y-135430000D02*
X123550000Y-112570000D01*
X123550000Y-112570000D02*
X114450000Y-112570000D01*
X114450000Y-112570000D02*
X114450000Y-135430000D01*
D10*
X143370000Y-148250000D02*
X128120000Y-148250000D01*
X128120000Y-148250000D02*
X128120000Y-145750000D01*
X128120000Y-145750000D02*
X143370000Y-145750000D01*
X143370000Y-145750000D02*
X143370000Y-148250000D01*
X123011457Y-107894165D02*
X121911457Y-107894165D01*
X125411457Y-107894165D02*
X124311457Y-107894165D01*
X139300000Y-117250000D02*
X138200000Y-117250000D01*
X142700000Y-104750000D02*
X143800000Y-104750000D01*
X144700000Y-117250000D02*
X145800000Y-117250000D01*
X136200000Y-104750000D02*
X137300000Y-104750000D01*
X137050000Y-117250000D02*
X135950000Y-117250000D01*
X144950000Y-104750000D02*
X146050000Y-104750000D01*
X173000000Y-140450000D02*
X173000000Y-139350000D01*
X173000000Y-128350000D02*
X173000000Y-129450000D01*
X173100000Y-121650000D02*
X173100000Y-120550000D01*
X172800000Y-109550000D02*
X172800000Y-110650000D01*
X175900000Y-134950000D02*
X175900000Y-133850000D01*
X175900000Y-116150000D02*
X175900000Y-115050000D01*
X162800000Y-138250000D02*
X162800000Y-137150000D01*
X162900000Y-119350000D02*
X162900000Y-118250000D01*
X141350000Y-115800000D02*
X142650000Y-115800000D01*
X142650000Y-115800000D02*
X142650000Y-118700000D01*
X141350000Y-118700000D02*
X142650000Y-118700000D01*
X141350000Y-118700000D02*
X141350000Y-115800000D01*
X140650000Y-106200000D02*
X139350000Y-106200000D01*
X139350000Y-106200000D02*
X139350000Y-103300000D01*
X140650000Y-103300000D02*
X139350000Y-103300000D01*
X140650000Y-103300000D02*
X140650000Y-106200000D01*
D13*
X137500000Y-114200000D02*
G75*
G03X137500000Y-114200000I-100000J0D01*
G01*
D15*
X138600000Y-111900000D02*
G75*
G03X138600000Y-111900000I-200000J0D01*
G01*
D10*
X137700000Y-112600000D02*
X137700000Y-109400000D01*
X137700000Y-109400000D02*
X146300000Y-109400000D01*
X146300000Y-109400000D02*
X146300000Y-112600000D01*
X146300000Y-112600000D02*
X137700000Y-112600000D01*
X165100000Y-137600000D02*
X165100000Y-138600000D01*
X165100000Y-138600000D02*
X166100000Y-138600000D01*
X173500000Y-137600000D02*
X173500000Y-138600000D01*
X173500000Y-138600000D02*
X172500000Y-138600000D01*
X172500000Y-130200000D02*
X173500000Y-130200000D01*
X173500000Y-130200000D02*
X173500000Y-131200000D01*
X165100000Y-131200000D02*
X165100000Y-130200000D01*
X165100000Y-130200000D02*
X166100000Y-130200000D01*
D11*
X164800000Y-130900000D02*
G75*
G03X164800000Y-130900000I-100000J0D01*
G01*
D10*
X165100000Y-118800000D02*
X165100000Y-119800000D01*
X165100000Y-119800000D02*
X166100000Y-119800000D01*
X173500000Y-118800000D02*
X173500000Y-119800000D01*
X173500000Y-119800000D02*
X172500000Y-119800000D01*
X172500000Y-111400000D02*
X173500000Y-111400000D01*
X173500000Y-111400000D02*
X173500000Y-112400000D01*
X165100000Y-112400000D02*
X165100000Y-111400000D01*
X165100000Y-111400000D02*
X166100000Y-111400000D01*
D11*
X164800000Y-112100000D02*
G75*
G03X164800000Y-112100000I-100000J0D01*
G01*
D12*
X180400000Y-122950000D02*
X180400000Y-122200000D01*
X180400000Y-122200000D02*
X182000000Y-122200000D01*
X180400000Y-109050000D02*
X180400000Y-109800000D01*
X180400000Y-109800000D02*
X182000000Y-109800000D01*
X182000000Y-109800000D02*
X182000000Y-122200000D01*
X188000000Y-109050000D02*
X188000000Y-122950000D01*
X188000000Y-122950000D02*
X180400000Y-122950000D01*
X188000000Y-109050000D02*
X180400000Y-109050000D01*
D10*
X151030000Y-100450000D02*
X151030000Y-108200000D01*
X161170000Y-108200000D02*
X161170000Y-100450000D01*
X161170000Y-108200000D02*
X151030000Y-108200000D01*
X127000000Y-143400000D02*
X128600000Y-141800000D01*
X128600000Y-141800000D02*
X128600000Y-138400000D01*
X128600000Y-138400000D02*
X127000000Y-136800000D01*
X127000000Y-136800000D02*
X122000000Y-136800000D01*
X122000000Y-136800000D02*
X122000000Y-143400000D01*
X122000000Y-143400000D02*
X127000000Y-143400000D01*
X128300000Y-140100000D02*
G75*
G03X128300000Y-140100000I-3000000J0D01*
G01*
X170750000Y-101950000D02*
X178350000Y-101950000D01*
X178350000Y-101950000D02*
X178350000Y-104450000D01*
X178350000Y-104450000D02*
X170750000Y-104450000D01*
X170750000Y-104450000D02*
X170750000Y-101950000D01*
D13*
X137760000Y-126700000D02*
G75*
G03X137760000Y-126700000I-100000J0D01*
G01*
D15*
X138860000Y-124400000D02*
G75*
G03X138860000Y-124400000I-200000J0D01*
G01*
D10*
X137960000Y-125100000D02*
X137960000Y-121900000D01*
X137960000Y-121900000D02*
X146560000Y-121900000D01*
X146560000Y-121900000D02*
X146560000Y-125100000D01*
X146560000Y-125100000D02*
X137960000Y-125100000D01*
X147800000Y-142800000D02*
X147000000Y-142800000D01*
X147000000Y-143300000D02*
X147800000Y-143300000D01*
X147800000Y-143300000D02*
X147400000Y-142800000D01*
X147400000Y-142800000D02*
X147000000Y-143300000D01*
X148000000Y-143800000D02*
X148000000Y-142200000D01*
X146800000Y-143800000D02*
X146800000Y-142200000D01*
X145550000Y-143600000D02*
X144450000Y-143600000D01*
X148650000Y-132800000D02*
X149750000Y-132800000D01*
X146250000Y-132800000D02*
X147350000Y-132800000D01*
X147650000Y-120450000D02*
X148750000Y-120450000D01*
X147650000Y-126600000D02*
X148750000Y-126600000D01*
X129600000Y-127000000D02*
G75*
G03X129600000Y-127000000I-1000000J0D01*
G01*
X126000000Y-129600000D02*
X126000000Y-124400000D01*
X126000000Y-124400000D02*
X131200000Y-124400000D01*
X131200000Y-124400000D02*
X131200000Y-129600000D01*
X131200000Y-129600000D02*
X126000000Y-129600000D01*
D12*
X127161457Y-106094165D02*
X127853457Y-106094165D01*
X127161457Y-106786165D02*
X127161457Y-106094165D01*
X129561457Y-108494165D02*
X129561457Y-107802165D01*
X128869457Y-108494165D02*
X129561457Y-108494165D01*
D15*
X130161457Y-108894165D02*
G75*
G03X130161457Y-108894165I-200000J0D01*
G01*
D12*
X129361457Y-108294165D02*
X127361457Y-108294165D01*
X127361457Y-108294165D02*
X127361457Y-106294165D01*
X127361457Y-106294165D02*
X129361457Y-106294165D01*
X129361457Y-106294165D02*
X129361457Y-108294165D01*
D10*
X143444722Y-136864619D02*
X143101270Y-137208071D01*
X143081067Y-137268680D01*
X143081067Y-137309086D01*
X143101270Y-137369695D01*
X143182082Y-137450508D01*
X143242691Y-137470710D01*
X143283097Y-137470711D01*
X143343706Y-137450507D01*
X143687158Y-137107055D01*
X143687158Y-137955584D02*
X143444722Y-137713147D01*
X143565939Y-137834365D02*
X143990204Y-137410101D01*
X143889188Y-137430304D01*
X143808377Y-137430304D01*
X143747768Y-137410101D01*
X144374062Y-137793960D02*
X144414468Y-137834366D01*
X144434672Y-137894975D01*
X144434672Y-137935380D01*
X144414468Y-137995989D01*
X144353859Y-138097005D01*
X144252844Y-138198020D01*
X144151828Y-138258629D01*
X144091219Y-138278833D01*
X144050814Y-138278833D01*
X143990204Y-138258630D01*
X143949798Y-138218224D01*
X143929595Y-138157614D01*
X143929595Y-138117208D01*
X143949798Y-138056599D01*
X144010408Y-137955584D01*
X144111423Y-137854568D01*
X144212438Y-137793959D01*
X144273048Y-137773756D01*
X144313453Y-137773756D01*
X144374062Y-137793960D01*
X144495281Y-138763706D02*
X144252844Y-138521270D01*
X144374062Y-138642488D02*
X144798326Y-138218224D01*
X144697311Y-138238426D01*
X144616499Y-138238427D01*
X144555890Y-138218224D01*
X180535714Y-126771429D02*
X180535714Y-126171429D01*
X180764286Y-126171429D01*
X180821428Y-126200000D01*
X180850000Y-126228571D01*
X180878571Y-126285714D01*
X180878571Y-126371429D01*
X180850000Y-126428571D01*
X180821428Y-126457143D01*
X180764286Y-126485714D01*
X180535714Y-126485714D01*
X181107143Y-126228571D02*
X181135714Y-126200000D01*
X181192857Y-126171429D01*
X181335714Y-126171429D01*
X181392857Y-126200000D01*
X181421428Y-126228571D01*
X181450000Y-126285714D01*
X181450000Y-126342857D01*
X181421428Y-126428571D01*
X181078571Y-126771429D01*
X181450000Y-126771429D01*
X181821429Y-126171429D02*
X181878572Y-126171429D01*
X181935715Y-126200000D01*
X181964286Y-126228571D01*
X181992857Y-126285714D01*
X182021429Y-126400000D01*
X182021429Y-126542857D01*
X181992857Y-126657143D01*
X181964286Y-126714286D01*
X181935715Y-126742857D01*
X181878572Y-126771429D01*
X181821429Y-126771429D01*
X181764286Y-126742857D01*
X181735715Y-126714286D01*
X181707143Y-126657143D01*
X181678572Y-126542857D01*
X181678572Y-126400000D01*
X181707143Y-126285714D01*
X181735715Y-126228571D01*
X181764286Y-126200000D01*
X181821429Y-126171429D01*
X182592858Y-126771429D02*
X182250001Y-126771429D01*
X182421429Y-126771429D02*
X182421429Y-126171429D01*
X182364286Y-126257143D01*
X182307144Y-126314286D01*
X182250001Y-126342857D01*
X142528571Y-130414286D02*
X142500000Y-130442857D01*
X142414286Y-130471429D01*
X142357143Y-130471429D01*
X142271428Y-130442857D01*
X142214286Y-130385714D01*
X142185714Y-130328571D01*
X142157143Y-130214286D01*
X142157143Y-130128571D01*
X142185714Y-130014286D01*
X142214286Y-129957143D01*
X142271428Y-129900000D01*
X142357143Y-129871429D01*
X142414286Y-129871429D01*
X142500000Y-129900000D01*
X142528571Y-129928571D01*
X143100000Y-130471429D02*
X142757143Y-130471429D01*
X142928571Y-130471429D02*
X142928571Y-129871429D01*
X142871428Y-129957143D01*
X142814286Y-130014286D01*
X142757143Y-130042857D01*
X143471429Y-129871429D02*
X143528572Y-129871429D01*
X143585715Y-129900000D01*
X143614286Y-129928571D01*
X143642857Y-129985714D01*
X143671429Y-130100000D01*
X143671429Y-130242857D01*
X143642857Y-130357143D01*
X143614286Y-130414286D01*
X143585715Y-130442857D01*
X143528572Y-130471429D01*
X143471429Y-130471429D01*
X143414286Y-130442857D01*
X143385715Y-130414286D01*
X143357143Y-130357143D01*
X143328572Y-130242857D01*
X143328572Y-130100000D01*
X143357143Y-129985714D01*
X143385715Y-129928571D01*
X143414286Y-129900000D01*
X143471429Y-129871429D01*
X144242858Y-130471429D02*
X143900001Y-130471429D01*
X144071429Y-130471429D02*
X144071429Y-129871429D01*
X144014286Y-129957143D01*
X143957144Y-130014286D01*
X143900001Y-130042857D01*
X133114286Y-143071429D02*
X133142857Y-143100000D01*
X133171429Y-143185714D01*
X133171429Y-143242857D01*
X133142857Y-143328572D01*
X133085714Y-143385714D01*
X133028571Y-143414286D01*
X132914286Y-143442857D01*
X132828571Y-143442857D01*
X132714286Y-143414286D01*
X132657143Y-143385714D01*
X132600000Y-143328572D01*
X132571429Y-143242857D01*
X132571429Y-143185714D01*
X132600000Y-143100000D01*
X132628571Y-143071429D01*
X133171429Y-142500000D02*
X133171429Y-142842857D01*
X133171429Y-142671429D02*
X132571429Y-142671429D01*
X132657143Y-142728572D01*
X132714286Y-142785714D01*
X132742857Y-142842857D01*
X132571429Y-142128571D02*
X132571429Y-142071428D01*
X132600000Y-142014285D01*
X132628571Y-141985714D01*
X132685714Y-141957143D01*
X132800000Y-141928571D01*
X132942857Y-141928571D01*
X133057143Y-141957143D01*
X133114286Y-141985714D01*
X133142857Y-142014285D01*
X133171429Y-142071428D01*
X133171429Y-142128571D01*
X133142857Y-142185714D01*
X133114286Y-142214285D01*
X133057143Y-142242857D01*
X132942857Y-142271428D01*
X132800000Y-142271428D01*
X132685714Y-142242857D01*
X132628571Y-142214285D01*
X132600000Y-142185714D01*
X132571429Y-142128571D01*
X132628571Y-141699999D02*
X132600000Y-141671428D01*
X132571429Y-141614285D01*
X132571429Y-141471428D01*
X132600000Y-141414285D01*
X132628571Y-141385714D01*
X132685714Y-141357142D01*
X132742857Y-141357142D01*
X132828571Y-141385714D01*
X133171429Y-141728571D01*
X133171429Y-141357142D01*
X148328571Y-136414286D02*
X148300000Y-136442857D01*
X148214286Y-136471429D01*
X148157143Y-136471429D01*
X148071428Y-136442857D01*
X148014286Y-136385714D01*
X147985714Y-136328571D01*
X147957143Y-136214286D01*
X147957143Y-136128571D01*
X147985714Y-136014286D01*
X148014286Y-135957143D01*
X148071428Y-135900000D01*
X148157143Y-135871429D01*
X148214286Y-135871429D01*
X148300000Y-135900000D01*
X148328571Y-135928571D01*
X148900000Y-136471429D02*
X148557143Y-136471429D01*
X148728571Y-136471429D02*
X148728571Y-135871429D01*
X148671428Y-135957143D01*
X148614286Y-136014286D01*
X148557143Y-136042857D01*
X149271429Y-135871429D02*
X149328572Y-135871429D01*
X149385715Y-135900000D01*
X149414286Y-135928571D01*
X149442857Y-135985714D01*
X149471429Y-136100000D01*
X149471429Y-136242857D01*
X149442857Y-136357143D01*
X149414286Y-136414286D01*
X149385715Y-136442857D01*
X149328572Y-136471429D01*
X149271429Y-136471429D01*
X149214286Y-136442857D01*
X149185715Y-136414286D01*
X149157143Y-136357143D01*
X149128572Y-136242857D01*
X149128572Y-136100000D01*
X149157143Y-135985714D01*
X149185715Y-135928571D01*
X149214286Y-135900000D01*
X149271429Y-135871429D01*
X149671429Y-135871429D02*
X150042858Y-135871429D01*
X149842858Y-136100000D01*
X149928572Y-136100000D01*
X149985715Y-136128571D01*
X150014286Y-136157143D01*
X150042858Y-136214286D01*
X150042858Y-136357143D01*
X150014286Y-136414286D01*
X149985715Y-136442857D01*
X149928572Y-136471429D01*
X149757144Y-136471429D01*
X149700001Y-136442857D01*
X149671429Y-136414286D01*
X125490028Y-102608451D02*
X125461457Y-102637022D01*
X125375743Y-102665594D01*
X125318600Y-102665594D01*
X125232885Y-102637022D01*
X125175743Y-102579879D01*
X125147171Y-102522736D01*
X125118600Y-102408451D01*
X125118600Y-102322736D01*
X125147171Y-102208451D01*
X125175743Y-102151308D01*
X125232885Y-102094165D01*
X125318600Y-102065594D01*
X125375743Y-102065594D01*
X125461457Y-102094165D01*
X125490028Y-102122736D01*
X126061457Y-102665594D02*
X125718600Y-102665594D01*
X125890028Y-102665594D02*
X125890028Y-102065594D01*
X125832885Y-102151308D01*
X125775743Y-102208451D01*
X125718600Y-102237022D01*
X126432886Y-102065594D02*
X126490029Y-102065594D01*
X126547172Y-102094165D01*
X126575743Y-102122736D01*
X126604314Y-102179879D01*
X126632886Y-102294165D01*
X126632886Y-102437022D01*
X126604314Y-102551308D01*
X126575743Y-102608451D01*
X126547172Y-102637022D01*
X126490029Y-102665594D01*
X126432886Y-102665594D01*
X126375743Y-102637022D01*
X126347172Y-102608451D01*
X126318600Y-102551308D01*
X126290029Y-102437022D01*
X126290029Y-102294165D01*
X126318600Y-102179879D01*
X126347172Y-102122736D01*
X126375743Y-102094165D01*
X126432886Y-102065594D01*
X127147172Y-102265594D02*
X127147172Y-102665594D01*
X127004315Y-102037022D02*
X126861458Y-102465594D01*
X127232886Y-102465594D01*
X128190028Y-112308451D02*
X128161457Y-112337022D01*
X128075743Y-112365594D01*
X128018600Y-112365594D01*
X127932885Y-112337022D01*
X127875743Y-112279879D01*
X127847171Y-112222736D01*
X127818600Y-112108451D01*
X127818600Y-112022736D01*
X127847171Y-111908451D01*
X127875743Y-111851308D01*
X127932885Y-111794165D01*
X128018600Y-111765594D01*
X128075743Y-111765594D01*
X128161457Y-111794165D01*
X128190028Y-111822736D01*
X128761457Y-112365594D02*
X128418600Y-112365594D01*
X128590028Y-112365594D02*
X128590028Y-111765594D01*
X128532885Y-111851308D01*
X128475743Y-111908451D01*
X128418600Y-111937022D01*
X129132886Y-111765594D02*
X129190029Y-111765594D01*
X129247172Y-111794165D01*
X129275743Y-111822736D01*
X129304314Y-111879879D01*
X129332886Y-111994165D01*
X129332886Y-112137022D01*
X129304314Y-112251308D01*
X129275743Y-112308451D01*
X129247172Y-112337022D01*
X129190029Y-112365594D01*
X129132886Y-112365594D01*
X129075743Y-112337022D01*
X129047172Y-112308451D01*
X129018600Y-112251308D01*
X128990029Y-112137022D01*
X128990029Y-111994165D01*
X129018600Y-111879879D01*
X129047172Y-111822736D01*
X129075743Y-111794165D01*
X129132886Y-111765594D01*
X129875743Y-111765594D02*
X129590029Y-111765594D01*
X129561458Y-112051308D01*
X129590029Y-112022736D01*
X129647172Y-111994165D01*
X129790029Y-111994165D01*
X129847172Y-112022736D01*
X129875743Y-112051308D01*
X129904315Y-112108451D01*
X129904315Y-112251308D01*
X129875743Y-112308451D01*
X129847172Y-112337022D01*
X129790029Y-112365594D01*
X129647172Y-112365594D01*
X129590029Y-112337022D01*
X129561458Y-112308451D01*
X129290028Y-102608451D02*
X129261457Y-102637022D01*
X129175743Y-102665594D01*
X129118600Y-102665594D01*
X129032885Y-102637022D01*
X128975743Y-102579879D01*
X128947171Y-102522736D01*
X128918600Y-102408451D01*
X128918600Y-102322736D01*
X128947171Y-102208451D01*
X128975743Y-102151308D01*
X129032885Y-102094165D01*
X129118600Y-102065594D01*
X129175743Y-102065594D01*
X129261457Y-102094165D01*
X129290028Y-102122736D01*
X129861457Y-102665594D02*
X129518600Y-102665594D01*
X129690028Y-102665594D02*
X129690028Y-102065594D01*
X129632885Y-102151308D01*
X129575743Y-102208451D01*
X129518600Y-102237022D01*
X130232886Y-102065594D02*
X130290029Y-102065594D01*
X130347172Y-102094165D01*
X130375743Y-102122736D01*
X130404314Y-102179879D01*
X130432886Y-102294165D01*
X130432886Y-102437022D01*
X130404314Y-102551308D01*
X130375743Y-102608451D01*
X130347172Y-102637022D01*
X130290029Y-102665594D01*
X130232886Y-102665594D01*
X130175743Y-102637022D01*
X130147172Y-102608451D01*
X130118600Y-102551308D01*
X130090029Y-102437022D01*
X130090029Y-102294165D01*
X130118600Y-102179879D01*
X130147172Y-102122736D01*
X130175743Y-102094165D01*
X130232886Y-102065594D01*
X130947172Y-102065594D02*
X130832886Y-102065594D01*
X130775743Y-102094165D01*
X130747172Y-102122736D01*
X130690029Y-102208451D01*
X130661458Y-102322736D01*
X130661458Y-102551308D01*
X130690029Y-102608451D01*
X130718601Y-102637022D01*
X130775743Y-102665594D01*
X130890029Y-102665594D01*
X130947172Y-102637022D01*
X130975743Y-102608451D01*
X131004315Y-102551308D01*
X131004315Y-102408451D01*
X130975743Y-102351308D01*
X130947172Y-102322736D01*
X130890029Y-102294165D01*
X130775743Y-102294165D01*
X130718601Y-102322736D01*
X130690029Y-102351308D01*
X130661458Y-102408451D01*
X133928571Y-111414286D02*
X133900000Y-111442857D01*
X133814286Y-111471429D01*
X133757143Y-111471429D01*
X133671428Y-111442857D01*
X133614286Y-111385714D01*
X133585714Y-111328571D01*
X133557143Y-111214286D01*
X133557143Y-111128571D01*
X133585714Y-111014286D01*
X133614286Y-110957143D01*
X133671428Y-110900000D01*
X133757143Y-110871429D01*
X133814286Y-110871429D01*
X133900000Y-110900000D01*
X133928571Y-110928571D01*
X134157143Y-110928571D02*
X134185714Y-110900000D01*
X134242857Y-110871429D01*
X134385714Y-110871429D01*
X134442857Y-110900000D01*
X134471428Y-110928571D01*
X134500000Y-110985714D01*
X134500000Y-111042857D01*
X134471428Y-111128571D01*
X134128571Y-111471429D01*
X134500000Y-111471429D01*
X134871429Y-110871429D02*
X134928572Y-110871429D01*
X134985715Y-110900000D01*
X135014286Y-110928571D01*
X135042857Y-110985714D01*
X135071429Y-111100000D01*
X135071429Y-111242857D01*
X135042857Y-111357143D01*
X135014286Y-111414286D01*
X134985715Y-111442857D01*
X134928572Y-111471429D01*
X134871429Y-111471429D01*
X134814286Y-111442857D01*
X134785715Y-111414286D01*
X134757143Y-111357143D01*
X134728572Y-111242857D01*
X134728572Y-111100000D01*
X134757143Y-110985714D01*
X134785715Y-110928571D01*
X134814286Y-110900000D01*
X134871429Y-110871429D01*
X135642858Y-111471429D02*
X135300001Y-111471429D01*
X135471429Y-111471429D02*
X135471429Y-110871429D01*
X135414286Y-110957143D01*
X135357144Y-111014286D01*
X135300001Y-111042857D01*
X154028571Y-131064286D02*
X154000000Y-131092857D01*
X153914286Y-131121429D01*
X153857143Y-131121429D01*
X153771428Y-131092857D01*
X153714286Y-131035714D01*
X153685714Y-130978571D01*
X153657143Y-130864286D01*
X153657143Y-130778571D01*
X153685714Y-130664286D01*
X153714286Y-130607143D01*
X153771428Y-130550000D01*
X153857143Y-130521429D01*
X153914286Y-130521429D01*
X154000000Y-130550000D01*
X154028571Y-130578571D01*
X154257143Y-130578571D02*
X154285714Y-130550000D01*
X154342857Y-130521429D01*
X154485714Y-130521429D01*
X154542857Y-130550000D01*
X154571428Y-130578571D01*
X154600000Y-130635714D01*
X154600000Y-130692857D01*
X154571428Y-130778571D01*
X154228571Y-131121429D01*
X154600000Y-131121429D01*
X154971429Y-130521429D02*
X155028572Y-130521429D01*
X155085715Y-130550000D01*
X155114286Y-130578571D01*
X155142857Y-130635714D01*
X155171429Y-130750000D01*
X155171429Y-130892857D01*
X155142857Y-131007143D01*
X155114286Y-131064286D01*
X155085715Y-131092857D01*
X155028572Y-131121429D01*
X154971429Y-131121429D01*
X154914286Y-131092857D01*
X154885715Y-131064286D01*
X154857143Y-131007143D01*
X154828572Y-130892857D01*
X154828572Y-130750000D01*
X154857143Y-130635714D01*
X154885715Y-130578571D01*
X154914286Y-130550000D01*
X154971429Y-130521429D01*
X155400001Y-130578571D02*
X155428572Y-130550000D01*
X155485715Y-130521429D01*
X155628572Y-130521429D01*
X155685715Y-130550000D01*
X155714286Y-130578571D01*
X155742858Y-130635714D01*
X155742858Y-130692857D01*
X155714286Y-130778571D01*
X155371429Y-131121429D01*
X155742858Y-131121429D01*
X154328571Y-112364286D02*
X154300000Y-112392857D01*
X154214286Y-112421429D01*
X154157143Y-112421429D01*
X154071428Y-112392857D01*
X154014286Y-112335714D01*
X153985714Y-112278571D01*
X153957143Y-112164286D01*
X153957143Y-112078571D01*
X153985714Y-111964286D01*
X154014286Y-111907143D01*
X154071428Y-111850000D01*
X154157143Y-111821429D01*
X154214286Y-111821429D01*
X154300000Y-111850000D01*
X154328571Y-111878571D01*
X154557143Y-111878571D02*
X154585714Y-111850000D01*
X154642857Y-111821429D01*
X154785714Y-111821429D01*
X154842857Y-111850000D01*
X154871428Y-111878571D01*
X154900000Y-111935714D01*
X154900000Y-111992857D01*
X154871428Y-112078571D01*
X154528571Y-112421429D01*
X154900000Y-112421429D01*
X155271429Y-111821429D02*
X155328572Y-111821429D01*
X155385715Y-111850000D01*
X155414286Y-111878571D01*
X155442857Y-111935714D01*
X155471429Y-112050000D01*
X155471429Y-112192857D01*
X155442857Y-112307143D01*
X155414286Y-112364286D01*
X155385715Y-112392857D01*
X155328572Y-112421429D01*
X155271429Y-112421429D01*
X155214286Y-112392857D01*
X155185715Y-112364286D01*
X155157143Y-112307143D01*
X155128572Y-112192857D01*
X155128572Y-112050000D01*
X155157143Y-111935714D01*
X155185715Y-111878571D01*
X155214286Y-111850000D01*
X155271429Y-111821429D01*
X155671429Y-111821429D02*
X156042858Y-111821429D01*
X155842858Y-112050000D01*
X155928572Y-112050000D01*
X155985715Y-112078571D01*
X156014286Y-112107143D01*
X156042858Y-112164286D01*
X156042858Y-112307143D01*
X156014286Y-112364286D01*
X155985715Y-112392857D01*
X155928572Y-112421429D01*
X155757144Y-112421429D01*
X155700001Y-112392857D01*
X155671429Y-112364286D01*
X168078571Y-126464286D02*
X168050000Y-126492857D01*
X167964286Y-126521429D01*
X167907143Y-126521429D01*
X167821428Y-126492857D01*
X167764286Y-126435714D01*
X167735714Y-126378571D01*
X167707143Y-126264286D01*
X167707143Y-126178571D01*
X167735714Y-126064286D01*
X167764286Y-126007143D01*
X167821428Y-125950000D01*
X167907143Y-125921429D01*
X167964286Y-125921429D01*
X168050000Y-125950000D01*
X168078571Y-125978571D01*
X168307143Y-125978571D02*
X168335714Y-125950000D01*
X168392857Y-125921429D01*
X168535714Y-125921429D01*
X168592857Y-125950000D01*
X168621428Y-125978571D01*
X168650000Y-126035714D01*
X168650000Y-126092857D01*
X168621428Y-126178571D01*
X168278571Y-126521429D01*
X168650000Y-126521429D01*
X169021429Y-125921429D02*
X169078572Y-125921429D01*
X169135715Y-125950000D01*
X169164286Y-125978571D01*
X169192857Y-126035714D01*
X169221429Y-126150000D01*
X169221429Y-126292857D01*
X169192857Y-126407143D01*
X169164286Y-126464286D01*
X169135715Y-126492857D01*
X169078572Y-126521429D01*
X169021429Y-126521429D01*
X168964286Y-126492857D01*
X168935715Y-126464286D01*
X168907143Y-126407143D01*
X168878572Y-126292857D01*
X168878572Y-126150000D01*
X168907143Y-126035714D01*
X168935715Y-125978571D01*
X168964286Y-125950000D01*
X169021429Y-125921429D01*
X169735715Y-126121429D02*
X169735715Y-126521429D01*
X169592858Y-125892857D02*
X169450001Y-126321429D01*
X169821429Y-126321429D01*
X165278571Y-106464286D02*
X165250000Y-106492857D01*
X165164286Y-106521429D01*
X165107143Y-106521429D01*
X165021428Y-106492857D01*
X164964286Y-106435714D01*
X164935714Y-106378571D01*
X164907143Y-106264286D01*
X164907143Y-106178571D01*
X164935714Y-106064286D01*
X164964286Y-106007143D01*
X165021428Y-105950000D01*
X165107143Y-105921429D01*
X165164286Y-105921429D01*
X165250000Y-105950000D01*
X165278571Y-105978571D01*
X165507143Y-105978571D02*
X165535714Y-105950000D01*
X165592857Y-105921429D01*
X165735714Y-105921429D01*
X165792857Y-105950000D01*
X165821428Y-105978571D01*
X165850000Y-106035714D01*
X165850000Y-106092857D01*
X165821428Y-106178571D01*
X165478571Y-106521429D01*
X165850000Y-106521429D01*
X166221429Y-105921429D02*
X166278572Y-105921429D01*
X166335715Y-105950000D01*
X166364286Y-105978571D01*
X166392857Y-106035714D01*
X166421429Y-106150000D01*
X166421429Y-106292857D01*
X166392857Y-106407143D01*
X166364286Y-106464286D01*
X166335715Y-106492857D01*
X166278572Y-106521429D01*
X166221429Y-106521429D01*
X166164286Y-106492857D01*
X166135715Y-106464286D01*
X166107143Y-106407143D01*
X166078572Y-106292857D01*
X166078572Y-106150000D01*
X166107143Y-106035714D01*
X166135715Y-105978571D01*
X166164286Y-105950000D01*
X166221429Y-105921429D01*
X166964286Y-105921429D02*
X166678572Y-105921429D01*
X166650001Y-106207143D01*
X166678572Y-106178571D01*
X166735715Y-106150000D01*
X166878572Y-106150000D01*
X166935715Y-106178571D01*
X166964286Y-106207143D01*
X166992858Y-106264286D01*
X166992858Y-106407143D01*
X166964286Y-106464286D01*
X166935715Y-106492857D01*
X166878572Y-106521429D01*
X166735715Y-106521429D01*
X166678572Y-106492857D01*
X166650001Y-106464286D01*
X165278571Y-141614286D02*
X165250000Y-141642857D01*
X165164286Y-141671429D01*
X165107143Y-141671429D01*
X165021428Y-141642857D01*
X164964286Y-141585714D01*
X164935714Y-141528571D01*
X164907143Y-141414286D01*
X164907143Y-141328571D01*
X164935714Y-141214286D01*
X164964286Y-141157143D01*
X165021428Y-141100000D01*
X165107143Y-141071429D01*
X165164286Y-141071429D01*
X165250000Y-141100000D01*
X165278571Y-141128571D01*
X165507143Y-141128571D02*
X165535714Y-141100000D01*
X165592857Y-141071429D01*
X165735714Y-141071429D01*
X165792857Y-141100000D01*
X165821428Y-141128571D01*
X165850000Y-141185714D01*
X165850000Y-141242857D01*
X165821428Y-141328571D01*
X165478571Y-141671429D01*
X165850000Y-141671429D01*
X166221429Y-141071429D02*
X166278572Y-141071429D01*
X166335715Y-141100000D01*
X166364286Y-141128571D01*
X166392857Y-141185714D01*
X166421429Y-141300000D01*
X166421429Y-141442857D01*
X166392857Y-141557143D01*
X166364286Y-141614286D01*
X166335715Y-141642857D01*
X166278572Y-141671429D01*
X166221429Y-141671429D01*
X166164286Y-141642857D01*
X166135715Y-141614286D01*
X166107143Y-141557143D01*
X166078572Y-141442857D01*
X166078572Y-141300000D01*
X166107143Y-141185714D01*
X166135715Y-141128571D01*
X166164286Y-141100000D01*
X166221429Y-141071429D01*
X166935715Y-141071429D02*
X166821429Y-141071429D01*
X166764286Y-141100000D01*
X166735715Y-141128571D01*
X166678572Y-141214286D01*
X166650001Y-141328571D01*
X166650001Y-141557143D01*
X166678572Y-141614286D01*
X166707144Y-141642857D01*
X166764286Y-141671429D01*
X166878572Y-141671429D01*
X166935715Y-141642857D01*
X166964286Y-141614286D01*
X166992858Y-141557143D01*
X166992858Y-141414286D01*
X166964286Y-141357143D01*
X166935715Y-141328571D01*
X166878572Y-141300000D01*
X166764286Y-141300000D01*
X166707144Y-141328571D01*
X166678572Y-141357143D01*
X166650001Y-141414286D01*
X162014286Y-112271429D02*
X162042857Y-112300000D01*
X162071429Y-112385714D01*
X162071429Y-112442857D01*
X162042857Y-112528572D01*
X161985714Y-112585714D01*
X161928571Y-112614286D01*
X161814286Y-112642857D01*
X161728571Y-112642857D01*
X161614286Y-112614286D01*
X161557143Y-112585714D01*
X161500000Y-112528572D01*
X161471429Y-112442857D01*
X161471429Y-112385714D01*
X161500000Y-112300000D01*
X161528571Y-112271429D01*
X161528571Y-112042857D02*
X161500000Y-112014286D01*
X161471429Y-111957143D01*
X161471429Y-111814286D01*
X161500000Y-111757143D01*
X161528571Y-111728572D01*
X161585714Y-111700000D01*
X161642857Y-111700000D01*
X161728571Y-111728572D01*
X162071429Y-112071429D01*
X162071429Y-111700000D01*
X161471429Y-111328571D02*
X161471429Y-111271428D01*
X161500000Y-111214285D01*
X161528571Y-111185714D01*
X161585714Y-111157143D01*
X161700000Y-111128571D01*
X161842857Y-111128571D01*
X161957143Y-111157143D01*
X162014286Y-111185714D01*
X162042857Y-111214285D01*
X162071429Y-111271428D01*
X162071429Y-111328571D01*
X162042857Y-111385714D01*
X162014286Y-111414285D01*
X161957143Y-111442857D01*
X161842857Y-111471428D01*
X161700000Y-111471428D01*
X161585714Y-111442857D01*
X161528571Y-111414285D01*
X161500000Y-111385714D01*
X161471429Y-111328571D01*
X161471429Y-110928571D02*
X161471429Y-110528571D01*
X162071429Y-110785714D01*
X161478571Y-134414286D02*
X161450000Y-134442857D01*
X161364286Y-134471429D01*
X161307143Y-134471429D01*
X161221428Y-134442857D01*
X161164286Y-134385714D01*
X161135714Y-134328571D01*
X161107143Y-134214286D01*
X161107143Y-134128571D01*
X161135714Y-134014286D01*
X161164286Y-133957143D01*
X161221428Y-133900000D01*
X161307143Y-133871429D01*
X161364286Y-133871429D01*
X161450000Y-133900000D01*
X161478571Y-133928571D01*
X161707143Y-133928571D02*
X161735714Y-133900000D01*
X161792857Y-133871429D01*
X161935714Y-133871429D01*
X161992857Y-133900000D01*
X162021428Y-133928571D01*
X162050000Y-133985714D01*
X162050000Y-134042857D01*
X162021428Y-134128571D01*
X161678571Y-134471429D01*
X162050000Y-134471429D01*
X162421429Y-133871429D02*
X162478572Y-133871429D01*
X162535715Y-133900000D01*
X162564286Y-133928571D01*
X162592857Y-133985714D01*
X162621429Y-134100000D01*
X162621429Y-134242857D01*
X162592857Y-134357143D01*
X162564286Y-134414286D01*
X162535715Y-134442857D01*
X162478572Y-134471429D01*
X162421429Y-134471429D01*
X162364286Y-134442857D01*
X162335715Y-134414286D01*
X162307143Y-134357143D01*
X162278572Y-134242857D01*
X162278572Y-134100000D01*
X162307143Y-133985714D01*
X162335715Y-133928571D01*
X162364286Y-133900000D01*
X162421429Y-133871429D01*
X162964286Y-134128571D02*
X162907144Y-134100000D01*
X162878572Y-134071429D01*
X162850001Y-134014286D01*
X162850001Y-133985714D01*
X162878572Y-133928571D01*
X162907144Y-133900000D01*
X162964286Y-133871429D01*
X163078572Y-133871429D01*
X163135715Y-133900000D01*
X163164286Y-133928571D01*
X163192858Y-133985714D01*
X163192858Y-134014286D01*
X163164286Y-134071429D01*
X163135715Y-134100000D01*
X163078572Y-134128571D01*
X162964286Y-134128571D01*
X162907144Y-134157143D01*
X162878572Y-134185714D01*
X162850001Y-134242857D01*
X162850001Y-134357143D01*
X162878572Y-134414286D01*
X162907144Y-134442857D01*
X162964286Y-134471429D01*
X163078572Y-134471429D01*
X163135715Y-134442857D01*
X163164286Y-134414286D01*
X163192858Y-134357143D01*
X163192858Y-134242857D01*
X163164286Y-134185714D01*
X163135715Y-134157143D01*
X163078572Y-134128571D01*
X166478571Y-123014286D02*
X166450000Y-123042857D01*
X166364286Y-123071429D01*
X166307143Y-123071429D01*
X166221428Y-123042857D01*
X166164286Y-122985714D01*
X166135714Y-122928571D01*
X166107143Y-122814286D01*
X166107143Y-122728571D01*
X166135714Y-122614286D01*
X166164286Y-122557143D01*
X166221428Y-122500000D01*
X166307143Y-122471429D01*
X166364286Y-122471429D01*
X166450000Y-122500000D01*
X166478571Y-122528571D01*
X166707143Y-122528571D02*
X166735714Y-122500000D01*
X166792857Y-122471429D01*
X166935714Y-122471429D01*
X166992857Y-122500000D01*
X167021428Y-122528571D01*
X167050000Y-122585714D01*
X167050000Y-122642857D01*
X167021428Y-122728571D01*
X166678571Y-123071429D01*
X167050000Y-123071429D01*
X167421429Y-122471429D02*
X167478572Y-122471429D01*
X167535715Y-122500000D01*
X167564286Y-122528571D01*
X167592857Y-122585714D01*
X167621429Y-122700000D01*
X167621429Y-122842857D01*
X167592857Y-122957143D01*
X167564286Y-123014286D01*
X167535715Y-123042857D01*
X167478572Y-123071429D01*
X167421429Y-123071429D01*
X167364286Y-123042857D01*
X167335715Y-123014286D01*
X167307143Y-122957143D01*
X167278572Y-122842857D01*
X167278572Y-122700000D01*
X167307143Y-122585714D01*
X167335715Y-122528571D01*
X167364286Y-122500000D01*
X167421429Y-122471429D01*
X167907144Y-123071429D02*
X168021429Y-123071429D01*
X168078572Y-123042857D01*
X168107144Y-123014286D01*
X168164286Y-122928571D01*
X168192858Y-122814286D01*
X168192858Y-122585714D01*
X168164286Y-122528571D01*
X168135715Y-122500000D01*
X168078572Y-122471429D01*
X167964286Y-122471429D01*
X167907144Y-122500000D01*
X167878572Y-122528571D01*
X167850001Y-122585714D01*
X167850001Y-122728571D01*
X167878572Y-122785714D01*
X167907144Y-122814286D01*
X167964286Y-122842857D01*
X168078572Y-122842857D01*
X168135715Y-122814286D01*
X168164286Y-122785714D01*
X168192858Y-122728571D01*
X161478571Y-131364286D02*
X161450000Y-131392857D01*
X161364286Y-131421429D01*
X161307143Y-131421429D01*
X161221428Y-131392857D01*
X161164286Y-131335714D01*
X161135714Y-131278571D01*
X161107143Y-131164286D01*
X161107143Y-131078571D01*
X161135714Y-130964286D01*
X161164286Y-130907143D01*
X161221428Y-130850000D01*
X161307143Y-130821429D01*
X161364286Y-130821429D01*
X161450000Y-130850000D01*
X161478571Y-130878571D01*
X161707143Y-130878571D02*
X161735714Y-130850000D01*
X161792857Y-130821429D01*
X161935714Y-130821429D01*
X161992857Y-130850000D01*
X162021428Y-130878571D01*
X162050000Y-130935714D01*
X162050000Y-130992857D01*
X162021428Y-131078571D01*
X161678571Y-131421429D01*
X162050000Y-131421429D01*
X162621429Y-131421429D02*
X162278572Y-131421429D01*
X162450000Y-131421429D02*
X162450000Y-130821429D01*
X162392857Y-130907143D01*
X162335715Y-130964286D01*
X162278572Y-130992857D01*
X162992858Y-130821429D02*
X163050001Y-130821429D01*
X163107144Y-130850000D01*
X163135715Y-130878571D01*
X163164286Y-130935714D01*
X163192858Y-131050000D01*
X163192858Y-131192857D01*
X163164286Y-131307143D01*
X163135715Y-131364286D01*
X163107144Y-131392857D01*
X163050001Y-131421429D01*
X162992858Y-131421429D01*
X162935715Y-131392857D01*
X162907144Y-131364286D01*
X162878572Y-131307143D01*
X162850001Y-131192857D01*
X162850001Y-131050000D01*
X162878572Y-130935714D01*
X162907144Y-130878571D01*
X162935715Y-130850000D01*
X162992858Y-130821429D01*
X161528571Y-115414286D02*
X161500000Y-115442857D01*
X161414286Y-115471429D01*
X161357143Y-115471429D01*
X161271428Y-115442857D01*
X161214286Y-115385714D01*
X161185714Y-115328571D01*
X161157143Y-115214286D01*
X161157143Y-115128571D01*
X161185714Y-115014286D01*
X161214286Y-114957143D01*
X161271428Y-114900000D01*
X161357143Y-114871429D01*
X161414286Y-114871429D01*
X161500000Y-114900000D01*
X161528571Y-114928571D01*
X161757143Y-114928571D02*
X161785714Y-114900000D01*
X161842857Y-114871429D01*
X161985714Y-114871429D01*
X162042857Y-114900000D01*
X162071428Y-114928571D01*
X162100000Y-114985714D01*
X162100000Y-115042857D01*
X162071428Y-115128571D01*
X161728571Y-115471429D01*
X162100000Y-115471429D01*
X162671429Y-115471429D02*
X162328572Y-115471429D01*
X162500000Y-115471429D02*
X162500000Y-114871429D01*
X162442857Y-114957143D01*
X162385715Y-115014286D01*
X162328572Y-115042857D01*
X163242858Y-115471429D02*
X162900001Y-115471429D01*
X163071429Y-115471429D02*
X163071429Y-114871429D01*
X163014286Y-114957143D01*
X162957144Y-115014286D01*
X162900001Y-115042857D01*
X168078571Y-128614286D02*
X168050000Y-128642857D01*
X167964286Y-128671429D01*
X167907143Y-128671429D01*
X167821428Y-128642857D01*
X167764286Y-128585714D01*
X167735714Y-128528571D01*
X167707143Y-128414286D01*
X167707143Y-128328571D01*
X167735714Y-128214286D01*
X167764286Y-128157143D01*
X167821428Y-128100000D01*
X167907143Y-128071429D01*
X167964286Y-128071429D01*
X168050000Y-128100000D01*
X168078571Y-128128571D01*
X168307143Y-128128571D02*
X168335714Y-128100000D01*
X168392857Y-128071429D01*
X168535714Y-128071429D01*
X168592857Y-128100000D01*
X168621428Y-128128571D01*
X168650000Y-128185714D01*
X168650000Y-128242857D01*
X168621428Y-128328571D01*
X168278571Y-128671429D01*
X168650000Y-128671429D01*
X169221429Y-128671429D02*
X168878572Y-128671429D01*
X169050000Y-128671429D02*
X169050000Y-128071429D01*
X168992857Y-128157143D01*
X168935715Y-128214286D01*
X168878572Y-128242857D01*
X169450001Y-128128571D02*
X169478572Y-128100000D01*
X169535715Y-128071429D01*
X169678572Y-128071429D01*
X169735715Y-128100000D01*
X169764286Y-128128571D01*
X169792858Y-128185714D01*
X169792858Y-128242857D01*
X169764286Y-128328571D01*
X169421429Y-128671429D01*
X169792858Y-128671429D01*
X168478571Y-110314286D02*
X168450000Y-110342857D01*
X168364286Y-110371429D01*
X168307143Y-110371429D01*
X168221428Y-110342857D01*
X168164286Y-110285714D01*
X168135714Y-110228571D01*
X168107143Y-110114286D01*
X168107143Y-110028571D01*
X168135714Y-109914286D01*
X168164286Y-109857143D01*
X168221428Y-109800000D01*
X168307143Y-109771429D01*
X168364286Y-109771429D01*
X168450000Y-109800000D01*
X168478571Y-109828571D01*
X168707143Y-109828571D02*
X168735714Y-109800000D01*
X168792857Y-109771429D01*
X168935714Y-109771429D01*
X168992857Y-109800000D01*
X169021428Y-109828571D01*
X169050000Y-109885714D01*
X169050000Y-109942857D01*
X169021428Y-110028571D01*
X168678571Y-110371429D01*
X169050000Y-110371429D01*
X169621429Y-110371429D02*
X169278572Y-110371429D01*
X169450000Y-110371429D02*
X169450000Y-109771429D01*
X169392857Y-109857143D01*
X169335715Y-109914286D01*
X169278572Y-109942857D01*
X169821429Y-109771429D02*
X170192858Y-109771429D01*
X169992858Y-110000000D01*
X170078572Y-110000000D01*
X170135715Y-110028571D01*
X170164286Y-110057143D01*
X170192858Y-110114286D01*
X170192858Y-110257143D01*
X170164286Y-110314286D01*
X170135715Y-110342857D01*
X170078572Y-110371429D01*
X169907144Y-110371429D01*
X169850001Y-110342857D01*
X169821429Y-110314286D01*
X135014286Y-122071429D02*
X135042857Y-122100000D01*
X135071429Y-122185714D01*
X135071429Y-122242857D01*
X135042857Y-122328572D01*
X134985714Y-122385714D01*
X134928571Y-122414286D01*
X134814286Y-122442857D01*
X134728571Y-122442857D01*
X134614286Y-122414286D01*
X134557143Y-122385714D01*
X134500000Y-122328572D01*
X134471429Y-122242857D01*
X134471429Y-122185714D01*
X134500000Y-122100000D01*
X134528571Y-122071429D01*
X134528571Y-121842857D02*
X134500000Y-121814286D01*
X134471429Y-121757143D01*
X134471429Y-121614286D01*
X134500000Y-121557143D01*
X134528571Y-121528572D01*
X134585714Y-121500000D01*
X134642857Y-121500000D01*
X134728571Y-121528572D01*
X135071429Y-121871429D01*
X135071429Y-121500000D01*
X135071429Y-120928571D02*
X135071429Y-121271428D01*
X135071429Y-121100000D02*
X134471429Y-121100000D01*
X134557143Y-121157143D01*
X134614286Y-121214285D01*
X134642857Y-121271428D01*
X134671429Y-120414285D02*
X135071429Y-120414285D01*
X134442857Y-120557142D02*
X134871429Y-120699999D01*
X134871429Y-120328571D01*
X150485714Y-149271429D02*
X150485714Y-148671429D01*
X150714286Y-148671429D01*
X150771428Y-148700000D01*
X150800000Y-148728571D01*
X150828571Y-148785714D01*
X150828571Y-148871429D01*
X150800000Y-148928571D01*
X150771428Y-148957143D01*
X150714286Y-148985714D01*
X150485714Y-148985714D01*
X151400000Y-149271429D02*
X151057143Y-149271429D01*
X151228571Y-149271429D02*
X151228571Y-148671429D01*
X151171428Y-148757143D01*
X151114286Y-148814286D01*
X151057143Y-148842857D01*
X151771429Y-148671429D02*
X151828572Y-148671429D01*
X151885715Y-148700000D01*
X151914286Y-148728571D01*
X151942857Y-148785714D01*
X151971429Y-148900000D01*
X151971429Y-149042857D01*
X151942857Y-149157143D01*
X151914286Y-149214286D01*
X151885715Y-149242857D01*
X151828572Y-149271429D01*
X151771429Y-149271429D01*
X151714286Y-149242857D01*
X151685715Y-149214286D01*
X151657143Y-149157143D01*
X151628572Y-149042857D01*
X151628572Y-148900000D01*
X151657143Y-148785714D01*
X151685715Y-148728571D01*
X151714286Y-148700000D01*
X151771429Y-148671429D01*
X152200001Y-148728571D02*
X152228572Y-148700000D01*
X152285715Y-148671429D01*
X152428572Y-148671429D01*
X152485715Y-148700000D01*
X152514286Y-148728571D01*
X152542858Y-148785714D01*
X152542858Y-148842857D01*
X152514286Y-148928571D01*
X152171429Y-149271429D01*
X152542858Y-149271429D01*
X124471429Y-135014286D02*
X123871429Y-135014286D01*
X123871429Y-134785714D01*
X123900000Y-134728572D01*
X123928571Y-134700000D01*
X123985714Y-134671429D01*
X124071429Y-134671429D01*
X124128571Y-134700000D01*
X124157143Y-134728572D01*
X124185714Y-134785714D01*
X124185714Y-135014286D01*
X124471429Y-134100000D02*
X124471429Y-134442857D01*
X124471429Y-134271429D02*
X123871429Y-134271429D01*
X123957143Y-134328572D01*
X124014286Y-134385714D01*
X124042857Y-134442857D01*
X123871429Y-133728571D02*
X123871429Y-133671428D01*
X123900000Y-133614285D01*
X123928571Y-133585714D01*
X123985714Y-133557143D01*
X124100000Y-133528571D01*
X124242857Y-133528571D01*
X124357143Y-133557143D01*
X124414286Y-133585714D01*
X124442857Y-133614285D01*
X124471429Y-133671428D01*
X124471429Y-133728571D01*
X124442857Y-133785714D01*
X124414286Y-133814285D01*
X124357143Y-133842857D01*
X124242857Y-133871428D01*
X124100000Y-133871428D01*
X123985714Y-133842857D01*
X123928571Y-133814285D01*
X123900000Y-133785714D01*
X123871429Y-133728571D01*
X123871429Y-133328571D02*
X123871429Y-132957142D01*
X124100000Y-133157142D01*
X124100000Y-133071428D01*
X124128571Y-133014285D01*
X124157143Y-132985714D01*
X124214286Y-132957142D01*
X124357143Y-132957142D01*
X124414286Y-132985714D01*
X124442857Y-133014285D01*
X124471429Y-133071428D01*
X124471429Y-133242856D01*
X124442857Y-133299999D01*
X124414286Y-133328571D01*
X128485714Y-149271429D02*
X128485714Y-148671429D01*
X128714286Y-148671429D01*
X128771428Y-148700000D01*
X128800000Y-148728571D01*
X128828571Y-148785714D01*
X128828571Y-148871429D01*
X128800000Y-148928571D01*
X128771428Y-148957143D01*
X128714286Y-148985714D01*
X128485714Y-148985714D01*
X129400000Y-149271429D02*
X129057143Y-149271429D01*
X129228571Y-149271429D02*
X129228571Y-148671429D01*
X129171428Y-148757143D01*
X129114286Y-148814286D01*
X129057143Y-148842857D01*
X129771429Y-148671429D02*
X129828572Y-148671429D01*
X129885715Y-148700000D01*
X129914286Y-148728571D01*
X129942857Y-148785714D01*
X129971429Y-148900000D01*
X129971429Y-149042857D01*
X129942857Y-149157143D01*
X129914286Y-149214286D01*
X129885715Y-149242857D01*
X129828572Y-149271429D01*
X129771429Y-149271429D01*
X129714286Y-149242857D01*
X129685715Y-149214286D01*
X129657143Y-149157143D01*
X129628572Y-149042857D01*
X129628572Y-148900000D01*
X129657143Y-148785714D01*
X129685715Y-148728571D01*
X129714286Y-148700000D01*
X129771429Y-148671429D01*
X130485715Y-148871429D02*
X130485715Y-149271429D01*
X130342858Y-148642857D02*
X130200001Y-149071429D01*
X130571429Y-149071429D01*
X121271429Y-108471429D02*
X120985714Y-108671429D01*
X121271429Y-108814286D02*
X120671429Y-108814286D01*
X120671429Y-108585714D01*
X120700000Y-108528572D01*
X120728571Y-108500000D01*
X120785714Y-108471429D01*
X120871429Y-108471429D01*
X120928571Y-108500000D01*
X120957143Y-108528572D01*
X120985714Y-108585714D01*
X120985714Y-108814286D01*
X121271429Y-107900000D02*
X121271429Y-108242857D01*
X121271429Y-108071429D02*
X120671429Y-108071429D01*
X120757143Y-108128572D01*
X120814286Y-108185714D01*
X120842857Y-108242857D01*
X120671429Y-107528571D02*
X120671429Y-107471428D01*
X120700000Y-107414285D01*
X120728571Y-107385714D01*
X120785714Y-107357143D01*
X120900000Y-107328571D01*
X121042857Y-107328571D01*
X121157143Y-107357143D01*
X121214286Y-107385714D01*
X121242857Y-107414285D01*
X121271429Y-107471428D01*
X121271429Y-107528571D01*
X121242857Y-107585714D01*
X121214286Y-107614285D01*
X121157143Y-107642857D01*
X121042857Y-107671428D01*
X120900000Y-107671428D01*
X120785714Y-107642857D01*
X120728571Y-107614285D01*
X120700000Y-107585714D01*
X120671429Y-107528571D01*
X121271429Y-106757142D02*
X121271429Y-107099999D01*
X121271429Y-106928571D02*
X120671429Y-106928571D01*
X120757143Y-106985714D01*
X120814286Y-107042856D01*
X120842857Y-107099999D01*
X125071429Y-111471429D02*
X124785714Y-111671429D01*
X125071429Y-111814286D02*
X124471429Y-111814286D01*
X124471429Y-111585714D01*
X124500000Y-111528572D01*
X124528571Y-111500000D01*
X124585714Y-111471429D01*
X124671429Y-111471429D01*
X124728571Y-111500000D01*
X124757143Y-111528572D01*
X124785714Y-111585714D01*
X124785714Y-111814286D01*
X125071429Y-110900000D02*
X125071429Y-111242857D01*
X125071429Y-111071429D02*
X124471429Y-111071429D01*
X124557143Y-111128572D01*
X124614286Y-111185714D01*
X124642857Y-111242857D01*
X124471429Y-110528571D02*
X124471429Y-110471428D01*
X124500000Y-110414285D01*
X124528571Y-110385714D01*
X124585714Y-110357143D01*
X124700000Y-110328571D01*
X124842857Y-110328571D01*
X124957143Y-110357143D01*
X125014286Y-110385714D01*
X125042857Y-110414285D01*
X125071429Y-110471428D01*
X125071429Y-110528571D01*
X125042857Y-110585714D01*
X125014286Y-110614285D01*
X124957143Y-110642857D01*
X124842857Y-110671428D01*
X124700000Y-110671428D01*
X124585714Y-110642857D01*
X124528571Y-110614285D01*
X124500000Y-110585714D01*
X124471429Y-110528571D01*
X124528571Y-110099999D02*
X124500000Y-110071428D01*
X124471429Y-110014285D01*
X124471429Y-109871428D01*
X124500000Y-109814285D01*
X124528571Y-109785714D01*
X124585714Y-109757142D01*
X124642857Y-109757142D01*
X124728571Y-109785714D01*
X125071429Y-110128571D01*
X125071429Y-109757142D01*
X138078571Y-119680429D02*
X137878571Y-119394714D01*
X137735714Y-119680429D02*
X137735714Y-119080429D01*
X137964286Y-119080429D01*
X138021428Y-119109000D01*
X138050000Y-119137571D01*
X138078571Y-119194714D01*
X138078571Y-119280429D01*
X138050000Y-119337571D01*
X138021428Y-119366143D01*
X137964286Y-119394714D01*
X137735714Y-119394714D01*
X138307143Y-119137571D02*
X138335714Y-119109000D01*
X138392857Y-119080429D01*
X138535714Y-119080429D01*
X138592857Y-119109000D01*
X138621428Y-119137571D01*
X138650000Y-119194714D01*
X138650000Y-119251857D01*
X138621428Y-119337571D01*
X138278571Y-119680429D01*
X138650000Y-119680429D01*
X139021429Y-119080429D02*
X139078572Y-119080429D01*
X139135715Y-119109000D01*
X139164286Y-119137571D01*
X139192857Y-119194714D01*
X139221429Y-119309000D01*
X139221429Y-119451857D01*
X139192857Y-119566143D01*
X139164286Y-119623286D01*
X139135715Y-119651857D01*
X139078572Y-119680429D01*
X139021429Y-119680429D01*
X138964286Y-119651857D01*
X138935715Y-119623286D01*
X138907143Y-119566143D01*
X138878572Y-119451857D01*
X138878572Y-119309000D01*
X138907143Y-119194714D01*
X138935715Y-119137571D01*
X138964286Y-119109000D01*
X139021429Y-119080429D01*
X139792858Y-119680429D02*
X139450001Y-119680429D01*
X139621429Y-119680429D02*
X139621429Y-119080429D01*
X139564286Y-119166143D01*
X139507144Y-119223286D01*
X139450001Y-119251857D01*
X142578571Y-102862429D02*
X142378571Y-102576714D01*
X142235714Y-102862429D02*
X142235714Y-102262429D01*
X142464286Y-102262429D01*
X142521428Y-102291000D01*
X142550000Y-102319571D01*
X142578571Y-102376714D01*
X142578571Y-102462429D01*
X142550000Y-102519571D01*
X142521428Y-102548143D01*
X142464286Y-102576714D01*
X142235714Y-102576714D01*
X142807143Y-102319571D02*
X142835714Y-102291000D01*
X142892857Y-102262429D01*
X143035714Y-102262429D01*
X143092857Y-102291000D01*
X143121428Y-102319571D01*
X143150000Y-102376714D01*
X143150000Y-102433857D01*
X143121428Y-102519571D01*
X142778571Y-102862429D01*
X143150000Y-102862429D01*
X143521429Y-102262429D02*
X143578572Y-102262429D01*
X143635715Y-102291000D01*
X143664286Y-102319571D01*
X143692857Y-102376714D01*
X143721429Y-102491000D01*
X143721429Y-102633857D01*
X143692857Y-102748143D01*
X143664286Y-102805286D01*
X143635715Y-102833857D01*
X143578572Y-102862429D01*
X143521429Y-102862429D01*
X143464286Y-102833857D01*
X143435715Y-102805286D01*
X143407143Y-102748143D01*
X143378572Y-102633857D01*
X143378572Y-102491000D01*
X143407143Y-102376714D01*
X143435715Y-102319571D01*
X143464286Y-102291000D01*
X143521429Y-102262429D01*
X143950001Y-102319571D02*
X143978572Y-102291000D01*
X144035715Y-102262429D01*
X144178572Y-102262429D01*
X144235715Y-102291000D01*
X144264286Y-102319571D01*
X144292858Y-102376714D01*
X144292858Y-102433857D01*
X144264286Y-102519571D01*
X143921429Y-102862429D01*
X144292858Y-102862429D01*
X146971429Y-118371429D02*
X146685714Y-118571429D01*
X146971429Y-118714286D02*
X146371429Y-118714286D01*
X146371429Y-118485714D01*
X146400000Y-118428572D01*
X146428571Y-118400000D01*
X146485714Y-118371429D01*
X146571429Y-118371429D01*
X146628571Y-118400000D01*
X146657143Y-118428572D01*
X146685714Y-118485714D01*
X146685714Y-118714286D01*
X146428571Y-118142857D02*
X146400000Y-118114286D01*
X146371429Y-118057143D01*
X146371429Y-117914286D01*
X146400000Y-117857143D01*
X146428571Y-117828572D01*
X146485714Y-117800000D01*
X146542857Y-117800000D01*
X146628571Y-117828572D01*
X146971429Y-118171429D01*
X146971429Y-117800000D01*
X146371429Y-117428571D02*
X146371429Y-117371428D01*
X146400000Y-117314285D01*
X146428571Y-117285714D01*
X146485714Y-117257143D01*
X146600000Y-117228571D01*
X146742857Y-117228571D01*
X146857143Y-117257143D01*
X146914286Y-117285714D01*
X146942857Y-117314285D01*
X146971429Y-117371428D01*
X146971429Y-117428571D01*
X146942857Y-117485714D01*
X146914286Y-117514285D01*
X146857143Y-117542857D01*
X146742857Y-117571428D01*
X146600000Y-117571428D01*
X146485714Y-117542857D01*
X146428571Y-117514285D01*
X146400000Y-117485714D01*
X146371429Y-117428571D01*
X146371429Y-117028571D02*
X146371429Y-116657142D01*
X146600000Y-116857142D01*
X146600000Y-116771428D01*
X146628571Y-116714285D01*
X146657143Y-116685714D01*
X146714286Y-116657142D01*
X146857143Y-116657142D01*
X146914286Y-116685714D01*
X146942857Y-116714285D01*
X146971429Y-116771428D01*
X146971429Y-116942856D01*
X146942857Y-116999999D01*
X146914286Y-117028571D01*
X136078571Y-102862429D02*
X135878571Y-102576714D01*
X135735714Y-102862429D02*
X135735714Y-102262429D01*
X135964286Y-102262429D01*
X136021428Y-102291000D01*
X136050000Y-102319571D01*
X136078571Y-102376714D01*
X136078571Y-102462429D01*
X136050000Y-102519571D01*
X136021428Y-102548143D01*
X135964286Y-102576714D01*
X135735714Y-102576714D01*
X136307143Y-102319571D02*
X136335714Y-102291000D01*
X136392857Y-102262429D01*
X136535714Y-102262429D01*
X136592857Y-102291000D01*
X136621428Y-102319571D01*
X136650000Y-102376714D01*
X136650000Y-102433857D01*
X136621428Y-102519571D01*
X136278571Y-102862429D01*
X136650000Y-102862429D01*
X137021429Y-102262429D02*
X137078572Y-102262429D01*
X137135715Y-102291000D01*
X137164286Y-102319571D01*
X137192857Y-102376714D01*
X137221429Y-102491000D01*
X137221429Y-102633857D01*
X137192857Y-102748143D01*
X137164286Y-102805286D01*
X137135715Y-102833857D01*
X137078572Y-102862429D01*
X137021429Y-102862429D01*
X136964286Y-102833857D01*
X136935715Y-102805286D01*
X136907143Y-102748143D01*
X136878572Y-102633857D01*
X136878572Y-102491000D01*
X136907143Y-102376714D01*
X136935715Y-102319571D01*
X136964286Y-102291000D01*
X137021429Y-102262429D01*
X137735715Y-102462429D02*
X137735715Y-102862429D01*
X137592858Y-102233857D02*
X137450001Y-102662429D01*
X137821429Y-102662429D01*
X135171429Y-117171429D02*
X134885714Y-117371429D01*
X135171429Y-117514286D02*
X134571429Y-117514286D01*
X134571429Y-117285714D01*
X134600000Y-117228572D01*
X134628571Y-117200000D01*
X134685714Y-117171429D01*
X134771429Y-117171429D01*
X134828571Y-117200000D01*
X134857143Y-117228572D01*
X134885714Y-117285714D01*
X134885714Y-117514286D01*
X134628571Y-116942857D02*
X134600000Y-116914286D01*
X134571429Y-116857143D01*
X134571429Y-116714286D01*
X134600000Y-116657143D01*
X134628571Y-116628572D01*
X134685714Y-116600000D01*
X134742857Y-116600000D01*
X134828571Y-116628572D01*
X135171429Y-116971429D01*
X135171429Y-116600000D01*
X134571429Y-116228571D02*
X134571429Y-116171428D01*
X134600000Y-116114285D01*
X134628571Y-116085714D01*
X134685714Y-116057143D01*
X134800000Y-116028571D01*
X134942857Y-116028571D01*
X135057143Y-116057143D01*
X135114286Y-116085714D01*
X135142857Y-116114285D01*
X135171429Y-116171428D01*
X135171429Y-116228571D01*
X135142857Y-116285714D01*
X135114286Y-116314285D01*
X135057143Y-116342857D01*
X134942857Y-116371428D01*
X134800000Y-116371428D01*
X134685714Y-116342857D01*
X134628571Y-116314285D01*
X134600000Y-116285714D01*
X134571429Y-116228571D01*
X134571429Y-115485714D02*
X134571429Y-115771428D01*
X134857143Y-115799999D01*
X134828571Y-115771428D01*
X134800000Y-115714285D01*
X134800000Y-115571428D01*
X134828571Y-115514285D01*
X134857143Y-115485714D01*
X134914286Y-115457142D01*
X135057143Y-115457142D01*
X135114286Y-115485714D01*
X135142857Y-115514285D01*
X135171429Y-115571428D01*
X135171429Y-115714285D01*
X135142857Y-115771428D01*
X135114286Y-115799999D01*
X145228571Y-102862429D02*
X145028571Y-102576714D01*
X144885714Y-102862429D02*
X144885714Y-102262429D01*
X145114286Y-102262429D01*
X145171428Y-102291000D01*
X145200000Y-102319571D01*
X145228571Y-102376714D01*
X145228571Y-102462429D01*
X145200000Y-102519571D01*
X145171428Y-102548143D01*
X145114286Y-102576714D01*
X144885714Y-102576714D01*
X145457143Y-102319571D02*
X145485714Y-102291000D01*
X145542857Y-102262429D01*
X145685714Y-102262429D01*
X145742857Y-102291000D01*
X145771428Y-102319571D01*
X145800000Y-102376714D01*
X145800000Y-102433857D01*
X145771428Y-102519571D01*
X145428571Y-102862429D01*
X145800000Y-102862429D01*
X146171429Y-102262429D02*
X146228572Y-102262429D01*
X146285715Y-102291000D01*
X146314286Y-102319571D01*
X146342857Y-102376714D01*
X146371429Y-102491000D01*
X146371429Y-102633857D01*
X146342857Y-102748143D01*
X146314286Y-102805286D01*
X146285715Y-102833857D01*
X146228572Y-102862429D01*
X146171429Y-102862429D01*
X146114286Y-102833857D01*
X146085715Y-102805286D01*
X146057143Y-102748143D01*
X146028572Y-102633857D01*
X146028572Y-102491000D01*
X146057143Y-102376714D01*
X146085715Y-102319571D01*
X146114286Y-102291000D01*
X146171429Y-102262429D01*
X146885715Y-102262429D02*
X146771429Y-102262429D01*
X146714286Y-102291000D01*
X146685715Y-102319571D01*
X146628572Y-102405286D01*
X146600001Y-102519571D01*
X146600001Y-102748143D01*
X146628572Y-102805286D01*
X146657144Y-102833857D01*
X146714286Y-102862429D01*
X146828572Y-102862429D01*
X146885715Y-102833857D01*
X146914286Y-102805286D01*
X146942858Y-102748143D01*
X146942858Y-102605286D01*
X146914286Y-102548143D01*
X146885715Y-102519571D01*
X146828572Y-102491000D01*
X146714286Y-102491000D01*
X146657144Y-102519571D01*
X146628572Y-102548143D01*
X146600001Y-102605286D01*
X171828571Y-141671429D02*
X171628571Y-141385714D01*
X171485714Y-141671429D02*
X171485714Y-141071429D01*
X171714286Y-141071429D01*
X171771428Y-141100000D01*
X171800000Y-141128571D01*
X171828571Y-141185714D01*
X171828571Y-141271429D01*
X171800000Y-141328571D01*
X171771428Y-141357143D01*
X171714286Y-141385714D01*
X171485714Y-141385714D01*
X172057143Y-141128571D02*
X172085714Y-141100000D01*
X172142857Y-141071429D01*
X172285714Y-141071429D01*
X172342857Y-141100000D01*
X172371428Y-141128571D01*
X172400000Y-141185714D01*
X172400000Y-141242857D01*
X172371428Y-141328571D01*
X172028571Y-141671429D01*
X172400000Y-141671429D01*
X172771429Y-141071429D02*
X172828572Y-141071429D01*
X172885715Y-141100000D01*
X172914286Y-141128571D01*
X172942857Y-141185714D01*
X172971429Y-141300000D01*
X172971429Y-141442857D01*
X172942857Y-141557143D01*
X172914286Y-141614286D01*
X172885715Y-141642857D01*
X172828572Y-141671429D01*
X172771429Y-141671429D01*
X172714286Y-141642857D01*
X172685715Y-141614286D01*
X172657143Y-141557143D01*
X172628572Y-141442857D01*
X172628572Y-141300000D01*
X172657143Y-141185714D01*
X172685715Y-141128571D01*
X172714286Y-141100000D01*
X172771429Y-141071429D01*
X173171429Y-141071429D02*
X173571429Y-141071429D01*
X173314286Y-141671429D01*
X172028571Y-127671429D02*
X171828571Y-127385714D01*
X171685714Y-127671429D02*
X171685714Y-127071429D01*
X171914286Y-127071429D01*
X171971428Y-127100000D01*
X172000000Y-127128571D01*
X172028571Y-127185714D01*
X172028571Y-127271429D01*
X172000000Y-127328571D01*
X171971428Y-127357143D01*
X171914286Y-127385714D01*
X171685714Y-127385714D01*
X172257143Y-127128571D02*
X172285714Y-127100000D01*
X172342857Y-127071429D01*
X172485714Y-127071429D01*
X172542857Y-127100000D01*
X172571428Y-127128571D01*
X172600000Y-127185714D01*
X172600000Y-127242857D01*
X172571428Y-127328571D01*
X172228571Y-127671429D01*
X172600000Y-127671429D01*
X172971429Y-127071429D02*
X173028572Y-127071429D01*
X173085715Y-127100000D01*
X173114286Y-127128571D01*
X173142857Y-127185714D01*
X173171429Y-127300000D01*
X173171429Y-127442857D01*
X173142857Y-127557143D01*
X173114286Y-127614286D01*
X173085715Y-127642857D01*
X173028572Y-127671429D01*
X172971429Y-127671429D01*
X172914286Y-127642857D01*
X172885715Y-127614286D01*
X172857143Y-127557143D01*
X172828572Y-127442857D01*
X172828572Y-127300000D01*
X172857143Y-127185714D01*
X172885715Y-127128571D01*
X172914286Y-127100000D01*
X172971429Y-127071429D01*
X173514286Y-127328571D02*
X173457144Y-127300000D01*
X173428572Y-127271429D01*
X173400001Y-127214286D01*
X173400001Y-127185714D01*
X173428572Y-127128571D01*
X173457144Y-127100000D01*
X173514286Y-127071429D01*
X173628572Y-127071429D01*
X173685715Y-127100000D01*
X173714286Y-127128571D01*
X173742858Y-127185714D01*
X173742858Y-127214286D01*
X173714286Y-127271429D01*
X173685715Y-127300000D01*
X173628572Y-127328571D01*
X173514286Y-127328571D01*
X173457144Y-127357143D01*
X173428572Y-127385714D01*
X173400001Y-127442857D01*
X173400001Y-127557143D01*
X173428572Y-127614286D01*
X173457144Y-127642857D01*
X173514286Y-127671429D01*
X173628572Y-127671429D01*
X173685715Y-127642857D01*
X173714286Y-127614286D01*
X173742858Y-127557143D01*
X173742858Y-127442857D01*
X173714286Y-127385714D01*
X173685715Y-127357143D01*
X173628572Y-127328571D01*
X172078571Y-122971429D02*
X171878571Y-122685714D01*
X171735714Y-122971429D02*
X171735714Y-122371429D01*
X171964286Y-122371429D01*
X172021428Y-122400000D01*
X172050000Y-122428571D01*
X172078571Y-122485714D01*
X172078571Y-122571429D01*
X172050000Y-122628571D01*
X172021428Y-122657143D01*
X171964286Y-122685714D01*
X171735714Y-122685714D01*
X172307143Y-122428571D02*
X172335714Y-122400000D01*
X172392857Y-122371429D01*
X172535714Y-122371429D01*
X172592857Y-122400000D01*
X172621428Y-122428571D01*
X172650000Y-122485714D01*
X172650000Y-122542857D01*
X172621428Y-122628571D01*
X172278571Y-122971429D01*
X172650000Y-122971429D01*
X173021429Y-122371429D02*
X173078572Y-122371429D01*
X173135715Y-122400000D01*
X173164286Y-122428571D01*
X173192857Y-122485714D01*
X173221429Y-122600000D01*
X173221429Y-122742857D01*
X173192857Y-122857143D01*
X173164286Y-122914286D01*
X173135715Y-122942857D01*
X173078572Y-122971429D01*
X173021429Y-122971429D01*
X172964286Y-122942857D01*
X172935715Y-122914286D01*
X172907143Y-122857143D01*
X172878572Y-122742857D01*
X172878572Y-122600000D01*
X172907143Y-122485714D01*
X172935715Y-122428571D01*
X172964286Y-122400000D01*
X173021429Y-122371429D01*
X173507144Y-122971429D02*
X173621429Y-122971429D01*
X173678572Y-122942857D01*
X173707144Y-122914286D01*
X173764286Y-122828571D01*
X173792858Y-122714286D01*
X173792858Y-122485714D01*
X173764286Y-122428571D01*
X173735715Y-122400000D01*
X173678572Y-122371429D01*
X173564286Y-122371429D01*
X173507144Y-122400000D01*
X173478572Y-122428571D01*
X173450001Y-122485714D01*
X173450001Y-122628571D01*
X173478572Y-122685714D01*
X173507144Y-122714286D01*
X173564286Y-122742857D01*
X173678572Y-122742857D01*
X173735715Y-122714286D01*
X173764286Y-122685714D01*
X173792858Y-122628571D01*
X171778571Y-108971429D02*
X171578571Y-108685714D01*
X171435714Y-108971429D02*
X171435714Y-108371429D01*
X171664286Y-108371429D01*
X171721428Y-108400000D01*
X171750000Y-108428571D01*
X171778571Y-108485714D01*
X171778571Y-108571429D01*
X171750000Y-108628571D01*
X171721428Y-108657143D01*
X171664286Y-108685714D01*
X171435714Y-108685714D01*
X172007143Y-108428571D02*
X172035714Y-108400000D01*
X172092857Y-108371429D01*
X172235714Y-108371429D01*
X172292857Y-108400000D01*
X172321428Y-108428571D01*
X172350000Y-108485714D01*
X172350000Y-108542857D01*
X172321428Y-108628571D01*
X171978571Y-108971429D01*
X172350000Y-108971429D01*
X172921429Y-108971429D02*
X172578572Y-108971429D01*
X172750000Y-108971429D02*
X172750000Y-108371429D01*
X172692857Y-108457143D01*
X172635715Y-108514286D01*
X172578572Y-108542857D01*
X173292858Y-108371429D02*
X173350001Y-108371429D01*
X173407144Y-108400000D01*
X173435715Y-108428571D01*
X173464286Y-108485714D01*
X173492858Y-108600000D01*
X173492858Y-108742857D01*
X173464286Y-108857143D01*
X173435715Y-108914286D01*
X173407144Y-108942857D01*
X173350001Y-108971429D01*
X173292858Y-108971429D01*
X173235715Y-108942857D01*
X173207144Y-108914286D01*
X173178572Y-108857143D01*
X173150001Y-108742857D01*
X173150001Y-108600000D01*
X173178572Y-108485714D01*
X173207144Y-108428571D01*
X173235715Y-108400000D01*
X173292858Y-108371429D01*
X175478571Y-133271429D02*
X175278571Y-132985714D01*
X175135714Y-133271429D02*
X175135714Y-132671429D01*
X175364286Y-132671429D01*
X175421428Y-132700000D01*
X175450000Y-132728571D01*
X175478571Y-132785714D01*
X175478571Y-132871429D01*
X175450000Y-132928571D01*
X175421428Y-132957143D01*
X175364286Y-132985714D01*
X175135714Y-132985714D01*
X175707143Y-132728571D02*
X175735714Y-132700000D01*
X175792857Y-132671429D01*
X175935714Y-132671429D01*
X175992857Y-132700000D01*
X176021428Y-132728571D01*
X176050000Y-132785714D01*
X176050000Y-132842857D01*
X176021428Y-132928571D01*
X175678571Y-133271429D01*
X176050000Y-133271429D01*
X176621429Y-133271429D02*
X176278572Y-133271429D01*
X176450000Y-133271429D02*
X176450000Y-132671429D01*
X176392857Y-132757143D01*
X176335715Y-132814286D01*
X176278572Y-132842857D01*
X177192858Y-133271429D02*
X176850001Y-133271429D01*
X177021429Y-133271429D02*
X177021429Y-132671429D01*
X176964286Y-132757143D01*
X176907144Y-132814286D01*
X176850001Y-132842857D01*
X175328571Y-114371429D02*
X175128571Y-114085714D01*
X174985714Y-114371429D02*
X174985714Y-113771429D01*
X175214286Y-113771429D01*
X175271428Y-113800000D01*
X175300000Y-113828571D01*
X175328571Y-113885714D01*
X175328571Y-113971429D01*
X175300000Y-114028571D01*
X175271428Y-114057143D01*
X175214286Y-114085714D01*
X174985714Y-114085714D01*
X175557143Y-113828571D02*
X175585714Y-113800000D01*
X175642857Y-113771429D01*
X175785714Y-113771429D01*
X175842857Y-113800000D01*
X175871428Y-113828571D01*
X175900000Y-113885714D01*
X175900000Y-113942857D01*
X175871428Y-114028571D01*
X175528571Y-114371429D01*
X175900000Y-114371429D01*
X176471429Y-114371429D02*
X176128572Y-114371429D01*
X176300000Y-114371429D02*
X176300000Y-113771429D01*
X176242857Y-113857143D01*
X176185715Y-113914286D01*
X176128572Y-113942857D01*
X176700001Y-113828571D02*
X176728572Y-113800000D01*
X176785715Y-113771429D01*
X176928572Y-113771429D01*
X176985715Y-113800000D01*
X177014286Y-113828571D01*
X177042858Y-113885714D01*
X177042858Y-113942857D01*
X177014286Y-114028571D01*
X176671429Y-114371429D01*
X177042858Y-114371429D01*
X161678571Y-139571429D02*
X161478571Y-139285714D01*
X161335714Y-139571429D02*
X161335714Y-138971429D01*
X161564286Y-138971429D01*
X161621428Y-139000000D01*
X161650000Y-139028571D01*
X161678571Y-139085714D01*
X161678571Y-139171429D01*
X161650000Y-139228571D01*
X161621428Y-139257143D01*
X161564286Y-139285714D01*
X161335714Y-139285714D01*
X161907143Y-139028571D02*
X161935714Y-139000000D01*
X161992857Y-138971429D01*
X162135714Y-138971429D01*
X162192857Y-139000000D01*
X162221428Y-139028571D01*
X162250000Y-139085714D01*
X162250000Y-139142857D01*
X162221428Y-139228571D01*
X161878571Y-139571429D01*
X162250000Y-139571429D01*
X162821429Y-139571429D02*
X162478572Y-139571429D01*
X162650000Y-139571429D02*
X162650000Y-138971429D01*
X162592857Y-139057143D01*
X162535715Y-139114286D01*
X162478572Y-139142857D01*
X163021429Y-138971429D02*
X163392858Y-138971429D01*
X163192858Y-139200000D01*
X163278572Y-139200000D01*
X163335715Y-139228571D01*
X163364286Y-139257143D01*
X163392858Y-139314286D01*
X163392858Y-139457143D01*
X163364286Y-139514286D01*
X163335715Y-139542857D01*
X163278572Y-139571429D01*
X163107144Y-139571429D01*
X163050001Y-139542857D01*
X163021429Y-139514286D01*
X161378571Y-120521429D02*
X161178571Y-120235714D01*
X161035714Y-120521429D02*
X161035714Y-119921429D01*
X161264286Y-119921429D01*
X161321428Y-119950000D01*
X161350000Y-119978571D01*
X161378571Y-120035714D01*
X161378571Y-120121429D01*
X161350000Y-120178571D01*
X161321428Y-120207143D01*
X161264286Y-120235714D01*
X161035714Y-120235714D01*
X161607143Y-119978571D02*
X161635714Y-119950000D01*
X161692857Y-119921429D01*
X161835714Y-119921429D01*
X161892857Y-119950000D01*
X161921428Y-119978571D01*
X161950000Y-120035714D01*
X161950000Y-120092857D01*
X161921428Y-120178571D01*
X161578571Y-120521429D01*
X161950000Y-120521429D01*
X162521429Y-120521429D02*
X162178572Y-120521429D01*
X162350000Y-120521429D02*
X162350000Y-119921429D01*
X162292857Y-120007143D01*
X162235715Y-120064286D01*
X162178572Y-120092857D01*
X163035715Y-120121429D02*
X163035715Y-120521429D01*
X162892858Y-119892857D02*
X162750001Y-120321429D01*
X163121429Y-120321429D01*
X140771428Y-118871429D02*
X140771428Y-119357143D01*
X140800000Y-119414286D01*
X140828571Y-119442857D01*
X140885714Y-119471429D01*
X141000000Y-119471429D01*
X141057142Y-119442857D01*
X141085714Y-119414286D01*
X141114285Y-119357143D01*
X141114285Y-118871429D01*
X141371428Y-118928571D02*
X141399999Y-118900000D01*
X141457142Y-118871429D01*
X141599999Y-118871429D01*
X141657142Y-118900000D01*
X141685713Y-118928571D01*
X141714285Y-118985714D01*
X141714285Y-119042857D01*
X141685713Y-119128571D01*
X141342856Y-119471429D01*
X141714285Y-119471429D01*
X142085714Y-118871429D02*
X142142857Y-118871429D01*
X142200000Y-118900000D01*
X142228571Y-118928571D01*
X142257142Y-118985714D01*
X142285714Y-119100000D01*
X142285714Y-119242857D01*
X142257142Y-119357143D01*
X142228571Y-119414286D01*
X142200000Y-119442857D01*
X142142857Y-119471429D01*
X142085714Y-119471429D01*
X142028571Y-119442857D01*
X142000000Y-119414286D01*
X141971428Y-119357143D01*
X141942857Y-119242857D01*
X141942857Y-119100000D01*
X141971428Y-118985714D01*
X142000000Y-118928571D01*
X142028571Y-118900000D01*
X142085714Y-118871429D01*
X142857143Y-119471429D02*
X142514286Y-119471429D01*
X142685714Y-119471429D02*
X142685714Y-118871429D01*
X142628571Y-118957143D01*
X142571429Y-119014286D01*
X142514286Y-119042857D01*
X138971428Y-102371429D02*
X138971428Y-102857143D01*
X139000000Y-102914286D01*
X139028571Y-102942857D01*
X139085714Y-102971429D01*
X139200000Y-102971429D01*
X139257142Y-102942857D01*
X139285714Y-102914286D01*
X139314285Y-102857143D01*
X139314285Y-102371429D01*
X139571428Y-102428571D02*
X139599999Y-102400000D01*
X139657142Y-102371429D01*
X139799999Y-102371429D01*
X139857142Y-102400000D01*
X139885713Y-102428571D01*
X139914285Y-102485714D01*
X139914285Y-102542857D01*
X139885713Y-102628571D01*
X139542856Y-102971429D01*
X139914285Y-102971429D01*
X140285714Y-102371429D02*
X140342857Y-102371429D01*
X140400000Y-102400000D01*
X140428571Y-102428571D01*
X140457142Y-102485714D01*
X140485714Y-102600000D01*
X140485714Y-102742857D01*
X140457142Y-102857143D01*
X140428571Y-102914286D01*
X140400000Y-102942857D01*
X140342857Y-102971429D01*
X140285714Y-102971429D01*
X140228571Y-102942857D01*
X140200000Y-102914286D01*
X140171428Y-102857143D01*
X140142857Y-102742857D01*
X140142857Y-102600000D01*
X140171428Y-102485714D01*
X140200000Y-102428571D01*
X140228571Y-102400000D01*
X140285714Y-102371429D01*
X140714286Y-102428571D02*
X140742857Y-102400000D01*
X140800000Y-102371429D01*
X140942857Y-102371429D01*
X141000000Y-102400000D01*
X141028571Y-102428571D01*
X141057143Y-102485714D01*
X141057143Y-102542857D01*
X141028571Y-102628571D01*
X140685714Y-102971429D01*
X141057143Y-102971429D01*
X146878429Y-112028572D02*
X147364143Y-112028572D01*
X147421286Y-112000000D01*
X147449857Y-111971429D01*
X147478429Y-111914286D01*
X147478429Y-111800000D01*
X147449857Y-111742858D01*
X147421286Y-111714286D01*
X147364143Y-111685715D01*
X146878429Y-111685715D01*
X146935571Y-111428572D02*
X146907000Y-111400001D01*
X146878429Y-111342858D01*
X146878429Y-111200001D01*
X146907000Y-111142858D01*
X146935571Y-111114287D01*
X146992714Y-111085715D01*
X147049857Y-111085715D01*
X147135571Y-111114287D01*
X147478429Y-111457144D01*
X147478429Y-111085715D01*
X146878429Y-110714286D02*
X146878429Y-110657143D01*
X146907000Y-110600000D01*
X146935571Y-110571429D01*
X146992714Y-110542858D01*
X147107000Y-110514286D01*
X147249857Y-110514286D01*
X147364143Y-110542858D01*
X147421286Y-110571429D01*
X147449857Y-110600000D01*
X147478429Y-110657143D01*
X147478429Y-110714286D01*
X147449857Y-110771429D01*
X147421286Y-110800000D01*
X147364143Y-110828572D01*
X147249857Y-110857143D01*
X147107000Y-110857143D01*
X146992714Y-110828572D01*
X146935571Y-110800000D01*
X146907000Y-110771429D01*
X146878429Y-110714286D01*
X146878429Y-110314286D02*
X146878429Y-109942857D01*
X147107000Y-110142857D01*
X147107000Y-110057143D01*
X147135571Y-110000000D01*
X147164143Y-109971429D01*
X147221286Y-109942857D01*
X147364143Y-109942857D01*
X147421286Y-109971429D01*
X147449857Y-110000000D01*
X147478429Y-110057143D01*
X147478429Y-110228571D01*
X147449857Y-110285714D01*
X147421286Y-110314286D01*
X168271428Y-138770429D02*
X168271428Y-139256143D01*
X168300000Y-139313286D01*
X168328571Y-139341857D01*
X168385714Y-139370429D01*
X168500000Y-139370429D01*
X168557142Y-139341857D01*
X168585714Y-139313286D01*
X168614285Y-139256143D01*
X168614285Y-138770429D01*
X168871428Y-138827571D02*
X168899999Y-138799000D01*
X168957142Y-138770429D01*
X169099999Y-138770429D01*
X169157142Y-138799000D01*
X169185713Y-138827571D01*
X169214285Y-138884714D01*
X169214285Y-138941857D01*
X169185713Y-139027571D01*
X168842856Y-139370429D01*
X169214285Y-139370429D01*
X169585714Y-138770429D02*
X169642857Y-138770429D01*
X169700000Y-138799000D01*
X169728571Y-138827571D01*
X169757142Y-138884714D01*
X169785714Y-138999000D01*
X169785714Y-139141857D01*
X169757142Y-139256143D01*
X169728571Y-139313286D01*
X169700000Y-139341857D01*
X169642857Y-139370429D01*
X169585714Y-139370429D01*
X169528571Y-139341857D01*
X169500000Y-139313286D01*
X169471428Y-139256143D01*
X169442857Y-139141857D01*
X169442857Y-138999000D01*
X169471428Y-138884714D01*
X169500000Y-138827571D01*
X169528571Y-138799000D01*
X169585714Y-138770429D01*
X170300000Y-138970429D02*
X170300000Y-139370429D01*
X170157143Y-138741857D02*
X170014286Y-139170429D01*
X170385714Y-139170429D01*
X168271428Y-119970429D02*
X168271428Y-120456143D01*
X168300000Y-120513286D01*
X168328571Y-120541857D01*
X168385714Y-120570429D01*
X168500000Y-120570429D01*
X168557142Y-120541857D01*
X168585714Y-120513286D01*
X168614285Y-120456143D01*
X168614285Y-119970429D01*
X168871428Y-120027571D02*
X168899999Y-119999000D01*
X168957142Y-119970429D01*
X169099999Y-119970429D01*
X169157142Y-119999000D01*
X169185713Y-120027571D01*
X169214285Y-120084714D01*
X169214285Y-120141857D01*
X169185713Y-120227571D01*
X168842856Y-120570429D01*
X169214285Y-120570429D01*
X169585714Y-119970429D02*
X169642857Y-119970429D01*
X169700000Y-119999000D01*
X169728571Y-120027571D01*
X169757142Y-120084714D01*
X169785714Y-120199000D01*
X169785714Y-120341857D01*
X169757142Y-120456143D01*
X169728571Y-120513286D01*
X169700000Y-120541857D01*
X169642857Y-120570429D01*
X169585714Y-120570429D01*
X169528571Y-120541857D01*
X169500000Y-120513286D01*
X169471428Y-120456143D01*
X169442857Y-120341857D01*
X169442857Y-120199000D01*
X169471428Y-120084714D01*
X169500000Y-120027571D01*
X169528571Y-119999000D01*
X169585714Y-119970429D01*
X170328571Y-119970429D02*
X170042857Y-119970429D01*
X170014286Y-120256143D01*
X170042857Y-120227571D01*
X170100000Y-120199000D01*
X170242857Y-120199000D01*
X170300000Y-120227571D01*
X170328571Y-120256143D01*
X170357143Y-120313286D01*
X170357143Y-120456143D01*
X170328571Y-120513286D01*
X170300000Y-120541857D01*
X170242857Y-120570429D01*
X170100000Y-120570429D01*
X170042857Y-120541857D01*
X170014286Y-120513286D01*
X180635714Y-123771429D02*
X180635714Y-123171429D01*
X180864286Y-123171429D01*
X180921428Y-123200000D01*
X180950000Y-123228571D01*
X180978571Y-123285714D01*
X180978571Y-123371429D01*
X180950000Y-123428571D01*
X180921428Y-123457143D01*
X180864286Y-123485714D01*
X180635714Y-123485714D01*
X181207143Y-123228571D02*
X181235714Y-123200000D01*
X181292857Y-123171429D01*
X181435714Y-123171429D01*
X181492857Y-123200000D01*
X181521428Y-123228571D01*
X181550000Y-123285714D01*
X181550000Y-123342857D01*
X181521428Y-123428571D01*
X181178571Y-123771429D01*
X181550000Y-123771429D01*
X181921429Y-123171429D02*
X181978572Y-123171429D01*
X182035715Y-123200000D01*
X182064286Y-123228571D01*
X182092857Y-123285714D01*
X182121429Y-123400000D01*
X182121429Y-123542857D01*
X182092857Y-123657143D01*
X182064286Y-123714286D01*
X182035715Y-123742857D01*
X181978572Y-123771429D01*
X181921429Y-123771429D01*
X181864286Y-123742857D01*
X181835715Y-123714286D01*
X181807143Y-123657143D01*
X181778572Y-123542857D01*
X181778572Y-123400000D01*
X181807143Y-123285714D01*
X181835715Y-123228571D01*
X181864286Y-123200000D01*
X181921429Y-123171429D01*
X182350001Y-123228571D02*
X182378572Y-123200000D01*
X182435715Y-123171429D01*
X182578572Y-123171429D01*
X182635715Y-123200000D01*
X182664286Y-123228571D01*
X182692858Y-123285714D01*
X182692858Y-123342857D01*
X182664286Y-123428571D01*
X182321429Y-123771429D01*
X182692858Y-123771429D01*
X150771429Y-108014286D02*
X150171429Y-108014286D01*
X150171429Y-107785714D01*
X150200000Y-107728572D01*
X150228571Y-107700000D01*
X150285714Y-107671429D01*
X150371429Y-107671429D01*
X150428571Y-107700000D01*
X150457143Y-107728572D01*
X150485714Y-107785714D01*
X150485714Y-108014286D01*
X150771429Y-107100000D02*
X150771429Y-107442857D01*
X150771429Y-107271429D02*
X150171429Y-107271429D01*
X150257143Y-107328572D01*
X150314286Y-107385714D01*
X150342857Y-107442857D01*
X150171429Y-106728571D02*
X150171429Y-106671428D01*
X150200000Y-106614285D01*
X150228571Y-106585714D01*
X150285714Y-106557143D01*
X150400000Y-106528571D01*
X150542857Y-106528571D01*
X150657143Y-106557143D01*
X150714286Y-106585714D01*
X150742857Y-106614285D01*
X150771429Y-106671428D01*
X150771429Y-106728571D01*
X150742857Y-106785714D01*
X150714286Y-106814285D01*
X150657143Y-106842857D01*
X150542857Y-106871428D01*
X150400000Y-106871428D01*
X150285714Y-106842857D01*
X150228571Y-106814285D01*
X150200000Y-106785714D01*
X150171429Y-106728571D01*
X150771429Y-105957142D02*
X150771429Y-106299999D01*
X150771429Y-106128571D02*
X150171429Y-106128571D01*
X150257143Y-106185714D01*
X150314286Y-106242856D01*
X150342857Y-106299999D01*
X125200000Y-136250286D02*
X125171429Y-136278857D01*
X125085715Y-136307429D01*
X125028572Y-136307429D01*
X124942857Y-136278857D01*
X124885715Y-136221714D01*
X124857143Y-136164571D01*
X124828572Y-136050286D01*
X124828572Y-135964571D01*
X124857143Y-135850286D01*
X124885715Y-135793143D01*
X124942857Y-135736000D01*
X125028572Y-135707429D01*
X125085715Y-135707429D01*
X125171429Y-135736000D01*
X125200000Y-135764571D01*
X125771429Y-136307429D02*
X125428572Y-136307429D01*
X125600000Y-136307429D02*
X125600000Y-135707429D01*
X125542857Y-135793143D01*
X125485715Y-135850286D01*
X125428572Y-135878857D01*
X179071429Y-103642857D02*
X178471429Y-103642857D01*
X178471429Y-103414285D01*
X178500000Y-103357143D01*
X178528571Y-103328571D01*
X178585714Y-103300000D01*
X178671429Y-103300000D01*
X178728571Y-103328571D01*
X178757143Y-103357143D01*
X178785714Y-103414285D01*
X178785714Y-103642857D01*
X179071429Y-102728571D02*
X179071429Y-103071428D01*
X179071429Y-102900000D02*
X178471429Y-102900000D01*
X178557143Y-102957143D01*
X178614286Y-103014285D01*
X178642857Y-103071428D01*
X147138429Y-123957143D02*
X147624143Y-123957143D01*
X147681286Y-123928571D01*
X147709857Y-123900000D01*
X147738429Y-123842857D01*
X147738429Y-123728571D01*
X147709857Y-123671429D01*
X147681286Y-123642857D01*
X147624143Y-123614286D01*
X147138429Y-123614286D01*
X147738429Y-123014286D02*
X147738429Y-123357143D01*
X147738429Y-123185715D02*
X147138429Y-123185715D01*
X147224143Y-123242858D01*
X147281286Y-123300000D01*
X147309857Y-123357143D01*
X146557143Y-146071429D02*
X146557143Y-145471429D01*
X146700000Y-145471429D01*
X146785715Y-145500000D01*
X146842857Y-145557143D01*
X146871429Y-145614286D01*
X146900000Y-145728571D01*
X146900000Y-145814286D01*
X146871429Y-145928571D01*
X146842857Y-145985714D01*
X146785715Y-146042857D01*
X146700000Y-146071429D01*
X146557143Y-146071429D01*
X147471429Y-146071429D02*
X147128572Y-146071429D01*
X147300000Y-146071429D02*
X147300000Y-145471429D01*
X147242857Y-145557143D01*
X147185715Y-145614286D01*
X147128572Y-145642857D01*
X144900000Y-141871429D02*
X144700000Y-141585714D01*
X144557143Y-141871429D02*
X144557143Y-141271429D01*
X144785715Y-141271429D01*
X144842857Y-141300000D01*
X144871429Y-141328571D01*
X144900000Y-141385714D01*
X144900000Y-141471429D01*
X144871429Y-141528571D01*
X144842857Y-141557143D01*
X144785715Y-141585714D01*
X144557143Y-141585714D01*
X145471429Y-141871429D02*
X145128572Y-141871429D01*
X145300000Y-141871429D02*
X145300000Y-141271429D01*
X145242857Y-141357143D01*
X145185715Y-141414286D01*
X145128572Y-141442857D01*
X149100000Y-130912429D02*
X148900000Y-130626714D01*
X148757143Y-130912429D02*
X148757143Y-130312429D01*
X148985715Y-130312429D01*
X149042857Y-130341000D01*
X149071429Y-130369571D01*
X149100000Y-130426714D01*
X149100000Y-130512429D01*
X149071429Y-130569571D01*
X149042857Y-130598143D01*
X148985715Y-130626714D01*
X148757143Y-130626714D01*
X149328572Y-130369571D02*
X149357143Y-130341000D01*
X149414286Y-130312429D01*
X149557143Y-130312429D01*
X149614286Y-130341000D01*
X149642857Y-130369571D01*
X149671429Y-130426714D01*
X149671429Y-130483857D01*
X149642857Y-130569571D01*
X149300000Y-130912429D01*
X149671429Y-130912429D01*
X146700000Y-130912429D02*
X146500000Y-130626714D01*
X146357143Y-130912429D02*
X146357143Y-130312429D01*
X146585715Y-130312429D01*
X146642857Y-130341000D01*
X146671429Y-130369571D01*
X146700000Y-130426714D01*
X146700000Y-130512429D01*
X146671429Y-130569571D01*
X146642857Y-130598143D01*
X146585715Y-130626714D01*
X146357143Y-130626714D01*
X146900000Y-130312429D02*
X147271429Y-130312429D01*
X147071429Y-130541000D01*
X147157143Y-130541000D01*
X147214286Y-130569571D01*
X147242857Y-130598143D01*
X147271429Y-130655286D01*
X147271429Y-130798143D01*
X147242857Y-130855286D01*
X147214286Y-130883857D01*
X147157143Y-130912429D01*
X146985715Y-130912429D01*
X146928572Y-130883857D01*
X146900000Y-130855286D01*
X148100000Y-118562429D02*
X147900000Y-118276714D01*
X147757143Y-118562429D02*
X147757143Y-117962429D01*
X147985715Y-117962429D01*
X148042857Y-117991000D01*
X148071429Y-118019571D01*
X148100000Y-118076714D01*
X148100000Y-118162429D01*
X148071429Y-118219571D01*
X148042857Y-118248143D01*
X147985715Y-118276714D01*
X147757143Y-118276714D01*
X148614286Y-118162429D02*
X148614286Y-118562429D01*
X148471429Y-117933857D02*
X148328572Y-118362429D01*
X148700000Y-118362429D01*
X148100000Y-124712429D02*
X147900000Y-124426714D01*
X147757143Y-124712429D02*
X147757143Y-124112429D01*
X147985715Y-124112429D01*
X148042857Y-124141000D01*
X148071429Y-124169571D01*
X148100000Y-124226714D01*
X148100000Y-124312429D01*
X148071429Y-124369571D01*
X148042857Y-124398143D01*
X147985715Y-124426714D01*
X147757143Y-124426714D01*
X148642857Y-124112429D02*
X148357143Y-124112429D01*
X148328572Y-124398143D01*
X148357143Y-124369571D01*
X148414286Y-124341000D01*
X148557143Y-124341000D01*
X148614286Y-124369571D01*
X148642857Y-124398143D01*
X148671429Y-124455286D01*
X148671429Y-124598143D01*
X148642857Y-124655286D01*
X148614286Y-124683857D01*
X148557143Y-124712429D01*
X148414286Y-124712429D01*
X148357143Y-124683857D01*
X148328572Y-124655286D01*
X132144857Y-127457143D02*
X132173429Y-127371429D01*
X132173429Y-127228572D01*
X132144857Y-127171429D01*
X132116286Y-127142858D01*
X132059143Y-127114286D01*
X132002000Y-127114286D01*
X131944857Y-127142858D01*
X131916286Y-127171429D01*
X131887714Y-127228572D01*
X131859143Y-127342858D01*
X131830571Y-127400000D01*
X131802000Y-127428572D01*
X131744857Y-127457143D01*
X131687714Y-127457143D01*
X131630571Y-127428572D01*
X131602000Y-127400000D01*
X131573429Y-127342858D01*
X131573429Y-127200000D01*
X131602000Y-127114286D01*
X132173429Y-126542857D02*
X132173429Y-126885714D01*
X132173429Y-126714286D02*
X131573429Y-126714286D01*
X131659143Y-126771429D01*
X131716286Y-126828571D01*
X131744857Y-126885714D01*
X128571428Y-105271429D02*
X128571428Y-105757143D01*
X128600000Y-105814286D01*
X128628571Y-105842857D01*
X128685714Y-105871429D01*
X128800000Y-105871429D01*
X128857142Y-105842857D01*
X128885714Y-105814286D01*
X128914285Y-105757143D01*
X128914285Y-105271429D01*
X129514285Y-105871429D02*
X129171428Y-105871429D01*
X129342856Y-105871429D02*
X129342856Y-105271429D01*
X129285713Y-105357143D01*
X129228571Y-105414286D01*
X129171428Y-105442857D01*
X129885714Y-105271429D02*
X129942857Y-105271429D01*
X130000000Y-105300000D01*
X130028571Y-105328571D01*
X130057142Y-105385714D01*
X130085714Y-105500000D01*
X130085714Y-105642857D01*
X130057142Y-105757143D01*
X130028571Y-105814286D01*
X130000000Y-105842857D01*
X129942857Y-105871429D01*
X129885714Y-105871429D01*
X129828571Y-105842857D01*
X129800000Y-105814286D01*
X129771428Y-105757143D01*
X129742857Y-105642857D01*
X129742857Y-105500000D01*
X129771428Y-105385714D01*
X129800000Y-105328571D01*
X129828571Y-105300000D01*
X129885714Y-105271429D01*
X130314286Y-105328571D02*
X130342857Y-105300000D01*
X130400000Y-105271429D01*
X130542857Y-105271429D01*
X130600000Y-105300000D01*
X130628571Y-105328571D01*
X130657143Y-105385714D01*
X130657143Y-105442857D01*
X130628571Y-105528571D01*
X130285714Y-105871429D01*
X130657143Y-105871429D01*
%LPC*%
G36*
X143285623Y-135685267D02*
X143674531Y-136074175D01*
X142613871Y-137134835D01*
X142224963Y-136745927D01*
X143285623Y-135685267D01*
X143285623Y-135685267D01*
G37*
G36*
X142719938Y-135119581D02*
X143108846Y-135508489D01*
X142048186Y-136569149D01*
X141659278Y-136180241D01*
X142719938Y-135119581D01*
X142719938Y-135119581D01*
G37*
G36*
X142154253Y-134553896D02*
X142543161Y-134942804D01*
X141482501Y-136003464D01*
X141093593Y-135614556D01*
X142154253Y-134553896D01*
X142154253Y-134553896D01*
G37*
G36*
X141588567Y-133988210D02*
X141977475Y-134377118D01*
X140916815Y-135437778D01*
X140527907Y-135048870D01*
X141588567Y-133988210D01*
X141588567Y-133988210D01*
G37*
G36*
X141022882Y-133422525D02*
X141411790Y-133811433D01*
X140351130Y-134872093D01*
X139962222Y-134483185D01*
X141022882Y-133422525D01*
X141022882Y-133422525D01*
G37*
G36*
X140457196Y-132856839D02*
X140846104Y-133245747D01*
X139785444Y-134306407D01*
X139396536Y-133917499D01*
X140457196Y-132856839D01*
X140457196Y-132856839D01*
G37*
G36*
X139891511Y-132291154D02*
X140280419Y-132680062D01*
X139219759Y-133740722D01*
X138830851Y-133351814D01*
X139891511Y-132291154D01*
X139891511Y-132291154D01*
G37*
G36*
X139325825Y-131725469D02*
X139714733Y-132114377D01*
X138654073Y-133175037D01*
X138265165Y-132786129D01*
X139325825Y-131725469D01*
X139325825Y-131725469D01*
G37*
G36*
X136674175Y-131725469D02*
X137734835Y-132786129D01*
X137345927Y-133175037D01*
X136285267Y-132114377D01*
X136674175Y-131725469D01*
X136674175Y-131725469D01*
G37*
G36*
X136108489Y-132291154D02*
X137169149Y-133351814D01*
X136780241Y-133740722D01*
X135719581Y-132680062D01*
X136108489Y-132291154D01*
X136108489Y-132291154D01*
G37*
G36*
X135542804Y-132856839D02*
X136603464Y-133917499D01*
X136214556Y-134306407D01*
X135153896Y-133245747D01*
X135542804Y-132856839D01*
X135542804Y-132856839D01*
G37*
G36*
X134977118Y-133422525D02*
X136037778Y-134483185D01*
X135648870Y-134872093D01*
X134588210Y-133811433D01*
X134977118Y-133422525D01*
X134977118Y-133422525D01*
G37*
G36*
X134411433Y-133988210D02*
X135472093Y-135048870D01*
X135083185Y-135437778D01*
X134022525Y-134377118D01*
X134411433Y-133988210D01*
X134411433Y-133988210D01*
G37*
G36*
X133845747Y-134553896D02*
X134906407Y-135614556D01*
X134517499Y-136003464D01*
X133456839Y-134942804D01*
X133845747Y-134553896D01*
X133845747Y-134553896D01*
G37*
G36*
X133280062Y-135119581D02*
X134340722Y-136180241D01*
X133951814Y-136569149D01*
X132891154Y-135508489D01*
X133280062Y-135119581D01*
X133280062Y-135119581D01*
G37*
G36*
X132714377Y-135685267D02*
X133775037Y-136745927D01*
X133386129Y-137134835D01*
X132325469Y-136074175D01*
X132714377Y-135685267D01*
X132714377Y-135685267D01*
G37*
G36*
X133386129Y-137665165D02*
X133775037Y-138054073D01*
X132714377Y-139114733D01*
X132325469Y-138725825D01*
X133386129Y-137665165D01*
X133386129Y-137665165D01*
G37*
G36*
X133951814Y-138230851D02*
X134340722Y-138619759D01*
X133280062Y-139680419D01*
X132891154Y-139291511D01*
X133951814Y-138230851D01*
X133951814Y-138230851D01*
G37*
G36*
X134517499Y-138796536D02*
X134906407Y-139185444D01*
X133845747Y-140246104D01*
X133456839Y-139857196D01*
X134517499Y-138796536D01*
X134517499Y-138796536D01*
G37*
G36*
X135083185Y-139362222D02*
X135472093Y-139751130D01*
X134411433Y-140811790D01*
X134022525Y-140422882D01*
X135083185Y-139362222D01*
X135083185Y-139362222D01*
G37*
G36*
X135648870Y-139927907D02*
X136037778Y-140316815D01*
X134977118Y-141377475D01*
X134588210Y-140988567D01*
X135648870Y-139927907D01*
X135648870Y-139927907D01*
G37*
G36*
X136214556Y-140493593D02*
X136603464Y-140882501D01*
X135542804Y-141943161D01*
X135153896Y-141554253D01*
X136214556Y-140493593D01*
X136214556Y-140493593D01*
G37*
G36*
X136780241Y-141059278D02*
X137169149Y-141448186D01*
X136108489Y-142508846D01*
X135719581Y-142119938D01*
X136780241Y-141059278D01*
X136780241Y-141059278D01*
G37*
G36*
X137345927Y-141624963D02*
X137734835Y-142013871D01*
X136674175Y-143074531D01*
X136285267Y-142685623D01*
X137345927Y-141624963D01*
X137345927Y-141624963D01*
G37*
G36*
X138654073Y-141624963D02*
X139714733Y-142685623D01*
X139325825Y-143074531D01*
X138265165Y-142013871D01*
X138654073Y-141624963D01*
X138654073Y-141624963D01*
G37*
G36*
X139219759Y-141059278D02*
X140280419Y-142119938D01*
X139891511Y-142508846D01*
X138830851Y-141448186D01*
X139219759Y-141059278D01*
X139219759Y-141059278D01*
G37*
G36*
X139785444Y-140493593D02*
X140846104Y-141554253D01*
X140457196Y-141943161D01*
X139396536Y-140882501D01*
X139785444Y-140493593D01*
X139785444Y-140493593D01*
G37*
G36*
X140351130Y-139927907D02*
X141411790Y-140988567D01*
X141022882Y-141377475D01*
X139962222Y-140316815D01*
X140351130Y-139927907D01*
X140351130Y-139927907D01*
G37*
G36*
X140916815Y-139362222D02*
X141977475Y-140422882D01*
X141588567Y-140811790D01*
X140527907Y-139751130D01*
X140916815Y-139362222D01*
X140916815Y-139362222D01*
G37*
G36*
X141482501Y-138796536D02*
X142543161Y-139857196D01*
X142154253Y-140246104D01*
X141093593Y-139185444D01*
X141482501Y-138796536D01*
X141482501Y-138796536D01*
G37*
G36*
X142048186Y-138230851D02*
X143108846Y-139291511D01*
X142719938Y-139680419D01*
X141659278Y-138619759D01*
X142048186Y-138230851D01*
X142048186Y-138230851D01*
G37*
G36*
X142613871Y-137665165D02*
X143674531Y-138725825D01*
X143285623Y-139114733D01*
X142224963Y-138054073D01*
X142613871Y-137665165D01*
X142613871Y-137665165D01*
G37*
D16*
X182000000Y-139000000D03*
X182000000Y-137000000D03*
X182000000Y-135000000D03*
X182000000Y-133000000D03*
X182000000Y-131000000D03*
X182000000Y-129000000D03*
D17*
X142250000Y-131600000D03*
X144150000Y-131600000D03*
D18*
X131400000Y-141450000D03*
X131400000Y-143350000D03*
X147000000Y-136450000D03*
X147000000Y-138350000D03*
D17*
X126711457Y-103894165D03*
X124811457Y-103894165D03*
X127411457Y-110594165D03*
X129311457Y-110594165D03*
X128611457Y-103894165D03*
X130511457Y-103894165D03*
D18*
X136000000Y-108050000D03*
X136000000Y-109950000D03*
D19*
X157000000Y-137300000D03*
X157000000Y-132100000D03*
X157100000Y-118700000D03*
X157100000Y-113500000D03*
D17*
X166750000Y-126700000D03*
X164850000Y-126700000D03*
X167150000Y-107800000D03*
X165250000Y-107800000D03*
X167250000Y-139900000D03*
X165350000Y-139900000D03*
X163850000Y-113700000D03*
X161950000Y-113700000D03*
X163750000Y-135500000D03*
X161850000Y-135500000D03*
X167250000Y-121200000D03*
X165350000Y-121200000D03*
X163750000Y-132600000D03*
X161850000Y-132600000D03*
X163850000Y-116600000D03*
X161950000Y-116600000D03*
X166750000Y-128900000D03*
X164850000Y-128900000D03*
X167150000Y-110100000D03*
X165250000Y-110100000D03*
D18*
X136369145Y-120531052D03*
X136369145Y-122431052D03*
D20*
X164160000Y-146900000D03*
D21*
X161620000Y-146900000D03*
X159080000Y-146900000D03*
X156540000Y-146900000D03*
X154000000Y-146900000D03*
X151460000Y-146900000D03*
D22*
X120270000Y-129080000D03*
D23*
X117730000Y-129080000D03*
X120270000Y-126540000D03*
X117730000Y-126540000D03*
X120270000Y-124000000D03*
X117730000Y-124000000D03*
X120270000Y-121460000D03*
X117730000Y-121460000D03*
X120270000Y-118920000D03*
X117730000Y-118920000D03*
D20*
X142120000Y-147000000D03*
D21*
X139580000Y-147000000D03*
X137040000Y-147000000D03*
X134500000Y-147000000D03*
X131960000Y-147000000D03*
X129420000Y-147000000D03*
D18*
X122461457Y-106944165D03*
X122461457Y-108844165D03*
X124861457Y-106944165D03*
X124861457Y-108844165D03*
X138750000Y-116300000D03*
X138750000Y-118200000D03*
X143250000Y-105700000D03*
X143250000Y-103800000D03*
X145250000Y-118200000D03*
X145250000Y-116300000D03*
X136750000Y-105700000D03*
X136750000Y-103800000D03*
X136500000Y-116300000D03*
X136500000Y-118200000D03*
X145500000Y-105700000D03*
X145500000Y-103800000D03*
D17*
X173950000Y-139900000D03*
X172050000Y-139900000D03*
X172050000Y-128900000D03*
X173950000Y-128900000D03*
X174050000Y-121100000D03*
X172150000Y-121100000D03*
X171850000Y-110100000D03*
X173750000Y-110100000D03*
X176850000Y-134400000D03*
X174950000Y-134400000D03*
X176850000Y-115600000D03*
X174950000Y-115600000D03*
X163750000Y-137700000D03*
X161850000Y-137700000D03*
X163850000Y-118800000D03*
X161950000Y-118800000D03*
D24*
X140950000Y-116300000D03*
X140950000Y-118200000D03*
X143050000Y-117250000D03*
X141050000Y-105700000D03*
X141050000Y-103800000D03*
X138950000Y-104750000D03*
D25*
X138190000Y-113700000D03*
X139460000Y-113700000D03*
X140730000Y-113700000D03*
X142000000Y-113700000D03*
X143270000Y-113700000D03*
X144540000Y-113700000D03*
X145810000Y-113700000D03*
X145810000Y-108300000D03*
X144540000Y-108300000D03*
X143270000Y-108300000D03*
X142000000Y-108300000D03*
X140730000Y-108300000D03*
X139460000Y-108300000D03*
X138190000Y-108300000D03*
D26*
X165850000Y-130950000D03*
D27*
X165850000Y-132000000D03*
X165850000Y-132800000D03*
X165850000Y-133600000D03*
X165850000Y-134400000D03*
X165850000Y-135200000D03*
X165850000Y-136000000D03*
X165850000Y-136800000D03*
D26*
X165850000Y-137850000D03*
D28*
X166900000Y-137850000D03*
X167700000Y-137850000D03*
X168500000Y-137850000D03*
X169300000Y-137850000D03*
X170100000Y-137850000D03*
X170900000Y-137850000D03*
X171700000Y-137850000D03*
D26*
X172750000Y-137850000D03*
D27*
X172750000Y-136800000D03*
X172750000Y-136000000D03*
X172750000Y-135200000D03*
X172750000Y-134400000D03*
X172750000Y-133600000D03*
X172750000Y-132800000D03*
X172750000Y-132000000D03*
D26*
X172750000Y-130950000D03*
D28*
X171700000Y-130950000D03*
X170900000Y-130950000D03*
X170100000Y-130950000D03*
X169300000Y-130950000D03*
X168500000Y-130950000D03*
X167700000Y-130950000D03*
X166900000Y-130950000D03*
D29*
X169300000Y-134400000D03*
D26*
X165850000Y-112150000D03*
D27*
X165850000Y-113200000D03*
X165850000Y-114000000D03*
X165850000Y-114800000D03*
X165850000Y-115600000D03*
X165850000Y-116400000D03*
X165850000Y-117200000D03*
X165850000Y-118000000D03*
D26*
X165850000Y-119050000D03*
D28*
X166900000Y-119050000D03*
X167700000Y-119050000D03*
X168500000Y-119050000D03*
X169300000Y-119050000D03*
X170100000Y-119050000D03*
X170900000Y-119050000D03*
X171700000Y-119050000D03*
D26*
X172750000Y-119050000D03*
D27*
X172750000Y-118000000D03*
X172750000Y-117200000D03*
X172750000Y-116400000D03*
X172750000Y-115600000D03*
X172750000Y-114800000D03*
X172750000Y-114000000D03*
X172750000Y-113200000D03*
D26*
X172750000Y-112150000D03*
D28*
X171700000Y-112150000D03*
X170900000Y-112150000D03*
X170100000Y-112150000D03*
X169300000Y-112150000D03*
X168500000Y-112150000D03*
X167700000Y-112150000D03*
X166900000Y-112150000D03*
D29*
X169300000Y-115600000D03*
D16*
X182000000Y-121000000D03*
X182000000Y-119000000D03*
X182000000Y-117000000D03*
X182000000Y-115000000D03*
X182000000Y-113000000D03*
X182000000Y-111000000D03*
D21*
X154600000Y-108200000D03*
X157600000Y-108200000D03*
D30*
X156100000Y-103880000D03*
D31*
X127900000Y-140100000D03*
X122700000Y-140100000D03*
D20*
X172000000Y-103200000D03*
D21*
X174540000Y-103200000D03*
X177080000Y-103200000D03*
D32*
X117000000Y-146000000D03*
X184000000Y-146000000D03*
X184000000Y-104000000D03*
X117000000Y-104000000D03*
D25*
X138450000Y-126200000D03*
X139720000Y-126200000D03*
X140990000Y-126200000D03*
X142260000Y-126200000D03*
X143530000Y-126200000D03*
X144800000Y-126200000D03*
X146070000Y-126200000D03*
X146070000Y-120800000D03*
X144800000Y-120800000D03*
X143530000Y-120800000D03*
X142260000Y-120800000D03*
X140990000Y-120800000D03*
X139720000Y-120800000D03*
X138450000Y-120800000D03*
D33*
X147400000Y-144500000D03*
X147400000Y-141500000D03*
D18*
X145000000Y-142650000D03*
X145000000Y-144550000D03*
X149200000Y-133750000D03*
X149200000Y-131850000D03*
X146800000Y-133750000D03*
X146800000Y-131850000D03*
X148200000Y-121400000D03*
X148200000Y-119500000D03*
X148200000Y-127550000D03*
X148200000Y-125650000D03*
D34*
X126750000Y-130100000D03*
X126750000Y-123900000D03*
X130450000Y-130100000D03*
X130450000Y-123900000D03*
D35*
X129111457Y-108219165D03*
D36*
X129286457Y-107544165D03*
X129286457Y-107044165D03*
D35*
X129111457Y-106369165D03*
X128611457Y-106369165D03*
X128111457Y-106369165D03*
X127611457Y-106369165D03*
D36*
X127436457Y-107044165D03*
X127436457Y-107544165D03*
D35*
X127611457Y-108219165D03*
X128111457Y-108219165D03*
X128611457Y-108219165D03*
M02*
