G04 #@! TF.FileFunction,Copper,L2,Bot,Signal*
%FSLAX46Y46*%
G04 Gerber Fmt 4.6, Leading zero omitted, Abs format (unit mm)*
G04 Created by KiCad (PCBNEW (2015-11-10 BZR 6307, Git a988d7a)-product) date Thu 12 Nov 2015 09:09:47 PM EST*
%MOMM*%
G01*
G04 APERTURE LIST*
%ADD10C,0.100000*%
%ADD11C,1.300000*%
%ADD12R,1.650000X1.650000*%
%ADD13C,1.650000*%
%ADD14R,1.800000X1.800000*%
%ADD15C,1.800000*%
%ADD16C,3.050000*%
%ADD17C,5.650000*%
%ADD18C,0.685800*%
%ADD19C,0.635000*%
%ADD20C,0.203200*%
%ADD21C,0.254000*%
G04 APERTURE END LIST*
D10*
X113000000Y-150000000D02*
X113000000Y-100000000D01*
X188000000Y-150000000D02*
X113000000Y-150000000D01*
X188000000Y-100000000D02*
X188000000Y-150000000D01*
X113000000Y-100000000D02*
X188000000Y-100000000D01*
D11*
X182000000Y-139000000D03*
X182000000Y-137000000D03*
X182000000Y-135000000D03*
X182000000Y-133000000D03*
X182000000Y-131000000D03*
X182000000Y-129000000D03*
D12*
X164160000Y-146900000D03*
D13*
X161620000Y-146900000D03*
X159080000Y-146900000D03*
X156540000Y-146900000D03*
X154000000Y-146900000D03*
X151460000Y-146900000D03*
D14*
X120270000Y-129080000D03*
D15*
X117730000Y-129080000D03*
X120270000Y-126540000D03*
X117730000Y-126540000D03*
X120270000Y-124000000D03*
X117730000Y-124000000D03*
X120270000Y-121460000D03*
X117730000Y-121460000D03*
X120270000Y-118920000D03*
X117730000Y-118920000D03*
D12*
X142120000Y-147000000D03*
D13*
X139580000Y-147000000D03*
X137040000Y-147000000D03*
X134500000Y-147000000D03*
X131960000Y-147000000D03*
X129420000Y-147000000D03*
D11*
X182000000Y-121000000D03*
X182000000Y-119000000D03*
X182000000Y-117000000D03*
X182000000Y-115000000D03*
X182000000Y-113000000D03*
X182000000Y-111000000D03*
D13*
X154600000Y-108200000D03*
X157600000Y-108200000D03*
D16*
X156100000Y-103880000D03*
D12*
X172000000Y-103200000D03*
D13*
X174540000Y-103200000D03*
X177080000Y-103200000D03*
D17*
X117000000Y-146000000D03*
X184000000Y-146000000D03*
X184000000Y-104000000D03*
X117000000Y-104000000D03*
D18*
X176600000Y-105600000D03*
X176800000Y-110900000D03*
X175800000Y-121200000D03*
X175800000Y-131600000D03*
X175500000Y-140100000D03*
X175600000Y-145800000D03*
X161001937Y-102493070D03*
X153396950Y-104944264D03*
X158613594Y-104839513D03*
X157355812Y-144573337D03*
X145600000Y-112300000D03*
X123600000Y-104800000D03*
X163500000Y-126800000D03*
X164000000Y-121200000D03*
X164000000Y-134100000D03*
X163700000Y-108000000D03*
X143500000Y-119400000D03*
X146100000Y-127700000D03*
X142300000Y-127700000D03*
X137300000Y-125800000D03*
X136400000Y-123800000D03*
X174000000Y-137400000D03*
X174000000Y-136400000D03*
X174020590Y-135462393D03*
X174000000Y-133200000D03*
X174000000Y-132300000D03*
X174600000Y-130200000D03*
X174000000Y-131400000D03*
X174900000Y-110100000D03*
X174300000Y-112500000D03*
X174300000Y-113500000D03*
X173984021Y-114590235D03*
X173941031Y-116522932D03*
X174200000Y-117500000D03*
X174200000Y-118400000D03*
X160700000Y-118800000D03*
X160600000Y-117100000D03*
X162900000Y-112200000D03*
X155600000Y-130600000D03*
X158500000Y-130500000D03*
X156200000Y-129700000D03*
X157000000Y-129100000D03*
X157800000Y-129700000D03*
X160600000Y-132600000D03*
X160714410Y-135900000D03*
X160600000Y-137200000D03*
X163800000Y-140300000D03*
X130600000Y-107300000D03*
X131900000Y-104700000D03*
X136000000Y-111100000D03*
X130500000Y-110600000D03*
X120300000Y-141200000D03*
X119800000Y-140100000D03*
X120000000Y-139000000D03*
X134300000Y-128400000D03*
X143600000Y-140900000D03*
X139600000Y-140200000D03*
X126300000Y-134700000D03*
X126300000Y-131500000D03*
X149800000Y-137800000D03*
X151300000Y-139200000D03*
X149100000Y-138400000D03*
X150600000Y-139900000D03*
X124246109Y-133868405D03*
X131767887Y-144538816D03*
X148400000Y-144900000D03*
X134800000Y-144900000D03*
X131100000Y-135600000D03*
X131100000Y-133900000D03*
X165900000Y-148400000D03*
X127000000Y-148400000D03*
X127529874Y-136717842D03*
X131000000Y-137400000D03*
X128500000Y-129700000D03*
X134300000Y-137000000D03*
X130643847Y-129956153D03*
X136100000Y-136800000D03*
X130008000Y-129092000D03*
X137100000Y-136800000D03*
X128600000Y-128700000D03*
X135200000Y-136900000D03*
X123500000Y-109900000D03*
X128300000Y-109300000D03*
X126200000Y-108700000D03*
X130600000Y-108300000D03*
X148060907Y-119552812D03*
X149378006Y-125100000D03*
X146236619Y-133320618D03*
X144433705Y-135080771D03*
X147570770Y-125124791D03*
X147391761Y-109900000D03*
X145000000Y-132000000D03*
X143176467Y-133823533D03*
X142300000Y-116500000D03*
X143300000Y-115100000D03*
X148060907Y-114458233D03*
X150100000Y-125800000D03*
X146906199Y-133905414D03*
X145076467Y-135723533D03*
X148475498Y-125113505D03*
X144200000Y-106800000D03*
X141300000Y-106800000D03*
X147600000Y-109000000D03*
X145608000Y-132692000D03*
X143805086Y-134452152D03*
X158782647Y-124559602D03*
X161500000Y-127800000D03*
X155500000Y-121900000D03*
X150100000Y-116500000D03*
X159543156Y-123822859D03*
X150100000Y-115500000D03*
X155600000Y-120900000D03*
X162400000Y-127200000D03*
X146700000Y-108100000D03*
X147900000Y-106900000D03*
X160500000Y-105300000D03*
X162300000Y-109500000D03*
X142000000Y-109800000D03*
X147200000Y-106300000D03*
X161200000Y-104600000D03*
X163300000Y-109300000D03*
X157047736Y-124630900D03*
X154900000Y-135100000D03*
X159600000Y-121885590D03*
X161636291Y-139524078D03*
X147284467Y-137015533D03*
X142217105Y-122232604D03*
X137072025Y-128724273D03*
X146090586Y-122255710D03*
X137968087Y-128725402D03*
X139022825Y-134411568D03*
X144800000Y-127800000D03*
X138052103Y-134400661D03*
X141006661Y-127871466D03*
X126300000Y-106700000D03*
X125600000Y-110700000D03*
X125646949Y-111740730D03*
X126269140Y-105623762D03*
X146700000Y-128600000D03*
X155600000Y-127100000D03*
X145547045Y-129493342D03*
X155800000Y-128100000D03*
X149537886Y-108912526D03*
X149200000Y-120600000D03*
X149200000Y-121600000D03*
X150300000Y-109600000D03*
D19*
X176800000Y-110900000D02*
X176800000Y-105800000D01*
X176800000Y-105800000D02*
X176600000Y-105600000D01*
X175800000Y-131600000D02*
X175800000Y-121200000D01*
X175600000Y-145800000D02*
X175600000Y-140200000D01*
X175600000Y-140200000D02*
X175500000Y-140100000D01*
D20*
X158613594Y-104839513D02*
X160960037Y-102493070D01*
X160960037Y-102493070D02*
X161001937Y-102493070D01*
X157600000Y-108200000D02*
X154344264Y-104944264D01*
X154344264Y-104944264D02*
X153396950Y-104944264D01*
X157600000Y-108200000D02*
X157600000Y-105853107D01*
X157600000Y-105853107D02*
X158613594Y-104839513D01*
X157355812Y-145058270D02*
X157355812Y-144573337D01*
X157355812Y-145175812D02*
X157355812Y-145058270D01*
X159080000Y-146900000D02*
X157355812Y-145175812D01*
X151300000Y-139200000D02*
X151231617Y-139200000D01*
X151231617Y-139200000D02*
X149831617Y-137800000D01*
X149831617Y-137800000D02*
X149800000Y-137800000D01*
X150600000Y-139900000D02*
X149100000Y-138400000D01*
X124277704Y-133900000D02*
X124246109Y-133868405D01*
X131100000Y-133900000D02*
X124277704Y-133900000D01*
X134438816Y-144538816D02*
X132252820Y-144538816D01*
X134800000Y-144900000D02*
X134438816Y-144538816D01*
X132252820Y-144538816D02*
X131767887Y-144538816D01*
X148400000Y-144900000D02*
X152000000Y-144900000D01*
X152000000Y-144900000D02*
X154000000Y-146900000D01*
X131100000Y-134384933D02*
X131100000Y-135600000D01*
X131100000Y-133900000D02*
X131100000Y-134384933D01*
D19*
X127000000Y-148400000D02*
X165900000Y-148400000D01*
D20*
X128014807Y-136717842D02*
X127529874Y-136717842D01*
X130317842Y-136717842D02*
X128014807Y-136717842D01*
X131000000Y-137400000D02*
X130317842Y-136717842D01*
X134300000Y-137000000D02*
X134300000Y-135500000D01*
X134300000Y-135500000D02*
X128500000Y-129700000D01*
X130986746Y-130299052D02*
X130643847Y-129956153D01*
X136100000Y-136800000D02*
X136100000Y-135412306D01*
X136100000Y-135412306D02*
X130986746Y-130299052D01*
X137100000Y-136800000D02*
X137100000Y-135496292D01*
X130695708Y-129092000D02*
X130008000Y-129092000D01*
X137100000Y-135496292D02*
X130695708Y-129092000D01*
X128942899Y-129213803D02*
X128942899Y-129042899D01*
X135200000Y-136900000D02*
X135200000Y-135470904D01*
X135200000Y-135470904D02*
X128942899Y-129213803D01*
X128942899Y-129042899D02*
X128600000Y-128700000D01*
X128300000Y-109300000D02*
X127700000Y-109900000D01*
X127700000Y-109900000D02*
X123500000Y-109900000D01*
X130600000Y-108300000D02*
X126600000Y-108300000D01*
X126600000Y-108300000D02*
X126200000Y-108700000D01*
X148060907Y-120037745D02*
X148060907Y-119552812D01*
X148060907Y-123782901D02*
X148060907Y-120037745D01*
X149378006Y-125100000D02*
X148060907Y-123782901D01*
X144433705Y-135080771D02*
X146193858Y-133320618D01*
X146193858Y-133320618D02*
X146236619Y-133320618D01*
X147006777Y-124560798D02*
X147227871Y-124781892D01*
X147006777Y-110284984D02*
X147006777Y-124560798D01*
X147391761Y-109900000D02*
X147006777Y-110284984D01*
X147227871Y-124781892D02*
X147570770Y-125124791D01*
X143176467Y-133823533D02*
X145000000Y-132000000D01*
X143300000Y-115100000D02*
X143300000Y-115500000D01*
X143300000Y-115500000D02*
X142300000Y-116500000D01*
X148708608Y-119280084D02*
X148060907Y-118632383D01*
X148060907Y-118632383D02*
X148060907Y-114458233D01*
X148708608Y-119863709D02*
X148708608Y-119280084D01*
X148531814Y-123295210D02*
X148531814Y-120040503D01*
X148531814Y-120040503D02*
X148708608Y-119863709D01*
X150100000Y-125800000D02*
X150100000Y-124863396D01*
X150100000Y-124863396D02*
X148531814Y-123295210D01*
X145076467Y-135723533D02*
X146894586Y-133905414D01*
X146894586Y-133905414D02*
X146906199Y-133905414D01*
X148055359Y-109455359D02*
X148055359Y-113483757D01*
X147600000Y-109000000D02*
X148055359Y-109455359D01*
X147413187Y-124051194D02*
X148132599Y-124770606D01*
X148055359Y-113483757D02*
X147413187Y-114125929D01*
X147413187Y-114125929D02*
X147413187Y-124051194D01*
X148132599Y-124770606D02*
X148475498Y-125113505D01*
X141300000Y-106800000D02*
X144200000Y-106800000D01*
X143805086Y-134452152D02*
X145565238Y-132692000D01*
X145565238Y-132692000D02*
X145608000Y-132692000D01*
X159125546Y-124902501D02*
X158782647Y-124559602D01*
X161500000Y-127276955D02*
X159125546Y-124902501D01*
X161500000Y-127800000D02*
X161500000Y-127276955D01*
X150100000Y-116500000D02*
X155500000Y-121900000D01*
X159886055Y-124165758D02*
X159543156Y-123822859D01*
X162400000Y-127200000D02*
X162400000Y-126679703D01*
X162400000Y-126679703D02*
X159886055Y-124165758D01*
X155600000Y-120900000D02*
X150200000Y-115500000D01*
X150200000Y-115500000D02*
X150100000Y-115500000D01*
X147900000Y-106900000D02*
X146700000Y-108100000D01*
X162300000Y-109500000D02*
X160500000Y-107700000D01*
X160500000Y-107700000D02*
X160500000Y-105300000D01*
X146857101Y-106642899D02*
X143700000Y-109800000D01*
X143700000Y-109800000D02*
X142000000Y-109800000D01*
X147200000Y-106300000D02*
X146857101Y-106642899D01*
X161400000Y-104900000D02*
X161200000Y-104700000D01*
X161200000Y-104700000D02*
X161200000Y-104600000D01*
X163300000Y-109300000D02*
X161400000Y-107400000D01*
X161400000Y-107400000D02*
X161400000Y-104900000D01*
X159600000Y-121885590D02*
X157047736Y-124437854D01*
X157047736Y-124437854D02*
X157047736Y-124630900D01*
X147284467Y-137015533D02*
X151928314Y-137015533D01*
X151928314Y-137015533D02*
X159127746Y-137015533D01*
X154900000Y-135100000D02*
X152984467Y-137015533D01*
X152984467Y-137015533D02*
X151928314Y-137015533D01*
X161293392Y-139181179D02*
X161636291Y-139524078D01*
X159127746Y-137015533D02*
X161293392Y-139181179D01*
X141874206Y-122575503D02*
X142217105Y-122232604D01*
X137072025Y-127377684D02*
X141874206Y-122575503D01*
X137072025Y-128724273D02*
X137072025Y-127377684D01*
X145605653Y-122255710D02*
X146090586Y-122255710D01*
X144437779Y-122255710D02*
X145605653Y-122255710D01*
X137968087Y-128725402D02*
X144437779Y-122255710D01*
X139365724Y-134068669D02*
X139022825Y-134411568D01*
X144800000Y-128634393D02*
X139365724Y-134068669D01*
X144800000Y-127800000D02*
X144800000Y-128634393D01*
X138395002Y-134057762D02*
X138052103Y-134400661D01*
X141006661Y-131446103D02*
X138395002Y-134057762D01*
X141006661Y-127871466D02*
X141006661Y-131446103D01*
X122852299Y-108347701D02*
X124500000Y-106700000D01*
X124500000Y-106700000D02*
X126300000Y-106700000D01*
X125600000Y-110700000D02*
X123341402Y-110700000D01*
X123341402Y-110700000D02*
X122852299Y-110210897D01*
X122852299Y-110210897D02*
X122852299Y-108347701D01*
X126269140Y-105623762D02*
X124521589Y-105623762D01*
X124521589Y-105623762D02*
X122204854Y-107940497D01*
X122204854Y-107940497D02*
X122204854Y-110427562D01*
X122204854Y-110427562D02*
X123518022Y-111740730D01*
X123518022Y-111740730D02*
X125162016Y-111740730D01*
X125162016Y-111740730D02*
X125646949Y-111740730D01*
X147200000Y-128900000D02*
X146900000Y-128600000D01*
X146900000Y-128600000D02*
X146700000Y-128600000D01*
X153800000Y-128900000D02*
X147200000Y-128900000D01*
X155600000Y-127100000D02*
X153800000Y-128900000D01*
X154406658Y-129493342D02*
X146031978Y-129493342D01*
X155800000Y-128100000D02*
X154406658Y-129493342D01*
X146031978Y-129493342D02*
X145547045Y-129493342D01*
X148461769Y-113600001D02*
X148461769Y-109988643D01*
X148461769Y-109988643D02*
X149537886Y-108912526D01*
X148708608Y-113846840D02*
X148461769Y-113600001D01*
X148467317Y-118367317D02*
X148467317Y-115010421D01*
X148467317Y-115010421D02*
X148708608Y-114769130D01*
X148708608Y-114769130D02*
X148708608Y-113846840D01*
X149200000Y-119100000D02*
X148467317Y-118367317D01*
X149200000Y-120600000D02*
X149200000Y-119100000D01*
X149200000Y-109250412D02*
X149537886Y-108912526D01*
X148868179Y-113431661D02*
X148868179Y-111031821D01*
X148868179Y-111031821D02*
X150300000Y-109600000D01*
X148873727Y-118173727D02*
X148873727Y-115178761D01*
X148873727Y-115178761D02*
X149115018Y-114937470D01*
X149115018Y-114937470D02*
X149115017Y-113678499D01*
X149115017Y-113678499D02*
X148868179Y-113431661D01*
X149200000Y-121600000D02*
X149847701Y-120952299D01*
X149847701Y-120952299D02*
X149847701Y-119147701D01*
X149847701Y-119147701D02*
X148873727Y-118173727D01*
D21*
G36*
X182215058Y-101323592D02*
X181326711Y-102210389D01*
X180845349Y-103369639D01*
X180844254Y-104624855D01*
X181323592Y-105784942D01*
X182210389Y-106673289D01*
X183369639Y-107154651D01*
X184624855Y-107155746D01*
X185784942Y-106676408D01*
X186673289Y-105789611D01*
X186873000Y-105308653D01*
X186873000Y-144690847D01*
X186676408Y-144215058D01*
X185789611Y-143326711D01*
X184630361Y-142845349D01*
X183375145Y-142844254D01*
X182215058Y-143323592D01*
X181326711Y-144210389D01*
X180845349Y-145369639D01*
X180844254Y-146624855D01*
X181323592Y-147784942D01*
X182210389Y-148673289D01*
X182691347Y-148873000D01*
X166378913Y-148873000D01*
X166470294Y-148781778D01*
X166572983Y-148534475D01*
X166573217Y-148266699D01*
X166470959Y-148019217D01*
X166281778Y-147829706D01*
X166034475Y-147727017D01*
X165766699Y-147726783D01*
X165704943Y-147752300D01*
X165316194Y-147752300D01*
X165321669Y-147725000D01*
X165321669Y-146075000D01*
X165297241Y-145949096D01*
X165224550Y-145838438D01*
X165114813Y-145764364D01*
X164985000Y-145738331D01*
X163335000Y-145738331D01*
X163209096Y-145762759D01*
X163098438Y-145835450D01*
X163024364Y-145945187D01*
X162998331Y-146075000D01*
X162998331Y-147725000D01*
X163003628Y-147752300D01*
X162401339Y-147752300D01*
X162598760Y-147555223D01*
X162774999Y-147130792D01*
X162775400Y-146671225D01*
X162599902Y-146246486D01*
X162275223Y-145921240D01*
X161850792Y-145745001D01*
X161391225Y-145744600D01*
X160966486Y-145920098D01*
X160641240Y-146244777D01*
X160521327Y-146533560D01*
X160354563Y-146130956D01*
X160105853Y-146053752D01*
X159259605Y-146900000D01*
X159273748Y-146914143D01*
X159094143Y-147093748D01*
X159080000Y-147079605D01*
X159065858Y-147093748D01*
X158886253Y-146914143D01*
X158900395Y-146900000D01*
X158054147Y-146053752D01*
X157805437Y-146130956D01*
X157650006Y-146561364D01*
X157519902Y-146246486D01*
X157195223Y-145921240D01*
X157081811Y-145874147D01*
X158233752Y-145874147D01*
X159080000Y-146720395D01*
X159926248Y-145874147D01*
X159849044Y-145625437D01*
X159302750Y-145428157D01*
X158722544Y-145454952D01*
X158310956Y-145625437D01*
X158233752Y-145874147D01*
X157081811Y-145874147D01*
X156770792Y-145745001D01*
X156311225Y-145744600D01*
X155886486Y-145920098D01*
X155561240Y-146244777D01*
X155385001Y-146669208D01*
X155384600Y-147128775D01*
X155560098Y-147553514D01*
X155758537Y-147752300D01*
X154781339Y-147752300D01*
X154978760Y-147555223D01*
X155154999Y-147130792D01*
X155155400Y-146671225D01*
X154979902Y-146246486D01*
X154655223Y-145921240D01*
X154230792Y-145745001D01*
X153771225Y-145744600D01*
X153547641Y-145836983D01*
X152305329Y-144594671D01*
X152165243Y-144501069D01*
X152000000Y-144468200D01*
X148920031Y-144468200D01*
X148781778Y-144329706D01*
X148534475Y-144227017D01*
X148266699Y-144226783D01*
X148019217Y-144329041D01*
X147829706Y-144518222D01*
X147727017Y-144765525D01*
X147726783Y-145033301D01*
X147829041Y-145280783D01*
X148018222Y-145470294D01*
X148265525Y-145572983D01*
X148533301Y-145573217D01*
X148780783Y-145470959D01*
X148920185Y-145331800D01*
X151821142Y-145331800D01*
X152936998Y-146447656D01*
X152845001Y-146669208D01*
X152844600Y-147128775D01*
X153020098Y-147553514D01*
X153218537Y-147752300D01*
X152241339Y-147752300D01*
X152438760Y-147555223D01*
X152614999Y-147130792D01*
X152615400Y-146671225D01*
X152439902Y-146246486D01*
X152115223Y-145921240D01*
X151690792Y-145745001D01*
X151231225Y-145744600D01*
X150806486Y-145920098D01*
X150481240Y-146244777D01*
X150305001Y-146669208D01*
X150304600Y-147128775D01*
X150480098Y-147553514D01*
X150678537Y-147752300D01*
X143580000Y-147752300D01*
X143580000Y-147285750D01*
X143421250Y-147127000D01*
X142247000Y-147127000D01*
X142247000Y-147147000D01*
X141993000Y-147147000D01*
X141993000Y-147127000D01*
X141973000Y-147127000D01*
X141973000Y-146873000D01*
X141993000Y-146873000D01*
X141993000Y-145698750D01*
X142247000Y-145698750D01*
X142247000Y-146873000D01*
X143421250Y-146873000D01*
X143580000Y-146714250D01*
X143580000Y-146048690D01*
X143483327Y-145815301D01*
X143304698Y-145636673D01*
X143071309Y-145540000D01*
X142405750Y-145540000D01*
X142247000Y-145698750D01*
X141993000Y-145698750D01*
X141834250Y-145540000D01*
X141168691Y-145540000D01*
X140935302Y-145636673D01*
X140756673Y-145815301D01*
X140660000Y-146048690D01*
X140660000Y-146588742D01*
X140559902Y-146346486D01*
X140235223Y-146021240D01*
X139810792Y-145845001D01*
X139351225Y-145844600D01*
X138926486Y-146020098D01*
X138601240Y-146344777D01*
X138425001Y-146769208D01*
X138424600Y-147228775D01*
X138600098Y-147653514D01*
X138698712Y-147752300D01*
X137921513Y-147752300D01*
X138018760Y-147655223D01*
X138194999Y-147230792D01*
X138195400Y-146771225D01*
X138019902Y-146346486D01*
X137695223Y-146021240D01*
X137270792Y-145845001D01*
X136811225Y-145844600D01*
X136386486Y-146020098D01*
X136061240Y-146344777D01*
X135885001Y-146769208D01*
X135884600Y-147228775D01*
X136060098Y-147653514D01*
X136158712Y-147752300D01*
X135381513Y-147752300D01*
X135478760Y-147655223D01*
X135654999Y-147230792D01*
X135655400Y-146771225D01*
X135479902Y-146346486D01*
X135155223Y-146021240D01*
X134730792Y-145845001D01*
X134271225Y-145844600D01*
X133846486Y-146020098D01*
X133521240Y-146344777D01*
X133345001Y-146769208D01*
X133344600Y-147228775D01*
X133520098Y-147653514D01*
X133618712Y-147752300D01*
X132841513Y-147752300D01*
X132938760Y-147655223D01*
X133114999Y-147230792D01*
X133115400Y-146771225D01*
X132939902Y-146346486D01*
X132615223Y-146021240D01*
X132190792Y-145845001D01*
X131731225Y-145844600D01*
X131306486Y-146020098D01*
X130981240Y-146344777D01*
X130805001Y-146769208D01*
X130804600Y-147228775D01*
X130980098Y-147653514D01*
X131078712Y-147752300D01*
X130301513Y-147752300D01*
X130398760Y-147655223D01*
X130574999Y-147230792D01*
X130575400Y-146771225D01*
X130399902Y-146346486D01*
X130075223Y-146021240D01*
X129650792Y-145845001D01*
X129191225Y-145844600D01*
X128766486Y-146020098D01*
X128441240Y-146344777D01*
X128265001Y-146769208D01*
X128264600Y-147228775D01*
X128440098Y-147653514D01*
X128538712Y-147752300D01*
X127195363Y-147752300D01*
X127134475Y-147727017D01*
X126866699Y-147726783D01*
X126619217Y-147829041D01*
X126429706Y-148018222D01*
X126327017Y-148265525D01*
X126326783Y-148533301D01*
X126429041Y-148780783D01*
X126521097Y-148873000D01*
X118309153Y-148873000D01*
X118784942Y-148676408D01*
X119673289Y-147789611D01*
X120154651Y-146630361D01*
X120155746Y-145375145D01*
X119865261Y-144672117D01*
X131094670Y-144672117D01*
X131196928Y-144919599D01*
X131386109Y-145109110D01*
X131633412Y-145211799D01*
X131901188Y-145212033D01*
X132148670Y-145109775D01*
X132288072Y-144970616D01*
X134126838Y-144970616D01*
X134126783Y-145033301D01*
X134229041Y-145280783D01*
X134418222Y-145470294D01*
X134665525Y-145572983D01*
X134933301Y-145573217D01*
X135180783Y-145470959D01*
X135370294Y-145281778D01*
X135472983Y-145034475D01*
X135473217Y-144766699D01*
X135370959Y-144519217D01*
X135181778Y-144329706D01*
X134934475Y-144227017D01*
X134734200Y-144226842D01*
X134709576Y-144210389D01*
X134604059Y-144139885D01*
X134438816Y-144107016D01*
X132287918Y-144107016D01*
X132149665Y-143968522D01*
X131902362Y-143865833D01*
X131634586Y-143865599D01*
X131387104Y-143967857D01*
X131197593Y-144157038D01*
X131094904Y-144404341D01*
X131094670Y-144672117D01*
X119865261Y-144672117D01*
X119676408Y-144215058D01*
X118789611Y-143326711D01*
X117630361Y-142845349D01*
X116375145Y-142844254D01*
X115215058Y-143323592D01*
X114326711Y-144210389D01*
X114127000Y-144691347D01*
X114127000Y-136851143D01*
X126856657Y-136851143D01*
X126958915Y-137098625D01*
X127148096Y-137288136D01*
X127395399Y-137390825D01*
X127663175Y-137391059D01*
X127910657Y-137288801D01*
X128050059Y-137149642D01*
X130138984Y-137149642D01*
X130326954Y-137337612D01*
X130326783Y-137533301D01*
X130429041Y-137780783D01*
X130618222Y-137970294D01*
X130865525Y-138072983D01*
X131133301Y-138073217D01*
X131380783Y-137970959D01*
X131570294Y-137781778D01*
X131672983Y-137534475D01*
X131673217Y-137266699D01*
X131570959Y-137019217D01*
X131381778Y-136829706D01*
X131134475Y-136727017D01*
X130937503Y-136726845D01*
X130623171Y-136412513D01*
X130518463Y-136342550D01*
X130483085Y-136318911D01*
X130317842Y-136286042D01*
X128049905Y-136286042D01*
X127911652Y-136147548D01*
X127664349Y-136044859D01*
X127396573Y-136044625D01*
X127149091Y-136146883D01*
X126959580Y-136336064D01*
X126856891Y-136583367D01*
X126856657Y-136851143D01*
X114127000Y-136851143D01*
X114127000Y-134001706D01*
X123572892Y-134001706D01*
X123675150Y-134249188D01*
X123864331Y-134438699D01*
X124111634Y-134541388D01*
X124379410Y-134541622D01*
X124626892Y-134439364D01*
X124734644Y-134331800D01*
X130579969Y-134331800D01*
X130668200Y-134420185D01*
X130668200Y-135079969D01*
X130529706Y-135218222D01*
X130427017Y-135465525D01*
X130426783Y-135733301D01*
X130529041Y-135980783D01*
X130718222Y-136170294D01*
X130965525Y-136272983D01*
X131233301Y-136273217D01*
X131480783Y-136170959D01*
X131670294Y-135981778D01*
X131772983Y-135734475D01*
X131773217Y-135466699D01*
X131670959Y-135219217D01*
X131531800Y-135079815D01*
X131531800Y-134420031D01*
X131670294Y-134281778D01*
X131772983Y-134034475D01*
X131773217Y-133766699D01*
X131670959Y-133519217D01*
X131481778Y-133329706D01*
X131234475Y-133227017D01*
X130966699Y-133226783D01*
X130719217Y-133329041D01*
X130579815Y-133468200D01*
X124797680Y-133468200D01*
X124627887Y-133298111D01*
X124380584Y-133195422D01*
X124112808Y-133195188D01*
X123865326Y-133297446D01*
X123675815Y-133486627D01*
X123573126Y-133733930D01*
X123572892Y-134001706D01*
X114127000Y-134001706D01*
X114127000Y-129323628D01*
X116499587Y-129323628D01*
X116686479Y-129775942D01*
X117032238Y-130122305D01*
X117484225Y-130309986D01*
X117973628Y-130310413D01*
X118425942Y-130123521D01*
X118772305Y-129777762D01*
X118959986Y-129325775D01*
X118960413Y-128836372D01*
X118773521Y-128384058D01*
X118569819Y-128180000D01*
X119033331Y-128180000D01*
X119033331Y-129980000D01*
X119057759Y-130105904D01*
X119130450Y-130216562D01*
X119240187Y-130290636D01*
X119370000Y-130316669D01*
X121170000Y-130316669D01*
X121295904Y-130292241D01*
X121406562Y-130219550D01*
X121480636Y-130109813D01*
X121506669Y-129980000D01*
X121506669Y-129833301D01*
X127826783Y-129833301D01*
X127929041Y-130080783D01*
X128118222Y-130270294D01*
X128365525Y-130372983D01*
X128562497Y-130373155D01*
X133868200Y-135678857D01*
X133868200Y-136479969D01*
X133729706Y-136618222D01*
X133627017Y-136865525D01*
X133626783Y-137133301D01*
X133729041Y-137380783D01*
X133918222Y-137570294D01*
X134165525Y-137672983D01*
X134433301Y-137673217D01*
X134680783Y-137570959D01*
X134799955Y-137451995D01*
X134818222Y-137470294D01*
X135065525Y-137572983D01*
X135333301Y-137573217D01*
X135580783Y-137470959D01*
X135699955Y-137351995D01*
X135718222Y-137370294D01*
X135965525Y-137472983D01*
X136233301Y-137473217D01*
X136480783Y-137370959D01*
X136600042Y-137251908D01*
X136718222Y-137370294D01*
X136965525Y-137472983D01*
X137233301Y-137473217D01*
X137480783Y-137370959D01*
X137670294Y-137181778D01*
X137683973Y-137148834D01*
X146611250Y-137148834D01*
X146713508Y-137396316D01*
X146902689Y-137585827D01*
X147149992Y-137688516D01*
X147417768Y-137688750D01*
X147665250Y-137586492D01*
X147804652Y-137447333D01*
X149217618Y-137447333D01*
X149127017Y-137665525D01*
X149126963Y-137726923D01*
X148966699Y-137726783D01*
X148719217Y-137829041D01*
X148529706Y-138018222D01*
X148427017Y-138265525D01*
X148426783Y-138533301D01*
X148529041Y-138780783D01*
X148718222Y-138970294D01*
X148965525Y-139072983D01*
X149162497Y-139073155D01*
X149926954Y-139837611D01*
X149926783Y-140033301D01*
X150029041Y-140280783D01*
X150218222Y-140470294D01*
X150465525Y-140572983D01*
X150733301Y-140573217D01*
X150980783Y-140470959D01*
X151170294Y-140281778D01*
X151190423Y-140233301D01*
X174826783Y-140233301D01*
X174929041Y-140480783D01*
X174952300Y-140504083D01*
X174952300Y-145604637D01*
X174927017Y-145665525D01*
X174926783Y-145933301D01*
X175029041Y-146180783D01*
X175218222Y-146370294D01*
X175465525Y-146472983D01*
X175733301Y-146473217D01*
X175980783Y-146370959D01*
X176170294Y-146181778D01*
X176272983Y-145934475D01*
X176273217Y-145666699D01*
X176247700Y-145604943D01*
X176247700Y-140200000D01*
X176201060Y-139965525D01*
X176198397Y-139952135D01*
X176116645Y-139829786D01*
X176070959Y-139719217D01*
X175881778Y-139529706D01*
X175634475Y-139427017D01*
X175366699Y-139426783D01*
X175119217Y-139529041D01*
X174929706Y-139718222D01*
X174827017Y-139965525D01*
X174826783Y-140233301D01*
X151190423Y-140233301D01*
X151272983Y-140034475D01*
X151273124Y-139873077D01*
X151433301Y-139873217D01*
X151680783Y-139770959D01*
X151870294Y-139581778D01*
X151972983Y-139334475D01*
X151973217Y-139066699D01*
X151870959Y-138819217D01*
X151681778Y-138629706D01*
X151434475Y-138527017D01*
X151169060Y-138526785D01*
X150473074Y-137830799D01*
X150473217Y-137666699D01*
X150382576Y-137447333D01*
X158948888Y-137447333D01*
X160963245Y-139461690D01*
X160963074Y-139657379D01*
X161065332Y-139904861D01*
X161254513Y-140094372D01*
X161501816Y-140197061D01*
X161769592Y-140197295D01*
X162017074Y-140095037D01*
X162206585Y-139905856D01*
X162309274Y-139658553D01*
X162309508Y-139390777D01*
X162207250Y-139143295D01*
X162018069Y-138953784D01*
X161770766Y-138851095D01*
X161573794Y-138850923D01*
X159927050Y-137204179D01*
X180968822Y-137204179D01*
X181125451Y-137583251D01*
X181415223Y-137873529D01*
X181720081Y-138000117D01*
X181416749Y-138125451D01*
X181126471Y-138415223D01*
X180969180Y-138794022D01*
X180968822Y-139204179D01*
X181125451Y-139583251D01*
X181415223Y-139873529D01*
X181794022Y-140030820D01*
X182204179Y-140031178D01*
X182583251Y-139874549D01*
X182873529Y-139584777D01*
X183030820Y-139205978D01*
X183031178Y-138795821D01*
X182874549Y-138416749D01*
X182584777Y-138126471D01*
X182279919Y-137999883D01*
X182583251Y-137874549D01*
X182873529Y-137584777D01*
X183030820Y-137205978D01*
X183031178Y-136795821D01*
X182874549Y-136416749D01*
X182584777Y-136126471D01*
X182213570Y-135972333D01*
X182554513Y-135831457D01*
X182830488Y-135555964D01*
X182980029Y-135195829D01*
X182980370Y-134805882D01*
X182831457Y-134445487D01*
X182559309Y-134172863D01*
X182663729Y-134129611D01*
X182719410Y-133899016D01*
X182000000Y-133179605D01*
X181280590Y-133899016D01*
X181336271Y-134129611D01*
X181446704Y-134168040D01*
X181445487Y-134168543D01*
X181169512Y-134444036D01*
X181019971Y-134804171D01*
X181019630Y-135194118D01*
X181168543Y-135554513D01*
X181444036Y-135830488D01*
X181786478Y-135972682D01*
X181416749Y-136125451D01*
X181126471Y-136415223D01*
X180969180Y-136794022D01*
X180968822Y-137204179D01*
X159927050Y-137204179D01*
X159433075Y-136710204D01*
X159292989Y-136616602D01*
X159127746Y-136583733D01*
X154026925Y-136583733D01*
X154837612Y-135773046D01*
X155033301Y-135773217D01*
X155280783Y-135670959D01*
X155470294Y-135481778D01*
X155572983Y-135234475D01*
X155573217Y-134966699D01*
X155470959Y-134719217D01*
X155281778Y-134529706D01*
X155034475Y-134427017D01*
X154766699Y-134426783D01*
X154519217Y-134529041D01*
X154329706Y-134718222D01*
X154227017Y-134965525D01*
X154226845Y-135162497D01*
X152805609Y-136583733D01*
X147804498Y-136583733D01*
X147666245Y-136445239D01*
X147418942Y-136342550D01*
X147151166Y-136342316D01*
X146903684Y-136444574D01*
X146714173Y-136633755D01*
X146611484Y-136881058D01*
X146611250Y-137148834D01*
X137683973Y-137148834D01*
X137772983Y-136934475D01*
X137773217Y-136666699D01*
X137670959Y-136419217D01*
X137531800Y-136279815D01*
X137531800Y-135496297D01*
X137531801Y-135496292D01*
X137498932Y-135331050D01*
X137442814Y-135247064D01*
X137405329Y-135190963D01*
X137405326Y-135190961D01*
X136748328Y-134533962D01*
X137378886Y-134533962D01*
X137481144Y-134781444D01*
X137670325Y-134970955D01*
X137917628Y-135073644D01*
X138185404Y-135073878D01*
X138432886Y-134971620D01*
X138532027Y-134872652D01*
X138641047Y-134981862D01*
X138888350Y-135084551D01*
X139156126Y-135084785D01*
X139403608Y-134982527D01*
X139593119Y-134793346D01*
X139695808Y-134546043D01*
X139695980Y-134349071D01*
X140088217Y-133956834D01*
X142503250Y-133956834D01*
X142605508Y-134204316D01*
X142794689Y-134393827D01*
X143041992Y-134496516D01*
X143131947Y-134496595D01*
X143131869Y-134585453D01*
X143234127Y-134832935D01*
X143423308Y-135022446D01*
X143670611Y-135125135D01*
X143760566Y-135125214D01*
X143760488Y-135214072D01*
X143862746Y-135461554D01*
X144051927Y-135651065D01*
X144299230Y-135753754D01*
X144403340Y-135753845D01*
X144403250Y-135856834D01*
X144505508Y-136104316D01*
X144694689Y-136293827D01*
X144941992Y-136396516D01*
X145209768Y-136396750D01*
X145457250Y-136294492D01*
X145646761Y-136105311D01*
X145749450Y-135858008D01*
X145749622Y-135661036D01*
X146832207Y-134578450D01*
X147039500Y-134578631D01*
X147286982Y-134476373D01*
X147476493Y-134287192D01*
X147579182Y-134039889D01*
X147579416Y-133772113D01*
X147477158Y-133524631D01*
X147287977Y-133335120D01*
X147040674Y-133232431D01*
X146909797Y-133232317D01*
X146909836Y-133187317D01*
X146807578Y-132939835D01*
X146687032Y-132819078D01*
X180702378Y-132819078D01*
X180731917Y-133329428D01*
X180870389Y-133663729D01*
X181100984Y-133719410D01*
X181820395Y-133000000D01*
X182179605Y-133000000D01*
X182899016Y-133719410D01*
X183129611Y-133663729D01*
X183297622Y-133180922D01*
X183268083Y-132670572D01*
X183129611Y-132336271D01*
X182899016Y-132280590D01*
X182179605Y-133000000D01*
X181820395Y-133000000D01*
X181100984Y-132280590D01*
X180870389Y-132336271D01*
X180702378Y-132819078D01*
X146687032Y-132819078D01*
X146618397Y-132750324D01*
X146371094Y-132647635D01*
X146281139Y-132647556D01*
X146281217Y-132558699D01*
X146178959Y-132311217D01*
X145989778Y-132121706D01*
X145742475Y-132019017D01*
X145673084Y-132018956D01*
X145673217Y-131866699D01*
X145570959Y-131619217D01*
X145381778Y-131429706D01*
X145134475Y-131327017D01*
X144866699Y-131326783D01*
X144619217Y-131429041D01*
X144429706Y-131618222D01*
X144327017Y-131865525D01*
X144326845Y-132062497D01*
X143238855Y-133150487D01*
X143043166Y-133150316D01*
X142795684Y-133252574D01*
X142606173Y-133441755D01*
X142503484Y-133689058D01*
X142503250Y-133956834D01*
X140088217Y-133956834D01*
X144418408Y-129626643D01*
X144873828Y-129626643D01*
X144976086Y-129874125D01*
X145165267Y-130063636D01*
X145412570Y-130166325D01*
X145680346Y-130166559D01*
X145927828Y-130064301D01*
X146067230Y-129925142D01*
X154406658Y-129925142D01*
X154571901Y-129892273D01*
X154711987Y-129798671D01*
X155737612Y-128773046D01*
X155933301Y-128773217D01*
X156180783Y-128670959D01*
X156370294Y-128481778D01*
X156472983Y-128234475D01*
X156473217Y-127966699D01*
X156370959Y-127719217D01*
X156181778Y-127529706D01*
X156139760Y-127512259D01*
X156170294Y-127481778D01*
X156272983Y-127234475D01*
X156273217Y-126966699D01*
X156170959Y-126719217D01*
X155981778Y-126529706D01*
X155734475Y-126427017D01*
X155466699Y-126426783D01*
X155219217Y-126529041D01*
X155029706Y-126718222D01*
X154927017Y-126965525D01*
X154926845Y-127162498D01*
X153621142Y-128468200D01*
X147378858Y-128468200D01*
X147370302Y-128459644D01*
X147270959Y-128219217D01*
X147081778Y-128029706D01*
X146834475Y-127927017D01*
X146566699Y-127926783D01*
X146319217Y-128029041D01*
X146129706Y-128218222D01*
X146027017Y-128465525D01*
X146026783Y-128733301D01*
X146129041Y-128980783D01*
X146209659Y-129061542D01*
X146067076Y-129061542D01*
X145928823Y-128923048D01*
X145681520Y-128820359D01*
X145413744Y-128820125D01*
X145166262Y-128922383D01*
X144976751Y-129111564D01*
X144874062Y-129358867D01*
X144873828Y-129626643D01*
X144418408Y-129626643D01*
X145105329Y-128939722D01*
X145126208Y-128908474D01*
X145198931Y-128799636D01*
X145211836Y-128734758D01*
X145231801Y-128634393D01*
X145231800Y-128634388D01*
X145231800Y-128320031D01*
X145370294Y-128181778D01*
X145472983Y-127934475D01*
X145473217Y-127666699D01*
X145370959Y-127419217D01*
X145181778Y-127229706D01*
X144934475Y-127127017D01*
X144666699Y-127126783D01*
X144419217Y-127229041D01*
X144229706Y-127418222D01*
X144127017Y-127665525D01*
X144126783Y-127933301D01*
X144229041Y-128180783D01*
X144368200Y-128320185D01*
X144368200Y-128455535D01*
X141438461Y-131385274D01*
X141438461Y-128391497D01*
X141576955Y-128253244D01*
X141679644Y-128005941D01*
X141679878Y-127738165D01*
X141577620Y-127490683D01*
X141388439Y-127301172D01*
X141141136Y-127198483D01*
X140873360Y-127198249D01*
X140625878Y-127300507D01*
X140436367Y-127489688D01*
X140333678Y-127736991D01*
X140333444Y-128004767D01*
X140435702Y-128252249D01*
X140574861Y-128391651D01*
X140574861Y-131267246D01*
X138114491Y-133727615D01*
X137918802Y-133727444D01*
X137671320Y-133829702D01*
X137481809Y-134018883D01*
X137379120Y-134266186D01*
X137378886Y-134533962D01*
X136748328Y-134533962D01*
X131071940Y-128857574D01*
X136398808Y-128857574D01*
X136501066Y-129105056D01*
X136690247Y-129294567D01*
X136937550Y-129397256D01*
X137205326Y-129397490D01*
X137452808Y-129295232D01*
X137519443Y-129228713D01*
X137586309Y-129295696D01*
X137833612Y-129398385D01*
X138101388Y-129398619D01*
X138348870Y-129296361D01*
X138538381Y-129107180D01*
X138641070Y-128859877D01*
X138641242Y-128662905D01*
X144616637Y-122687510D01*
X145570555Y-122687510D01*
X145708808Y-122826004D01*
X145956111Y-122928693D01*
X146223887Y-122928927D01*
X146471369Y-122826669D01*
X146574977Y-122723241D01*
X146574977Y-124560798D01*
X146607846Y-124726041D01*
X146699623Y-124863396D01*
X146701448Y-124866127D01*
X146897724Y-125062403D01*
X146897553Y-125258092D01*
X146999811Y-125505574D01*
X147188992Y-125695085D01*
X147436295Y-125797774D01*
X147704071Y-125798008D01*
X147951553Y-125695750D01*
X148028736Y-125618702D01*
X148093720Y-125683799D01*
X148341023Y-125786488D01*
X148608799Y-125786722D01*
X148856281Y-125684464D01*
X148933461Y-125607418D01*
X148996228Y-125670294D01*
X149243531Y-125772983D01*
X149426923Y-125773143D01*
X149426783Y-125933301D01*
X149529041Y-126180783D01*
X149718222Y-126370294D01*
X149965525Y-126472983D01*
X150233301Y-126473217D01*
X150480783Y-126370959D01*
X150670294Y-126181778D01*
X150772983Y-125934475D01*
X150773217Y-125666699D01*
X150670959Y-125419217D01*
X150531800Y-125279815D01*
X150531800Y-124863396D01*
X150512069Y-124764201D01*
X156374519Y-124764201D01*
X156476777Y-125011683D01*
X156665958Y-125201194D01*
X156913261Y-125303883D01*
X157181037Y-125304117D01*
X157428519Y-125201859D01*
X157618030Y-125012678D01*
X157720719Y-124765375D01*
X157720782Y-124692903D01*
X158109430Y-124692903D01*
X158211688Y-124940385D01*
X158400869Y-125129896D01*
X158648172Y-125232585D01*
X158845144Y-125232757D01*
X160980201Y-127367814D01*
X160929706Y-127418222D01*
X160827017Y-127665525D01*
X160826783Y-127933301D01*
X160929041Y-128180783D01*
X161118222Y-128370294D01*
X161365525Y-128472983D01*
X161633301Y-128473217D01*
X161880783Y-128370959D01*
X162070294Y-128181778D01*
X162172983Y-127934475D01*
X162173070Y-127834593D01*
X162265525Y-127872983D01*
X162533301Y-127873217D01*
X162780783Y-127770959D01*
X162970294Y-127581778D01*
X163072983Y-127334475D01*
X163073217Y-127066699D01*
X162970959Y-126819217D01*
X162831800Y-126679815D01*
X162831800Y-126679703D01*
X162798931Y-126514460D01*
X162705329Y-126374374D01*
X160216202Y-123885247D01*
X160216373Y-123689558D01*
X160114115Y-123442076D01*
X159924934Y-123252565D01*
X159677631Y-123149876D01*
X159409855Y-123149642D01*
X159162373Y-123251900D01*
X158972862Y-123441081D01*
X158870173Y-123688384D01*
X158870000Y-123886578D01*
X158649346Y-123886385D01*
X158401864Y-123988643D01*
X158212353Y-124177824D01*
X158109664Y-124425127D01*
X158109430Y-124692903D01*
X157720782Y-124692903D01*
X157720953Y-124497599D01*
X157685193Y-124411055D01*
X159537611Y-122558636D01*
X159733301Y-122558807D01*
X159980783Y-122456549D01*
X160170294Y-122267368D01*
X160272983Y-122020065D01*
X160273217Y-121752289D01*
X160170959Y-121504807D01*
X159999752Y-121333301D01*
X175126783Y-121333301D01*
X175152300Y-121395057D01*
X175152300Y-131404637D01*
X175127017Y-131465525D01*
X175126783Y-131733301D01*
X175229041Y-131980783D01*
X175418222Y-132170294D01*
X175665525Y-132272983D01*
X175933301Y-132273217D01*
X176180783Y-132170959D01*
X176370294Y-131981778D01*
X176472983Y-131734475D01*
X176473217Y-131466699D01*
X176447700Y-131404943D01*
X176447700Y-131194118D01*
X181019630Y-131194118D01*
X181168543Y-131554513D01*
X181440691Y-131827137D01*
X181336271Y-131870389D01*
X181280590Y-132100984D01*
X182000000Y-132820395D01*
X182719410Y-132100984D01*
X182663729Y-131870389D01*
X182553296Y-131831960D01*
X182554513Y-131831457D01*
X182830488Y-131555964D01*
X182980029Y-131195829D01*
X182980370Y-130805882D01*
X182831457Y-130445487D01*
X182555964Y-130169512D01*
X182195829Y-130019971D01*
X181805882Y-130019630D01*
X181445487Y-130168543D01*
X181169512Y-130444036D01*
X181019971Y-130804171D01*
X181019630Y-131194118D01*
X176447700Y-131194118D01*
X176447700Y-129194118D01*
X181019630Y-129194118D01*
X181168543Y-129554513D01*
X181444036Y-129830488D01*
X181804171Y-129980029D01*
X182194118Y-129980370D01*
X182554513Y-129831457D01*
X182830488Y-129555964D01*
X182980029Y-129195829D01*
X182980370Y-128805882D01*
X182831457Y-128445487D01*
X182555964Y-128169512D01*
X182195829Y-128019971D01*
X181805882Y-128019630D01*
X181445487Y-128168543D01*
X181169512Y-128444036D01*
X181019971Y-128804171D01*
X181019630Y-129194118D01*
X176447700Y-129194118D01*
X176447700Y-121395363D01*
X176472983Y-121334475D01*
X176473217Y-121066699D01*
X176370959Y-120819217D01*
X176181778Y-120629706D01*
X175934475Y-120527017D01*
X175666699Y-120526783D01*
X175419217Y-120629041D01*
X175229706Y-120818222D01*
X175127017Y-121065525D01*
X175126783Y-121333301D01*
X159999752Y-121333301D01*
X159981778Y-121315296D01*
X159734475Y-121212607D01*
X159466699Y-121212373D01*
X159219217Y-121314631D01*
X159029706Y-121503812D01*
X158927017Y-121751115D01*
X158926845Y-121948088D01*
X156917247Y-123957685D01*
X156914435Y-123957683D01*
X156666953Y-124059941D01*
X156477442Y-124249122D01*
X156374753Y-124496425D01*
X156374519Y-124764201D01*
X150512069Y-124764201D01*
X150498931Y-124698153D01*
X150405329Y-124558067D01*
X148963614Y-123116352D01*
X148963614Y-122230666D01*
X149065525Y-122272983D01*
X149333301Y-122273217D01*
X149580783Y-122170959D01*
X149770294Y-121981778D01*
X149872983Y-121734475D01*
X149873155Y-121537502D01*
X150153027Y-121257630D01*
X150153030Y-121257628D01*
X150246632Y-121117542D01*
X150246633Y-121117541D01*
X150279502Y-120952299D01*
X150279501Y-120952294D01*
X150279501Y-119147701D01*
X150246632Y-118982458D01*
X150153030Y-118842372D01*
X149305527Y-117994869D01*
X149305527Y-115633301D01*
X149426783Y-115633301D01*
X149529041Y-115880783D01*
X149648092Y-116000042D01*
X149529706Y-116118222D01*
X149427017Y-116365525D01*
X149426783Y-116633301D01*
X149529041Y-116880783D01*
X149718222Y-117070294D01*
X149965525Y-117172983D01*
X150162497Y-117173155D01*
X154826954Y-121837612D01*
X154826783Y-122033301D01*
X154929041Y-122280783D01*
X155118222Y-122470294D01*
X155365525Y-122572983D01*
X155633301Y-122573217D01*
X155880783Y-122470959D01*
X156070294Y-122281778D01*
X156172983Y-122034475D01*
X156173217Y-121766699D01*
X156070959Y-121519217D01*
X156001821Y-121449958D01*
X156170294Y-121281778D01*
X156272983Y-121034475D01*
X156273217Y-120766699D01*
X156170959Y-120519217D01*
X155981778Y-120329706D01*
X155734475Y-120227017D01*
X155537503Y-120226845D01*
X154514837Y-119204179D01*
X180968822Y-119204179D01*
X181125451Y-119583251D01*
X181415223Y-119873529D01*
X181720081Y-120000117D01*
X181416749Y-120125451D01*
X181126471Y-120415223D01*
X180969180Y-120794022D01*
X180968822Y-121204179D01*
X181125451Y-121583251D01*
X181415223Y-121873529D01*
X181794022Y-122030820D01*
X182204179Y-122031178D01*
X182583251Y-121874549D01*
X182873529Y-121584777D01*
X183030820Y-121205978D01*
X183031178Y-120795821D01*
X182874549Y-120416749D01*
X182584777Y-120126471D01*
X182279919Y-119999883D01*
X182583251Y-119874549D01*
X182873529Y-119584777D01*
X183030820Y-119205978D01*
X183031178Y-118795821D01*
X182874549Y-118416749D01*
X182584777Y-118126471D01*
X182213570Y-117972333D01*
X182554513Y-117831457D01*
X182830488Y-117555964D01*
X182980029Y-117195829D01*
X182980370Y-116805882D01*
X182831457Y-116445487D01*
X182559309Y-116172863D01*
X182663729Y-116129611D01*
X182719410Y-115899016D01*
X182000000Y-115179605D01*
X181280590Y-115899016D01*
X181336271Y-116129611D01*
X181446704Y-116168040D01*
X181445487Y-116168543D01*
X181169512Y-116444036D01*
X181019971Y-116804171D01*
X181019630Y-117194118D01*
X181168543Y-117554513D01*
X181444036Y-117830488D01*
X181786478Y-117972682D01*
X181416749Y-118125451D01*
X181126471Y-118415223D01*
X180969180Y-118794022D01*
X180968822Y-119204179D01*
X154514837Y-119204179D01*
X150773133Y-115462475D01*
X150773217Y-115366699D01*
X150670959Y-115119217D01*
X150481778Y-114929706D01*
X150234475Y-114827017D01*
X149966699Y-114826783D01*
X149719217Y-114929041D01*
X149529706Y-115118222D01*
X149427017Y-115365525D01*
X149426783Y-115633301D01*
X149305527Y-115633301D01*
X149305527Y-115357619D01*
X149420347Y-115242799D01*
X149452505Y-115194671D01*
X149513949Y-115102713D01*
X149546818Y-114937470D01*
X149546818Y-114819078D01*
X180702378Y-114819078D01*
X180731917Y-115329428D01*
X180870389Y-115663729D01*
X181100984Y-115719410D01*
X181820395Y-115000000D01*
X182179605Y-115000000D01*
X182899016Y-115719410D01*
X183129611Y-115663729D01*
X183297622Y-115180922D01*
X183268083Y-114670572D01*
X183129611Y-114336271D01*
X182899016Y-114280590D01*
X182179605Y-115000000D01*
X181820395Y-115000000D01*
X181100984Y-114280590D01*
X180870389Y-114336271D01*
X180702378Y-114819078D01*
X149546818Y-114819078D01*
X149546817Y-113678504D01*
X149546818Y-113678499D01*
X149513949Y-113513257D01*
X149448322Y-113415040D01*
X149420346Y-113373170D01*
X149420343Y-113373168D01*
X149299979Y-113252804D01*
X149299979Y-113194118D01*
X181019630Y-113194118D01*
X181168543Y-113554513D01*
X181440691Y-113827137D01*
X181336271Y-113870389D01*
X181280590Y-114100984D01*
X182000000Y-114820395D01*
X182719410Y-114100984D01*
X182663729Y-113870389D01*
X182553296Y-113831960D01*
X182554513Y-113831457D01*
X182830488Y-113555964D01*
X182980029Y-113195829D01*
X182980370Y-112805882D01*
X182831457Y-112445487D01*
X182555964Y-112169512D01*
X182195829Y-112019971D01*
X181805882Y-112019630D01*
X181445487Y-112168543D01*
X181169512Y-112444036D01*
X181019971Y-112804171D01*
X181019630Y-113194118D01*
X149299979Y-113194118D01*
X149299979Y-111210679D01*
X150237611Y-110273046D01*
X150433301Y-110273217D01*
X150680783Y-110170959D01*
X150870294Y-109981778D01*
X150972983Y-109734475D01*
X150973217Y-109466699D01*
X150870959Y-109219217D01*
X150681778Y-109029706D01*
X150434475Y-108927017D01*
X150210974Y-108926822D01*
X150211103Y-108779225D01*
X150108845Y-108531743D01*
X150016100Y-108438836D01*
X153393791Y-108438836D01*
X153577007Y-108882252D01*
X153915964Y-109221801D01*
X154359059Y-109405790D01*
X154838836Y-109406209D01*
X155275330Y-109225853D01*
X156753752Y-109225853D01*
X156830956Y-109474563D01*
X157377250Y-109671843D01*
X157957456Y-109645048D01*
X158369044Y-109474563D01*
X158446248Y-109225853D01*
X157600000Y-108379605D01*
X156753752Y-109225853D01*
X155275330Y-109225853D01*
X155282252Y-109222993D01*
X155621801Y-108884036D01*
X155805790Y-108440941D01*
X155806194Y-107977250D01*
X156128157Y-107977250D01*
X156154952Y-108557456D01*
X156325437Y-108969044D01*
X156574147Y-109046248D01*
X157420395Y-108200000D01*
X157779605Y-108200000D01*
X158625853Y-109046248D01*
X158874563Y-108969044D01*
X159071843Y-108422750D01*
X159045048Y-107842544D01*
X158874563Y-107430956D01*
X158625853Y-107353752D01*
X157779605Y-108200000D01*
X157420395Y-108200000D01*
X156574147Y-107353752D01*
X156325437Y-107430956D01*
X156128157Y-107977250D01*
X155806194Y-107977250D01*
X155806209Y-107961164D01*
X155622993Y-107517748D01*
X155284036Y-107178199D01*
X155274278Y-107174147D01*
X156753752Y-107174147D01*
X157600000Y-108020395D01*
X158446248Y-107174147D01*
X158369044Y-106925437D01*
X157822750Y-106728157D01*
X157242544Y-106754952D01*
X156830956Y-106925437D01*
X156753752Y-107174147D01*
X155274278Y-107174147D01*
X154840941Y-106994210D01*
X154361164Y-106993791D01*
X153917748Y-107177007D01*
X153578199Y-107515964D01*
X153394210Y-107959059D01*
X153393791Y-108438836D01*
X150016100Y-108438836D01*
X149919664Y-108342232D01*
X149672361Y-108239543D01*
X149404585Y-108239309D01*
X149157103Y-108341567D01*
X148967592Y-108530748D01*
X148864903Y-108778051D01*
X148864731Y-108975023D01*
X148470110Y-109369644D01*
X148454290Y-109290117D01*
X148454290Y-109290116D01*
X148360688Y-109150030D01*
X148273046Y-109062388D01*
X148273217Y-108866699D01*
X148170959Y-108619217D01*
X147981778Y-108429706D01*
X147734475Y-108327017D01*
X147466699Y-108326783D01*
X147307306Y-108392643D01*
X147372983Y-108234475D01*
X147373155Y-108037503D01*
X147837612Y-107573046D01*
X148033301Y-107573217D01*
X148280783Y-107470959D01*
X148470294Y-107281778D01*
X148572983Y-107034475D01*
X148573217Y-106766699D01*
X148470959Y-106519217D01*
X148281778Y-106329706D01*
X148034475Y-106227017D01*
X147873164Y-106226876D01*
X147873217Y-106166699D01*
X147770959Y-105919217D01*
X147581778Y-105729706D01*
X147334475Y-105627017D01*
X147066699Y-105626783D01*
X146819217Y-105729041D01*
X146629706Y-105918222D01*
X146527017Y-106165525D01*
X146526845Y-106362497D01*
X143521142Y-109368200D01*
X142520031Y-109368200D01*
X142381778Y-109229706D01*
X142134475Y-109127017D01*
X141866699Y-109126783D01*
X141619217Y-109229041D01*
X141429706Y-109418222D01*
X141327017Y-109665525D01*
X141326783Y-109933301D01*
X141429041Y-110180783D01*
X141618222Y-110370294D01*
X141865525Y-110472983D01*
X142133301Y-110473217D01*
X142380783Y-110370959D01*
X142520185Y-110231800D01*
X143700000Y-110231800D01*
X143865243Y-110198931D01*
X144005329Y-110105329D01*
X146026914Y-108083744D01*
X146026783Y-108233301D01*
X146129041Y-108480783D01*
X146318222Y-108670294D01*
X146565525Y-108772983D01*
X146833301Y-108773217D01*
X146992694Y-108707357D01*
X146927017Y-108865525D01*
X146926783Y-109133301D01*
X147008630Y-109331385D01*
X146821467Y-109518222D01*
X146718778Y-109765525D01*
X146718606Y-109962497D01*
X146701448Y-109979655D01*
X146607846Y-110119741D01*
X146574977Y-110284984D01*
X146574977Y-121788208D01*
X146472364Y-121685416D01*
X146225061Y-121582727D01*
X145957285Y-121582493D01*
X145709803Y-121684751D01*
X145570401Y-121823910D01*
X144437779Y-121823910D01*
X144272536Y-121856779D01*
X144167029Y-121927276D01*
X144132450Y-121950381D01*
X138030475Y-128052356D01*
X137834786Y-128052185D01*
X137587304Y-128154443D01*
X137520669Y-128220962D01*
X137503825Y-128204088D01*
X137503825Y-127556542D01*
X142154716Y-122905650D01*
X142350406Y-122905821D01*
X142597888Y-122803563D01*
X142787399Y-122614382D01*
X142890088Y-122367079D01*
X142890322Y-122099303D01*
X142788064Y-121851821D01*
X142598883Y-121662310D01*
X142351580Y-121559621D01*
X142083804Y-121559387D01*
X141836322Y-121661645D01*
X141646811Y-121850826D01*
X141544122Y-122098129D01*
X141543950Y-122295102D01*
X136766696Y-127072355D01*
X136673094Y-127212441D01*
X136640225Y-127377684D01*
X136640225Y-128204242D01*
X136501731Y-128342495D01*
X136399042Y-128589798D01*
X136398808Y-128857574D01*
X131071940Y-128857574D01*
X131001037Y-128786671D01*
X130994051Y-128782003D01*
X130860951Y-128693069D01*
X130695708Y-128660200D01*
X130528031Y-128660200D01*
X130389778Y-128521706D01*
X130142475Y-128419017D01*
X129874699Y-128418783D01*
X129627217Y-128521041D01*
X129437706Y-128710222D01*
X129350365Y-128920563D01*
X129341830Y-128877656D01*
X129273035Y-128774697D01*
X129273217Y-128566699D01*
X129170959Y-128319217D01*
X128981778Y-128129706D01*
X128734475Y-128027017D01*
X128466699Y-128026783D01*
X128219217Y-128129041D01*
X128029706Y-128318222D01*
X127927017Y-128565525D01*
X127926783Y-128833301D01*
X128029041Y-129080783D01*
X128098179Y-129150042D01*
X127929706Y-129318222D01*
X127827017Y-129565525D01*
X127826783Y-129833301D01*
X121506669Y-129833301D01*
X121506669Y-128180000D01*
X121482241Y-128054096D01*
X121409550Y-127943438D01*
X121299813Y-127869364D01*
X121170000Y-127843331D01*
X119370000Y-127843331D01*
X119244096Y-127867759D01*
X119133438Y-127940450D01*
X119059364Y-128050187D01*
X119033331Y-128180000D01*
X118569819Y-128180000D01*
X118427762Y-128037695D01*
X117975775Y-127850014D01*
X117486372Y-127849587D01*
X117034058Y-128036479D01*
X116687695Y-128382238D01*
X116500014Y-128834225D01*
X116499587Y-129323628D01*
X114127000Y-129323628D01*
X114127000Y-126783628D01*
X116499587Y-126783628D01*
X116686479Y-127235942D01*
X117032238Y-127582305D01*
X117484225Y-127769986D01*
X117973628Y-127770413D01*
X118425942Y-127583521D01*
X118772305Y-127237762D01*
X118959986Y-126785775D01*
X118959987Y-126783628D01*
X119039587Y-126783628D01*
X119226479Y-127235942D01*
X119572238Y-127582305D01*
X120024225Y-127769986D01*
X120513628Y-127770413D01*
X120965942Y-127583521D01*
X121312305Y-127237762D01*
X121499986Y-126785775D01*
X121500413Y-126296372D01*
X121313521Y-125844058D01*
X120967762Y-125497695D01*
X120515775Y-125310014D01*
X120026372Y-125309587D01*
X119574058Y-125496479D01*
X119227695Y-125842238D01*
X119040014Y-126294225D01*
X119039587Y-126783628D01*
X118959987Y-126783628D01*
X118960413Y-126296372D01*
X118773521Y-125844058D01*
X118427762Y-125497695D01*
X117975775Y-125310014D01*
X117486372Y-125309587D01*
X117034058Y-125496479D01*
X116687695Y-125842238D01*
X116500014Y-126294225D01*
X116499587Y-126783628D01*
X114127000Y-126783628D01*
X114127000Y-124243628D01*
X116499587Y-124243628D01*
X116686479Y-124695942D01*
X117032238Y-125042305D01*
X117484225Y-125229986D01*
X117973628Y-125230413D01*
X118425942Y-125043521D01*
X118772305Y-124697762D01*
X118959986Y-124245775D01*
X118959987Y-124243628D01*
X119039587Y-124243628D01*
X119226479Y-124695942D01*
X119572238Y-125042305D01*
X120024225Y-125229986D01*
X120513628Y-125230413D01*
X120965942Y-125043521D01*
X121312305Y-124697762D01*
X121499986Y-124245775D01*
X121500413Y-123756372D01*
X121313521Y-123304058D01*
X120967762Y-122957695D01*
X120515775Y-122770014D01*
X120026372Y-122769587D01*
X119574058Y-122956479D01*
X119227695Y-123302238D01*
X119040014Y-123754225D01*
X119039587Y-124243628D01*
X118959987Y-124243628D01*
X118960413Y-123756372D01*
X118773521Y-123304058D01*
X118427762Y-122957695D01*
X117975775Y-122770014D01*
X117486372Y-122769587D01*
X117034058Y-122956479D01*
X116687695Y-123302238D01*
X116500014Y-123754225D01*
X116499587Y-124243628D01*
X114127000Y-124243628D01*
X114127000Y-121703628D01*
X116499587Y-121703628D01*
X116686479Y-122155942D01*
X117032238Y-122502305D01*
X117484225Y-122689986D01*
X117973628Y-122690413D01*
X118425942Y-122503521D01*
X118772305Y-122157762D01*
X118959986Y-121705775D01*
X118959987Y-121703628D01*
X119039587Y-121703628D01*
X119226479Y-122155942D01*
X119572238Y-122502305D01*
X120024225Y-122689986D01*
X120513628Y-122690413D01*
X120965942Y-122503521D01*
X121312305Y-122157762D01*
X121499986Y-121705775D01*
X121500413Y-121216372D01*
X121313521Y-120764058D01*
X120967762Y-120417695D01*
X120831716Y-120361204D01*
X121084148Y-120256643D01*
X121170554Y-120000159D01*
X120270000Y-119099605D01*
X119369446Y-120000159D01*
X119455852Y-120256643D01*
X119723713Y-120354643D01*
X119574058Y-120416479D01*
X119227695Y-120762238D01*
X119040014Y-121214225D01*
X119039587Y-121703628D01*
X118959987Y-121703628D01*
X118960413Y-121216372D01*
X118773521Y-120764058D01*
X118427762Y-120417695D01*
X118291716Y-120361204D01*
X118544148Y-120256643D01*
X118630554Y-120000159D01*
X117730000Y-119099605D01*
X116829446Y-120000159D01*
X116915852Y-120256643D01*
X117183713Y-120354643D01*
X117034058Y-120416479D01*
X116687695Y-120762238D01*
X116500014Y-121214225D01*
X116499587Y-121703628D01*
X114127000Y-121703628D01*
X114127000Y-118679336D01*
X116183542Y-118679336D01*
X116209161Y-119289460D01*
X116393357Y-119734148D01*
X116649841Y-119820554D01*
X117550395Y-118920000D01*
X117909605Y-118920000D01*
X118810159Y-119820554D01*
X119000000Y-119756599D01*
X119189841Y-119820554D01*
X120090395Y-118920000D01*
X120449605Y-118920000D01*
X121350159Y-119820554D01*
X121606643Y-119734148D01*
X121816458Y-119160664D01*
X121790839Y-118550540D01*
X121606643Y-118105852D01*
X121350159Y-118019446D01*
X120449605Y-118920000D01*
X120090395Y-118920000D01*
X119189841Y-118019446D01*
X119000000Y-118083401D01*
X118810159Y-118019446D01*
X117909605Y-118920000D01*
X117550395Y-118920000D01*
X116649841Y-118019446D01*
X116393357Y-118105852D01*
X116183542Y-118679336D01*
X114127000Y-118679336D01*
X114127000Y-117839841D01*
X116829446Y-117839841D01*
X117730000Y-118740395D01*
X118630554Y-117839841D01*
X119369446Y-117839841D01*
X120270000Y-118740395D01*
X121170554Y-117839841D01*
X121084148Y-117583357D01*
X120510664Y-117373542D01*
X119900540Y-117399161D01*
X119455852Y-117583357D01*
X119369446Y-117839841D01*
X118630554Y-117839841D01*
X118544148Y-117583357D01*
X117970664Y-117373542D01*
X117360540Y-117399161D01*
X116915852Y-117583357D01*
X116829446Y-117839841D01*
X114127000Y-117839841D01*
X114127000Y-116633301D01*
X141626783Y-116633301D01*
X141729041Y-116880783D01*
X141918222Y-117070294D01*
X142165525Y-117172983D01*
X142433301Y-117173217D01*
X142680783Y-117070959D01*
X142870294Y-116881778D01*
X142972983Y-116634475D01*
X142973155Y-116437503D01*
X143605326Y-115805331D01*
X143605329Y-115805329D01*
X143698931Y-115665243D01*
X143698932Y-115665242D01*
X143702010Y-115649769D01*
X143870294Y-115481778D01*
X143972983Y-115234475D01*
X143973217Y-114966699D01*
X143870959Y-114719217D01*
X143681778Y-114529706D01*
X143434475Y-114427017D01*
X143166699Y-114426783D01*
X142919217Y-114529041D01*
X142729706Y-114718222D01*
X142627017Y-114965525D01*
X142626783Y-115233301D01*
X142723053Y-115466290D01*
X142362388Y-115826954D01*
X142166699Y-115826783D01*
X141919217Y-115929041D01*
X141729706Y-116118222D01*
X141627017Y-116365525D01*
X141626783Y-116633301D01*
X114127000Y-116633301D01*
X114127000Y-107940497D01*
X121773054Y-107940497D01*
X121773054Y-110427562D01*
X121805923Y-110592805D01*
X121877548Y-110700000D01*
X121899525Y-110732891D01*
X123212693Y-112046059D01*
X123352779Y-112139661D01*
X123518022Y-112172530D01*
X125126918Y-112172530D01*
X125265171Y-112311024D01*
X125512474Y-112413713D01*
X125780250Y-112413947D01*
X126027732Y-112311689D01*
X126217243Y-112122508D01*
X126319932Y-111875205D01*
X126320166Y-111607429D01*
X126217908Y-111359947D01*
X126055058Y-111196813D01*
X126170294Y-111081778D01*
X126272983Y-110834475D01*
X126273217Y-110566699D01*
X126176158Y-110331800D01*
X127700000Y-110331800D01*
X127865243Y-110298931D01*
X128005329Y-110205329D01*
X128237612Y-109973046D01*
X128433301Y-109973217D01*
X128680783Y-109870959D01*
X128870294Y-109681778D01*
X128972983Y-109434475D01*
X128973217Y-109166699D01*
X128870959Y-108919217D01*
X128683868Y-108731800D01*
X130079969Y-108731800D01*
X130218222Y-108870294D01*
X130465525Y-108972983D01*
X130733301Y-108973217D01*
X130980783Y-108870959D01*
X131170294Y-108681778D01*
X131272983Y-108434475D01*
X131273217Y-108166699D01*
X131170959Y-107919217D01*
X130981778Y-107729706D01*
X130734475Y-107627017D01*
X130466699Y-107626783D01*
X130219217Y-107729041D01*
X130079815Y-107868200D01*
X126600000Y-107868200D01*
X126434757Y-107901069D01*
X126294671Y-107994671D01*
X126294669Y-107994674D01*
X126262389Y-108026954D01*
X126066699Y-108026783D01*
X125819217Y-108129041D01*
X125629706Y-108318222D01*
X125527017Y-108565525D01*
X125526783Y-108833301D01*
X125629041Y-109080783D01*
X125818222Y-109270294D01*
X126065525Y-109372983D01*
X126333301Y-109373217D01*
X126580783Y-109270959D01*
X126770294Y-109081778D01*
X126872983Y-108834475D01*
X126873073Y-108731800D01*
X127916453Y-108731800D01*
X127729706Y-108918222D01*
X127627017Y-109165525D01*
X127626845Y-109362497D01*
X127521142Y-109468200D01*
X124020031Y-109468200D01*
X123881778Y-109329706D01*
X123634475Y-109227017D01*
X123366699Y-109226783D01*
X123284099Y-109260913D01*
X123284099Y-108526559D01*
X124678858Y-107131800D01*
X125779969Y-107131800D01*
X125918222Y-107270294D01*
X126165525Y-107372983D01*
X126433301Y-107373217D01*
X126680783Y-107270959D01*
X126870294Y-107081778D01*
X126931946Y-106933301D01*
X140626783Y-106933301D01*
X140729041Y-107180783D01*
X140918222Y-107370294D01*
X141165525Y-107472983D01*
X141433301Y-107473217D01*
X141680783Y-107370959D01*
X141820185Y-107231800D01*
X143679969Y-107231800D01*
X143818222Y-107370294D01*
X144065525Y-107472983D01*
X144333301Y-107473217D01*
X144580783Y-107370959D01*
X144770294Y-107181778D01*
X144872983Y-106934475D01*
X144873217Y-106666699D01*
X144770959Y-106419217D01*
X144581778Y-106229706D01*
X144334475Y-106127017D01*
X144066699Y-106126783D01*
X143819217Y-106229041D01*
X143679815Y-106368200D01*
X141820031Y-106368200D01*
X141681778Y-106229706D01*
X141434475Y-106127017D01*
X141166699Y-106126783D01*
X140919217Y-106229041D01*
X140729706Y-106418222D01*
X140627017Y-106665525D01*
X140626783Y-106933301D01*
X126931946Y-106933301D01*
X126972983Y-106834475D01*
X126973217Y-106566699D01*
X126870959Y-106319217D01*
X126698386Y-106146343D01*
X126839434Y-106005540D01*
X126942123Y-105758237D01*
X126942357Y-105490461D01*
X126840099Y-105242979D01*
X126650918Y-105053468D01*
X126403615Y-104950779D01*
X126135839Y-104950545D01*
X125888357Y-105052803D01*
X125748955Y-105191962D01*
X124521589Y-105191962D01*
X124356346Y-105224831D01*
X124283931Y-105273217D01*
X124216260Y-105318433D01*
X121899525Y-107635168D01*
X121805923Y-107775254D01*
X121773054Y-107940497D01*
X114127000Y-107940497D01*
X114127000Y-105309153D01*
X114323592Y-105784942D01*
X115210389Y-106673289D01*
X116369639Y-107154651D01*
X117624855Y-107155746D01*
X118784942Y-106676408D01*
X119673289Y-105789611D01*
X120154651Y-104630361D01*
X120154985Y-104247403D01*
X154244478Y-104247403D01*
X154526321Y-104929514D01*
X155047741Y-105451845D01*
X155729359Y-105734878D01*
X156467403Y-105735522D01*
X157149514Y-105453679D01*
X157169927Y-105433301D01*
X159826783Y-105433301D01*
X159929041Y-105680783D01*
X160068200Y-105820185D01*
X160068200Y-107700000D01*
X160101069Y-107865243D01*
X160175909Y-107977250D01*
X160194671Y-108005329D01*
X161626954Y-109437611D01*
X161626783Y-109633301D01*
X161729041Y-109880783D01*
X161918222Y-110070294D01*
X162165525Y-110172983D01*
X162433301Y-110173217D01*
X162680783Y-110070959D01*
X162870294Y-109881778D01*
X162887741Y-109839760D01*
X162918222Y-109870294D01*
X163165525Y-109972983D01*
X163433301Y-109973217D01*
X163680783Y-109870959D01*
X163870294Y-109681778D01*
X163972983Y-109434475D01*
X163973217Y-109166699D01*
X163870959Y-108919217D01*
X163681778Y-108729706D01*
X163434475Y-108627017D01*
X163237503Y-108626845D01*
X161831800Y-107221142D01*
X161831800Y-105733301D01*
X175926783Y-105733301D01*
X176029041Y-105980783D01*
X176152300Y-106104257D01*
X176152300Y-110704637D01*
X176127017Y-110765525D01*
X176126783Y-111033301D01*
X176229041Y-111280783D01*
X176418222Y-111470294D01*
X176665525Y-111572983D01*
X176933301Y-111573217D01*
X177180783Y-111470959D01*
X177370294Y-111281778D01*
X177406693Y-111194118D01*
X181019630Y-111194118D01*
X181168543Y-111554513D01*
X181444036Y-111830488D01*
X181804171Y-111980029D01*
X182194118Y-111980370D01*
X182554513Y-111831457D01*
X182830488Y-111555964D01*
X182980029Y-111195829D01*
X182980370Y-110805882D01*
X182831457Y-110445487D01*
X182555964Y-110169512D01*
X182195829Y-110019971D01*
X181805882Y-110019630D01*
X181445487Y-110168543D01*
X181169512Y-110444036D01*
X181019971Y-110804171D01*
X181019630Y-111194118D01*
X177406693Y-111194118D01*
X177472983Y-111034475D01*
X177473217Y-110766699D01*
X177447700Y-110704943D01*
X177447700Y-105800000D01*
X177398397Y-105552136D01*
X177257993Y-105342007D01*
X177196136Y-105280150D01*
X177170959Y-105219217D01*
X176981778Y-105029706D01*
X176734475Y-104927017D01*
X176466699Y-104926783D01*
X176219217Y-105029041D01*
X176029706Y-105218222D01*
X175927017Y-105465525D01*
X175926783Y-105733301D01*
X161831800Y-105733301D01*
X161831800Y-104900005D01*
X161831801Y-104900000D01*
X161822878Y-104855142D01*
X161872983Y-104734475D01*
X161873217Y-104466699D01*
X161770959Y-104219217D01*
X161581778Y-104029706D01*
X161334475Y-103927017D01*
X161066699Y-103926783D01*
X160819217Y-104029041D01*
X160629706Y-104218222D01*
X160527017Y-104465525D01*
X160526876Y-104626923D01*
X160366699Y-104626783D01*
X160119217Y-104729041D01*
X159929706Y-104918222D01*
X159827017Y-105165525D01*
X159826783Y-105433301D01*
X157169927Y-105433301D01*
X157671845Y-104932259D01*
X157954878Y-104250641D01*
X157955522Y-103512597D01*
X157673679Y-102830486D01*
X157218988Y-102375000D01*
X170786536Y-102375000D01*
X170786536Y-104025000D01*
X170814722Y-104170274D01*
X170898596Y-104297956D01*
X171025216Y-104383426D01*
X171175000Y-104413464D01*
X172825000Y-104413464D01*
X172970274Y-104385278D01*
X173097956Y-104301404D01*
X173183426Y-104174784D01*
X173213464Y-104025000D01*
X173213464Y-103428775D01*
X173384600Y-103428775D01*
X173560098Y-103853514D01*
X173884777Y-104178760D01*
X174309208Y-104354999D01*
X174768775Y-104355400D01*
X175082303Y-104225853D01*
X176233752Y-104225853D01*
X176310956Y-104474563D01*
X176857250Y-104671843D01*
X177437456Y-104645048D01*
X177849044Y-104474563D01*
X177926248Y-104225853D01*
X177080000Y-103379605D01*
X176233752Y-104225853D01*
X175082303Y-104225853D01*
X175193514Y-104179902D01*
X175518760Y-103855223D01*
X175638673Y-103566440D01*
X175805437Y-103969044D01*
X176054147Y-104046248D01*
X176900395Y-103200000D01*
X177259605Y-103200000D01*
X178105853Y-104046248D01*
X178354563Y-103969044D01*
X178551843Y-103422750D01*
X178525048Y-102842544D01*
X178354563Y-102430956D01*
X178105853Y-102353752D01*
X177259605Y-103200000D01*
X176900395Y-103200000D01*
X176054147Y-102353752D01*
X175805437Y-102430956D01*
X175650006Y-102861364D01*
X175519902Y-102546486D01*
X175195223Y-102221240D01*
X175081811Y-102174147D01*
X176233752Y-102174147D01*
X177080000Y-103020395D01*
X177926248Y-102174147D01*
X177849044Y-101925437D01*
X177302750Y-101728157D01*
X176722544Y-101754952D01*
X176310956Y-101925437D01*
X176233752Y-102174147D01*
X175081811Y-102174147D01*
X174770792Y-102045001D01*
X174311225Y-102044600D01*
X173886486Y-102220098D01*
X173561240Y-102544777D01*
X173385001Y-102969208D01*
X173384600Y-103428775D01*
X173213464Y-103428775D01*
X173213464Y-102375000D01*
X173185278Y-102229726D01*
X173101404Y-102102044D01*
X172974784Y-102016574D01*
X172825000Y-101986536D01*
X171175000Y-101986536D01*
X171029726Y-102014722D01*
X170902044Y-102098596D01*
X170816574Y-102225216D01*
X170786536Y-102375000D01*
X157218988Y-102375000D01*
X157152259Y-102308155D01*
X156470641Y-102025122D01*
X155732597Y-102024478D01*
X155050486Y-102306321D01*
X154528155Y-102827741D01*
X154245122Y-103509359D01*
X154244478Y-104247403D01*
X120154985Y-104247403D01*
X120155746Y-103375145D01*
X119676408Y-102215058D01*
X118789611Y-101326711D01*
X118308653Y-101127000D01*
X182690847Y-101127000D01*
X182215058Y-101323592D01*
X182215058Y-101323592D01*
G37*
X182215058Y-101323592D02*
X181326711Y-102210389D01*
X180845349Y-103369639D01*
X180844254Y-104624855D01*
X181323592Y-105784942D01*
X182210389Y-106673289D01*
X183369639Y-107154651D01*
X184624855Y-107155746D01*
X185784942Y-106676408D01*
X186673289Y-105789611D01*
X186873000Y-105308653D01*
X186873000Y-144690847D01*
X186676408Y-144215058D01*
X185789611Y-143326711D01*
X184630361Y-142845349D01*
X183375145Y-142844254D01*
X182215058Y-143323592D01*
X181326711Y-144210389D01*
X180845349Y-145369639D01*
X180844254Y-146624855D01*
X181323592Y-147784942D01*
X182210389Y-148673289D01*
X182691347Y-148873000D01*
X166378913Y-148873000D01*
X166470294Y-148781778D01*
X166572983Y-148534475D01*
X166573217Y-148266699D01*
X166470959Y-148019217D01*
X166281778Y-147829706D01*
X166034475Y-147727017D01*
X165766699Y-147726783D01*
X165704943Y-147752300D01*
X165316194Y-147752300D01*
X165321669Y-147725000D01*
X165321669Y-146075000D01*
X165297241Y-145949096D01*
X165224550Y-145838438D01*
X165114813Y-145764364D01*
X164985000Y-145738331D01*
X163335000Y-145738331D01*
X163209096Y-145762759D01*
X163098438Y-145835450D01*
X163024364Y-145945187D01*
X162998331Y-146075000D01*
X162998331Y-147725000D01*
X163003628Y-147752300D01*
X162401339Y-147752300D01*
X162598760Y-147555223D01*
X162774999Y-147130792D01*
X162775400Y-146671225D01*
X162599902Y-146246486D01*
X162275223Y-145921240D01*
X161850792Y-145745001D01*
X161391225Y-145744600D01*
X160966486Y-145920098D01*
X160641240Y-146244777D01*
X160521327Y-146533560D01*
X160354563Y-146130956D01*
X160105853Y-146053752D01*
X159259605Y-146900000D01*
X159273748Y-146914143D01*
X159094143Y-147093748D01*
X159080000Y-147079605D01*
X159065858Y-147093748D01*
X158886253Y-146914143D01*
X158900395Y-146900000D01*
X158054147Y-146053752D01*
X157805437Y-146130956D01*
X157650006Y-146561364D01*
X157519902Y-146246486D01*
X157195223Y-145921240D01*
X157081811Y-145874147D01*
X158233752Y-145874147D01*
X159080000Y-146720395D01*
X159926248Y-145874147D01*
X159849044Y-145625437D01*
X159302750Y-145428157D01*
X158722544Y-145454952D01*
X158310956Y-145625437D01*
X158233752Y-145874147D01*
X157081811Y-145874147D01*
X156770792Y-145745001D01*
X156311225Y-145744600D01*
X155886486Y-145920098D01*
X155561240Y-146244777D01*
X155385001Y-146669208D01*
X155384600Y-147128775D01*
X155560098Y-147553514D01*
X155758537Y-147752300D01*
X154781339Y-147752300D01*
X154978760Y-147555223D01*
X155154999Y-147130792D01*
X155155400Y-146671225D01*
X154979902Y-146246486D01*
X154655223Y-145921240D01*
X154230792Y-145745001D01*
X153771225Y-145744600D01*
X153547641Y-145836983D01*
X152305329Y-144594671D01*
X152165243Y-144501069D01*
X152000000Y-144468200D01*
X148920031Y-144468200D01*
X148781778Y-144329706D01*
X148534475Y-144227017D01*
X148266699Y-144226783D01*
X148019217Y-144329041D01*
X147829706Y-144518222D01*
X147727017Y-144765525D01*
X147726783Y-145033301D01*
X147829041Y-145280783D01*
X148018222Y-145470294D01*
X148265525Y-145572983D01*
X148533301Y-145573217D01*
X148780783Y-145470959D01*
X148920185Y-145331800D01*
X151821142Y-145331800D01*
X152936998Y-146447656D01*
X152845001Y-146669208D01*
X152844600Y-147128775D01*
X153020098Y-147553514D01*
X153218537Y-147752300D01*
X152241339Y-147752300D01*
X152438760Y-147555223D01*
X152614999Y-147130792D01*
X152615400Y-146671225D01*
X152439902Y-146246486D01*
X152115223Y-145921240D01*
X151690792Y-145745001D01*
X151231225Y-145744600D01*
X150806486Y-145920098D01*
X150481240Y-146244777D01*
X150305001Y-146669208D01*
X150304600Y-147128775D01*
X150480098Y-147553514D01*
X150678537Y-147752300D01*
X143580000Y-147752300D01*
X143580000Y-147285750D01*
X143421250Y-147127000D01*
X142247000Y-147127000D01*
X142247000Y-147147000D01*
X141993000Y-147147000D01*
X141993000Y-147127000D01*
X141973000Y-147127000D01*
X141973000Y-146873000D01*
X141993000Y-146873000D01*
X141993000Y-145698750D01*
X142247000Y-145698750D01*
X142247000Y-146873000D01*
X143421250Y-146873000D01*
X143580000Y-146714250D01*
X143580000Y-146048690D01*
X143483327Y-145815301D01*
X143304698Y-145636673D01*
X143071309Y-145540000D01*
X142405750Y-145540000D01*
X142247000Y-145698750D01*
X141993000Y-145698750D01*
X141834250Y-145540000D01*
X141168691Y-145540000D01*
X140935302Y-145636673D01*
X140756673Y-145815301D01*
X140660000Y-146048690D01*
X140660000Y-146588742D01*
X140559902Y-146346486D01*
X140235223Y-146021240D01*
X139810792Y-145845001D01*
X139351225Y-145844600D01*
X138926486Y-146020098D01*
X138601240Y-146344777D01*
X138425001Y-146769208D01*
X138424600Y-147228775D01*
X138600098Y-147653514D01*
X138698712Y-147752300D01*
X137921513Y-147752300D01*
X138018760Y-147655223D01*
X138194999Y-147230792D01*
X138195400Y-146771225D01*
X138019902Y-146346486D01*
X137695223Y-146021240D01*
X137270792Y-145845001D01*
X136811225Y-145844600D01*
X136386486Y-146020098D01*
X136061240Y-146344777D01*
X135885001Y-146769208D01*
X135884600Y-147228775D01*
X136060098Y-147653514D01*
X136158712Y-147752300D01*
X135381513Y-147752300D01*
X135478760Y-147655223D01*
X135654999Y-147230792D01*
X135655400Y-146771225D01*
X135479902Y-146346486D01*
X135155223Y-146021240D01*
X134730792Y-145845001D01*
X134271225Y-145844600D01*
X133846486Y-146020098D01*
X133521240Y-146344777D01*
X133345001Y-146769208D01*
X133344600Y-147228775D01*
X133520098Y-147653514D01*
X133618712Y-147752300D01*
X132841513Y-147752300D01*
X132938760Y-147655223D01*
X133114999Y-147230792D01*
X133115400Y-146771225D01*
X132939902Y-146346486D01*
X132615223Y-146021240D01*
X132190792Y-145845001D01*
X131731225Y-145844600D01*
X131306486Y-146020098D01*
X130981240Y-146344777D01*
X130805001Y-146769208D01*
X130804600Y-147228775D01*
X130980098Y-147653514D01*
X131078712Y-147752300D01*
X130301513Y-147752300D01*
X130398760Y-147655223D01*
X130574999Y-147230792D01*
X130575400Y-146771225D01*
X130399902Y-146346486D01*
X130075223Y-146021240D01*
X129650792Y-145845001D01*
X129191225Y-145844600D01*
X128766486Y-146020098D01*
X128441240Y-146344777D01*
X128265001Y-146769208D01*
X128264600Y-147228775D01*
X128440098Y-147653514D01*
X128538712Y-147752300D01*
X127195363Y-147752300D01*
X127134475Y-147727017D01*
X126866699Y-147726783D01*
X126619217Y-147829041D01*
X126429706Y-148018222D01*
X126327017Y-148265525D01*
X126326783Y-148533301D01*
X126429041Y-148780783D01*
X126521097Y-148873000D01*
X118309153Y-148873000D01*
X118784942Y-148676408D01*
X119673289Y-147789611D01*
X120154651Y-146630361D01*
X120155746Y-145375145D01*
X119865261Y-144672117D01*
X131094670Y-144672117D01*
X131196928Y-144919599D01*
X131386109Y-145109110D01*
X131633412Y-145211799D01*
X131901188Y-145212033D01*
X132148670Y-145109775D01*
X132288072Y-144970616D01*
X134126838Y-144970616D01*
X134126783Y-145033301D01*
X134229041Y-145280783D01*
X134418222Y-145470294D01*
X134665525Y-145572983D01*
X134933301Y-145573217D01*
X135180783Y-145470959D01*
X135370294Y-145281778D01*
X135472983Y-145034475D01*
X135473217Y-144766699D01*
X135370959Y-144519217D01*
X135181778Y-144329706D01*
X134934475Y-144227017D01*
X134734200Y-144226842D01*
X134709576Y-144210389D01*
X134604059Y-144139885D01*
X134438816Y-144107016D01*
X132287918Y-144107016D01*
X132149665Y-143968522D01*
X131902362Y-143865833D01*
X131634586Y-143865599D01*
X131387104Y-143967857D01*
X131197593Y-144157038D01*
X131094904Y-144404341D01*
X131094670Y-144672117D01*
X119865261Y-144672117D01*
X119676408Y-144215058D01*
X118789611Y-143326711D01*
X117630361Y-142845349D01*
X116375145Y-142844254D01*
X115215058Y-143323592D01*
X114326711Y-144210389D01*
X114127000Y-144691347D01*
X114127000Y-136851143D01*
X126856657Y-136851143D01*
X126958915Y-137098625D01*
X127148096Y-137288136D01*
X127395399Y-137390825D01*
X127663175Y-137391059D01*
X127910657Y-137288801D01*
X128050059Y-137149642D01*
X130138984Y-137149642D01*
X130326954Y-137337612D01*
X130326783Y-137533301D01*
X130429041Y-137780783D01*
X130618222Y-137970294D01*
X130865525Y-138072983D01*
X131133301Y-138073217D01*
X131380783Y-137970959D01*
X131570294Y-137781778D01*
X131672983Y-137534475D01*
X131673217Y-137266699D01*
X131570959Y-137019217D01*
X131381778Y-136829706D01*
X131134475Y-136727017D01*
X130937503Y-136726845D01*
X130623171Y-136412513D01*
X130518463Y-136342550D01*
X130483085Y-136318911D01*
X130317842Y-136286042D01*
X128049905Y-136286042D01*
X127911652Y-136147548D01*
X127664349Y-136044859D01*
X127396573Y-136044625D01*
X127149091Y-136146883D01*
X126959580Y-136336064D01*
X126856891Y-136583367D01*
X126856657Y-136851143D01*
X114127000Y-136851143D01*
X114127000Y-134001706D01*
X123572892Y-134001706D01*
X123675150Y-134249188D01*
X123864331Y-134438699D01*
X124111634Y-134541388D01*
X124379410Y-134541622D01*
X124626892Y-134439364D01*
X124734644Y-134331800D01*
X130579969Y-134331800D01*
X130668200Y-134420185D01*
X130668200Y-135079969D01*
X130529706Y-135218222D01*
X130427017Y-135465525D01*
X130426783Y-135733301D01*
X130529041Y-135980783D01*
X130718222Y-136170294D01*
X130965525Y-136272983D01*
X131233301Y-136273217D01*
X131480783Y-136170959D01*
X131670294Y-135981778D01*
X131772983Y-135734475D01*
X131773217Y-135466699D01*
X131670959Y-135219217D01*
X131531800Y-135079815D01*
X131531800Y-134420031D01*
X131670294Y-134281778D01*
X131772983Y-134034475D01*
X131773217Y-133766699D01*
X131670959Y-133519217D01*
X131481778Y-133329706D01*
X131234475Y-133227017D01*
X130966699Y-133226783D01*
X130719217Y-133329041D01*
X130579815Y-133468200D01*
X124797680Y-133468200D01*
X124627887Y-133298111D01*
X124380584Y-133195422D01*
X124112808Y-133195188D01*
X123865326Y-133297446D01*
X123675815Y-133486627D01*
X123573126Y-133733930D01*
X123572892Y-134001706D01*
X114127000Y-134001706D01*
X114127000Y-129323628D01*
X116499587Y-129323628D01*
X116686479Y-129775942D01*
X117032238Y-130122305D01*
X117484225Y-130309986D01*
X117973628Y-130310413D01*
X118425942Y-130123521D01*
X118772305Y-129777762D01*
X118959986Y-129325775D01*
X118960413Y-128836372D01*
X118773521Y-128384058D01*
X118569819Y-128180000D01*
X119033331Y-128180000D01*
X119033331Y-129980000D01*
X119057759Y-130105904D01*
X119130450Y-130216562D01*
X119240187Y-130290636D01*
X119370000Y-130316669D01*
X121170000Y-130316669D01*
X121295904Y-130292241D01*
X121406562Y-130219550D01*
X121480636Y-130109813D01*
X121506669Y-129980000D01*
X121506669Y-129833301D01*
X127826783Y-129833301D01*
X127929041Y-130080783D01*
X128118222Y-130270294D01*
X128365525Y-130372983D01*
X128562497Y-130373155D01*
X133868200Y-135678857D01*
X133868200Y-136479969D01*
X133729706Y-136618222D01*
X133627017Y-136865525D01*
X133626783Y-137133301D01*
X133729041Y-137380783D01*
X133918222Y-137570294D01*
X134165525Y-137672983D01*
X134433301Y-137673217D01*
X134680783Y-137570959D01*
X134799955Y-137451995D01*
X134818222Y-137470294D01*
X135065525Y-137572983D01*
X135333301Y-137573217D01*
X135580783Y-137470959D01*
X135699955Y-137351995D01*
X135718222Y-137370294D01*
X135965525Y-137472983D01*
X136233301Y-137473217D01*
X136480783Y-137370959D01*
X136600042Y-137251908D01*
X136718222Y-137370294D01*
X136965525Y-137472983D01*
X137233301Y-137473217D01*
X137480783Y-137370959D01*
X137670294Y-137181778D01*
X137683973Y-137148834D01*
X146611250Y-137148834D01*
X146713508Y-137396316D01*
X146902689Y-137585827D01*
X147149992Y-137688516D01*
X147417768Y-137688750D01*
X147665250Y-137586492D01*
X147804652Y-137447333D01*
X149217618Y-137447333D01*
X149127017Y-137665525D01*
X149126963Y-137726923D01*
X148966699Y-137726783D01*
X148719217Y-137829041D01*
X148529706Y-138018222D01*
X148427017Y-138265525D01*
X148426783Y-138533301D01*
X148529041Y-138780783D01*
X148718222Y-138970294D01*
X148965525Y-139072983D01*
X149162497Y-139073155D01*
X149926954Y-139837611D01*
X149926783Y-140033301D01*
X150029041Y-140280783D01*
X150218222Y-140470294D01*
X150465525Y-140572983D01*
X150733301Y-140573217D01*
X150980783Y-140470959D01*
X151170294Y-140281778D01*
X151190423Y-140233301D01*
X174826783Y-140233301D01*
X174929041Y-140480783D01*
X174952300Y-140504083D01*
X174952300Y-145604637D01*
X174927017Y-145665525D01*
X174926783Y-145933301D01*
X175029041Y-146180783D01*
X175218222Y-146370294D01*
X175465525Y-146472983D01*
X175733301Y-146473217D01*
X175980783Y-146370959D01*
X176170294Y-146181778D01*
X176272983Y-145934475D01*
X176273217Y-145666699D01*
X176247700Y-145604943D01*
X176247700Y-140200000D01*
X176201060Y-139965525D01*
X176198397Y-139952135D01*
X176116645Y-139829786D01*
X176070959Y-139719217D01*
X175881778Y-139529706D01*
X175634475Y-139427017D01*
X175366699Y-139426783D01*
X175119217Y-139529041D01*
X174929706Y-139718222D01*
X174827017Y-139965525D01*
X174826783Y-140233301D01*
X151190423Y-140233301D01*
X151272983Y-140034475D01*
X151273124Y-139873077D01*
X151433301Y-139873217D01*
X151680783Y-139770959D01*
X151870294Y-139581778D01*
X151972983Y-139334475D01*
X151973217Y-139066699D01*
X151870959Y-138819217D01*
X151681778Y-138629706D01*
X151434475Y-138527017D01*
X151169060Y-138526785D01*
X150473074Y-137830799D01*
X150473217Y-137666699D01*
X150382576Y-137447333D01*
X158948888Y-137447333D01*
X160963245Y-139461690D01*
X160963074Y-139657379D01*
X161065332Y-139904861D01*
X161254513Y-140094372D01*
X161501816Y-140197061D01*
X161769592Y-140197295D01*
X162017074Y-140095037D01*
X162206585Y-139905856D01*
X162309274Y-139658553D01*
X162309508Y-139390777D01*
X162207250Y-139143295D01*
X162018069Y-138953784D01*
X161770766Y-138851095D01*
X161573794Y-138850923D01*
X159927050Y-137204179D01*
X180968822Y-137204179D01*
X181125451Y-137583251D01*
X181415223Y-137873529D01*
X181720081Y-138000117D01*
X181416749Y-138125451D01*
X181126471Y-138415223D01*
X180969180Y-138794022D01*
X180968822Y-139204179D01*
X181125451Y-139583251D01*
X181415223Y-139873529D01*
X181794022Y-140030820D01*
X182204179Y-140031178D01*
X182583251Y-139874549D01*
X182873529Y-139584777D01*
X183030820Y-139205978D01*
X183031178Y-138795821D01*
X182874549Y-138416749D01*
X182584777Y-138126471D01*
X182279919Y-137999883D01*
X182583251Y-137874549D01*
X182873529Y-137584777D01*
X183030820Y-137205978D01*
X183031178Y-136795821D01*
X182874549Y-136416749D01*
X182584777Y-136126471D01*
X182213570Y-135972333D01*
X182554513Y-135831457D01*
X182830488Y-135555964D01*
X182980029Y-135195829D01*
X182980370Y-134805882D01*
X182831457Y-134445487D01*
X182559309Y-134172863D01*
X182663729Y-134129611D01*
X182719410Y-133899016D01*
X182000000Y-133179605D01*
X181280590Y-133899016D01*
X181336271Y-134129611D01*
X181446704Y-134168040D01*
X181445487Y-134168543D01*
X181169512Y-134444036D01*
X181019971Y-134804171D01*
X181019630Y-135194118D01*
X181168543Y-135554513D01*
X181444036Y-135830488D01*
X181786478Y-135972682D01*
X181416749Y-136125451D01*
X181126471Y-136415223D01*
X180969180Y-136794022D01*
X180968822Y-137204179D01*
X159927050Y-137204179D01*
X159433075Y-136710204D01*
X159292989Y-136616602D01*
X159127746Y-136583733D01*
X154026925Y-136583733D01*
X154837612Y-135773046D01*
X155033301Y-135773217D01*
X155280783Y-135670959D01*
X155470294Y-135481778D01*
X155572983Y-135234475D01*
X155573217Y-134966699D01*
X155470959Y-134719217D01*
X155281778Y-134529706D01*
X155034475Y-134427017D01*
X154766699Y-134426783D01*
X154519217Y-134529041D01*
X154329706Y-134718222D01*
X154227017Y-134965525D01*
X154226845Y-135162497D01*
X152805609Y-136583733D01*
X147804498Y-136583733D01*
X147666245Y-136445239D01*
X147418942Y-136342550D01*
X147151166Y-136342316D01*
X146903684Y-136444574D01*
X146714173Y-136633755D01*
X146611484Y-136881058D01*
X146611250Y-137148834D01*
X137683973Y-137148834D01*
X137772983Y-136934475D01*
X137773217Y-136666699D01*
X137670959Y-136419217D01*
X137531800Y-136279815D01*
X137531800Y-135496297D01*
X137531801Y-135496292D01*
X137498932Y-135331050D01*
X137442814Y-135247064D01*
X137405329Y-135190963D01*
X137405326Y-135190961D01*
X136748328Y-134533962D01*
X137378886Y-134533962D01*
X137481144Y-134781444D01*
X137670325Y-134970955D01*
X137917628Y-135073644D01*
X138185404Y-135073878D01*
X138432886Y-134971620D01*
X138532027Y-134872652D01*
X138641047Y-134981862D01*
X138888350Y-135084551D01*
X139156126Y-135084785D01*
X139403608Y-134982527D01*
X139593119Y-134793346D01*
X139695808Y-134546043D01*
X139695980Y-134349071D01*
X140088217Y-133956834D01*
X142503250Y-133956834D01*
X142605508Y-134204316D01*
X142794689Y-134393827D01*
X143041992Y-134496516D01*
X143131947Y-134496595D01*
X143131869Y-134585453D01*
X143234127Y-134832935D01*
X143423308Y-135022446D01*
X143670611Y-135125135D01*
X143760566Y-135125214D01*
X143760488Y-135214072D01*
X143862746Y-135461554D01*
X144051927Y-135651065D01*
X144299230Y-135753754D01*
X144403340Y-135753845D01*
X144403250Y-135856834D01*
X144505508Y-136104316D01*
X144694689Y-136293827D01*
X144941992Y-136396516D01*
X145209768Y-136396750D01*
X145457250Y-136294492D01*
X145646761Y-136105311D01*
X145749450Y-135858008D01*
X145749622Y-135661036D01*
X146832207Y-134578450D01*
X147039500Y-134578631D01*
X147286982Y-134476373D01*
X147476493Y-134287192D01*
X147579182Y-134039889D01*
X147579416Y-133772113D01*
X147477158Y-133524631D01*
X147287977Y-133335120D01*
X147040674Y-133232431D01*
X146909797Y-133232317D01*
X146909836Y-133187317D01*
X146807578Y-132939835D01*
X146687032Y-132819078D01*
X180702378Y-132819078D01*
X180731917Y-133329428D01*
X180870389Y-133663729D01*
X181100984Y-133719410D01*
X181820395Y-133000000D01*
X182179605Y-133000000D01*
X182899016Y-133719410D01*
X183129611Y-133663729D01*
X183297622Y-133180922D01*
X183268083Y-132670572D01*
X183129611Y-132336271D01*
X182899016Y-132280590D01*
X182179605Y-133000000D01*
X181820395Y-133000000D01*
X181100984Y-132280590D01*
X180870389Y-132336271D01*
X180702378Y-132819078D01*
X146687032Y-132819078D01*
X146618397Y-132750324D01*
X146371094Y-132647635D01*
X146281139Y-132647556D01*
X146281217Y-132558699D01*
X146178959Y-132311217D01*
X145989778Y-132121706D01*
X145742475Y-132019017D01*
X145673084Y-132018956D01*
X145673217Y-131866699D01*
X145570959Y-131619217D01*
X145381778Y-131429706D01*
X145134475Y-131327017D01*
X144866699Y-131326783D01*
X144619217Y-131429041D01*
X144429706Y-131618222D01*
X144327017Y-131865525D01*
X144326845Y-132062497D01*
X143238855Y-133150487D01*
X143043166Y-133150316D01*
X142795684Y-133252574D01*
X142606173Y-133441755D01*
X142503484Y-133689058D01*
X142503250Y-133956834D01*
X140088217Y-133956834D01*
X144418408Y-129626643D01*
X144873828Y-129626643D01*
X144976086Y-129874125D01*
X145165267Y-130063636D01*
X145412570Y-130166325D01*
X145680346Y-130166559D01*
X145927828Y-130064301D01*
X146067230Y-129925142D01*
X154406658Y-129925142D01*
X154571901Y-129892273D01*
X154711987Y-129798671D01*
X155737612Y-128773046D01*
X155933301Y-128773217D01*
X156180783Y-128670959D01*
X156370294Y-128481778D01*
X156472983Y-128234475D01*
X156473217Y-127966699D01*
X156370959Y-127719217D01*
X156181778Y-127529706D01*
X156139760Y-127512259D01*
X156170294Y-127481778D01*
X156272983Y-127234475D01*
X156273217Y-126966699D01*
X156170959Y-126719217D01*
X155981778Y-126529706D01*
X155734475Y-126427017D01*
X155466699Y-126426783D01*
X155219217Y-126529041D01*
X155029706Y-126718222D01*
X154927017Y-126965525D01*
X154926845Y-127162498D01*
X153621142Y-128468200D01*
X147378858Y-128468200D01*
X147370302Y-128459644D01*
X147270959Y-128219217D01*
X147081778Y-128029706D01*
X146834475Y-127927017D01*
X146566699Y-127926783D01*
X146319217Y-128029041D01*
X146129706Y-128218222D01*
X146027017Y-128465525D01*
X146026783Y-128733301D01*
X146129041Y-128980783D01*
X146209659Y-129061542D01*
X146067076Y-129061542D01*
X145928823Y-128923048D01*
X145681520Y-128820359D01*
X145413744Y-128820125D01*
X145166262Y-128922383D01*
X144976751Y-129111564D01*
X144874062Y-129358867D01*
X144873828Y-129626643D01*
X144418408Y-129626643D01*
X145105329Y-128939722D01*
X145126208Y-128908474D01*
X145198931Y-128799636D01*
X145211836Y-128734758D01*
X145231801Y-128634393D01*
X145231800Y-128634388D01*
X145231800Y-128320031D01*
X145370294Y-128181778D01*
X145472983Y-127934475D01*
X145473217Y-127666699D01*
X145370959Y-127419217D01*
X145181778Y-127229706D01*
X144934475Y-127127017D01*
X144666699Y-127126783D01*
X144419217Y-127229041D01*
X144229706Y-127418222D01*
X144127017Y-127665525D01*
X144126783Y-127933301D01*
X144229041Y-128180783D01*
X144368200Y-128320185D01*
X144368200Y-128455535D01*
X141438461Y-131385274D01*
X141438461Y-128391497D01*
X141576955Y-128253244D01*
X141679644Y-128005941D01*
X141679878Y-127738165D01*
X141577620Y-127490683D01*
X141388439Y-127301172D01*
X141141136Y-127198483D01*
X140873360Y-127198249D01*
X140625878Y-127300507D01*
X140436367Y-127489688D01*
X140333678Y-127736991D01*
X140333444Y-128004767D01*
X140435702Y-128252249D01*
X140574861Y-128391651D01*
X140574861Y-131267246D01*
X138114491Y-133727615D01*
X137918802Y-133727444D01*
X137671320Y-133829702D01*
X137481809Y-134018883D01*
X137379120Y-134266186D01*
X137378886Y-134533962D01*
X136748328Y-134533962D01*
X131071940Y-128857574D01*
X136398808Y-128857574D01*
X136501066Y-129105056D01*
X136690247Y-129294567D01*
X136937550Y-129397256D01*
X137205326Y-129397490D01*
X137452808Y-129295232D01*
X137519443Y-129228713D01*
X137586309Y-129295696D01*
X137833612Y-129398385D01*
X138101388Y-129398619D01*
X138348870Y-129296361D01*
X138538381Y-129107180D01*
X138641070Y-128859877D01*
X138641242Y-128662905D01*
X144616637Y-122687510D01*
X145570555Y-122687510D01*
X145708808Y-122826004D01*
X145956111Y-122928693D01*
X146223887Y-122928927D01*
X146471369Y-122826669D01*
X146574977Y-122723241D01*
X146574977Y-124560798D01*
X146607846Y-124726041D01*
X146699623Y-124863396D01*
X146701448Y-124866127D01*
X146897724Y-125062403D01*
X146897553Y-125258092D01*
X146999811Y-125505574D01*
X147188992Y-125695085D01*
X147436295Y-125797774D01*
X147704071Y-125798008D01*
X147951553Y-125695750D01*
X148028736Y-125618702D01*
X148093720Y-125683799D01*
X148341023Y-125786488D01*
X148608799Y-125786722D01*
X148856281Y-125684464D01*
X148933461Y-125607418D01*
X148996228Y-125670294D01*
X149243531Y-125772983D01*
X149426923Y-125773143D01*
X149426783Y-125933301D01*
X149529041Y-126180783D01*
X149718222Y-126370294D01*
X149965525Y-126472983D01*
X150233301Y-126473217D01*
X150480783Y-126370959D01*
X150670294Y-126181778D01*
X150772983Y-125934475D01*
X150773217Y-125666699D01*
X150670959Y-125419217D01*
X150531800Y-125279815D01*
X150531800Y-124863396D01*
X150512069Y-124764201D01*
X156374519Y-124764201D01*
X156476777Y-125011683D01*
X156665958Y-125201194D01*
X156913261Y-125303883D01*
X157181037Y-125304117D01*
X157428519Y-125201859D01*
X157618030Y-125012678D01*
X157720719Y-124765375D01*
X157720782Y-124692903D01*
X158109430Y-124692903D01*
X158211688Y-124940385D01*
X158400869Y-125129896D01*
X158648172Y-125232585D01*
X158845144Y-125232757D01*
X160980201Y-127367814D01*
X160929706Y-127418222D01*
X160827017Y-127665525D01*
X160826783Y-127933301D01*
X160929041Y-128180783D01*
X161118222Y-128370294D01*
X161365525Y-128472983D01*
X161633301Y-128473217D01*
X161880783Y-128370959D01*
X162070294Y-128181778D01*
X162172983Y-127934475D01*
X162173070Y-127834593D01*
X162265525Y-127872983D01*
X162533301Y-127873217D01*
X162780783Y-127770959D01*
X162970294Y-127581778D01*
X163072983Y-127334475D01*
X163073217Y-127066699D01*
X162970959Y-126819217D01*
X162831800Y-126679815D01*
X162831800Y-126679703D01*
X162798931Y-126514460D01*
X162705329Y-126374374D01*
X160216202Y-123885247D01*
X160216373Y-123689558D01*
X160114115Y-123442076D01*
X159924934Y-123252565D01*
X159677631Y-123149876D01*
X159409855Y-123149642D01*
X159162373Y-123251900D01*
X158972862Y-123441081D01*
X158870173Y-123688384D01*
X158870000Y-123886578D01*
X158649346Y-123886385D01*
X158401864Y-123988643D01*
X158212353Y-124177824D01*
X158109664Y-124425127D01*
X158109430Y-124692903D01*
X157720782Y-124692903D01*
X157720953Y-124497599D01*
X157685193Y-124411055D01*
X159537611Y-122558636D01*
X159733301Y-122558807D01*
X159980783Y-122456549D01*
X160170294Y-122267368D01*
X160272983Y-122020065D01*
X160273217Y-121752289D01*
X160170959Y-121504807D01*
X159999752Y-121333301D01*
X175126783Y-121333301D01*
X175152300Y-121395057D01*
X175152300Y-131404637D01*
X175127017Y-131465525D01*
X175126783Y-131733301D01*
X175229041Y-131980783D01*
X175418222Y-132170294D01*
X175665525Y-132272983D01*
X175933301Y-132273217D01*
X176180783Y-132170959D01*
X176370294Y-131981778D01*
X176472983Y-131734475D01*
X176473217Y-131466699D01*
X176447700Y-131404943D01*
X176447700Y-131194118D01*
X181019630Y-131194118D01*
X181168543Y-131554513D01*
X181440691Y-131827137D01*
X181336271Y-131870389D01*
X181280590Y-132100984D01*
X182000000Y-132820395D01*
X182719410Y-132100984D01*
X182663729Y-131870389D01*
X182553296Y-131831960D01*
X182554513Y-131831457D01*
X182830488Y-131555964D01*
X182980029Y-131195829D01*
X182980370Y-130805882D01*
X182831457Y-130445487D01*
X182555964Y-130169512D01*
X182195829Y-130019971D01*
X181805882Y-130019630D01*
X181445487Y-130168543D01*
X181169512Y-130444036D01*
X181019971Y-130804171D01*
X181019630Y-131194118D01*
X176447700Y-131194118D01*
X176447700Y-129194118D01*
X181019630Y-129194118D01*
X181168543Y-129554513D01*
X181444036Y-129830488D01*
X181804171Y-129980029D01*
X182194118Y-129980370D01*
X182554513Y-129831457D01*
X182830488Y-129555964D01*
X182980029Y-129195829D01*
X182980370Y-128805882D01*
X182831457Y-128445487D01*
X182555964Y-128169512D01*
X182195829Y-128019971D01*
X181805882Y-128019630D01*
X181445487Y-128168543D01*
X181169512Y-128444036D01*
X181019971Y-128804171D01*
X181019630Y-129194118D01*
X176447700Y-129194118D01*
X176447700Y-121395363D01*
X176472983Y-121334475D01*
X176473217Y-121066699D01*
X176370959Y-120819217D01*
X176181778Y-120629706D01*
X175934475Y-120527017D01*
X175666699Y-120526783D01*
X175419217Y-120629041D01*
X175229706Y-120818222D01*
X175127017Y-121065525D01*
X175126783Y-121333301D01*
X159999752Y-121333301D01*
X159981778Y-121315296D01*
X159734475Y-121212607D01*
X159466699Y-121212373D01*
X159219217Y-121314631D01*
X159029706Y-121503812D01*
X158927017Y-121751115D01*
X158926845Y-121948088D01*
X156917247Y-123957685D01*
X156914435Y-123957683D01*
X156666953Y-124059941D01*
X156477442Y-124249122D01*
X156374753Y-124496425D01*
X156374519Y-124764201D01*
X150512069Y-124764201D01*
X150498931Y-124698153D01*
X150405329Y-124558067D01*
X148963614Y-123116352D01*
X148963614Y-122230666D01*
X149065525Y-122272983D01*
X149333301Y-122273217D01*
X149580783Y-122170959D01*
X149770294Y-121981778D01*
X149872983Y-121734475D01*
X149873155Y-121537502D01*
X150153027Y-121257630D01*
X150153030Y-121257628D01*
X150246632Y-121117542D01*
X150246633Y-121117541D01*
X150279502Y-120952299D01*
X150279501Y-120952294D01*
X150279501Y-119147701D01*
X150246632Y-118982458D01*
X150153030Y-118842372D01*
X149305527Y-117994869D01*
X149305527Y-115633301D01*
X149426783Y-115633301D01*
X149529041Y-115880783D01*
X149648092Y-116000042D01*
X149529706Y-116118222D01*
X149427017Y-116365525D01*
X149426783Y-116633301D01*
X149529041Y-116880783D01*
X149718222Y-117070294D01*
X149965525Y-117172983D01*
X150162497Y-117173155D01*
X154826954Y-121837612D01*
X154826783Y-122033301D01*
X154929041Y-122280783D01*
X155118222Y-122470294D01*
X155365525Y-122572983D01*
X155633301Y-122573217D01*
X155880783Y-122470959D01*
X156070294Y-122281778D01*
X156172983Y-122034475D01*
X156173217Y-121766699D01*
X156070959Y-121519217D01*
X156001821Y-121449958D01*
X156170294Y-121281778D01*
X156272983Y-121034475D01*
X156273217Y-120766699D01*
X156170959Y-120519217D01*
X155981778Y-120329706D01*
X155734475Y-120227017D01*
X155537503Y-120226845D01*
X154514837Y-119204179D01*
X180968822Y-119204179D01*
X181125451Y-119583251D01*
X181415223Y-119873529D01*
X181720081Y-120000117D01*
X181416749Y-120125451D01*
X181126471Y-120415223D01*
X180969180Y-120794022D01*
X180968822Y-121204179D01*
X181125451Y-121583251D01*
X181415223Y-121873529D01*
X181794022Y-122030820D01*
X182204179Y-122031178D01*
X182583251Y-121874549D01*
X182873529Y-121584777D01*
X183030820Y-121205978D01*
X183031178Y-120795821D01*
X182874549Y-120416749D01*
X182584777Y-120126471D01*
X182279919Y-119999883D01*
X182583251Y-119874549D01*
X182873529Y-119584777D01*
X183030820Y-119205978D01*
X183031178Y-118795821D01*
X182874549Y-118416749D01*
X182584777Y-118126471D01*
X182213570Y-117972333D01*
X182554513Y-117831457D01*
X182830488Y-117555964D01*
X182980029Y-117195829D01*
X182980370Y-116805882D01*
X182831457Y-116445487D01*
X182559309Y-116172863D01*
X182663729Y-116129611D01*
X182719410Y-115899016D01*
X182000000Y-115179605D01*
X181280590Y-115899016D01*
X181336271Y-116129611D01*
X181446704Y-116168040D01*
X181445487Y-116168543D01*
X181169512Y-116444036D01*
X181019971Y-116804171D01*
X181019630Y-117194118D01*
X181168543Y-117554513D01*
X181444036Y-117830488D01*
X181786478Y-117972682D01*
X181416749Y-118125451D01*
X181126471Y-118415223D01*
X180969180Y-118794022D01*
X180968822Y-119204179D01*
X154514837Y-119204179D01*
X150773133Y-115462475D01*
X150773217Y-115366699D01*
X150670959Y-115119217D01*
X150481778Y-114929706D01*
X150234475Y-114827017D01*
X149966699Y-114826783D01*
X149719217Y-114929041D01*
X149529706Y-115118222D01*
X149427017Y-115365525D01*
X149426783Y-115633301D01*
X149305527Y-115633301D01*
X149305527Y-115357619D01*
X149420347Y-115242799D01*
X149452505Y-115194671D01*
X149513949Y-115102713D01*
X149546818Y-114937470D01*
X149546818Y-114819078D01*
X180702378Y-114819078D01*
X180731917Y-115329428D01*
X180870389Y-115663729D01*
X181100984Y-115719410D01*
X181820395Y-115000000D01*
X182179605Y-115000000D01*
X182899016Y-115719410D01*
X183129611Y-115663729D01*
X183297622Y-115180922D01*
X183268083Y-114670572D01*
X183129611Y-114336271D01*
X182899016Y-114280590D01*
X182179605Y-115000000D01*
X181820395Y-115000000D01*
X181100984Y-114280590D01*
X180870389Y-114336271D01*
X180702378Y-114819078D01*
X149546818Y-114819078D01*
X149546817Y-113678504D01*
X149546818Y-113678499D01*
X149513949Y-113513257D01*
X149448322Y-113415040D01*
X149420346Y-113373170D01*
X149420343Y-113373168D01*
X149299979Y-113252804D01*
X149299979Y-113194118D01*
X181019630Y-113194118D01*
X181168543Y-113554513D01*
X181440691Y-113827137D01*
X181336271Y-113870389D01*
X181280590Y-114100984D01*
X182000000Y-114820395D01*
X182719410Y-114100984D01*
X182663729Y-113870389D01*
X182553296Y-113831960D01*
X182554513Y-113831457D01*
X182830488Y-113555964D01*
X182980029Y-113195829D01*
X182980370Y-112805882D01*
X182831457Y-112445487D01*
X182555964Y-112169512D01*
X182195829Y-112019971D01*
X181805882Y-112019630D01*
X181445487Y-112168543D01*
X181169512Y-112444036D01*
X181019971Y-112804171D01*
X181019630Y-113194118D01*
X149299979Y-113194118D01*
X149299979Y-111210679D01*
X150237611Y-110273046D01*
X150433301Y-110273217D01*
X150680783Y-110170959D01*
X150870294Y-109981778D01*
X150972983Y-109734475D01*
X150973217Y-109466699D01*
X150870959Y-109219217D01*
X150681778Y-109029706D01*
X150434475Y-108927017D01*
X150210974Y-108926822D01*
X150211103Y-108779225D01*
X150108845Y-108531743D01*
X150016100Y-108438836D01*
X153393791Y-108438836D01*
X153577007Y-108882252D01*
X153915964Y-109221801D01*
X154359059Y-109405790D01*
X154838836Y-109406209D01*
X155275330Y-109225853D01*
X156753752Y-109225853D01*
X156830956Y-109474563D01*
X157377250Y-109671843D01*
X157957456Y-109645048D01*
X158369044Y-109474563D01*
X158446248Y-109225853D01*
X157600000Y-108379605D01*
X156753752Y-109225853D01*
X155275330Y-109225853D01*
X155282252Y-109222993D01*
X155621801Y-108884036D01*
X155805790Y-108440941D01*
X155806194Y-107977250D01*
X156128157Y-107977250D01*
X156154952Y-108557456D01*
X156325437Y-108969044D01*
X156574147Y-109046248D01*
X157420395Y-108200000D01*
X157779605Y-108200000D01*
X158625853Y-109046248D01*
X158874563Y-108969044D01*
X159071843Y-108422750D01*
X159045048Y-107842544D01*
X158874563Y-107430956D01*
X158625853Y-107353752D01*
X157779605Y-108200000D01*
X157420395Y-108200000D01*
X156574147Y-107353752D01*
X156325437Y-107430956D01*
X156128157Y-107977250D01*
X155806194Y-107977250D01*
X155806209Y-107961164D01*
X155622993Y-107517748D01*
X155284036Y-107178199D01*
X155274278Y-107174147D01*
X156753752Y-107174147D01*
X157600000Y-108020395D01*
X158446248Y-107174147D01*
X158369044Y-106925437D01*
X157822750Y-106728157D01*
X157242544Y-106754952D01*
X156830956Y-106925437D01*
X156753752Y-107174147D01*
X155274278Y-107174147D01*
X154840941Y-106994210D01*
X154361164Y-106993791D01*
X153917748Y-107177007D01*
X153578199Y-107515964D01*
X153394210Y-107959059D01*
X153393791Y-108438836D01*
X150016100Y-108438836D01*
X149919664Y-108342232D01*
X149672361Y-108239543D01*
X149404585Y-108239309D01*
X149157103Y-108341567D01*
X148967592Y-108530748D01*
X148864903Y-108778051D01*
X148864731Y-108975023D01*
X148470110Y-109369644D01*
X148454290Y-109290117D01*
X148454290Y-109290116D01*
X148360688Y-109150030D01*
X148273046Y-109062388D01*
X148273217Y-108866699D01*
X148170959Y-108619217D01*
X147981778Y-108429706D01*
X147734475Y-108327017D01*
X147466699Y-108326783D01*
X147307306Y-108392643D01*
X147372983Y-108234475D01*
X147373155Y-108037503D01*
X147837612Y-107573046D01*
X148033301Y-107573217D01*
X148280783Y-107470959D01*
X148470294Y-107281778D01*
X148572983Y-107034475D01*
X148573217Y-106766699D01*
X148470959Y-106519217D01*
X148281778Y-106329706D01*
X148034475Y-106227017D01*
X147873164Y-106226876D01*
X147873217Y-106166699D01*
X147770959Y-105919217D01*
X147581778Y-105729706D01*
X147334475Y-105627017D01*
X147066699Y-105626783D01*
X146819217Y-105729041D01*
X146629706Y-105918222D01*
X146527017Y-106165525D01*
X146526845Y-106362497D01*
X143521142Y-109368200D01*
X142520031Y-109368200D01*
X142381778Y-109229706D01*
X142134475Y-109127017D01*
X141866699Y-109126783D01*
X141619217Y-109229041D01*
X141429706Y-109418222D01*
X141327017Y-109665525D01*
X141326783Y-109933301D01*
X141429041Y-110180783D01*
X141618222Y-110370294D01*
X141865525Y-110472983D01*
X142133301Y-110473217D01*
X142380783Y-110370959D01*
X142520185Y-110231800D01*
X143700000Y-110231800D01*
X143865243Y-110198931D01*
X144005329Y-110105329D01*
X146026914Y-108083744D01*
X146026783Y-108233301D01*
X146129041Y-108480783D01*
X146318222Y-108670294D01*
X146565525Y-108772983D01*
X146833301Y-108773217D01*
X146992694Y-108707357D01*
X146927017Y-108865525D01*
X146926783Y-109133301D01*
X147008630Y-109331385D01*
X146821467Y-109518222D01*
X146718778Y-109765525D01*
X146718606Y-109962497D01*
X146701448Y-109979655D01*
X146607846Y-110119741D01*
X146574977Y-110284984D01*
X146574977Y-121788208D01*
X146472364Y-121685416D01*
X146225061Y-121582727D01*
X145957285Y-121582493D01*
X145709803Y-121684751D01*
X145570401Y-121823910D01*
X144437779Y-121823910D01*
X144272536Y-121856779D01*
X144167029Y-121927276D01*
X144132450Y-121950381D01*
X138030475Y-128052356D01*
X137834786Y-128052185D01*
X137587304Y-128154443D01*
X137520669Y-128220962D01*
X137503825Y-128204088D01*
X137503825Y-127556542D01*
X142154716Y-122905650D01*
X142350406Y-122905821D01*
X142597888Y-122803563D01*
X142787399Y-122614382D01*
X142890088Y-122367079D01*
X142890322Y-122099303D01*
X142788064Y-121851821D01*
X142598883Y-121662310D01*
X142351580Y-121559621D01*
X142083804Y-121559387D01*
X141836322Y-121661645D01*
X141646811Y-121850826D01*
X141544122Y-122098129D01*
X141543950Y-122295102D01*
X136766696Y-127072355D01*
X136673094Y-127212441D01*
X136640225Y-127377684D01*
X136640225Y-128204242D01*
X136501731Y-128342495D01*
X136399042Y-128589798D01*
X136398808Y-128857574D01*
X131071940Y-128857574D01*
X131001037Y-128786671D01*
X130994051Y-128782003D01*
X130860951Y-128693069D01*
X130695708Y-128660200D01*
X130528031Y-128660200D01*
X130389778Y-128521706D01*
X130142475Y-128419017D01*
X129874699Y-128418783D01*
X129627217Y-128521041D01*
X129437706Y-128710222D01*
X129350365Y-128920563D01*
X129341830Y-128877656D01*
X129273035Y-128774697D01*
X129273217Y-128566699D01*
X129170959Y-128319217D01*
X128981778Y-128129706D01*
X128734475Y-128027017D01*
X128466699Y-128026783D01*
X128219217Y-128129041D01*
X128029706Y-128318222D01*
X127927017Y-128565525D01*
X127926783Y-128833301D01*
X128029041Y-129080783D01*
X128098179Y-129150042D01*
X127929706Y-129318222D01*
X127827017Y-129565525D01*
X127826783Y-129833301D01*
X121506669Y-129833301D01*
X121506669Y-128180000D01*
X121482241Y-128054096D01*
X121409550Y-127943438D01*
X121299813Y-127869364D01*
X121170000Y-127843331D01*
X119370000Y-127843331D01*
X119244096Y-127867759D01*
X119133438Y-127940450D01*
X119059364Y-128050187D01*
X119033331Y-128180000D01*
X118569819Y-128180000D01*
X118427762Y-128037695D01*
X117975775Y-127850014D01*
X117486372Y-127849587D01*
X117034058Y-128036479D01*
X116687695Y-128382238D01*
X116500014Y-128834225D01*
X116499587Y-129323628D01*
X114127000Y-129323628D01*
X114127000Y-126783628D01*
X116499587Y-126783628D01*
X116686479Y-127235942D01*
X117032238Y-127582305D01*
X117484225Y-127769986D01*
X117973628Y-127770413D01*
X118425942Y-127583521D01*
X118772305Y-127237762D01*
X118959986Y-126785775D01*
X118959987Y-126783628D01*
X119039587Y-126783628D01*
X119226479Y-127235942D01*
X119572238Y-127582305D01*
X120024225Y-127769986D01*
X120513628Y-127770413D01*
X120965942Y-127583521D01*
X121312305Y-127237762D01*
X121499986Y-126785775D01*
X121500413Y-126296372D01*
X121313521Y-125844058D01*
X120967762Y-125497695D01*
X120515775Y-125310014D01*
X120026372Y-125309587D01*
X119574058Y-125496479D01*
X119227695Y-125842238D01*
X119040014Y-126294225D01*
X119039587Y-126783628D01*
X118959987Y-126783628D01*
X118960413Y-126296372D01*
X118773521Y-125844058D01*
X118427762Y-125497695D01*
X117975775Y-125310014D01*
X117486372Y-125309587D01*
X117034058Y-125496479D01*
X116687695Y-125842238D01*
X116500014Y-126294225D01*
X116499587Y-126783628D01*
X114127000Y-126783628D01*
X114127000Y-124243628D01*
X116499587Y-124243628D01*
X116686479Y-124695942D01*
X117032238Y-125042305D01*
X117484225Y-125229986D01*
X117973628Y-125230413D01*
X118425942Y-125043521D01*
X118772305Y-124697762D01*
X118959986Y-124245775D01*
X118959987Y-124243628D01*
X119039587Y-124243628D01*
X119226479Y-124695942D01*
X119572238Y-125042305D01*
X120024225Y-125229986D01*
X120513628Y-125230413D01*
X120965942Y-125043521D01*
X121312305Y-124697762D01*
X121499986Y-124245775D01*
X121500413Y-123756372D01*
X121313521Y-123304058D01*
X120967762Y-122957695D01*
X120515775Y-122770014D01*
X120026372Y-122769587D01*
X119574058Y-122956479D01*
X119227695Y-123302238D01*
X119040014Y-123754225D01*
X119039587Y-124243628D01*
X118959987Y-124243628D01*
X118960413Y-123756372D01*
X118773521Y-123304058D01*
X118427762Y-122957695D01*
X117975775Y-122770014D01*
X117486372Y-122769587D01*
X117034058Y-122956479D01*
X116687695Y-123302238D01*
X116500014Y-123754225D01*
X116499587Y-124243628D01*
X114127000Y-124243628D01*
X114127000Y-121703628D01*
X116499587Y-121703628D01*
X116686479Y-122155942D01*
X117032238Y-122502305D01*
X117484225Y-122689986D01*
X117973628Y-122690413D01*
X118425942Y-122503521D01*
X118772305Y-122157762D01*
X118959986Y-121705775D01*
X118959987Y-121703628D01*
X119039587Y-121703628D01*
X119226479Y-122155942D01*
X119572238Y-122502305D01*
X120024225Y-122689986D01*
X120513628Y-122690413D01*
X120965942Y-122503521D01*
X121312305Y-122157762D01*
X121499986Y-121705775D01*
X121500413Y-121216372D01*
X121313521Y-120764058D01*
X120967762Y-120417695D01*
X120831716Y-120361204D01*
X121084148Y-120256643D01*
X121170554Y-120000159D01*
X120270000Y-119099605D01*
X119369446Y-120000159D01*
X119455852Y-120256643D01*
X119723713Y-120354643D01*
X119574058Y-120416479D01*
X119227695Y-120762238D01*
X119040014Y-121214225D01*
X119039587Y-121703628D01*
X118959987Y-121703628D01*
X118960413Y-121216372D01*
X118773521Y-120764058D01*
X118427762Y-120417695D01*
X118291716Y-120361204D01*
X118544148Y-120256643D01*
X118630554Y-120000159D01*
X117730000Y-119099605D01*
X116829446Y-120000159D01*
X116915852Y-120256643D01*
X117183713Y-120354643D01*
X117034058Y-120416479D01*
X116687695Y-120762238D01*
X116500014Y-121214225D01*
X116499587Y-121703628D01*
X114127000Y-121703628D01*
X114127000Y-118679336D01*
X116183542Y-118679336D01*
X116209161Y-119289460D01*
X116393357Y-119734148D01*
X116649841Y-119820554D01*
X117550395Y-118920000D01*
X117909605Y-118920000D01*
X118810159Y-119820554D01*
X119000000Y-119756599D01*
X119189841Y-119820554D01*
X120090395Y-118920000D01*
X120449605Y-118920000D01*
X121350159Y-119820554D01*
X121606643Y-119734148D01*
X121816458Y-119160664D01*
X121790839Y-118550540D01*
X121606643Y-118105852D01*
X121350159Y-118019446D01*
X120449605Y-118920000D01*
X120090395Y-118920000D01*
X119189841Y-118019446D01*
X119000000Y-118083401D01*
X118810159Y-118019446D01*
X117909605Y-118920000D01*
X117550395Y-118920000D01*
X116649841Y-118019446D01*
X116393357Y-118105852D01*
X116183542Y-118679336D01*
X114127000Y-118679336D01*
X114127000Y-117839841D01*
X116829446Y-117839841D01*
X117730000Y-118740395D01*
X118630554Y-117839841D01*
X119369446Y-117839841D01*
X120270000Y-118740395D01*
X121170554Y-117839841D01*
X121084148Y-117583357D01*
X120510664Y-117373542D01*
X119900540Y-117399161D01*
X119455852Y-117583357D01*
X119369446Y-117839841D01*
X118630554Y-117839841D01*
X118544148Y-117583357D01*
X117970664Y-117373542D01*
X117360540Y-117399161D01*
X116915852Y-117583357D01*
X116829446Y-117839841D01*
X114127000Y-117839841D01*
X114127000Y-116633301D01*
X141626783Y-116633301D01*
X141729041Y-116880783D01*
X141918222Y-117070294D01*
X142165525Y-117172983D01*
X142433301Y-117173217D01*
X142680783Y-117070959D01*
X142870294Y-116881778D01*
X142972983Y-116634475D01*
X142973155Y-116437503D01*
X143605326Y-115805331D01*
X143605329Y-115805329D01*
X143698931Y-115665243D01*
X143698932Y-115665242D01*
X143702010Y-115649769D01*
X143870294Y-115481778D01*
X143972983Y-115234475D01*
X143973217Y-114966699D01*
X143870959Y-114719217D01*
X143681778Y-114529706D01*
X143434475Y-114427017D01*
X143166699Y-114426783D01*
X142919217Y-114529041D01*
X142729706Y-114718222D01*
X142627017Y-114965525D01*
X142626783Y-115233301D01*
X142723053Y-115466290D01*
X142362388Y-115826954D01*
X142166699Y-115826783D01*
X141919217Y-115929041D01*
X141729706Y-116118222D01*
X141627017Y-116365525D01*
X141626783Y-116633301D01*
X114127000Y-116633301D01*
X114127000Y-107940497D01*
X121773054Y-107940497D01*
X121773054Y-110427562D01*
X121805923Y-110592805D01*
X121877548Y-110700000D01*
X121899525Y-110732891D01*
X123212693Y-112046059D01*
X123352779Y-112139661D01*
X123518022Y-112172530D01*
X125126918Y-112172530D01*
X125265171Y-112311024D01*
X125512474Y-112413713D01*
X125780250Y-112413947D01*
X126027732Y-112311689D01*
X126217243Y-112122508D01*
X126319932Y-111875205D01*
X126320166Y-111607429D01*
X126217908Y-111359947D01*
X126055058Y-111196813D01*
X126170294Y-111081778D01*
X126272983Y-110834475D01*
X126273217Y-110566699D01*
X126176158Y-110331800D01*
X127700000Y-110331800D01*
X127865243Y-110298931D01*
X128005329Y-110205329D01*
X128237612Y-109973046D01*
X128433301Y-109973217D01*
X128680783Y-109870959D01*
X128870294Y-109681778D01*
X128972983Y-109434475D01*
X128973217Y-109166699D01*
X128870959Y-108919217D01*
X128683868Y-108731800D01*
X130079969Y-108731800D01*
X130218222Y-108870294D01*
X130465525Y-108972983D01*
X130733301Y-108973217D01*
X130980783Y-108870959D01*
X131170294Y-108681778D01*
X131272983Y-108434475D01*
X131273217Y-108166699D01*
X131170959Y-107919217D01*
X130981778Y-107729706D01*
X130734475Y-107627017D01*
X130466699Y-107626783D01*
X130219217Y-107729041D01*
X130079815Y-107868200D01*
X126600000Y-107868200D01*
X126434757Y-107901069D01*
X126294671Y-107994671D01*
X126294669Y-107994674D01*
X126262389Y-108026954D01*
X126066699Y-108026783D01*
X125819217Y-108129041D01*
X125629706Y-108318222D01*
X125527017Y-108565525D01*
X125526783Y-108833301D01*
X125629041Y-109080783D01*
X125818222Y-109270294D01*
X126065525Y-109372983D01*
X126333301Y-109373217D01*
X126580783Y-109270959D01*
X126770294Y-109081778D01*
X126872983Y-108834475D01*
X126873073Y-108731800D01*
X127916453Y-108731800D01*
X127729706Y-108918222D01*
X127627017Y-109165525D01*
X127626845Y-109362497D01*
X127521142Y-109468200D01*
X124020031Y-109468200D01*
X123881778Y-109329706D01*
X123634475Y-109227017D01*
X123366699Y-109226783D01*
X123284099Y-109260913D01*
X123284099Y-108526559D01*
X124678858Y-107131800D01*
X125779969Y-107131800D01*
X125918222Y-107270294D01*
X126165525Y-107372983D01*
X126433301Y-107373217D01*
X126680783Y-107270959D01*
X126870294Y-107081778D01*
X126931946Y-106933301D01*
X140626783Y-106933301D01*
X140729041Y-107180783D01*
X140918222Y-107370294D01*
X141165525Y-107472983D01*
X141433301Y-107473217D01*
X141680783Y-107370959D01*
X141820185Y-107231800D01*
X143679969Y-107231800D01*
X143818222Y-107370294D01*
X144065525Y-107472983D01*
X144333301Y-107473217D01*
X144580783Y-107370959D01*
X144770294Y-107181778D01*
X144872983Y-106934475D01*
X144873217Y-106666699D01*
X144770959Y-106419217D01*
X144581778Y-106229706D01*
X144334475Y-106127017D01*
X144066699Y-106126783D01*
X143819217Y-106229041D01*
X143679815Y-106368200D01*
X141820031Y-106368200D01*
X141681778Y-106229706D01*
X141434475Y-106127017D01*
X141166699Y-106126783D01*
X140919217Y-106229041D01*
X140729706Y-106418222D01*
X140627017Y-106665525D01*
X140626783Y-106933301D01*
X126931946Y-106933301D01*
X126972983Y-106834475D01*
X126973217Y-106566699D01*
X126870959Y-106319217D01*
X126698386Y-106146343D01*
X126839434Y-106005540D01*
X126942123Y-105758237D01*
X126942357Y-105490461D01*
X126840099Y-105242979D01*
X126650918Y-105053468D01*
X126403615Y-104950779D01*
X126135839Y-104950545D01*
X125888357Y-105052803D01*
X125748955Y-105191962D01*
X124521589Y-105191962D01*
X124356346Y-105224831D01*
X124283931Y-105273217D01*
X124216260Y-105318433D01*
X121899525Y-107635168D01*
X121805923Y-107775254D01*
X121773054Y-107940497D01*
X114127000Y-107940497D01*
X114127000Y-105309153D01*
X114323592Y-105784942D01*
X115210389Y-106673289D01*
X116369639Y-107154651D01*
X117624855Y-107155746D01*
X118784942Y-106676408D01*
X119673289Y-105789611D01*
X120154651Y-104630361D01*
X120154985Y-104247403D01*
X154244478Y-104247403D01*
X154526321Y-104929514D01*
X155047741Y-105451845D01*
X155729359Y-105734878D01*
X156467403Y-105735522D01*
X157149514Y-105453679D01*
X157169927Y-105433301D01*
X159826783Y-105433301D01*
X159929041Y-105680783D01*
X160068200Y-105820185D01*
X160068200Y-107700000D01*
X160101069Y-107865243D01*
X160175909Y-107977250D01*
X160194671Y-108005329D01*
X161626954Y-109437611D01*
X161626783Y-109633301D01*
X161729041Y-109880783D01*
X161918222Y-110070294D01*
X162165525Y-110172983D01*
X162433301Y-110173217D01*
X162680783Y-110070959D01*
X162870294Y-109881778D01*
X162887741Y-109839760D01*
X162918222Y-109870294D01*
X163165525Y-109972983D01*
X163433301Y-109973217D01*
X163680783Y-109870959D01*
X163870294Y-109681778D01*
X163972983Y-109434475D01*
X163973217Y-109166699D01*
X163870959Y-108919217D01*
X163681778Y-108729706D01*
X163434475Y-108627017D01*
X163237503Y-108626845D01*
X161831800Y-107221142D01*
X161831800Y-105733301D01*
X175926783Y-105733301D01*
X176029041Y-105980783D01*
X176152300Y-106104257D01*
X176152300Y-110704637D01*
X176127017Y-110765525D01*
X176126783Y-111033301D01*
X176229041Y-111280783D01*
X176418222Y-111470294D01*
X176665525Y-111572983D01*
X176933301Y-111573217D01*
X177180783Y-111470959D01*
X177370294Y-111281778D01*
X177406693Y-111194118D01*
X181019630Y-111194118D01*
X181168543Y-111554513D01*
X181444036Y-111830488D01*
X181804171Y-111980029D01*
X182194118Y-111980370D01*
X182554513Y-111831457D01*
X182830488Y-111555964D01*
X182980029Y-111195829D01*
X182980370Y-110805882D01*
X182831457Y-110445487D01*
X182555964Y-110169512D01*
X182195829Y-110019971D01*
X181805882Y-110019630D01*
X181445487Y-110168543D01*
X181169512Y-110444036D01*
X181019971Y-110804171D01*
X181019630Y-111194118D01*
X177406693Y-111194118D01*
X177472983Y-111034475D01*
X177473217Y-110766699D01*
X177447700Y-110704943D01*
X177447700Y-105800000D01*
X177398397Y-105552136D01*
X177257993Y-105342007D01*
X177196136Y-105280150D01*
X177170959Y-105219217D01*
X176981778Y-105029706D01*
X176734475Y-104927017D01*
X176466699Y-104926783D01*
X176219217Y-105029041D01*
X176029706Y-105218222D01*
X175927017Y-105465525D01*
X175926783Y-105733301D01*
X161831800Y-105733301D01*
X161831800Y-104900005D01*
X161831801Y-104900000D01*
X161822878Y-104855142D01*
X161872983Y-104734475D01*
X161873217Y-104466699D01*
X161770959Y-104219217D01*
X161581778Y-104029706D01*
X161334475Y-103927017D01*
X161066699Y-103926783D01*
X160819217Y-104029041D01*
X160629706Y-104218222D01*
X160527017Y-104465525D01*
X160526876Y-104626923D01*
X160366699Y-104626783D01*
X160119217Y-104729041D01*
X159929706Y-104918222D01*
X159827017Y-105165525D01*
X159826783Y-105433301D01*
X157169927Y-105433301D01*
X157671845Y-104932259D01*
X157954878Y-104250641D01*
X157955522Y-103512597D01*
X157673679Y-102830486D01*
X157218988Y-102375000D01*
X170786536Y-102375000D01*
X170786536Y-104025000D01*
X170814722Y-104170274D01*
X170898596Y-104297956D01*
X171025216Y-104383426D01*
X171175000Y-104413464D01*
X172825000Y-104413464D01*
X172970274Y-104385278D01*
X173097956Y-104301404D01*
X173183426Y-104174784D01*
X173213464Y-104025000D01*
X173213464Y-103428775D01*
X173384600Y-103428775D01*
X173560098Y-103853514D01*
X173884777Y-104178760D01*
X174309208Y-104354999D01*
X174768775Y-104355400D01*
X175082303Y-104225853D01*
X176233752Y-104225853D01*
X176310956Y-104474563D01*
X176857250Y-104671843D01*
X177437456Y-104645048D01*
X177849044Y-104474563D01*
X177926248Y-104225853D01*
X177080000Y-103379605D01*
X176233752Y-104225853D01*
X175082303Y-104225853D01*
X175193514Y-104179902D01*
X175518760Y-103855223D01*
X175638673Y-103566440D01*
X175805437Y-103969044D01*
X176054147Y-104046248D01*
X176900395Y-103200000D01*
X177259605Y-103200000D01*
X178105853Y-104046248D01*
X178354563Y-103969044D01*
X178551843Y-103422750D01*
X178525048Y-102842544D01*
X178354563Y-102430956D01*
X178105853Y-102353752D01*
X177259605Y-103200000D01*
X176900395Y-103200000D01*
X176054147Y-102353752D01*
X175805437Y-102430956D01*
X175650006Y-102861364D01*
X175519902Y-102546486D01*
X175195223Y-102221240D01*
X175081811Y-102174147D01*
X176233752Y-102174147D01*
X177080000Y-103020395D01*
X177926248Y-102174147D01*
X177849044Y-101925437D01*
X177302750Y-101728157D01*
X176722544Y-101754952D01*
X176310956Y-101925437D01*
X176233752Y-102174147D01*
X175081811Y-102174147D01*
X174770792Y-102045001D01*
X174311225Y-102044600D01*
X173886486Y-102220098D01*
X173561240Y-102544777D01*
X173385001Y-102969208D01*
X173384600Y-103428775D01*
X173213464Y-103428775D01*
X173213464Y-102375000D01*
X173185278Y-102229726D01*
X173101404Y-102102044D01*
X172974784Y-102016574D01*
X172825000Y-101986536D01*
X171175000Y-101986536D01*
X171029726Y-102014722D01*
X170902044Y-102098596D01*
X170816574Y-102225216D01*
X170786536Y-102375000D01*
X157218988Y-102375000D01*
X157152259Y-102308155D01*
X156470641Y-102025122D01*
X155732597Y-102024478D01*
X155050486Y-102306321D01*
X154528155Y-102827741D01*
X154245122Y-103509359D01*
X154244478Y-104247403D01*
X120154985Y-104247403D01*
X120155746Y-103375145D01*
X119676408Y-102215058D01*
X118789611Y-101326711D01*
X118308653Y-101127000D01*
X182690847Y-101127000D01*
X182215058Y-101323592D01*
M02*
