M48
INCH,TZ
T1C0.013
T2C0.028
T3C0.039
T4C0.047
T5C0.120
T6C0.129
%
G90
G05
T1
X4.7165Y-5.5157
X4.7244Y-5.4724
X4.7362Y-5.5591
X4.7717Y-4.1654
X4.7873Y-4.1339
X4.8513Y-4.937
X4.8622Y-4.3268
X4.8645Y-4.1108
X4.9023Y-4.8976
X4.937Y-5.0315
X4.9685Y-4.1654
X4.9685Y-4.2047
X4.9685Y-4.2795
X4.9843Y-4.9449
X5.Y-5.8425
X5.0394Y-5.1181
X5.0512Y-4.3031
X5.1378Y-4.3543
X5.1417Y-4.2244
X5.1417Y-4.2638
X5.1654Y-4.4813
X5.1732Y-5.7008
X5.1778Y-4.0992
X5.189Y-5.3307
X5.2205Y-5.4173
X5.2992Y-5.0965
X5.3228Y-5.4252
X5.3311Y-5.0729
X5.3543Y-4.374
X5.3587Y-5.0945
X5.3622Y-5.4252
X5.3701Y-4.874
X5.3937Y-5.0945
X5.3972Y-5.4252
X5.4055Y-4.9528
X5.4322Y-5.4252
X5.4331Y-4.3701
X5.4331Y-5.1339
X5.4646Y-5.1102
X5.4672Y-5.4252
X5.4919Y-5.151
X5.5039Y-4.3228
X5.5055Y-5.4236
X5.5372Y-5.4086
X5.5433Y-4.6202
X5.5595Y-5.0579
X5.563Y-4.2047
X5.5748Y-5.42
X5.6024Y-4.5866
X5.6024Y-5.0276
X5.6036Y-5.2612
X5.6303Y-5.2867
X5.6417Y-4.5315
X5.6496Y-4.7008
X5.6566Y-5.3098
X5.6614Y-4.3143
X5.6614Y-4.8312
X5.6772Y-4.2047
X5.6772Y-5.4961
X5.6821Y-5.2357
X5.685Y-5.3307
X5.7008Y-5.0157
X5.7244Y-5.189
X5.7302Y-5.0982
X5.7323Y-4.4213
X5.7461Y-4.3256
X5.7627Y-5.0635
X5.7717Y-5.4961
X5.7756Y-4.2559
X5.7851Y-4.7554
X5.786Y-4.9942
X5.7953Y-4.185
X5.8031Y-5.5197
X5.8228Y-4.2087
X5.8331Y-4.8174
X5.8346Y-5.7323
X5.8346Y-5.7673
X5.8454Y-5.5276
X5.857Y-5.3937
X5.8734Y-5.4564
X5.8873Y-4.2879
X5.8898Y-4.9528
X5.899Y-4.8413
X5.9027Y-4.7941
X5.9055Y-5.0079
X5.9094Y-4.5472
X5.9094Y-4.5866
X5.9134Y-5.7323
X5.9173Y-4.315
X5.9217Y-5.5044
X5.9464Y-5.4796
X5.9528Y-5.5512
X5.9887Y-5.6977
X5.99Y-5.6619
X6.0393Y-4.1317
X6.0984Y-5.3189
X6.122Y-4.7992
X6.126Y-4.7598
X6.126Y-5.0039
X6.126Y-5.1417
X6.1339Y-5.0433
X6.1496Y-5.1063
X6.1811Y-5.0827
X6.183Y-4.9067
X6.1915Y-5.4983
X6.2126Y-5.1063
X6.2402Y-5.1378
X6.2446Y-4.1275
X6.2513Y-4.9039
X6.2812Y-4.8749
X6.2835Y-4.7986
X6.3189Y-4.1457
X6.3228Y-4.6102
X6.3228Y-5.2205
X6.3228Y-5.4016
X6.3268Y-4.6772
X6.3273Y-5.3504
X6.3387Y-4.0352
X6.3465Y-4.1181
X6.3583Y-5.0315
X6.3636Y-5.4931
X6.3898Y-4.311
X6.3937Y-5.0079
X6.4134Y-4.4173
X6.4291Y-4.3031
X6.437Y-4.9921
X6.4449Y-4.252
X6.4488Y-5.5236
X6.4567Y-4.7717
X6.4567Y-5.2795
X6.5315Y-5.8425
X6.8481Y-4.5875
X6.8498Y-4.5114
X6.8504Y-5.1732
X6.8504Y-5.2087
X6.8504Y-5.2441
X6.8504Y-5.3701
X6.8504Y-5.4094
X6.8512Y-5.3332
X6.8583Y-4.626
X6.8583Y-4.6614
X6.8622Y-4.4291
X6.8622Y-4.4685
X6.874Y-5.126
X6.8858Y-4.3346
X6.9094Y-5.5157
X6.9134Y-5.7402
X6.9213Y-4.7717
X6.9213Y-5.1811
X6.9528Y-4.1575
X6.9606Y-4.3661
T2
X7.1654Y-4.3701
X7.1654Y-4.4488
X7.1654Y-4.5276
X7.1654Y-4.6063
X7.1654Y-4.685
X7.1654Y-4.7638
X7.1654Y-5.0787
X7.1654Y-5.1575
X7.1654Y-5.2362
X7.1654Y-5.315
X7.1654Y-5.3937
X7.1654Y-5.4724
T3
X5.0953Y-5.7874
X5.1953Y-5.7874
X5.2953Y-5.7874
X5.3953Y-5.7874
X5.4953Y-5.7874
X5.5953Y-5.7874
X5.963Y-5.7835
X6.063Y-5.7835
X6.0866Y-4.2598
X6.163Y-5.7835
X6.2047Y-4.2598
X6.263Y-5.7835
X6.363Y-5.7835
X6.463Y-5.7835
X6.7717Y-4.063
X6.8717Y-4.063
X6.9717Y-4.063
T4
X4.635Y-4.6819
X4.635Y-4.7819
X4.635Y-4.8819
X4.635Y-4.9819
X4.635Y-5.0819
X4.735Y-4.6819
X4.735Y-4.7819
X4.735Y-4.8819
X4.735Y-4.9819
X4.735Y-5.0819
T5
X6.1457Y-4.0898
T6
X4.6063Y-4.0945
X4.6063Y-5.748
X7.2441Y-4.0945
X7.2441Y-5.748
T0
M30
