G04 #@! TF.FileFunction,Legend,Bot*
%FSLAX46Y46*%
G04 Gerber Fmt 4.6, Leading zero omitted, Abs format (unit mm)*
G04 Created by KiCad (PCBNEW (2015-11-10 BZR 6307, Git a988d7a)-product) date Thu 12 Nov 2015 09:09:47 PM EST*
%MOMM*%
G01*
G04 APERTURE LIST*
%ADD10C,0.100000*%
%ADD11C,0.300000*%
G04 APERTURE END LIST*
D10*
X113000000Y-150000000D02*
X113000000Y-100000000D01*
X188000000Y-150000000D02*
X113000000Y-150000000D01*
X188000000Y-100000000D02*
X188000000Y-150000000D01*
X113000000Y-100000000D02*
X188000000Y-100000000D01*
D11*
X153192856Y-143378571D02*
X153192856Y-141878571D01*
X152692856Y-142950000D01*
X152192856Y-141878571D01*
X152192856Y-143378571D01*
X151264284Y-143378571D02*
X151407142Y-143307143D01*
X151478570Y-143235714D01*
X151549999Y-143092857D01*
X151549999Y-142664286D01*
X151478570Y-142521429D01*
X151407142Y-142450000D01*
X151264284Y-142378571D01*
X151049999Y-142378571D01*
X150907142Y-142450000D01*
X150835713Y-142521429D01*
X150764284Y-142664286D01*
X150764284Y-143092857D01*
X150835713Y-143235714D01*
X150907142Y-143307143D01*
X151049999Y-143378571D01*
X151264284Y-143378571D01*
X150335713Y-142378571D02*
X149764284Y-142378571D01*
X150121427Y-141878571D02*
X150121427Y-143164286D01*
X150049999Y-143307143D01*
X149907141Y-143378571D01*
X149764284Y-143378571D01*
X149049998Y-143378571D02*
X149192856Y-143307143D01*
X149264284Y-143235714D01*
X149335713Y-143092857D01*
X149335713Y-142664286D01*
X149264284Y-142521429D01*
X149192856Y-142450000D01*
X149049998Y-142378571D01*
X148835713Y-142378571D01*
X148692856Y-142450000D01*
X148621427Y-142521429D01*
X148549998Y-142664286D01*
X148549998Y-143092857D01*
X148621427Y-143235714D01*
X148692856Y-143307143D01*
X148835713Y-143378571D01*
X149049998Y-143378571D01*
X147907141Y-143378571D02*
X147907141Y-142378571D01*
X147907141Y-142664286D02*
X147835713Y-142521429D01*
X147764284Y-142450000D01*
X147621427Y-142378571D01*
X147478570Y-142378571D01*
X144978570Y-143235714D02*
X145049999Y-143307143D01*
X145264285Y-143378571D01*
X145407142Y-143378571D01*
X145621427Y-143307143D01*
X145764285Y-143164286D01*
X145835713Y-143021429D01*
X145907142Y-142735714D01*
X145907142Y-142521429D01*
X145835713Y-142235714D01*
X145764285Y-142092857D01*
X145621427Y-141950000D01*
X145407142Y-141878571D01*
X145264285Y-141878571D01*
X145049999Y-141950000D01*
X144978570Y-142021429D01*
X144121427Y-143378571D02*
X144264285Y-143307143D01*
X144335713Y-143235714D01*
X144407142Y-143092857D01*
X144407142Y-142664286D01*
X144335713Y-142521429D01*
X144264285Y-142450000D01*
X144121427Y-142378571D01*
X143907142Y-142378571D01*
X143764285Y-142450000D01*
X143692856Y-142521429D01*
X143621427Y-142664286D01*
X143621427Y-143092857D01*
X143692856Y-143235714D01*
X143764285Y-143307143D01*
X143907142Y-143378571D01*
X144121427Y-143378571D01*
X142978570Y-142378571D02*
X142978570Y-143378571D01*
X142978570Y-142521429D02*
X142907142Y-142450000D01*
X142764284Y-142378571D01*
X142549999Y-142378571D01*
X142407142Y-142450000D01*
X142335713Y-142592857D01*
X142335713Y-143378571D01*
X141835713Y-142378571D02*
X141264284Y-142378571D01*
X141621427Y-141878571D02*
X141621427Y-143164286D01*
X141549999Y-143307143D01*
X141407141Y-143378571D01*
X141264284Y-143378571D01*
X140764284Y-143378571D02*
X140764284Y-142378571D01*
X140764284Y-142664286D02*
X140692856Y-142521429D01*
X140621427Y-142450000D01*
X140478570Y-142378571D01*
X140335713Y-142378571D01*
X139621427Y-143378571D02*
X139764285Y-143307143D01*
X139835713Y-143235714D01*
X139907142Y-143092857D01*
X139907142Y-142664286D01*
X139835713Y-142521429D01*
X139764285Y-142450000D01*
X139621427Y-142378571D01*
X139407142Y-142378571D01*
X139264285Y-142450000D01*
X139192856Y-142521429D01*
X139121427Y-142664286D01*
X139121427Y-143092857D01*
X139192856Y-143235714D01*
X139264285Y-143307143D01*
X139407142Y-143378571D01*
X139621427Y-143378571D01*
X138264284Y-143378571D02*
X138407142Y-143307143D01*
X138478570Y-143164286D01*
X138478570Y-141878571D01*
X137478570Y-143378571D02*
X137621428Y-143307143D01*
X137692856Y-143164286D01*
X137692856Y-141878571D01*
X136335714Y-143307143D02*
X136478571Y-143378571D01*
X136764285Y-143378571D01*
X136907142Y-143307143D01*
X136978571Y-143164286D01*
X136978571Y-142592857D01*
X136907142Y-142450000D01*
X136764285Y-142378571D01*
X136478571Y-142378571D01*
X136335714Y-142450000D01*
X136264285Y-142592857D01*
X136264285Y-142735714D01*
X136978571Y-142878571D01*
X135621428Y-143378571D02*
X135621428Y-142378571D01*
X135621428Y-142664286D02*
X135550000Y-142521429D01*
X135478571Y-142450000D01*
X135335714Y-142378571D01*
X135192857Y-142378571D01*
M02*
