G04 #@! TF.FileFunction,Legend,Top*
%FSLAX46Y46*%
G04 Gerber Fmt 4.6, Leading zero omitted, Abs format (unit mm)*
G04 Created by KiCad (PCBNEW (2015-11-10 BZR 6307, Git a988d7a)-product) date Thu 12 Nov 2015 09:17:27 PM EST*
%MOMM*%
G01*
G04 APERTURE LIST*
%ADD10C,0.100000*%
%ADD11C,0.300000*%
%ADD12C,0.150000*%
%ADD13C,0.200000*%
%ADD14C,0.400000*%
%ADD15C,0.500000*%
G04 APERTURE END LIST*
D10*
X113000000Y-150000000D02*
X113000000Y-100000000D01*
X188000000Y-150000000D02*
X113000000Y-150000000D01*
X188000000Y-100000000D02*
X188000000Y-150000000D01*
X113000000Y-100000000D02*
X188000000Y-100000000D01*
X155642857Y-142547619D02*
X155690476Y-142500000D01*
X155785714Y-142452381D01*
X156023810Y-142452381D01*
X156119048Y-142500000D01*
X156166667Y-142547619D01*
X156214286Y-142642857D01*
X156214286Y-142738095D01*
X156166667Y-142880952D01*
X155595238Y-143452381D01*
X156214286Y-143452381D01*
X156833333Y-142452381D02*
X156928572Y-142452381D01*
X157023810Y-142500000D01*
X157071429Y-142547619D01*
X157119048Y-142642857D01*
X157166667Y-142833333D01*
X157166667Y-143071429D01*
X157119048Y-143261905D01*
X157071429Y-143357143D01*
X157023810Y-143404762D01*
X156928572Y-143452381D01*
X156833333Y-143452381D01*
X156738095Y-143404762D01*
X156690476Y-143357143D01*
X156642857Y-143261905D01*
X156595238Y-143071429D01*
X156595238Y-142833333D01*
X156642857Y-142642857D01*
X156690476Y-142547619D01*
X156738095Y-142500000D01*
X156833333Y-142452381D01*
X158119048Y-143452381D02*
X157547619Y-143452381D01*
X157833333Y-143452381D02*
X157833333Y-142452381D01*
X157738095Y-142595238D01*
X157642857Y-142690476D01*
X157547619Y-142738095D01*
X159023810Y-142452381D02*
X158547619Y-142452381D01*
X158500000Y-142928571D01*
X158547619Y-142880952D01*
X158642857Y-142833333D01*
X158880953Y-142833333D01*
X158976191Y-142880952D01*
X159023810Y-142928571D01*
X159071429Y-143023810D01*
X159071429Y-143261905D01*
X159023810Y-143357143D01*
X158976191Y-143404762D01*
X158880953Y-143452381D01*
X158642857Y-143452381D01*
X158547619Y-143404762D01*
X158500000Y-143357143D01*
X159500000Y-143071429D02*
X160261905Y-143071429D01*
X161261905Y-143452381D02*
X160690476Y-143452381D01*
X160976190Y-143452381D02*
X160976190Y-142452381D01*
X160880952Y-142595238D01*
X160785714Y-142690476D01*
X160690476Y-142738095D01*
X162214286Y-143452381D02*
X161642857Y-143452381D01*
X161928571Y-143452381D02*
X161928571Y-142452381D01*
X161833333Y-142595238D01*
X161738095Y-142690476D01*
X161642857Y-142738095D01*
X162642857Y-143071429D02*
X163404762Y-143071429D01*
X164404762Y-143452381D02*
X163833333Y-143452381D01*
X164119047Y-143452381D02*
X164119047Y-142452381D01*
X164023809Y-142595238D01*
X163928571Y-142690476D01*
X163833333Y-142738095D01*
X164785714Y-142547619D02*
X164833333Y-142500000D01*
X164928571Y-142452381D01*
X165166667Y-142452381D01*
X165261905Y-142500000D01*
X165309524Y-142547619D01*
X165357143Y-142642857D01*
X165357143Y-142738095D01*
X165309524Y-142880952D01*
X164738095Y-143452381D01*
X165357143Y-143452381D01*
D11*
X135007144Y-143378571D02*
X135007144Y-141878571D01*
X135507144Y-142950000D01*
X136007144Y-141878571D01*
X136007144Y-143378571D01*
X136935716Y-143378571D02*
X136792858Y-143307143D01*
X136721430Y-143235714D01*
X136650001Y-143092857D01*
X136650001Y-142664286D01*
X136721430Y-142521429D01*
X136792858Y-142450000D01*
X136935716Y-142378571D01*
X137150001Y-142378571D01*
X137292858Y-142450000D01*
X137364287Y-142521429D01*
X137435716Y-142664286D01*
X137435716Y-143092857D01*
X137364287Y-143235714D01*
X137292858Y-143307143D01*
X137150001Y-143378571D01*
X136935716Y-143378571D01*
X137864287Y-142378571D02*
X138435716Y-142378571D01*
X138078573Y-141878571D02*
X138078573Y-143164286D01*
X138150001Y-143307143D01*
X138292859Y-143378571D01*
X138435716Y-143378571D01*
X139150002Y-143378571D02*
X139007144Y-143307143D01*
X138935716Y-143235714D01*
X138864287Y-143092857D01*
X138864287Y-142664286D01*
X138935716Y-142521429D01*
X139007144Y-142450000D01*
X139150002Y-142378571D01*
X139364287Y-142378571D01*
X139507144Y-142450000D01*
X139578573Y-142521429D01*
X139650002Y-142664286D01*
X139650002Y-143092857D01*
X139578573Y-143235714D01*
X139507144Y-143307143D01*
X139364287Y-143378571D01*
X139150002Y-143378571D01*
X140292859Y-143378571D02*
X140292859Y-142378571D01*
X140292859Y-142664286D02*
X140364287Y-142521429D01*
X140435716Y-142450000D01*
X140578573Y-142378571D01*
X140721430Y-142378571D01*
X143221430Y-143235714D02*
X143150001Y-143307143D01*
X142935715Y-143378571D01*
X142792858Y-143378571D01*
X142578573Y-143307143D01*
X142435715Y-143164286D01*
X142364287Y-143021429D01*
X142292858Y-142735714D01*
X142292858Y-142521429D01*
X142364287Y-142235714D01*
X142435715Y-142092857D01*
X142578573Y-141950000D01*
X142792858Y-141878571D01*
X142935715Y-141878571D01*
X143150001Y-141950000D01*
X143221430Y-142021429D01*
X144078573Y-143378571D02*
X143935715Y-143307143D01*
X143864287Y-143235714D01*
X143792858Y-143092857D01*
X143792858Y-142664286D01*
X143864287Y-142521429D01*
X143935715Y-142450000D01*
X144078573Y-142378571D01*
X144292858Y-142378571D01*
X144435715Y-142450000D01*
X144507144Y-142521429D01*
X144578573Y-142664286D01*
X144578573Y-143092857D01*
X144507144Y-143235714D01*
X144435715Y-143307143D01*
X144292858Y-143378571D01*
X144078573Y-143378571D01*
X145221430Y-142378571D02*
X145221430Y-143378571D01*
X145221430Y-142521429D02*
X145292858Y-142450000D01*
X145435716Y-142378571D01*
X145650001Y-142378571D01*
X145792858Y-142450000D01*
X145864287Y-142592857D01*
X145864287Y-143378571D01*
X146364287Y-142378571D02*
X146935716Y-142378571D01*
X146578573Y-141878571D02*
X146578573Y-143164286D01*
X146650001Y-143307143D01*
X146792859Y-143378571D01*
X146935716Y-143378571D01*
X147435716Y-143378571D02*
X147435716Y-142378571D01*
X147435716Y-142664286D02*
X147507144Y-142521429D01*
X147578573Y-142450000D01*
X147721430Y-142378571D01*
X147864287Y-142378571D01*
X148578573Y-143378571D02*
X148435715Y-143307143D01*
X148364287Y-143235714D01*
X148292858Y-143092857D01*
X148292858Y-142664286D01*
X148364287Y-142521429D01*
X148435715Y-142450000D01*
X148578573Y-142378571D01*
X148792858Y-142378571D01*
X148935715Y-142450000D01*
X149007144Y-142521429D01*
X149078573Y-142664286D01*
X149078573Y-143092857D01*
X149007144Y-143235714D01*
X148935715Y-143307143D01*
X148792858Y-143378571D01*
X148578573Y-143378571D01*
X149935716Y-143378571D02*
X149792858Y-143307143D01*
X149721430Y-143164286D01*
X149721430Y-141878571D01*
X150721430Y-143378571D02*
X150578572Y-143307143D01*
X150507144Y-143164286D01*
X150507144Y-141878571D01*
X151864286Y-143307143D02*
X151721429Y-143378571D01*
X151435715Y-143378571D01*
X151292858Y-143307143D01*
X151221429Y-143164286D01*
X151221429Y-142592857D01*
X151292858Y-142450000D01*
X151435715Y-142378571D01*
X151721429Y-142378571D01*
X151864286Y-142450000D01*
X151935715Y-142592857D01*
X151935715Y-142735714D01*
X151221429Y-142878571D01*
X152578572Y-143378571D02*
X152578572Y-142378571D01*
X152578572Y-142664286D02*
X152650000Y-142521429D01*
X152721429Y-142450000D01*
X152864286Y-142378571D01*
X153007143Y-142378571D01*
D10*
X172428571Y-104357143D02*
X171828571Y-104557143D01*
X172428571Y-104757143D01*
X171857143Y-105214286D02*
X171828571Y-105157143D01*
X171828571Y-105042857D01*
X171857143Y-104985715D01*
X171885714Y-104957143D01*
X171942857Y-104928572D01*
X172114286Y-104928572D01*
X172171429Y-104957143D01*
X172200000Y-104985715D01*
X172228571Y-105042857D01*
X172228571Y-105157143D01*
X172200000Y-105214286D01*
X171857143Y-105728572D02*
X171828571Y-105671429D01*
X171828571Y-105557143D01*
X171857143Y-105500001D01*
X171885714Y-105471429D01*
X171942857Y-105442858D01*
X172114286Y-105442858D01*
X172171429Y-105471429D01*
X172200000Y-105500001D01*
X172228571Y-105557143D01*
X172228571Y-105671429D01*
X172200000Y-105728572D01*
X174557143Y-104442857D02*
X174557143Y-104900000D01*
X174328571Y-104671429D02*
X174785714Y-104671429D01*
X174928571Y-105128571D02*
X174928571Y-105500000D01*
X174700000Y-105300000D01*
X174700000Y-105385714D01*
X174671429Y-105442857D01*
X174642857Y-105471428D01*
X174585714Y-105500000D01*
X174442857Y-105500000D01*
X174385714Y-105471428D01*
X174357143Y-105442857D01*
X174328571Y-105385714D01*
X174328571Y-105214286D01*
X174357143Y-105157143D01*
X174385714Y-105128571D01*
X174385714Y-105757143D02*
X174357143Y-105785715D01*
X174328571Y-105757143D01*
X174357143Y-105728572D01*
X174385714Y-105757143D01*
X174328571Y-105757143D01*
X174928571Y-105985714D02*
X174928571Y-106357143D01*
X174700000Y-106157143D01*
X174700000Y-106242857D01*
X174671429Y-106300000D01*
X174642857Y-106328571D01*
X174585714Y-106357143D01*
X174442857Y-106357143D01*
X174385714Y-106328571D01*
X174357143Y-106300000D01*
X174328571Y-106242857D01*
X174328571Y-106071429D01*
X174357143Y-106014286D01*
X174385714Y-105985714D01*
X174928571Y-106528572D02*
X174328571Y-106728572D01*
X174928571Y-106928572D01*
X177400000Y-104757143D02*
X177428571Y-104700000D01*
X177428571Y-104614286D01*
X177400000Y-104528571D01*
X177342857Y-104471429D01*
X177285714Y-104442857D01*
X177171429Y-104414286D01*
X177085714Y-104414286D01*
X176971429Y-104442857D01*
X176914286Y-104471429D01*
X176857143Y-104528571D01*
X176828571Y-104614286D01*
X176828571Y-104671429D01*
X176857143Y-104757143D01*
X176885714Y-104785714D01*
X177085714Y-104785714D01*
X177085714Y-104671429D01*
X176828571Y-105042857D02*
X177428571Y-105042857D01*
X176828571Y-105385714D01*
X177428571Y-105385714D01*
X176828571Y-105671428D02*
X177428571Y-105671428D01*
X177428571Y-105814285D01*
X177400000Y-105900000D01*
X177342857Y-105957142D01*
X177285714Y-105985714D01*
X177171429Y-106014285D01*
X177085714Y-106014285D01*
X176971429Y-105985714D01*
X176914286Y-105957142D01*
X176857143Y-105900000D01*
X176828571Y-105814285D01*
X176828571Y-105671428D01*
X179714286Y-121271429D02*
X179714286Y-120671429D01*
X179914286Y-121100000D01*
X180114286Y-120671429D01*
X180114286Y-121271429D01*
X180400000Y-121042857D02*
X180857143Y-121042857D01*
X179714286Y-119271429D02*
X179714286Y-118671429D01*
X179914286Y-119100000D01*
X180114286Y-118671429D01*
X180114286Y-119271429D01*
X180400000Y-119042857D02*
X180857143Y-119042857D01*
X180628572Y-119271429D02*
X180628572Y-118814286D01*
X179314285Y-117042857D02*
X179771428Y-117042857D01*
X179542857Y-117271429D02*
X179542857Y-116814286D01*
X180342856Y-116671429D02*
X180057142Y-116671429D01*
X180028571Y-116957143D01*
X180057142Y-116928571D01*
X180114285Y-116900000D01*
X180257142Y-116900000D01*
X180314285Y-116928571D01*
X180342856Y-116957143D01*
X180371428Y-117014286D01*
X180371428Y-117157143D01*
X180342856Y-117214286D01*
X180314285Y-117242857D01*
X180257142Y-117271429D01*
X180114285Y-117271429D01*
X180057142Y-117242857D01*
X180028571Y-117214286D01*
X180542857Y-116671429D02*
X180742857Y-117271429D01*
X180942857Y-116671429D01*
X179628572Y-114700000D02*
X179571429Y-114671429D01*
X179485715Y-114671429D01*
X179400000Y-114700000D01*
X179342858Y-114757143D01*
X179314286Y-114814286D01*
X179285715Y-114928571D01*
X179285715Y-115014286D01*
X179314286Y-115128571D01*
X179342858Y-115185714D01*
X179400000Y-115242857D01*
X179485715Y-115271429D01*
X179542858Y-115271429D01*
X179628572Y-115242857D01*
X179657143Y-115214286D01*
X179657143Y-115014286D01*
X179542858Y-115014286D01*
X179914286Y-115271429D02*
X179914286Y-114671429D01*
X180257143Y-115271429D01*
X180257143Y-114671429D01*
X180542857Y-115271429D02*
X180542857Y-114671429D01*
X180685714Y-114671429D01*
X180771429Y-114700000D01*
X180828571Y-114757143D01*
X180857143Y-114814286D01*
X180885714Y-114928571D01*
X180885714Y-115014286D01*
X180857143Y-115128571D01*
X180828571Y-115185714D01*
X180771429Y-115242857D01*
X180685714Y-115271429D01*
X180542857Y-115271429D01*
X179742857Y-113214286D02*
X179714286Y-113242857D01*
X179628572Y-113271429D01*
X179571429Y-113271429D01*
X179485714Y-113242857D01*
X179428572Y-113185714D01*
X179400000Y-113128571D01*
X179371429Y-113014286D01*
X179371429Y-112928571D01*
X179400000Y-112814286D01*
X179428572Y-112757143D01*
X179485714Y-112700000D01*
X179571429Y-112671429D01*
X179628572Y-112671429D01*
X179714286Y-112700000D01*
X179742857Y-112728571D01*
X180000000Y-113271429D02*
X180000000Y-112671429D01*
X180000000Y-112957143D02*
X180342857Y-112957143D01*
X180342857Y-113271429D02*
X180342857Y-112671429D01*
X180600000Y-113100000D02*
X180885714Y-113100000D01*
X180542857Y-113271429D02*
X180742857Y-112671429D01*
X180942857Y-113271429D01*
X179657143Y-111214286D02*
X179628572Y-111242857D01*
X179542858Y-111271429D01*
X179485715Y-111271429D01*
X179400000Y-111242857D01*
X179342858Y-111185714D01*
X179314286Y-111128571D01*
X179285715Y-111014286D01*
X179285715Y-110928571D01*
X179314286Y-110814286D01*
X179342858Y-110757143D01*
X179400000Y-110700000D01*
X179485715Y-110671429D01*
X179542858Y-110671429D01*
X179628572Y-110700000D01*
X179657143Y-110728571D01*
X179914286Y-111271429D02*
X179914286Y-110671429D01*
X179914286Y-110957143D02*
X180257143Y-110957143D01*
X180257143Y-111271429D02*
X180257143Y-110671429D01*
X180742857Y-110957143D02*
X180828571Y-110985714D01*
X180857143Y-111014286D01*
X180885714Y-111071429D01*
X180885714Y-111157143D01*
X180857143Y-111214286D01*
X180828571Y-111242857D01*
X180771429Y-111271429D01*
X180542857Y-111271429D01*
X180542857Y-110671429D01*
X180742857Y-110671429D01*
X180800000Y-110700000D01*
X180828571Y-110728571D01*
X180857143Y-110785714D01*
X180857143Y-110842857D01*
X180828571Y-110900000D01*
X180800000Y-110928571D01*
X180742857Y-110957143D01*
X180542857Y-110957143D01*
X179657143Y-129214286D02*
X179628572Y-129242857D01*
X179542858Y-129271429D01*
X179485715Y-129271429D01*
X179400000Y-129242857D01*
X179342858Y-129185714D01*
X179314286Y-129128571D01*
X179285715Y-129014286D01*
X179285715Y-128928571D01*
X179314286Y-128814286D01*
X179342858Y-128757143D01*
X179400000Y-128700000D01*
X179485715Y-128671429D01*
X179542858Y-128671429D01*
X179628572Y-128700000D01*
X179657143Y-128728571D01*
X179914286Y-129271429D02*
X179914286Y-128671429D01*
X179914286Y-128957143D02*
X180257143Y-128957143D01*
X180257143Y-129271429D02*
X180257143Y-128671429D01*
X180742857Y-128957143D02*
X180828571Y-128985714D01*
X180857143Y-129014286D01*
X180885714Y-129071429D01*
X180885714Y-129157143D01*
X180857143Y-129214286D01*
X180828571Y-129242857D01*
X180771429Y-129271429D01*
X180542857Y-129271429D01*
X180542857Y-128671429D01*
X180742857Y-128671429D01*
X180800000Y-128700000D01*
X180828571Y-128728571D01*
X180857143Y-128785714D01*
X180857143Y-128842857D01*
X180828571Y-128900000D01*
X180800000Y-128928571D01*
X180742857Y-128957143D01*
X180542857Y-128957143D01*
X179742857Y-131214286D02*
X179714286Y-131242857D01*
X179628572Y-131271429D01*
X179571429Y-131271429D01*
X179485714Y-131242857D01*
X179428572Y-131185714D01*
X179400000Y-131128571D01*
X179371429Y-131014286D01*
X179371429Y-130928571D01*
X179400000Y-130814286D01*
X179428572Y-130757143D01*
X179485714Y-130700000D01*
X179571429Y-130671429D01*
X179628572Y-130671429D01*
X179714286Y-130700000D01*
X179742857Y-130728571D01*
X180000000Y-131271429D02*
X180000000Y-130671429D01*
X180000000Y-130957143D02*
X180342857Y-130957143D01*
X180342857Y-131271429D02*
X180342857Y-130671429D01*
X180600000Y-131100000D02*
X180885714Y-131100000D01*
X180542857Y-131271429D02*
X180742857Y-130671429D01*
X180942857Y-131271429D01*
X179714286Y-137271429D02*
X179714286Y-136671429D01*
X179914286Y-137100000D01*
X180114286Y-136671429D01*
X180114286Y-137271429D01*
X180400000Y-137042857D02*
X180857143Y-137042857D01*
X180628572Y-137271429D02*
X180628572Y-136814286D01*
X179714286Y-139271429D02*
X179714286Y-138671429D01*
X179914286Y-139100000D01*
X180114286Y-138671429D01*
X180114286Y-139271429D01*
X180400000Y-139042857D02*
X180857143Y-139042857D01*
X179314285Y-135042857D02*
X179771428Y-135042857D01*
X179542857Y-135271429D02*
X179542857Y-134814286D01*
X180342856Y-134671429D02*
X180057142Y-134671429D01*
X180028571Y-134957143D01*
X180057142Y-134928571D01*
X180114285Y-134900000D01*
X180257142Y-134900000D01*
X180314285Y-134928571D01*
X180342856Y-134957143D01*
X180371428Y-135014286D01*
X180371428Y-135157143D01*
X180342856Y-135214286D01*
X180314285Y-135242857D01*
X180257142Y-135271429D01*
X180114285Y-135271429D01*
X180057142Y-135242857D01*
X180028571Y-135214286D01*
X180542857Y-134671429D02*
X180742857Y-135271429D01*
X180942857Y-134671429D01*
X179628572Y-132700000D02*
X179571429Y-132671429D01*
X179485715Y-132671429D01*
X179400000Y-132700000D01*
X179342858Y-132757143D01*
X179314286Y-132814286D01*
X179285715Y-132928571D01*
X179285715Y-133014286D01*
X179314286Y-133128571D01*
X179342858Y-133185714D01*
X179400000Y-133242857D01*
X179485715Y-133271429D01*
X179542858Y-133271429D01*
X179628572Y-133242857D01*
X179657143Y-133214286D01*
X179657143Y-133014286D01*
X179542858Y-133014286D01*
X179914286Y-133271429D02*
X179914286Y-132671429D01*
X180257143Y-133271429D01*
X180257143Y-132671429D01*
X180542857Y-133271429D02*
X180542857Y-132671429D01*
X180685714Y-132671429D01*
X180771429Y-132700000D01*
X180828571Y-132757143D01*
X180857143Y-132814286D01*
X180885714Y-132928571D01*
X180885714Y-133014286D01*
X180857143Y-133128571D01*
X180828571Y-133185714D01*
X180771429Y-133242857D01*
X180685714Y-133271429D01*
X180542857Y-133271429D01*
D12*
X159738096Y-108500000D02*
X159642858Y-108452381D01*
X159500001Y-108452381D01*
X159357143Y-108500000D01*
X159261905Y-108595238D01*
X159214286Y-108690476D01*
X159166667Y-108880952D01*
X159166667Y-109023810D01*
X159214286Y-109214286D01*
X159261905Y-109309524D01*
X159357143Y-109404762D01*
X159500001Y-109452381D01*
X159595239Y-109452381D01*
X159738096Y-109404762D01*
X159785715Y-109357143D01*
X159785715Y-109023810D01*
X159595239Y-109023810D01*
X160214286Y-109452381D02*
X160214286Y-108452381D01*
X160785715Y-109452381D01*
X160785715Y-108452381D01*
X161261905Y-109452381D02*
X161261905Y-108452381D01*
X161500000Y-108452381D01*
X161642858Y-108500000D01*
X161738096Y-108595238D01*
X161785715Y-108690476D01*
X161833334Y-108880952D01*
X161833334Y-109023810D01*
X161785715Y-109214286D01*
X161738096Y-109309524D01*
X161642858Y-109404762D01*
X161500000Y-109452381D01*
X161261905Y-109452381D01*
X152571429Y-109380952D02*
X152571429Y-108619047D01*
X152952381Y-108999999D02*
X152190476Y-108999999D01*
X161452381Y-106490476D02*
X161452381Y-106966667D01*
X161928571Y-107014286D01*
X161880952Y-106966667D01*
X161833333Y-106871429D01*
X161833333Y-106633333D01*
X161880952Y-106538095D01*
X161928571Y-106490476D01*
X162023810Y-106442857D01*
X162261905Y-106442857D01*
X162357143Y-106490476D01*
X162404762Y-106538095D01*
X162452381Y-106633333D01*
X162452381Y-106871429D01*
X162404762Y-106966667D01*
X162357143Y-107014286D01*
X161452381Y-106157143D02*
X162452381Y-105823810D01*
X161452381Y-105490476D01*
X162071429Y-105157143D02*
X162071429Y-104395238D01*
X161547619Y-103966667D02*
X161500000Y-103919048D01*
X161452381Y-103823810D01*
X161452381Y-103585714D01*
X161500000Y-103490476D01*
X161547619Y-103442857D01*
X161642857Y-103395238D01*
X161738095Y-103395238D01*
X161880952Y-103442857D01*
X162452381Y-104014286D01*
X162452381Y-103395238D01*
X161880952Y-102823810D02*
X161833333Y-102919048D01*
X161785714Y-102966667D01*
X161690476Y-103014286D01*
X161642857Y-103014286D01*
X161547619Y-102966667D01*
X161500000Y-102919048D01*
X161452381Y-102823810D01*
X161452381Y-102633333D01*
X161500000Y-102538095D01*
X161547619Y-102490476D01*
X161642857Y-102442857D01*
X161690476Y-102442857D01*
X161785714Y-102490476D01*
X161833333Y-102538095D01*
X161880952Y-102633333D01*
X161880952Y-102823810D01*
X161928571Y-102919048D01*
X161976190Y-102966667D01*
X162071429Y-103014286D01*
X162261905Y-103014286D01*
X162357143Y-102966667D01*
X162404762Y-102919048D01*
X162452381Y-102823810D01*
X162452381Y-102633333D01*
X162404762Y-102538095D01*
X162357143Y-102490476D01*
X162261905Y-102442857D01*
X162071429Y-102442857D01*
X161976190Y-102490476D01*
X161928571Y-102538095D01*
X161880952Y-102633333D01*
X161452381Y-102157143D02*
X162452381Y-101823810D01*
X161452381Y-101490476D01*
D10*
X158542858Y-144700000D02*
X158485715Y-144671429D01*
X158400001Y-144671429D01*
X158314286Y-144700000D01*
X158257144Y-144757143D01*
X158228572Y-144814286D01*
X158200001Y-144928571D01*
X158200001Y-145014286D01*
X158228572Y-145128571D01*
X158257144Y-145185714D01*
X158314286Y-145242857D01*
X158400001Y-145271429D01*
X158457144Y-145271429D01*
X158542858Y-145242857D01*
X158571429Y-145214286D01*
X158571429Y-145014286D01*
X158457144Y-145014286D01*
X158828572Y-145271429D02*
X158828572Y-144671429D01*
X159171429Y-145271429D01*
X159171429Y-144671429D01*
X159457143Y-145271429D02*
X159457143Y-144671429D01*
X159600000Y-144671429D01*
X159685715Y-144700000D01*
X159742857Y-144757143D01*
X159771429Y-144814286D01*
X159800000Y-144928571D01*
X159800000Y-145014286D01*
X159771429Y-145128571D01*
X159742857Y-145185714D01*
X159685715Y-145242857D01*
X159600000Y-145271429D01*
X159457143Y-145271429D01*
X162800000Y-145042857D02*
X163257143Y-145042857D01*
X163028572Y-145271429D02*
X163028572Y-144814286D01*
X163485714Y-144671429D02*
X163857143Y-144671429D01*
X163657143Y-144900000D01*
X163742857Y-144900000D01*
X163800000Y-144928571D01*
X163828571Y-144957143D01*
X163857143Y-145014286D01*
X163857143Y-145157143D01*
X163828571Y-145214286D01*
X163800000Y-145242857D01*
X163742857Y-145271429D01*
X163571429Y-145271429D01*
X163514286Y-145242857D01*
X163485714Y-145214286D01*
X164114286Y-145214286D02*
X164142858Y-145242857D01*
X164114286Y-145271429D01*
X164085715Y-145242857D01*
X164114286Y-145214286D01*
X164114286Y-145271429D01*
X164342857Y-144671429D02*
X164714286Y-144671429D01*
X164514286Y-144900000D01*
X164600000Y-144900000D01*
X164657143Y-144928571D01*
X164685714Y-144957143D01*
X164714286Y-145014286D01*
X164714286Y-145157143D01*
X164685714Y-145214286D01*
X164657143Y-145242857D01*
X164600000Y-145271429D01*
X164428572Y-145271429D01*
X164371429Y-145242857D01*
X164342857Y-145214286D01*
X164885715Y-144671429D02*
X165085715Y-145271429D01*
X165285715Y-144671429D01*
X141390477Y-144600000D02*
X141314286Y-144561905D01*
X141200001Y-144561905D01*
X141085715Y-144600000D01*
X141009524Y-144676190D01*
X140971429Y-144752381D01*
X140933334Y-144904762D01*
X140933334Y-145019048D01*
X140971429Y-145171429D01*
X141009524Y-145247619D01*
X141085715Y-145323810D01*
X141200001Y-145361905D01*
X141276191Y-145361905D01*
X141390477Y-145323810D01*
X141428572Y-145285714D01*
X141428572Y-145019048D01*
X141276191Y-145019048D01*
X141771429Y-145361905D02*
X141771429Y-144561905D01*
X142228572Y-145361905D01*
X142228572Y-144561905D01*
X142609524Y-145361905D02*
X142609524Y-144561905D01*
X142800000Y-144561905D01*
X142914286Y-144600000D01*
X142990477Y-144676190D01*
X143028572Y-144752381D01*
X143066667Y-144904762D01*
X143066667Y-145019048D01*
X143028572Y-145171429D01*
X142990477Y-145247619D01*
X142914286Y-145323810D01*
X142800000Y-145361905D01*
X142609524Y-145361905D01*
X134366667Y-145361905D02*
X134100000Y-144980952D01*
X133909524Y-145361905D02*
X133909524Y-144561905D01*
X134214286Y-144561905D01*
X134290477Y-144600000D01*
X134328572Y-144638095D01*
X134366667Y-144714286D01*
X134366667Y-144828571D01*
X134328572Y-144904762D01*
X134290477Y-144942857D01*
X134214286Y-144980952D01*
X133909524Y-144980952D01*
X134633334Y-144561905D02*
X135166667Y-145361905D01*
X135166667Y-144561905D02*
X134633334Y-145361905D01*
X131390476Y-144561905D02*
X131847619Y-144561905D01*
X131619048Y-145361905D02*
X131619048Y-144561905D01*
X132038096Y-144561905D02*
X132571429Y-145361905D01*
X132571429Y-144561905D02*
X132038096Y-145361905D01*
D13*
X166190476Y-147404762D02*
X166333333Y-147452381D01*
X166571429Y-147452381D01*
X166666667Y-147404762D01*
X166714286Y-147357143D01*
X166761905Y-147261905D01*
X166761905Y-147166667D01*
X166714286Y-147071429D01*
X166666667Y-147023810D01*
X166571429Y-146976190D01*
X166380952Y-146928571D01*
X166285714Y-146880952D01*
X166238095Y-146833333D01*
X166190476Y-146738095D01*
X166190476Y-146642857D01*
X166238095Y-146547619D01*
X166285714Y-146500000D01*
X166380952Y-146452381D01*
X166619048Y-146452381D01*
X166761905Y-146500000D01*
X167095238Y-146452381D02*
X167333333Y-147452381D01*
X167523810Y-146738095D01*
X167714286Y-147452381D01*
X167952381Y-146452381D01*
X168333333Y-147452381D02*
X168333333Y-146452381D01*
X168571428Y-146452381D01*
X168714286Y-146500000D01*
X168809524Y-146595238D01*
X168857143Y-146690476D01*
X168904762Y-146880952D01*
X168904762Y-147023810D01*
X168857143Y-147214286D01*
X168809524Y-147309524D01*
X168714286Y-147404762D01*
X168571428Y-147452381D01*
X168333333Y-147452381D01*
X144238095Y-146452381D02*
X144238095Y-147261905D01*
X144285714Y-147357143D01*
X144333333Y-147404762D01*
X144428571Y-147452381D01*
X144619048Y-147452381D01*
X144714286Y-147404762D01*
X144761905Y-147357143D01*
X144809524Y-147261905D01*
X144809524Y-146452381D01*
X145238095Y-147404762D02*
X145380952Y-147452381D01*
X145619048Y-147452381D01*
X145714286Y-147404762D01*
X145761905Y-147357143D01*
X145809524Y-147261905D01*
X145809524Y-147166667D01*
X145761905Y-147071429D01*
X145714286Y-147023810D01*
X145619048Y-146976190D01*
X145428571Y-146928571D01*
X145333333Y-146880952D01*
X145285714Y-146833333D01*
X145238095Y-146738095D01*
X145238095Y-146642857D01*
X145285714Y-146547619D01*
X145333333Y-146500000D01*
X145428571Y-146452381D01*
X145666667Y-146452381D01*
X145809524Y-146500000D01*
X146190476Y-147166667D02*
X146666667Y-147166667D01*
X146095238Y-147452381D02*
X146428571Y-146452381D01*
X146761905Y-147452381D01*
X147666667Y-147452381D02*
X147333333Y-146976190D01*
X147095238Y-147452381D02*
X147095238Y-146452381D01*
X147476191Y-146452381D01*
X147571429Y-146500000D01*
X147619048Y-146547619D01*
X147666667Y-146642857D01*
X147666667Y-146785714D01*
X147619048Y-146880952D01*
X147571429Y-146928571D01*
X147476191Y-146976190D01*
X147095238Y-146976190D01*
X147952381Y-146452381D02*
X148523810Y-146452381D01*
X148238095Y-147452381D02*
X148238095Y-146452381D01*
D12*
X180400000Y-140950000D02*
X180400000Y-140200000D01*
X180400000Y-140200000D02*
X182000000Y-140200000D01*
X180400000Y-127050000D02*
X180400000Y-127800000D01*
X180400000Y-127800000D02*
X182000000Y-127800000D01*
X182000000Y-127800000D02*
X182000000Y-140200000D01*
X188000000Y-127050000D02*
X188000000Y-140950000D01*
X188000000Y-140950000D02*
X180400000Y-140950000D01*
X188000000Y-127050000D02*
X180400000Y-127050000D01*
D10*
X128700000Y-135250000D02*
X128700000Y-134150000D01*
X144150000Y-138700000D02*
X143050000Y-138700000D01*
X128700000Y-132050000D02*
X128700000Y-130950000D01*
X125761457Y-104444165D02*
X125761457Y-103344165D01*
X128361457Y-110044165D02*
X128361457Y-111144165D01*
X129561457Y-103344165D02*
X129561457Y-104444165D01*
X136550000Y-109000000D02*
X135450000Y-109000000D01*
X153700000Y-136400000D02*
X155300000Y-138000000D01*
X155300000Y-138000000D02*
X158700000Y-138000000D01*
X158700000Y-138000000D02*
X160300000Y-136400000D01*
X160300000Y-136400000D02*
X160300000Y-131400000D01*
X160300000Y-131400000D02*
X153700000Y-131400000D01*
X153700000Y-131400000D02*
X153700000Y-136400000D01*
X160000000Y-134700000D02*
G75*
G03X160000000Y-134700000I-3000000J0D01*
G01*
X153800000Y-117800000D02*
X155400000Y-119400000D01*
X155400000Y-119400000D02*
X158800000Y-119400000D01*
X158800000Y-119400000D02*
X160400000Y-117800000D01*
X160400000Y-117800000D02*
X160400000Y-112800000D01*
X160400000Y-112800000D02*
X153800000Y-112800000D01*
X153800000Y-112800000D02*
X153800000Y-117800000D01*
X160100000Y-116100000D02*
G75*
G03X160100000Y-116100000I-3000000J0D01*
G01*
X165800000Y-127250000D02*
X165800000Y-126150000D01*
X166200000Y-108350000D02*
X166200000Y-107250000D01*
X166300000Y-140450000D02*
X166300000Y-139350000D01*
X162900000Y-114250000D02*
X162900000Y-113150000D01*
X162800000Y-136050000D02*
X162800000Y-134950000D01*
X166300000Y-121750000D02*
X166300000Y-120650000D01*
X162800000Y-133150000D02*
X162800000Y-132050000D01*
X162900000Y-117150000D02*
X162900000Y-116050000D01*
X165800000Y-129450000D02*
X165800000Y-128350000D01*
X166200000Y-110650000D02*
X166200000Y-109550000D01*
X136919145Y-121481052D02*
X135819145Y-121481052D01*
X165410000Y-148150000D02*
X150160000Y-148150000D01*
X150160000Y-148150000D02*
X150160000Y-145650000D01*
X150160000Y-145650000D02*
X165410000Y-145650000D01*
X165410000Y-145650000D02*
X165410000Y-148150000D01*
D12*
X123550000Y-121750000D02*
X122300000Y-121750000D01*
X123550000Y-126250000D02*
X122300000Y-126250000D01*
X123572000Y-129080000D02*
X125096000Y-130096000D01*
X125096000Y-130096000D02*
X125096000Y-128064000D01*
X125096000Y-128064000D02*
X123572000Y-129080000D01*
X114450000Y-135430000D02*
X123550000Y-135430000D01*
X123550000Y-135430000D02*
X123550000Y-112570000D01*
X123550000Y-112570000D02*
X114450000Y-112570000D01*
X114450000Y-112570000D02*
X114450000Y-135430000D01*
D10*
X143370000Y-148250000D02*
X128120000Y-148250000D01*
X128120000Y-148250000D02*
X128120000Y-145750000D01*
X128120000Y-145750000D02*
X143370000Y-145750000D01*
X143370000Y-145750000D02*
X143370000Y-148250000D01*
X123011457Y-107894165D02*
X121911457Y-107894165D01*
X125411457Y-107894165D02*
X124311457Y-107894165D01*
X139300000Y-117250000D02*
X138200000Y-117250000D01*
X142700000Y-104750000D02*
X143800000Y-104750000D01*
X144700000Y-117250000D02*
X145800000Y-117250000D01*
X136200000Y-104750000D02*
X137300000Y-104750000D01*
X137050000Y-117250000D02*
X135950000Y-117250000D01*
X144950000Y-104750000D02*
X146050000Y-104750000D01*
X173000000Y-140450000D02*
X173000000Y-139350000D01*
X173000000Y-128350000D02*
X173000000Y-129450000D01*
X173100000Y-121650000D02*
X173100000Y-120550000D01*
X172800000Y-109550000D02*
X172800000Y-110650000D01*
X175900000Y-134950000D02*
X175900000Y-133850000D01*
X175900000Y-116150000D02*
X175900000Y-115050000D01*
X162800000Y-138250000D02*
X162800000Y-137150000D01*
X162900000Y-119350000D02*
X162900000Y-118250000D01*
X141350000Y-115800000D02*
X142650000Y-115800000D01*
X142650000Y-115800000D02*
X142650000Y-118700000D01*
X141350000Y-118700000D02*
X142650000Y-118700000D01*
X141350000Y-118700000D02*
X141350000Y-115800000D01*
X140650000Y-106200000D02*
X139350000Y-106200000D01*
X139350000Y-106200000D02*
X139350000Y-103300000D01*
X140650000Y-103300000D02*
X139350000Y-103300000D01*
X140650000Y-103300000D02*
X140650000Y-106200000D01*
D11*
X137500000Y-114200000D02*
G75*
G03X137500000Y-114200000I-100000J0D01*
G01*
D14*
X138600000Y-111900000D02*
G75*
G03X138600000Y-111900000I-200000J0D01*
G01*
D10*
X137700000Y-112600000D02*
X137700000Y-109400000D01*
X137700000Y-109400000D02*
X146300000Y-109400000D01*
X146300000Y-109400000D02*
X146300000Y-112600000D01*
X146300000Y-112600000D02*
X137700000Y-112600000D01*
X165100000Y-137600000D02*
X165100000Y-138600000D01*
X165100000Y-138600000D02*
X166100000Y-138600000D01*
X173500000Y-137600000D02*
X173500000Y-138600000D01*
X173500000Y-138600000D02*
X172500000Y-138600000D01*
X172500000Y-130200000D02*
X173500000Y-130200000D01*
X173500000Y-130200000D02*
X173500000Y-131200000D01*
X165100000Y-131200000D02*
X165100000Y-130200000D01*
X165100000Y-130200000D02*
X166100000Y-130200000D01*
D13*
X164800000Y-130900000D02*
G75*
G03X164800000Y-130900000I-100000J0D01*
G01*
D10*
X165100000Y-118800000D02*
X165100000Y-119800000D01*
X165100000Y-119800000D02*
X166100000Y-119800000D01*
X173500000Y-118800000D02*
X173500000Y-119800000D01*
X173500000Y-119800000D02*
X172500000Y-119800000D01*
X172500000Y-111400000D02*
X173500000Y-111400000D01*
X173500000Y-111400000D02*
X173500000Y-112400000D01*
X165100000Y-112400000D02*
X165100000Y-111400000D01*
X165100000Y-111400000D02*
X166100000Y-111400000D01*
D13*
X164800000Y-112100000D02*
G75*
G03X164800000Y-112100000I-100000J0D01*
G01*
D12*
X180400000Y-122950000D02*
X180400000Y-122200000D01*
X180400000Y-122200000D02*
X182000000Y-122200000D01*
X180400000Y-109050000D02*
X180400000Y-109800000D01*
X180400000Y-109800000D02*
X182000000Y-109800000D01*
X182000000Y-109800000D02*
X182000000Y-122200000D01*
X188000000Y-109050000D02*
X188000000Y-122950000D01*
X188000000Y-122950000D02*
X180400000Y-122950000D01*
X188000000Y-109050000D02*
X180400000Y-109050000D01*
D10*
X151030000Y-100450000D02*
X151030000Y-108200000D01*
X161170000Y-108200000D02*
X161170000Y-100450000D01*
X161170000Y-108200000D02*
X151030000Y-108200000D01*
D11*
X132100000Y-130700000D02*
G75*
G03X132100000Y-130700000I-100000J0D01*
G01*
D15*
X134800000Y-132100000D02*
G75*
G03X134800000Y-132100000I-200000J0D01*
G01*
D10*
X133700000Y-131200000D02*
X139900000Y-131200000D01*
X139900000Y-131200000D02*
X139900000Y-137400000D01*
X139900000Y-137400000D02*
X133700000Y-137400000D01*
X133700000Y-137400000D02*
X133700000Y-131200000D01*
D14*
X130161457Y-108894165D02*
G75*
G03X130161457Y-108894165I-200000J0D01*
G01*
D12*
X129361457Y-108294165D02*
X127361457Y-108294165D01*
X127361457Y-108294165D02*
X127361457Y-106294165D01*
X127361457Y-106294165D02*
X129361457Y-106294165D01*
X129361457Y-106294165D02*
X129361457Y-108294165D01*
D10*
X127000000Y-143400000D02*
X128600000Y-141800000D01*
X128600000Y-141800000D02*
X128600000Y-138400000D01*
X128600000Y-138400000D02*
X127000000Y-136800000D01*
X127000000Y-136800000D02*
X122000000Y-136800000D01*
X122000000Y-136800000D02*
X122000000Y-143400000D01*
X122000000Y-143400000D02*
X127000000Y-143400000D01*
X128300000Y-140100000D02*
G75*
G03X128300000Y-140100000I-3000000J0D01*
G01*
X170750000Y-101950000D02*
X178350000Y-101950000D01*
X178350000Y-101950000D02*
X178350000Y-104450000D01*
X178350000Y-104450000D02*
X170750000Y-104450000D01*
X170750000Y-104450000D02*
X170750000Y-101950000D01*
D11*
X137760000Y-126700000D02*
G75*
G03X137760000Y-126700000I-100000J0D01*
G01*
D14*
X138860000Y-124400000D02*
G75*
G03X138860000Y-124400000I-200000J0D01*
G01*
D10*
X137960000Y-125100000D02*
X137960000Y-121900000D01*
X137960000Y-121900000D02*
X146560000Y-121900000D01*
X146560000Y-121900000D02*
X146560000Y-125100000D01*
X146560000Y-125100000D02*
X137960000Y-125100000D01*
X180535714Y-126771429D02*
X180535714Y-126171429D01*
X180764286Y-126171429D01*
X180821428Y-126200000D01*
X180850000Y-126228571D01*
X180878571Y-126285714D01*
X180878571Y-126371429D01*
X180850000Y-126428571D01*
X180821428Y-126457143D01*
X180764286Y-126485714D01*
X180535714Y-126485714D01*
X181107143Y-126228571D02*
X181135714Y-126200000D01*
X181192857Y-126171429D01*
X181335714Y-126171429D01*
X181392857Y-126200000D01*
X181421428Y-126228571D01*
X181450000Y-126285714D01*
X181450000Y-126342857D01*
X181421428Y-126428571D01*
X181078571Y-126771429D01*
X181450000Y-126771429D01*
X181821429Y-126171429D02*
X181878572Y-126171429D01*
X181935715Y-126200000D01*
X181964286Y-126228571D01*
X181992857Y-126285714D01*
X182021429Y-126400000D01*
X182021429Y-126542857D01*
X181992857Y-126657143D01*
X181964286Y-126714286D01*
X181935715Y-126742857D01*
X181878572Y-126771429D01*
X181821429Y-126771429D01*
X181764286Y-126742857D01*
X181735715Y-126714286D01*
X181707143Y-126657143D01*
X181678572Y-126542857D01*
X181678572Y-126400000D01*
X181707143Y-126285714D01*
X181735715Y-126228571D01*
X181764286Y-126200000D01*
X181821429Y-126171429D01*
X182592858Y-126771429D02*
X182250001Y-126771429D01*
X182421429Y-126771429D02*
X182421429Y-126171429D01*
X182364286Y-126257143D01*
X182307144Y-126314286D01*
X182250001Y-126342857D01*
X126714286Y-135171429D02*
X126742857Y-135200000D01*
X126771429Y-135285714D01*
X126771429Y-135342857D01*
X126742857Y-135428572D01*
X126685714Y-135485714D01*
X126628571Y-135514286D01*
X126514286Y-135542857D01*
X126428571Y-135542857D01*
X126314286Y-135514286D01*
X126257143Y-135485714D01*
X126200000Y-135428572D01*
X126171429Y-135342857D01*
X126171429Y-135285714D01*
X126200000Y-135200000D01*
X126228571Y-135171429D01*
X126771429Y-134600000D02*
X126771429Y-134942857D01*
X126771429Y-134771429D02*
X126171429Y-134771429D01*
X126257143Y-134828572D01*
X126314286Y-134885714D01*
X126342857Y-134942857D01*
X126171429Y-134228571D02*
X126171429Y-134171428D01*
X126200000Y-134114285D01*
X126228571Y-134085714D01*
X126285714Y-134057143D01*
X126400000Y-134028571D01*
X126542857Y-134028571D01*
X126657143Y-134057143D01*
X126714286Y-134085714D01*
X126742857Y-134114285D01*
X126771429Y-134171428D01*
X126771429Y-134228571D01*
X126742857Y-134285714D01*
X126714286Y-134314285D01*
X126657143Y-134342857D01*
X126542857Y-134371428D01*
X126400000Y-134371428D01*
X126285714Y-134342857D01*
X126228571Y-134314285D01*
X126200000Y-134285714D01*
X126171429Y-134228571D01*
X126771429Y-133457142D02*
X126771429Y-133799999D01*
X126771429Y-133628571D02*
X126171429Y-133628571D01*
X126257143Y-133685714D01*
X126314286Y-133742856D01*
X126342857Y-133799999D01*
X145314286Y-139371429D02*
X145342857Y-139400000D01*
X145371429Y-139485714D01*
X145371429Y-139542857D01*
X145342857Y-139628572D01*
X145285714Y-139685714D01*
X145228571Y-139714286D01*
X145114286Y-139742857D01*
X145028571Y-139742857D01*
X144914286Y-139714286D01*
X144857143Y-139685714D01*
X144800000Y-139628572D01*
X144771429Y-139542857D01*
X144771429Y-139485714D01*
X144800000Y-139400000D01*
X144828571Y-139371429D01*
X145371429Y-138800000D02*
X145371429Y-139142857D01*
X145371429Y-138971429D02*
X144771429Y-138971429D01*
X144857143Y-139028572D01*
X144914286Y-139085714D01*
X144942857Y-139142857D01*
X144771429Y-138428571D02*
X144771429Y-138371428D01*
X144800000Y-138314285D01*
X144828571Y-138285714D01*
X144885714Y-138257143D01*
X145000000Y-138228571D01*
X145142857Y-138228571D01*
X145257143Y-138257143D01*
X145314286Y-138285714D01*
X145342857Y-138314285D01*
X145371429Y-138371428D01*
X145371429Y-138428571D01*
X145342857Y-138485714D01*
X145314286Y-138514285D01*
X145257143Y-138542857D01*
X145142857Y-138571428D01*
X145000000Y-138571428D01*
X144885714Y-138542857D01*
X144828571Y-138514285D01*
X144800000Y-138485714D01*
X144771429Y-138428571D01*
X144828571Y-137999999D02*
X144800000Y-137971428D01*
X144771429Y-137914285D01*
X144771429Y-137771428D01*
X144800000Y-137714285D01*
X144828571Y-137685714D01*
X144885714Y-137657142D01*
X144942857Y-137657142D01*
X145028571Y-137685714D01*
X145371429Y-138028571D01*
X145371429Y-137657142D01*
X127528571Y-133214286D02*
X127500000Y-133242857D01*
X127414286Y-133271429D01*
X127357143Y-133271429D01*
X127271428Y-133242857D01*
X127214286Y-133185714D01*
X127185714Y-133128571D01*
X127157143Y-133014286D01*
X127157143Y-132928571D01*
X127185714Y-132814286D01*
X127214286Y-132757143D01*
X127271428Y-132700000D01*
X127357143Y-132671429D01*
X127414286Y-132671429D01*
X127500000Y-132700000D01*
X127528571Y-132728571D01*
X128100000Y-133271429D02*
X127757143Y-133271429D01*
X127928571Y-133271429D02*
X127928571Y-132671429D01*
X127871428Y-132757143D01*
X127814286Y-132814286D01*
X127757143Y-132842857D01*
X128471429Y-132671429D02*
X128528572Y-132671429D01*
X128585715Y-132700000D01*
X128614286Y-132728571D01*
X128642857Y-132785714D01*
X128671429Y-132900000D01*
X128671429Y-133042857D01*
X128642857Y-133157143D01*
X128614286Y-133214286D01*
X128585715Y-133242857D01*
X128528572Y-133271429D01*
X128471429Y-133271429D01*
X128414286Y-133242857D01*
X128385715Y-133214286D01*
X128357143Y-133157143D01*
X128328572Y-133042857D01*
X128328572Y-132900000D01*
X128357143Y-132785714D01*
X128385715Y-132728571D01*
X128414286Y-132700000D01*
X128471429Y-132671429D01*
X128871429Y-132671429D02*
X129242858Y-132671429D01*
X129042858Y-132900000D01*
X129128572Y-132900000D01*
X129185715Y-132928571D01*
X129214286Y-132957143D01*
X129242858Y-133014286D01*
X129242858Y-133157143D01*
X129214286Y-133214286D01*
X129185715Y-133242857D01*
X129128572Y-133271429D01*
X128957144Y-133271429D01*
X128900001Y-133242857D01*
X128871429Y-133214286D01*
X125490028Y-102608451D02*
X125461457Y-102637022D01*
X125375743Y-102665594D01*
X125318600Y-102665594D01*
X125232885Y-102637022D01*
X125175743Y-102579879D01*
X125147171Y-102522736D01*
X125118600Y-102408451D01*
X125118600Y-102322736D01*
X125147171Y-102208451D01*
X125175743Y-102151308D01*
X125232885Y-102094165D01*
X125318600Y-102065594D01*
X125375743Y-102065594D01*
X125461457Y-102094165D01*
X125490028Y-102122736D01*
X126061457Y-102665594D02*
X125718600Y-102665594D01*
X125890028Y-102665594D02*
X125890028Y-102065594D01*
X125832885Y-102151308D01*
X125775743Y-102208451D01*
X125718600Y-102237022D01*
X126432886Y-102065594D02*
X126490029Y-102065594D01*
X126547172Y-102094165D01*
X126575743Y-102122736D01*
X126604314Y-102179879D01*
X126632886Y-102294165D01*
X126632886Y-102437022D01*
X126604314Y-102551308D01*
X126575743Y-102608451D01*
X126547172Y-102637022D01*
X126490029Y-102665594D01*
X126432886Y-102665594D01*
X126375743Y-102637022D01*
X126347172Y-102608451D01*
X126318600Y-102551308D01*
X126290029Y-102437022D01*
X126290029Y-102294165D01*
X126318600Y-102179879D01*
X126347172Y-102122736D01*
X126375743Y-102094165D01*
X126432886Y-102065594D01*
X127147172Y-102265594D02*
X127147172Y-102665594D01*
X127004315Y-102037022D02*
X126861458Y-102465594D01*
X127232886Y-102465594D01*
X128190028Y-112308451D02*
X128161457Y-112337022D01*
X128075743Y-112365594D01*
X128018600Y-112365594D01*
X127932885Y-112337022D01*
X127875743Y-112279879D01*
X127847171Y-112222736D01*
X127818600Y-112108451D01*
X127818600Y-112022736D01*
X127847171Y-111908451D01*
X127875743Y-111851308D01*
X127932885Y-111794165D01*
X128018600Y-111765594D01*
X128075743Y-111765594D01*
X128161457Y-111794165D01*
X128190028Y-111822736D01*
X128761457Y-112365594D02*
X128418600Y-112365594D01*
X128590028Y-112365594D02*
X128590028Y-111765594D01*
X128532885Y-111851308D01*
X128475743Y-111908451D01*
X128418600Y-111937022D01*
X129132886Y-111765594D02*
X129190029Y-111765594D01*
X129247172Y-111794165D01*
X129275743Y-111822736D01*
X129304314Y-111879879D01*
X129332886Y-111994165D01*
X129332886Y-112137022D01*
X129304314Y-112251308D01*
X129275743Y-112308451D01*
X129247172Y-112337022D01*
X129190029Y-112365594D01*
X129132886Y-112365594D01*
X129075743Y-112337022D01*
X129047172Y-112308451D01*
X129018600Y-112251308D01*
X128990029Y-112137022D01*
X128990029Y-111994165D01*
X129018600Y-111879879D01*
X129047172Y-111822736D01*
X129075743Y-111794165D01*
X129132886Y-111765594D01*
X129875743Y-111765594D02*
X129590029Y-111765594D01*
X129561458Y-112051308D01*
X129590029Y-112022736D01*
X129647172Y-111994165D01*
X129790029Y-111994165D01*
X129847172Y-112022736D01*
X129875743Y-112051308D01*
X129904315Y-112108451D01*
X129904315Y-112251308D01*
X129875743Y-112308451D01*
X129847172Y-112337022D01*
X129790029Y-112365594D01*
X129647172Y-112365594D01*
X129590029Y-112337022D01*
X129561458Y-112308451D01*
X129290028Y-102608451D02*
X129261457Y-102637022D01*
X129175743Y-102665594D01*
X129118600Y-102665594D01*
X129032885Y-102637022D01*
X128975743Y-102579879D01*
X128947171Y-102522736D01*
X128918600Y-102408451D01*
X128918600Y-102322736D01*
X128947171Y-102208451D01*
X128975743Y-102151308D01*
X129032885Y-102094165D01*
X129118600Y-102065594D01*
X129175743Y-102065594D01*
X129261457Y-102094165D01*
X129290028Y-102122736D01*
X129861457Y-102665594D02*
X129518600Y-102665594D01*
X129690028Y-102665594D02*
X129690028Y-102065594D01*
X129632885Y-102151308D01*
X129575743Y-102208451D01*
X129518600Y-102237022D01*
X130232886Y-102065594D02*
X130290029Y-102065594D01*
X130347172Y-102094165D01*
X130375743Y-102122736D01*
X130404314Y-102179879D01*
X130432886Y-102294165D01*
X130432886Y-102437022D01*
X130404314Y-102551308D01*
X130375743Y-102608451D01*
X130347172Y-102637022D01*
X130290029Y-102665594D01*
X130232886Y-102665594D01*
X130175743Y-102637022D01*
X130147172Y-102608451D01*
X130118600Y-102551308D01*
X130090029Y-102437022D01*
X130090029Y-102294165D01*
X130118600Y-102179879D01*
X130147172Y-102122736D01*
X130175743Y-102094165D01*
X130232886Y-102065594D01*
X130947172Y-102065594D02*
X130832886Y-102065594D01*
X130775743Y-102094165D01*
X130747172Y-102122736D01*
X130690029Y-102208451D01*
X130661458Y-102322736D01*
X130661458Y-102551308D01*
X130690029Y-102608451D01*
X130718601Y-102637022D01*
X130775743Y-102665594D01*
X130890029Y-102665594D01*
X130947172Y-102637022D01*
X130975743Y-102608451D01*
X131004315Y-102551308D01*
X131004315Y-102408451D01*
X130975743Y-102351308D01*
X130947172Y-102322736D01*
X130890029Y-102294165D01*
X130775743Y-102294165D01*
X130718601Y-102322736D01*
X130690029Y-102351308D01*
X130661458Y-102408451D01*
X135328571Y-111500286D02*
X135300000Y-111528857D01*
X135214286Y-111557429D01*
X135157143Y-111557429D01*
X135071428Y-111528857D01*
X135014286Y-111471714D01*
X134985714Y-111414571D01*
X134957143Y-111300286D01*
X134957143Y-111214571D01*
X134985714Y-111100286D01*
X135014286Y-111043143D01*
X135071428Y-110986000D01*
X135157143Y-110957429D01*
X135214286Y-110957429D01*
X135300000Y-110986000D01*
X135328571Y-111014571D01*
X135557143Y-111014571D02*
X135585714Y-110986000D01*
X135642857Y-110957429D01*
X135785714Y-110957429D01*
X135842857Y-110986000D01*
X135871428Y-111014571D01*
X135900000Y-111071714D01*
X135900000Y-111128857D01*
X135871428Y-111214571D01*
X135528571Y-111557429D01*
X135900000Y-111557429D01*
X136271429Y-110957429D02*
X136328572Y-110957429D01*
X136385715Y-110986000D01*
X136414286Y-111014571D01*
X136442857Y-111071714D01*
X136471429Y-111186000D01*
X136471429Y-111328857D01*
X136442857Y-111443143D01*
X136414286Y-111500286D01*
X136385715Y-111528857D01*
X136328572Y-111557429D01*
X136271429Y-111557429D01*
X136214286Y-111528857D01*
X136185715Y-111500286D01*
X136157143Y-111443143D01*
X136128572Y-111328857D01*
X136128572Y-111186000D01*
X136157143Y-111071714D01*
X136185715Y-111014571D01*
X136214286Y-110986000D01*
X136271429Y-110957429D01*
X137042858Y-111557429D02*
X136700001Y-111557429D01*
X136871429Y-111557429D02*
X136871429Y-110957429D01*
X136814286Y-111043143D01*
X136757144Y-111100286D01*
X136700001Y-111128857D01*
X154028571Y-131064286D02*
X154000000Y-131092857D01*
X153914286Y-131121429D01*
X153857143Y-131121429D01*
X153771428Y-131092857D01*
X153714286Y-131035714D01*
X153685714Y-130978571D01*
X153657143Y-130864286D01*
X153657143Y-130778571D01*
X153685714Y-130664286D01*
X153714286Y-130607143D01*
X153771428Y-130550000D01*
X153857143Y-130521429D01*
X153914286Y-130521429D01*
X154000000Y-130550000D01*
X154028571Y-130578571D01*
X154257143Y-130578571D02*
X154285714Y-130550000D01*
X154342857Y-130521429D01*
X154485714Y-130521429D01*
X154542857Y-130550000D01*
X154571428Y-130578571D01*
X154600000Y-130635714D01*
X154600000Y-130692857D01*
X154571428Y-130778571D01*
X154228571Y-131121429D01*
X154600000Y-131121429D01*
X154971429Y-130521429D02*
X155028572Y-130521429D01*
X155085715Y-130550000D01*
X155114286Y-130578571D01*
X155142857Y-130635714D01*
X155171429Y-130750000D01*
X155171429Y-130892857D01*
X155142857Y-131007143D01*
X155114286Y-131064286D01*
X155085715Y-131092857D01*
X155028572Y-131121429D01*
X154971429Y-131121429D01*
X154914286Y-131092857D01*
X154885715Y-131064286D01*
X154857143Y-131007143D01*
X154828572Y-130892857D01*
X154828572Y-130750000D01*
X154857143Y-130635714D01*
X154885715Y-130578571D01*
X154914286Y-130550000D01*
X154971429Y-130521429D01*
X155400001Y-130578571D02*
X155428572Y-130550000D01*
X155485715Y-130521429D01*
X155628572Y-130521429D01*
X155685715Y-130550000D01*
X155714286Y-130578571D01*
X155742858Y-130635714D01*
X155742858Y-130692857D01*
X155714286Y-130778571D01*
X155371429Y-131121429D01*
X155742858Y-131121429D01*
X154328571Y-112364286D02*
X154300000Y-112392857D01*
X154214286Y-112421429D01*
X154157143Y-112421429D01*
X154071428Y-112392857D01*
X154014286Y-112335714D01*
X153985714Y-112278571D01*
X153957143Y-112164286D01*
X153957143Y-112078571D01*
X153985714Y-111964286D01*
X154014286Y-111907143D01*
X154071428Y-111850000D01*
X154157143Y-111821429D01*
X154214286Y-111821429D01*
X154300000Y-111850000D01*
X154328571Y-111878571D01*
X154557143Y-111878571D02*
X154585714Y-111850000D01*
X154642857Y-111821429D01*
X154785714Y-111821429D01*
X154842857Y-111850000D01*
X154871428Y-111878571D01*
X154900000Y-111935714D01*
X154900000Y-111992857D01*
X154871428Y-112078571D01*
X154528571Y-112421429D01*
X154900000Y-112421429D01*
X155271429Y-111821429D02*
X155328572Y-111821429D01*
X155385715Y-111850000D01*
X155414286Y-111878571D01*
X155442857Y-111935714D01*
X155471429Y-112050000D01*
X155471429Y-112192857D01*
X155442857Y-112307143D01*
X155414286Y-112364286D01*
X155385715Y-112392857D01*
X155328572Y-112421429D01*
X155271429Y-112421429D01*
X155214286Y-112392857D01*
X155185715Y-112364286D01*
X155157143Y-112307143D01*
X155128572Y-112192857D01*
X155128572Y-112050000D01*
X155157143Y-111935714D01*
X155185715Y-111878571D01*
X155214286Y-111850000D01*
X155271429Y-111821429D01*
X155671429Y-111821429D02*
X156042858Y-111821429D01*
X155842858Y-112050000D01*
X155928572Y-112050000D01*
X155985715Y-112078571D01*
X156014286Y-112107143D01*
X156042858Y-112164286D01*
X156042858Y-112307143D01*
X156014286Y-112364286D01*
X155985715Y-112392857D01*
X155928572Y-112421429D01*
X155757144Y-112421429D01*
X155700001Y-112392857D01*
X155671429Y-112364286D01*
X168078571Y-126464286D02*
X168050000Y-126492857D01*
X167964286Y-126521429D01*
X167907143Y-126521429D01*
X167821428Y-126492857D01*
X167764286Y-126435714D01*
X167735714Y-126378571D01*
X167707143Y-126264286D01*
X167707143Y-126178571D01*
X167735714Y-126064286D01*
X167764286Y-126007143D01*
X167821428Y-125950000D01*
X167907143Y-125921429D01*
X167964286Y-125921429D01*
X168050000Y-125950000D01*
X168078571Y-125978571D01*
X168307143Y-125978571D02*
X168335714Y-125950000D01*
X168392857Y-125921429D01*
X168535714Y-125921429D01*
X168592857Y-125950000D01*
X168621428Y-125978571D01*
X168650000Y-126035714D01*
X168650000Y-126092857D01*
X168621428Y-126178571D01*
X168278571Y-126521429D01*
X168650000Y-126521429D01*
X169021429Y-125921429D02*
X169078572Y-125921429D01*
X169135715Y-125950000D01*
X169164286Y-125978571D01*
X169192857Y-126035714D01*
X169221429Y-126150000D01*
X169221429Y-126292857D01*
X169192857Y-126407143D01*
X169164286Y-126464286D01*
X169135715Y-126492857D01*
X169078572Y-126521429D01*
X169021429Y-126521429D01*
X168964286Y-126492857D01*
X168935715Y-126464286D01*
X168907143Y-126407143D01*
X168878572Y-126292857D01*
X168878572Y-126150000D01*
X168907143Y-126035714D01*
X168935715Y-125978571D01*
X168964286Y-125950000D01*
X169021429Y-125921429D01*
X169735715Y-126121429D02*
X169735715Y-126521429D01*
X169592858Y-125892857D02*
X169450001Y-126321429D01*
X169821429Y-126321429D01*
X165278571Y-106464286D02*
X165250000Y-106492857D01*
X165164286Y-106521429D01*
X165107143Y-106521429D01*
X165021428Y-106492857D01*
X164964286Y-106435714D01*
X164935714Y-106378571D01*
X164907143Y-106264286D01*
X164907143Y-106178571D01*
X164935714Y-106064286D01*
X164964286Y-106007143D01*
X165021428Y-105950000D01*
X165107143Y-105921429D01*
X165164286Y-105921429D01*
X165250000Y-105950000D01*
X165278571Y-105978571D01*
X165507143Y-105978571D02*
X165535714Y-105950000D01*
X165592857Y-105921429D01*
X165735714Y-105921429D01*
X165792857Y-105950000D01*
X165821428Y-105978571D01*
X165850000Y-106035714D01*
X165850000Y-106092857D01*
X165821428Y-106178571D01*
X165478571Y-106521429D01*
X165850000Y-106521429D01*
X166221429Y-105921429D02*
X166278572Y-105921429D01*
X166335715Y-105950000D01*
X166364286Y-105978571D01*
X166392857Y-106035714D01*
X166421429Y-106150000D01*
X166421429Y-106292857D01*
X166392857Y-106407143D01*
X166364286Y-106464286D01*
X166335715Y-106492857D01*
X166278572Y-106521429D01*
X166221429Y-106521429D01*
X166164286Y-106492857D01*
X166135715Y-106464286D01*
X166107143Y-106407143D01*
X166078572Y-106292857D01*
X166078572Y-106150000D01*
X166107143Y-106035714D01*
X166135715Y-105978571D01*
X166164286Y-105950000D01*
X166221429Y-105921429D01*
X166964286Y-105921429D02*
X166678572Y-105921429D01*
X166650001Y-106207143D01*
X166678572Y-106178571D01*
X166735715Y-106150000D01*
X166878572Y-106150000D01*
X166935715Y-106178571D01*
X166964286Y-106207143D01*
X166992858Y-106264286D01*
X166992858Y-106407143D01*
X166964286Y-106464286D01*
X166935715Y-106492857D01*
X166878572Y-106521429D01*
X166735715Y-106521429D01*
X166678572Y-106492857D01*
X166650001Y-106464286D01*
X165278571Y-141614286D02*
X165250000Y-141642857D01*
X165164286Y-141671429D01*
X165107143Y-141671429D01*
X165021428Y-141642857D01*
X164964286Y-141585714D01*
X164935714Y-141528571D01*
X164907143Y-141414286D01*
X164907143Y-141328571D01*
X164935714Y-141214286D01*
X164964286Y-141157143D01*
X165021428Y-141100000D01*
X165107143Y-141071429D01*
X165164286Y-141071429D01*
X165250000Y-141100000D01*
X165278571Y-141128571D01*
X165507143Y-141128571D02*
X165535714Y-141100000D01*
X165592857Y-141071429D01*
X165735714Y-141071429D01*
X165792857Y-141100000D01*
X165821428Y-141128571D01*
X165850000Y-141185714D01*
X165850000Y-141242857D01*
X165821428Y-141328571D01*
X165478571Y-141671429D01*
X165850000Y-141671429D01*
X166221429Y-141071429D02*
X166278572Y-141071429D01*
X166335715Y-141100000D01*
X166364286Y-141128571D01*
X166392857Y-141185714D01*
X166421429Y-141300000D01*
X166421429Y-141442857D01*
X166392857Y-141557143D01*
X166364286Y-141614286D01*
X166335715Y-141642857D01*
X166278572Y-141671429D01*
X166221429Y-141671429D01*
X166164286Y-141642857D01*
X166135715Y-141614286D01*
X166107143Y-141557143D01*
X166078572Y-141442857D01*
X166078572Y-141300000D01*
X166107143Y-141185714D01*
X166135715Y-141128571D01*
X166164286Y-141100000D01*
X166221429Y-141071429D01*
X166935715Y-141071429D02*
X166821429Y-141071429D01*
X166764286Y-141100000D01*
X166735715Y-141128571D01*
X166678572Y-141214286D01*
X166650001Y-141328571D01*
X166650001Y-141557143D01*
X166678572Y-141614286D01*
X166707144Y-141642857D01*
X166764286Y-141671429D01*
X166878572Y-141671429D01*
X166935715Y-141642857D01*
X166964286Y-141614286D01*
X166992858Y-141557143D01*
X166992858Y-141414286D01*
X166964286Y-141357143D01*
X166935715Y-141328571D01*
X166878572Y-141300000D01*
X166764286Y-141300000D01*
X166707144Y-141328571D01*
X166678572Y-141357143D01*
X166650001Y-141414286D01*
X162014286Y-112271429D02*
X162042857Y-112300000D01*
X162071429Y-112385714D01*
X162071429Y-112442857D01*
X162042857Y-112528572D01*
X161985714Y-112585714D01*
X161928571Y-112614286D01*
X161814286Y-112642857D01*
X161728571Y-112642857D01*
X161614286Y-112614286D01*
X161557143Y-112585714D01*
X161500000Y-112528572D01*
X161471429Y-112442857D01*
X161471429Y-112385714D01*
X161500000Y-112300000D01*
X161528571Y-112271429D01*
X161528571Y-112042857D02*
X161500000Y-112014286D01*
X161471429Y-111957143D01*
X161471429Y-111814286D01*
X161500000Y-111757143D01*
X161528571Y-111728572D01*
X161585714Y-111700000D01*
X161642857Y-111700000D01*
X161728571Y-111728572D01*
X162071429Y-112071429D01*
X162071429Y-111700000D01*
X161471429Y-111328571D02*
X161471429Y-111271428D01*
X161500000Y-111214285D01*
X161528571Y-111185714D01*
X161585714Y-111157143D01*
X161700000Y-111128571D01*
X161842857Y-111128571D01*
X161957143Y-111157143D01*
X162014286Y-111185714D01*
X162042857Y-111214285D01*
X162071429Y-111271428D01*
X162071429Y-111328571D01*
X162042857Y-111385714D01*
X162014286Y-111414285D01*
X161957143Y-111442857D01*
X161842857Y-111471428D01*
X161700000Y-111471428D01*
X161585714Y-111442857D01*
X161528571Y-111414285D01*
X161500000Y-111385714D01*
X161471429Y-111328571D01*
X161471429Y-110928571D02*
X161471429Y-110528571D01*
X162071429Y-110785714D01*
X161478571Y-134414286D02*
X161450000Y-134442857D01*
X161364286Y-134471429D01*
X161307143Y-134471429D01*
X161221428Y-134442857D01*
X161164286Y-134385714D01*
X161135714Y-134328571D01*
X161107143Y-134214286D01*
X161107143Y-134128571D01*
X161135714Y-134014286D01*
X161164286Y-133957143D01*
X161221428Y-133900000D01*
X161307143Y-133871429D01*
X161364286Y-133871429D01*
X161450000Y-133900000D01*
X161478571Y-133928571D01*
X161707143Y-133928571D02*
X161735714Y-133900000D01*
X161792857Y-133871429D01*
X161935714Y-133871429D01*
X161992857Y-133900000D01*
X162021428Y-133928571D01*
X162050000Y-133985714D01*
X162050000Y-134042857D01*
X162021428Y-134128571D01*
X161678571Y-134471429D01*
X162050000Y-134471429D01*
X162421429Y-133871429D02*
X162478572Y-133871429D01*
X162535715Y-133900000D01*
X162564286Y-133928571D01*
X162592857Y-133985714D01*
X162621429Y-134100000D01*
X162621429Y-134242857D01*
X162592857Y-134357143D01*
X162564286Y-134414286D01*
X162535715Y-134442857D01*
X162478572Y-134471429D01*
X162421429Y-134471429D01*
X162364286Y-134442857D01*
X162335715Y-134414286D01*
X162307143Y-134357143D01*
X162278572Y-134242857D01*
X162278572Y-134100000D01*
X162307143Y-133985714D01*
X162335715Y-133928571D01*
X162364286Y-133900000D01*
X162421429Y-133871429D01*
X162964286Y-134128571D02*
X162907144Y-134100000D01*
X162878572Y-134071429D01*
X162850001Y-134014286D01*
X162850001Y-133985714D01*
X162878572Y-133928571D01*
X162907144Y-133900000D01*
X162964286Y-133871429D01*
X163078572Y-133871429D01*
X163135715Y-133900000D01*
X163164286Y-133928571D01*
X163192858Y-133985714D01*
X163192858Y-134014286D01*
X163164286Y-134071429D01*
X163135715Y-134100000D01*
X163078572Y-134128571D01*
X162964286Y-134128571D01*
X162907144Y-134157143D01*
X162878572Y-134185714D01*
X162850001Y-134242857D01*
X162850001Y-134357143D01*
X162878572Y-134414286D01*
X162907144Y-134442857D01*
X162964286Y-134471429D01*
X163078572Y-134471429D01*
X163135715Y-134442857D01*
X163164286Y-134414286D01*
X163192858Y-134357143D01*
X163192858Y-134242857D01*
X163164286Y-134185714D01*
X163135715Y-134157143D01*
X163078572Y-134128571D01*
X166478571Y-123014286D02*
X166450000Y-123042857D01*
X166364286Y-123071429D01*
X166307143Y-123071429D01*
X166221428Y-123042857D01*
X166164286Y-122985714D01*
X166135714Y-122928571D01*
X166107143Y-122814286D01*
X166107143Y-122728571D01*
X166135714Y-122614286D01*
X166164286Y-122557143D01*
X166221428Y-122500000D01*
X166307143Y-122471429D01*
X166364286Y-122471429D01*
X166450000Y-122500000D01*
X166478571Y-122528571D01*
X166707143Y-122528571D02*
X166735714Y-122500000D01*
X166792857Y-122471429D01*
X166935714Y-122471429D01*
X166992857Y-122500000D01*
X167021428Y-122528571D01*
X167050000Y-122585714D01*
X167050000Y-122642857D01*
X167021428Y-122728571D01*
X166678571Y-123071429D01*
X167050000Y-123071429D01*
X167421429Y-122471429D02*
X167478572Y-122471429D01*
X167535715Y-122500000D01*
X167564286Y-122528571D01*
X167592857Y-122585714D01*
X167621429Y-122700000D01*
X167621429Y-122842857D01*
X167592857Y-122957143D01*
X167564286Y-123014286D01*
X167535715Y-123042857D01*
X167478572Y-123071429D01*
X167421429Y-123071429D01*
X167364286Y-123042857D01*
X167335715Y-123014286D01*
X167307143Y-122957143D01*
X167278572Y-122842857D01*
X167278572Y-122700000D01*
X167307143Y-122585714D01*
X167335715Y-122528571D01*
X167364286Y-122500000D01*
X167421429Y-122471429D01*
X167907144Y-123071429D02*
X168021429Y-123071429D01*
X168078572Y-123042857D01*
X168107144Y-123014286D01*
X168164286Y-122928571D01*
X168192858Y-122814286D01*
X168192858Y-122585714D01*
X168164286Y-122528571D01*
X168135715Y-122500000D01*
X168078572Y-122471429D01*
X167964286Y-122471429D01*
X167907144Y-122500000D01*
X167878572Y-122528571D01*
X167850001Y-122585714D01*
X167850001Y-122728571D01*
X167878572Y-122785714D01*
X167907144Y-122814286D01*
X167964286Y-122842857D01*
X168078572Y-122842857D01*
X168135715Y-122814286D01*
X168164286Y-122785714D01*
X168192858Y-122728571D01*
X161478571Y-131364286D02*
X161450000Y-131392857D01*
X161364286Y-131421429D01*
X161307143Y-131421429D01*
X161221428Y-131392857D01*
X161164286Y-131335714D01*
X161135714Y-131278571D01*
X161107143Y-131164286D01*
X161107143Y-131078571D01*
X161135714Y-130964286D01*
X161164286Y-130907143D01*
X161221428Y-130850000D01*
X161307143Y-130821429D01*
X161364286Y-130821429D01*
X161450000Y-130850000D01*
X161478571Y-130878571D01*
X161707143Y-130878571D02*
X161735714Y-130850000D01*
X161792857Y-130821429D01*
X161935714Y-130821429D01*
X161992857Y-130850000D01*
X162021428Y-130878571D01*
X162050000Y-130935714D01*
X162050000Y-130992857D01*
X162021428Y-131078571D01*
X161678571Y-131421429D01*
X162050000Y-131421429D01*
X162621429Y-131421429D02*
X162278572Y-131421429D01*
X162450000Y-131421429D02*
X162450000Y-130821429D01*
X162392857Y-130907143D01*
X162335715Y-130964286D01*
X162278572Y-130992857D01*
X162992858Y-130821429D02*
X163050001Y-130821429D01*
X163107144Y-130850000D01*
X163135715Y-130878571D01*
X163164286Y-130935714D01*
X163192858Y-131050000D01*
X163192858Y-131192857D01*
X163164286Y-131307143D01*
X163135715Y-131364286D01*
X163107144Y-131392857D01*
X163050001Y-131421429D01*
X162992858Y-131421429D01*
X162935715Y-131392857D01*
X162907144Y-131364286D01*
X162878572Y-131307143D01*
X162850001Y-131192857D01*
X162850001Y-131050000D01*
X162878572Y-130935714D01*
X162907144Y-130878571D01*
X162935715Y-130850000D01*
X162992858Y-130821429D01*
X161528571Y-115414286D02*
X161500000Y-115442857D01*
X161414286Y-115471429D01*
X161357143Y-115471429D01*
X161271428Y-115442857D01*
X161214286Y-115385714D01*
X161185714Y-115328571D01*
X161157143Y-115214286D01*
X161157143Y-115128571D01*
X161185714Y-115014286D01*
X161214286Y-114957143D01*
X161271428Y-114900000D01*
X161357143Y-114871429D01*
X161414286Y-114871429D01*
X161500000Y-114900000D01*
X161528571Y-114928571D01*
X161757143Y-114928571D02*
X161785714Y-114900000D01*
X161842857Y-114871429D01*
X161985714Y-114871429D01*
X162042857Y-114900000D01*
X162071428Y-114928571D01*
X162100000Y-114985714D01*
X162100000Y-115042857D01*
X162071428Y-115128571D01*
X161728571Y-115471429D01*
X162100000Y-115471429D01*
X162671429Y-115471429D02*
X162328572Y-115471429D01*
X162500000Y-115471429D02*
X162500000Y-114871429D01*
X162442857Y-114957143D01*
X162385715Y-115014286D01*
X162328572Y-115042857D01*
X163242858Y-115471429D02*
X162900001Y-115471429D01*
X163071429Y-115471429D02*
X163071429Y-114871429D01*
X163014286Y-114957143D01*
X162957144Y-115014286D01*
X162900001Y-115042857D01*
X168078571Y-128614286D02*
X168050000Y-128642857D01*
X167964286Y-128671429D01*
X167907143Y-128671429D01*
X167821428Y-128642857D01*
X167764286Y-128585714D01*
X167735714Y-128528571D01*
X167707143Y-128414286D01*
X167707143Y-128328571D01*
X167735714Y-128214286D01*
X167764286Y-128157143D01*
X167821428Y-128100000D01*
X167907143Y-128071429D01*
X167964286Y-128071429D01*
X168050000Y-128100000D01*
X168078571Y-128128571D01*
X168307143Y-128128571D02*
X168335714Y-128100000D01*
X168392857Y-128071429D01*
X168535714Y-128071429D01*
X168592857Y-128100000D01*
X168621428Y-128128571D01*
X168650000Y-128185714D01*
X168650000Y-128242857D01*
X168621428Y-128328571D01*
X168278571Y-128671429D01*
X168650000Y-128671429D01*
X169221429Y-128671429D02*
X168878572Y-128671429D01*
X169050000Y-128671429D02*
X169050000Y-128071429D01*
X168992857Y-128157143D01*
X168935715Y-128214286D01*
X168878572Y-128242857D01*
X169450001Y-128128571D02*
X169478572Y-128100000D01*
X169535715Y-128071429D01*
X169678572Y-128071429D01*
X169735715Y-128100000D01*
X169764286Y-128128571D01*
X169792858Y-128185714D01*
X169792858Y-128242857D01*
X169764286Y-128328571D01*
X169421429Y-128671429D01*
X169792858Y-128671429D01*
X168478571Y-110314286D02*
X168450000Y-110342857D01*
X168364286Y-110371429D01*
X168307143Y-110371429D01*
X168221428Y-110342857D01*
X168164286Y-110285714D01*
X168135714Y-110228571D01*
X168107143Y-110114286D01*
X168107143Y-110028571D01*
X168135714Y-109914286D01*
X168164286Y-109857143D01*
X168221428Y-109800000D01*
X168307143Y-109771429D01*
X168364286Y-109771429D01*
X168450000Y-109800000D01*
X168478571Y-109828571D01*
X168707143Y-109828571D02*
X168735714Y-109800000D01*
X168792857Y-109771429D01*
X168935714Y-109771429D01*
X168992857Y-109800000D01*
X169021428Y-109828571D01*
X169050000Y-109885714D01*
X169050000Y-109942857D01*
X169021428Y-110028571D01*
X168678571Y-110371429D01*
X169050000Y-110371429D01*
X169621429Y-110371429D02*
X169278572Y-110371429D01*
X169450000Y-110371429D02*
X169450000Y-109771429D01*
X169392857Y-109857143D01*
X169335715Y-109914286D01*
X169278572Y-109942857D01*
X169821429Y-109771429D02*
X170192858Y-109771429D01*
X169992858Y-110000000D01*
X170078572Y-110000000D01*
X170135715Y-110028571D01*
X170164286Y-110057143D01*
X170192858Y-110114286D01*
X170192858Y-110257143D01*
X170164286Y-110314286D01*
X170135715Y-110342857D01*
X170078572Y-110371429D01*
X169907144Y-110371429D01*
X169850001Y-110342857D01*
X169821429Y-110314286D01*
X135697716Y-119495338D02*
X135669145Y-119523909D01*
X135583431Y-119552481D01*
X135526288Y-119552481D01*
X135440573Y-119523909D01*
X135383431Y-119466766D01*
X135354859Y-119409623D01*
X135326288Y-119295338D01*
X135326288Y-119209623D01*
X135354859Y-119095338D01*
X135383431Y-119038195D01*
X135440573Y-118981052D01*
X135526288Y-118952481D01*
X135583431Y-118952481D01*
X135669145Y-118981052D01*
X135697716Y-119009623D01*
X135926288Y-119009623D02*
X135954859Y-118981052D01*
X136012002Y-118952481D01*
X136154859Y-118952481D01*
X136212002Y-118981052D01*
X136240573Y-119009623D01*
X136269145Y-119066766D01*
X136269145Y-119123909D01*
X136240573Y-119209623D01*
X135897716Y-119552481D01*
X136269145Y-119552481D01*
X136840574Y-119552481D02*
X136497717Y-119552481D01*
X136669145Y-119552481D02*
X136669145Y-118952481D01*
X136612002Y-119038195D01*
X136554860Y-119095338D01*
X136497717Y-119123909D01*
X137354860Y-119152481D02*
X137354860Y-119552481D01*
X137212003Y-118923909D02*
X137069146Y-119352481D01*
X137440574Y-119352481D01*
X150485714Y-149271429D02*
X150485714Y-148671429D01*
X150714286Y-148671429D01*
X150771428Y-148700000D01*
X150800000Y-148728571D01*
X150828571Y-148785714D01*
X150828571Y-148871429D01*
X150800000Y-148928571D01*
X150771428Y-148957143D01*
X150714286Y-148985714D01*
X150485714Y-148985714D01*
X151400000Y-149271429D02*
X151057143Y-149271429D01*
X151228571Y-149271429D02*
X151228571Y-148671429D01*
X151171428Y-148757143D01*
X151114286Y-148814286D01*
X151057143Y-148842857D01*
X151771429Y-148671429D02*
X151828572Y-148671429D01*
X151885715Y-148700000D01*
X151914286Y-148728571D01*
X151942857Y-148785714D01*
X151971429Y-148900000D01*
X151971429Y-149042857D01*
X151942857Y-149157143D01*
X151914286Y-149214286D01*
X151885715Y-149242857D01*
X151828572Y-149271429D01*
X151771429Y-149271429D01*
X151714286Y-149242857D01*
X151685715Y-149214286D01*
X151657143Y-149157143D01*
X151628572Y-149042857D01*
X151628572Y-148900000D01*
X151657143Y-148785714D01*
X151685715Y-148728571D01*
X151714286Y-148700000D01*
X151771429Y-148671429D01*
X152200001Y-148728571D02*
X152228572Y-148700000D01*
X152285715Y-148671429D01*
X152428572Y-148671429D01*
X152485715Y-148700000D01*
X152514286Y-148728571D01*
X152542858Y-148785714D01*
X152542858Y-148842857D01*
X152514286Y-148928571D01*
X152171429Y-149271429D01*
X152542858Y-149271429D01*
X124471429Y-135014286D02*
X123871429Y-135014286D01*
X123871429Y-134785714D01*
X123900000Y-134728572D01*
X123928571Y-134700000D01*
X123985714Y-134671429D01*
X124071429Y-134671429D01*
X124128571Y-134700000D01*
X124157143Y-134728572D01*
X124185714Y-134785714D01*
X124185714Y-135014286D01*
X124471429Y-134100000D02*
X124471429Y-134442857D01*
X124471429Y-134271429D02*
X123871429Y-134271429D01*
X123957143Y-134328572D01*
X124014286Y-134385714D01*
X124042857Y-134442857D01*
X123871429Y-133728571D02*
X123871429Y-133671428D01*
X123900000Y-133614285D01*
X123928571Y-133585714D01*
X123985714Y-133557143D01*
X124100000Y-133528571D01*
X124242857Y-133528571D01*
X124357143Y-133557143D01*
X124414286Y-133585714D01*
X124442857Y-133614285D01*
X124471429Y-133671428D01*
X124471429Y-133728571D01*
X124442857Y-133785714D01*
X124414286Y-133814285D01*
X124357143Y-133842857D01*
X124242857Y-133871428D01*
X124100000Y-133871428D01*
X123985714Y-133842857D01*
X123928571Y-133814285D01*
X123900000Y-133785714D01*
X123871429Y-133728571D01*
X123871429Y-133328571D02*
X123871429Y-132957142D01*
X124100000Y-133157142D01*
X124100000Y-133071428D01*
X124128571Y-133014285D01*
X124157143Y-132985714D01*
X124214286Y-132957142D01*
X124357143Y-132957142D01*
X124414286Y-132985714D01*
X124442857Y-133014285D01*
X124471429Y-133071428D01*
X124471429Y-133242856D01*
X124442857Y-133299999D01*
X124414286Y-133328571D01*
X128485714Y-149271429D02*
X128485714Y-148671429D01*
X128714286Y-148671429D01*
X128771428Y-148700000D01*
X128800000Y-148728571D01*
X128828571Y-148785714D01*
X128828571Y-148871429D01*
X128800000Y-148928571D01*
X128771428Y-148957143D01*
X128714286Y-148985714D01*
X128485714Y-148985714D01*
X129400000Y-149271429D02*
X129057143Y-149271429D01*
X129228571Y-149271429D02*
X129228571Y-148671429D01*
X129171428Y-148757143D01*
X129114286Y-148814286D01*
X129057143Y-148842857D01*
X129771429Y-148671429D02*
X129828572Y-148671429D01*
X129885715Y-148700000D01*
X129914286Y-148728571D01*
X129942857Y-148785714D01*
X129971429Y-148900000D01*
X129971429Y-149042857D01*
X129942857Y-149157143D01*
X129914286Y-149214286D01*
X129885715Y-149242857D01*
X129828572Y-149271429D01*
X129771429Y-149271429D01*
X129714286Y-149242857D01*
X129685715Y-149214286D01*
X129657143Y-149157143D01*
X129628572Y-149042857D01*
X129628572Y-148900000D01*
X129657143Y-148785714D01*
X129685715Y-148728571D01*
X129714286Y-148700000D01*
X129771429Y-148671429D01*
X130485715Y-148871429D02*
X130485715Y-149271429D01*
X130342858Y-148642857D02*
X130200001Y-149071429D01*
X130571429Y-149071429D01*
X121590028Y-105965594D02*
X121390028Y-105679879D01*
X121247171Y-105965594D02*
X121247171Y-105365594D01*
X121475743Y-105365594D01*
X121532885Y-105394165D01*
X121561457Y-105422736D01*
X121590028Y-105479879D01*
X121590028Y-105565594D01*
X121561457Y-105622736D01*
X121532885Y-105651308D01*
X121475743Y-105679879D01*
X121247171Y-105679879D01*
X122161457Y-105965594D02*
X121818600Y-105965594D01*
X121990028Y-105965594D02*
X121990028Y-105365594D01*
X121932885Y-105451308D01*
X121875743Y-105508451D01*
X121818600Y-105537022D01*
X122532886Y-105365594D02*
X122590029Y-105365594D01*
X122647172Y-105394165D01*
X122675743Y-105422736D01*
X122704314Y-105479879D01*
X122732886Y-105594165D01*
X122732886Y-105737022D01*
X122704314Y-105851308D01*
X122675743Y-105908451D01*
X122647172Y-105937022D01*
X122590029Y-105965594D01*
X122532886Y-105965594D01*
X122475743Y-105937022D01*
X122447172Y-105908451D01*
X122418600Y-105851308D01*
X122390029Y-105737022D01*
X122390029Y-105594165D01*
X122418600Y-105479879D01*
X122447172Y-105422736D01*
X122475743Y-105394165D01*
X122532886Y-105365594D01*
X123304315Y-105965594D02*
X122961458Y-105965594D01*
X123132886Y-105965594D02*
X123132886Y-105365594D01*
X123075743Y-105451308D01*
X123018601Y-105508451D01*
X122961458Y-105537022D01*
X125832886Y-111565594D02*
X125547171Y-111765594D01*
X125832886Y-111908451D02*
X125232886Y-111908451D01*
X125232886Y-111679879D01*
X125261457Y-111622737D01*
X125290028Y-111594165D01*
X125347171Y-111565594D01*
X125432886Y-111565594D01*
X125490028Y-111594165D01*
X125518600Y-111622737D01*
X125547171Y-111679879D01*
X125547171Y-111908451D01*
X125832886Y-110994165D02*
X125832886Y-111337022D01*
X125832886Y-111165594D02*
X125232886Y-111165594D01*
X125318600Y-111222737D01*
X125375743Y-111279879D01*
X125404314Y-111337022D01*
X125232886Y-110622736D02*
X125232886Y-110565593D01*
X125261457Y-110508450D01*
X125290028Y-110479879D01*
X125347171Y-110451308D01*
X125461457Y-110422736D01*
X125604314Y-110422736D01*
X125718600Y-110451308D01*
X125775743Y-110479879D01*
X125804314Y-110508450D01*
X125832886Y-110565593D01*
X125832886Y-110622736D01*
X125804314Y-110679879D01*
X125775743Y-110708450D01*
X125718600Y-110737022D01*
X125604314Y-110765593D01*
X125461457Y-110765593D01*
X125347171Y-110737022D01*
X125290028Y-110708450D01*
X125261457Y-110679879D01*
X125232886Y-110622736D01*
X125290028Y-110194164D02*
X125261457Y-110165593D01*
X125232886Y-110108450D01*
X125232886Y-109965593D01*
X125261457Y-109908450D01*
X125290028Y-109879879D01*
X125347171Y-109851307D01*
X125404314Y-109851307D01*
X125490028Y-109879879D01*
X125832886Y-110222736D01*
X125832886Y-109851307D01*
X138078571Y-119680429D02*
X137878571Y-119394714D01*
X137735714Y-119680429D02*
X137735714Y-119080429D01*
X137964286Y-119080429D01*
X138021428Y-119109000D01*
X138050000Y-119137571D01*
X138078571Y-119194714D01*
X138078571Y-119280429D01*
X138050000Y-119337571D01*
X138021428Y-119366143D01*
X137964286Y-119394714D01*
X137735714Y-119394714D01*
X138307143Y-119137571D02*
X138335714Y-119109000D01*
X138392857Y-119080429D01*
X138535714Y-119080429D01*
X138592857Y-119109000D01*
X138621428Y-119137571D01*
X138650000Y-119194714D01*
X138650000Y-119251857D01*
X138621428Y-119337571D01*
X138278571Y-119680429D01*
X138650000Y-119680429D01*
X139021429Y-119080429D02*
X139078572Y-119080429D01*
X139135715Y-119109000D01*
X139164286Y-119137571D01*
X139192857Y-119194714D01*
X139221429Y-119309000D01*
X139221429Y-119451857D01*
X139192857Y-119566143D01*
X139164286Y-119623286D01*
X139135715Y-119651857D01*
X139078572Y-119680429D01*
X139021429Y-119680429D01*
X138964286Y-119651857D01*
X138935715Y-119623286D01*
X138907143Y-119566143D01*
X138878572Y-119451857D01*
X138878572Y-119309000D01*
X138907143Y-119194714D01*
X138935715Y-119137571D01*
X138964286Y-119109000D01*
X139021429Y-119080429D01*
X139792858Y-119680429D02*
X139450001Y-119680429D01*
X139621429Y-119680429D02*
X139621429Y-119080429D01*
X139564286Y-119166143D01*
X139507144Y-119223286D01*
X139450001Y-119251857D01*
X142578571Y-102862429D02*
X142378571Y-102576714D01*
X142235714Y-102862429D02*
X142235714Y-102262429D01*
X142464286Y-102262429D01*
X142521428Y-102291000D01*
X142550000Y-102319571D01*
X142578571Y-102376714D01*
X142578571Y-102462429D01*
X142550000Y-102519571D01*
X142521428Y-102548143D01*
X142464286Y-102576714D01*
X142235714Y-102576714D01*
X142807143Y-102319571D02*
X142835714Y-102291000D01*
X142892857Y-102262429D01*
X143035714Y-102262429D01*
X143092857Y-102291000D01*
X143121428Y-102319571D01*
X143150000Y-102376714D01*
X143150000Y-102433857D01*
X143121428Y-102519571D01*
X142778571Y-102862429D01*
X143150000Y-102862429D01*
X143521429Y-102262429D02*
X143578572Y-102262429D01*
X143635715Y-102291000D01*
X143664286Y-102319571D01*
X143692857Y-102376714D01*
X143721429Y-102491000D01*
X143721429Y-102633857D01*
X143692857Y-102748143D01*
X143664286Y-102805286D01*
X143635715Y-102833857D01*
X143578572Y-102862429D01*
X143521429Y-102862429D01*
X143464286Y-102833857D01*
X143435715Y-102805286D01*
X143407143Y-102748143D01*
X143378572Y-102633857D01*
X143378572Y-102491000D01*
X143407143Y-102376714D01*
X143435715Y-102319571D01*
X143464286Y-102291000D01*
X143521429Y-102262429D01*
X143950001Y-102319571D02*
X143978572Y-102291000D01*
X144035715Y-102262429D01*
X144178572Y-102262429D01*
X144235715Y-102291000D01*
X144264286Y-102319571D01*
X144292858Y-102376714D01*
X144292858Y-102433857D01*
X144264286Y-102519571D01*
X143921429Y-102862429D01*
X144292858Y-102862429D01*
X146971429Y-118371429D02*
X146685714Y-118571429D01*
X146971429Y-118714286D02*
X146371429Y-118714286D01*
X146371429Y-118485714D01*
X146400000Y-118428572D01*
X146428571Y-118400000D01*
X146485714Y-118371429D01*
X146571429Y-118371429D01*
X146628571Y-118400000D01*
X146657143Y-118428572D01*
X146685714Y-118485714D01*
X146685714Y-118714286D01*
X146428571Y-118142857D02*
X146400000Y-118114286D01*
X146371429Y-118057143D01*
X146371429Y-117914286D01*
X146400000Y-117857143D01*
X146428571Y-117828572D01*
X146485714Y-117800000D01*
X146542857Y-117800000D01*
X146628571Y-117828572D01*
X146971429Y-118171429D01*
X146971429Y-117800000D01*
X146371429Y-117428571D02*
X146371429Y-117371428D01*
X146400000Y-117314285D01*
X146428571Y-117285714D01*
X146485714Y-117257143D01*
X146600000Y-117228571D01*
X146742857Y-117228571D01*
X146857143Y-117257143D01*
X146914286Y-117285714D01*
X146942857Y-117314285D01*
X146971429Y-117371428D01*
X146971429Y-117428571D01*
X146942857Y-117485714D01*
X146914286Y-117514285D01*
X146857143Y-117542857D01*
X146742857Y-117571428D01*
X146600000Y-117571428D01*
X146485714Y-117542857D01*
X146428571Y-117514285D01*
X146400000Y-117485714D01*
X146371429Y-117428571D01*
X146371429Y-117028571D02*
X146371429Y-116657142D01*
X146600000Y-116857142D01*
X146600000Y-116771428D01*
X146628571Y-116714285D01*
X146657143Y-116685714D01*
X146714286Y-116657142D01*
X146857143Y-116657142D01*
X146914286Y-116685714D01*
X146942857Y-116714285D01*
X146971429Y-116771428D01*
X146971429Y-116942856D01*
X146942857Y-116999999D01*
X146914286Y-117028571D01*
X136078571Y-102862429D02*
X135878571Y-102576714D01*
X135735714Y-102862429D02*
X135735714Y-102262429D01*
X135964286Y-102262429D01*
X136021428Y-102291000D01*
X136050000Y-102319571D01*
X136078571Y-102376714D01*
X136078571Y-102462429D01*
X136050000Y-102519571D01*
X136021428Y-102548143D01*
X135964286Y-102576714D01*
X135735714Y-102576714D01*
X136307143Y-102319571D02*
X136335714Y-102291000D01*
X136392857Y-102262429D01*
X136535714Y-102262429D01*
X136592857Y-102291000D01*
X136621428Y-102319571D01*
X136650000Y-102376714D01*
X136650000Y-102433857D01*
X136621428Y-102519571D01*
X136278571Y-102862429D01*
X136650000Y-102862429D01*
X137021429Y-102262429D02*
X137078572Y-102262429D01*
X137135715Y-102291000D01*
X137164286Y-102319571D01*
X137192857Y-102376714D01*
X137221429Y-102491000D01*
X137221429Y-102633857D01*
X137192857Y-102748143D01*
X137164286Y-102805286D01*
X137135715Y-102833857D01*
X137078572Y-102862429D01*
X137021429Y-102862429D01*
X136964286Y-102833857D01*
X136935715Y-102805286D01*
X136907143Y-102748143D01*
X136878572Y-102633857D01*
X136878572Y-102491000D01*
X136907143Y-102376714D01*
X136935715Y-102319571D01*
X136964286Y-102291000D01*
X137021429Y-102262429D01*
X137735715Y-102462429D02*
X137735715Y-102862429D01*
X137592858Y-102233857D02*
X137450001Y-102662429D01*
X137821429Y-102662429D01*
X135171429Y-117171429D02*
X134885714Y-117371429D01*
X135171429Y-117514286D02*
X134571429Y-117514286D01*
X134571429Y-117285714D01*
X134600000Y-117228572D01*
X134628571Y-117200000D01*
X134685714Y-117171429D01*
X134771429Y-117171429D01*
X134828571Y-117200000D01*
X134857143Y-117228572D01*
X134885714Y-117285714D01*
X134885714Y-117514286D01*
X134628571Y-116942857D02*
X134600000Y-116914286D01*
X134571429Y-116857143D01*
X134571429Y-116714286D01*
X134600000Y-116657143D01*
X134628571Y-116628572D01*
X134685714Y-116600000D01*
X134742857Y-116600000D01*
X134828571Y-116628572D01*
X135171429Y-116971429D01*
X135171429Y-116600000D01*
X134571429Y-116228571D02*
X134571429Y-116171428D01*
X134600000Y-116114285D01*
X134628571Y-116085714D01*
X134685714Y-116057143D01*
X134800000Y-116028571D01*
X134942857Y-116028571D01*
X135057143Y-116057143D01*
X135114286Y-116085714D01*
X135142857Y-116114285D01*
X135171429Y-116171428D01*
X135171429Y-116228571D01*
X135142857Y-116285714D01*
X135114286Y-116314285D01*
X135057143Y-116342857D01*
X134942857Y-116371428D01*
X134800000Y-116371428D01*
X134685714Y-116342857D01*
X134628571Y-116314285D01*
X134600000Y-116285714D01*
X134571429Y-116228571D01*
X134571429Y-115485714D02*
X134571429Y-115771428D01*
X134857143Y-115799999D01*
X134828571Y-115771428D01*
X134800000Y-115714285D01*
X134800000Y-115571428D01*
X134828571Y-115514285D01*
X134857143Y-115485714D01*
X134914286Y-115457142D01*
X135057143Y-115457142D01*
X135114286Y-115485714D01*
X135142857Y-115514285D01*
X135171429Y-115571428D01*
X135171429Y-115714285D01*
X135142857Y-115771428D01*
X135114286Y-115799999D01*
X145228571Y-102862429D02*
X145028571Y-102576714D01*
X144885714Y-102862429D02*
X144885714Y-102262429D01*
X145114286Y-102262429D01*
X145171428Y-102291000D01*
X145200000Y-102319571D01*
X145228571Y-102376714D01*
X145228571Y-102462429D01*
X145200000Y-102519571D01*
X145171428Y-102548143D01*
X145114286Y-102576714D01*
X144885714Y-102576714D01*
X145457143Y-102319571D02*
X145485714Y-102291000D01*
X145542857Y-102262429D01*
X145685714Y-102262429D01*
X145742857Y-102291000D01*
X145771428Y-102319571D01*
X145800000Y-102376714D01*
X145800000Y-102433857D01*
X145771428Y-102519571D01*
X145428571Y-102862429D01*
X145800000Y-102862429D01*
X146171429Y-102262429D02*
X146228572Y-102262429D01*
X146285715Y-102291000D01*
X146314286Y-102319571D01*
X146342857Y-102376714D01*
X146371429Y-102491000D01*
X146371429Y-102633857D01*
X146342857Y-102748143D01*
X146314286Y-102805286D01*
X146285715Y-102833857D01*
X146228572Y-102862429D01*
X146171429Y-102862429D01*
X146114286Y-102833857D01*
X146085715Y-102805286D01*
X146057143Y-102748143D01*
X146028572Y-102633857D01*
X146028572Y-102491000D01*
X146057143Y-102376714D01*
X146085715Y-102319571D01*
X146114286Y-102291000D01*
X146171429Y-102262429D01*
X146885715Y-102262429D02*
X146771429Y-102262429D01*
X146714286Y-102291000D01*
X146685715Y-102319571D01*
X146628572Y-102405286D01*
X146600001Y-102519571D01*
X146600001Y-102748143D01*
X146628572Y-102805286D01*
X146657144Y-102833857D01*
X146714286Y-102862429D01*
X146828572Y-102862429D01*
X146885715Y-102833857D01*
X146914286Y-102805286D01*
X146942858Y-102748143D01*
X146942858Y-102605286D01*
X146914286Y-102548143D01*
X146885715Y-102519571D01*
X146828572Y-102491000D01*
X146714286Y-102491000D01*
X146657144Y-102519571D01*
X146628572Y-102548143D01*
X146600001Y-102605286D01*
X171828571Y-141671429D02*
X171628571Y-141385714D01*
X171485714Y-141671429D02*
X171485714Y-141071429D01*
X171714286Y-141071429D01*
X171771428Y-141100000D01*
X171800000Y-141128571D01*
X171828571Y-141185714D01*
X171828571Y-141271429D01*
X171800000Y-141328571D01*
X171771428Y-141357143D01*
X171714286Y-141385714D01*
X171485714Y-141385714D01*
X172057143Y-141128571D02*
X172085714Y-141100000D01*
X172142857Y-141071429D01*
X172285714Y-141071429D01*
X172342857Y-141100000D01*
X172371428Y-141128571D01*
X172400000Y-141185714D01*
X172400000Y-141242857D01*
X172371428Y-141328571D01*
X172028571Y-141671429D01*
X172400000Y-141671429D01*
X172771429Y-141071429D02*
X172828572Y-141071429D01*
X172885715Y-141100000D01*
X172914286Y-141128571D01*
X172942857Y-141185714D01*
X172971429Y-141300000D01*
X172971429Y-141442857D01*
X172942857Y-141557143D01*
X172914286Y-141614286D01*
X172885715Y-141642857D01*
X172828572Y-141671429D01*
X172771429Y-141671429D01*
X172714286Y-141642857D01*
X172685715Y-141614286D01*
X172657143Y-141557143D01*
X172628572Y-141442857D01*
X172628572Y-141300000D01*
X172657143Y-141185714D01*
X172685715Y-141128571D01*
X172714286Y-141100000D01*
X172771429Y-141071429D01*
X173171429Y-141071429D02*
X173571429Y-141071429D01*
X173314286Y-141671429D01*
X172028571Y-127671429D02*
X171828571Y-127385714D01*
X171685714Y-127671429D02*
X171685714Y-127071429D01*
X171914286Y-127071429D01*
X171971428Y-127100000D01*
X172000000Y-127128571D01*
X172028571Y-127185714D01*
X172028571Y-127271429D01*
X172000000Y-127328571D01*
X171971428Y-127357143D01*
X171914286Y-127385714D01*
X171685714Y-127385714D01*
X172257143Y-127128571D02*
X172285714Y-127100000D01*
X172342857Y-127071429D01*
X172485714Y-127071429D01*
X172542857Y-127100000D01*
X172571428Y-127128571D01*
X172600000Y-127185714D01*
X172600000Y-127242857D01*
X172571428Y-127328571D01*
X172228571Y-127671429D01*
X172600000Y-127671429D01*
X172971429Y-127071429D02*
X173028572Y-127071429D01*
X173085715Y-127100000D01*
X173114286Y-127128571D01*
X173142857Y-127185714D01*
X173171429Y-127300000D01*
X173171429Y-127442857D01*
X173142857Y-127557143D01*
X173114286Y-127614286D01*
X173085715Y-127642857D01*
X173028572Y-127671429D01*
X172971429Y-127671429D01*
X172914286Y-127642857D01*
X172885715Y-127614286D01*
X172857143Y-127557143D01*
X172828572Y-127442857D01*
X172828572Y-127300000D01*
X172857143Y-127185714D01*
X172885715Y-127128571D01*
X172914286Y-127100000D01*
X172971429Y-127071429D01*
X173514286Y-127328571D02*
X173457144Y-127300000D01*
X173428572Y-127271429D01*
X173400001Y-127214286D01*
X173400001Y-127185714D01*
X173428572Y-127128571D01*
X173457144Y-127100000D01*
X173514286Y-127071429D01*
X173628572Y-127071429D01*
X173685715Y-127100000D01*
X173714286Y-127128571D01*
X173742858Y-127185714D01*
X173742858Y-127214286D01*
X173714286Y-127271429D01*
X173685715Y-127300000D01*
X173628572Y-127328571D01*
X173514286Y-127328571D01*
X173457144Y-127357143D01*
X173428572Y-127385714D01*
X173400001Y-127442857D01*
X173400001Y-127557143D01*
X173428572Y-127614286D01*
X173457144Y-127642857D01*
X173514286Y-127671429D01*
X173628572Y-127671429D01*
X173685715Y-127642857D01*
X173714286Y-127614286D01*
X173742858Y-127557143D01*
X173742858Y-127442857D01*
X173714286Y-127385714D01*
X173685715Y-127357143D01*
X173628572Y-127328571D01*
X172078571Y-122971429D02*
X171878571Y-122685714D01*
X171735714Y-122971429D02*
X171735714Y-122371429D01*
X171964286Y-122371429D01*
X172021428Y-122400000D01*
X172050000Y-122428571D01*
X172078571Y-122485714D01*
X172078571Y-122571429D01*
X172050000Y-122628571D01*
X172021428Y-122657143D01*
X171964286Y-122685714D01*
X171735714Y-122685714D01*
X172307143Y-122428571D02*
X172335714Y-122400000D01*
X172392857Y-122371429D01*
X172535714Y-122371429D01*
X172592857Y-122400000D01*
X172621428Y-122428571D01*
X172650000Y-122485714D01*
X172650000Y-122542857D01*
X172621428Y-122628571D01*
X172278571Y-122971429D01*
X172650000Y-122971429D01*
X173021429Y-122371429D02*
X173078572Y-122371429D01*
X173135715Y-122400000D01*
X173164286Y-122428571D01*
X173192857Y-122485714D01*
X173221429Y-122600000D01*
X173221429Y-122742857D01*
X173192857Y-122857143D01*
X173164286Y-122914286D01*
X173135715Y-122942857D01*
X173078572Y-122971429D01*
X173021429Y-122971429D01*
X172964286Y-122942857D01*
X172935715Y-122914286D01*
X172907143Y-122857143D01*
X172878572Y-122742857D01*
X172878572Y-122600000D01*
X172907143Y-122485714D01*
X172935715Y-122428571D01*
X172964286Y-122400000D01*
X173021429Y-122371429D01*
X173507144Y-122971429D02*
X173621429Y-122971429D01*
X173678572Y-122942857D01*
X173707144Y-122914286D01*
X173764286Y-122828571D01*
X173792858Y-122714286D01*
X173792858Y-122485714D01*
X173764286Y-122428571D01*
X173735715Y-122400000D01*
X173678572Y-122371429D01*
X173564286Y-122371429D01*
X173507144Y-122400000D01*
X173478572Y-122428571D01*
X173450001Y-122485714D01*
X173450001Y-122628571D01*
X173478572Y-122685714D01*
X173507144Y-122714286D01*
X173564286Y-122742857D01*
X173678572Y-122742857D01*
X173735715Y-122714286D01*
X173764286Y-122685714D01*
X173792858Y-122628571D01*
X171778571Y-108971429D02*
X171578571Y-108685714D01*
X171435714Y-108971429D02*
X171435714Y-108371429D01*
X171664286Y-108371429D01*
X171721428Y-108400000D01*
X171750000Y-108428571D01*
X171778571Y-108485714D01*
X171778571Y-108571429D01*
X171750000Y-108628571D01*
X171721428Y-108657143D01*
X171664286Y-108685714D01*
X171435714Y-108685714D01*
X172007143Y-108428571D02*
X172035714Y-108400000D01*
X172092857Y-108371429D01*
X172235714Y-108371429D01*
X172292857Y-108400000D01*
X172321428Y-108428571D01*
X172350000Y-108485714D01*
X172350000Y-108542857D01*
X172321428Y-108628571D01*
X171978571Y-108971429D01*
X172350000Y-108971429D01*
X172921429Y-108971429D02*
X172578572Y-108971429D01*
X172750000Y-108971429D02*
X172750000Y-108371429D01*
X172692857Y-108457143D01*
X172635715Y-108514286D01*
X172578572Y-108542857D01*
X173292858Y-108371429D02*
X173350001Y-108371429D01*
X173407144Y-108400000D01*
X173435715Y-108428571D01*
X173464286Y-108485714D01*
X173492858Y-108600000D01*
X173492858Y-108742857D01*
X173464286Y-108857143D01*
X173435715Y-108914286D01*
X173407144Y-108942857D01*
X173350001Y-108971429D01*
X173292858Y-108971429D01*
X173235715Y-108942857D01*
X173207144Y-108914286D01*
X173178572Y-108857143D01*
X173150001Y-108742857D01*
X173150001Y-108600000D01*
X173178572Y-108485714D01*
X173207144Y-108428571D01*
X173235715Y-108400000D01*
X173292858Y-108371429D01*
X175478571Y-133271429D02*
X175278571Y-132985714D01*
X175135714Y-133271429D02*
X175135714Y-132671429D01*
X175364286Y-132671429D01*
X175421428Y-132700000D01*
X175450000Y-132728571D01*
X175478571Y-132785714D01*
X175478571Y-132871429D01*
X175450000Y-132928571D01*
X175421428Y-132957143D01*
X175364286Y-132985714D01*
X175135714Y-132985714D01*
X175707143Y-132728571D02*
X175735714Y-132700000D01*
X175792857Y-132671429D01*
X175935714Y-132671429D01*
X175992857Y-132700000D01*
X176021428Y-132728571D01*
X176050000Y-132785714D01*
X176050000Y-132842857D01*
X176021428Y-132928571D01*
X175678571Y-133271429D01*
X176050000Y-133271429D01*
X176621429Y-133271429D02*
X176278572Y-133271429D01*
X176450000Y-133271429D02*
X176450000Y-132671429D01*
X176392857Y-132757143D01*
X176335715Y-132814286D01*
X176278572Y-132842857D01*
X177192858Y-133271429D02*
X176850001Y-133271429D01*
X177021429Y-133271429D02*
X177021429Y-132671429D01*
X176964286Y-132757143D01*
X176907144Y-132814286D01*
X176850001Y-132842857D01*
X175328571Y-114371429D02*
X175128571Y-114085714D01*
X174985714Y-114371429D02*
X174985714Y-113771429D01*
X175214286Y-113771429D01*
X175271428Y-113800000D01*
X175300000Y-113828571D01*
X175328571Y-113885714D01*
X175328571Y-113971429D01*
X175300000Y-114028571D01*
X175271428Y-114057143D01*
X175214286Y-114085714D01*
X174985714Y-114085714D01*
X175557143Y-113828571D02*
X175585714Y-113800000D01*
X175642857Y-113771429D01*
X175785714Y-113771429D01*
X175842857Y-113800000D01*
X175871428Y-113828571D01*
X175900000Y-113885714D01*
X175900000Y-113942857D01*
X175871428Y-114028571D01*
X175528571Y-114371429D01*
X175900000Y-114371429D01*
X176471429Y-114371429D02*
X176128572Y-114371429D01*
X176300000Y-114371429D02*
X176300000Y-113771429D01*
X176242857Y-113857143D01*
X176185715Y-113914286D01*
X176128572Y-113942857D01*
X176700001Y-113828571D02*
X176728572Y-113800000D01*
X176785715Y-113771429D01*
X176928572Y-113771429D01*
X176985715Y-113800000D01*
X177014286Y-113828571D01*
X177042858Y-113885714D01*
X177042858Y-113942857D01*
X177014286Y-114028571D01*
X176671429Y-114371429D01*
X177042858Y-114371429D01*
X161678571Y-139571429D02*
X161478571Y-139285714D01*
X161335714Y-139571429D02*
X161335714Y-138971429D01*
X161564286Y-138971429D01*
X161621428Y-139000000D01*
X161650000Y-139028571D01*
X161678571Y-139085714D01*
X161678571Y-139171429D01*
X161650000Y-139228571D01*
X161621428Y-139257143D01*
X161564286Y-139285714D01*
X161335714Y-139285714D01*
X161907143Y-139028571D02*
X161935714Y-139000000D01*
X161992857Y-138971429D01*
X162135714Y-138971429D01*
X162192857Y-139000000D01*
X162221428Y-139028571D01*
X162250000Y-139085714D01*
X162250000Y-139142857D01*
X162221428Y-139228571D01*
X161878571Y-139571429D01*
X162250000Y-139571429D01*
X162821429Y-139571429D02*
X162478572Y-139571429D01*
X162650000Y-139571429D02*
X162650000Y-138971429D01*
X162592857Y-139057143D01*
X162535715Y-139114286D01*
X162478572Y-139142857D01*
X163021429Y-138971429D02*
X163392858Y-138971429D01*
X163192858Y-139200000D01*
X163278572Y-139200000D01*
X163335715Y-139228571D01*
X163364286Y-139257143D01*
X163392858Y-139314286D01*
X163392858Y-139457143D01*
X163364286Y-139514286D01*
X163335715Y-139542857D01*
X163278572Y-139571429D01*
X163107144Y-139571429D01*
X163050001Y-139542857D01*
X163021429Y-139514286D01*
X161378571Y-120521429D02*
X161178571Y-120235714D01*
X161035714Y-120521429D02*
X161035714Y-119921429D01*
X161264286Y-119921429D01*
X161321428Y-119950000D01*
X161350000Y-119978571D01*
X161378571Y-120035714D01*
X161378571Y-120121429D01*
X161350000Y-120178571D01*
X161321428Y-120207143D01*
X161264286Y-120235714D01*
X161035714Y-120235714D01*
X161607143Y-119978571D02*
X161635714Y-119950000D01*
X161692857Y-119921429D01*
X161835714Y-119921429D01*
X161892857Y-119950000D01*
X161921428Y-119978571D01*
X161950000Y-120035714D01*
X161950000Y-120092857D01*
X161921428Y-120178571D01*
X161578571Y-120521429D01*
X161950000Y-120521429D01*
X162521429Y-120521429D02*
X162178572Y-120521429D01*
X162350000Y-120521429D02*
X162350000Y-119921429D01*
X162292857Y-120007143D01*
X162235715Y-120064286D01*
X162178572Y-120092857D01*
X163035715Y-120121429D02*
X163035715Y-120521429D01*
X162892858Y-119892857D02*
X162750001Y-120321429D01*
X163121429Y-120321429D01*
X142671428Y-119171429D02*
X142671428Y-119657143D01*
X142700000Y-119714286D01*
X142728571Y-119742857D01*
X142785714Y-119771429D01*
X142900000Y-119771429D01*
X142957142Y-119742857D01*
X142985714Y-119714286D01*
X143014285Y-119657143D01*
X143014285Y-119171429D01*
X143271428Y-119228571D02*
X143299999Y-119200000D01*
X143357142Y-119171429D01*
X143499999Y-119171429D01*
X143557142Y-119200000D01*
X143585713Y-119228571D01*
X143614285Y-119285714D01*
X143614285Y-119342857D01*
X143585713Y-119428571D01*
X143242856Y-119771429D01*
X143614285Y-119771429D01*
X143985714Y-119171429D02*
X144042857Y-119171429D01*
X144100000Y-119200000D01*
X144128571Y-119228571D01*
X144157142Y-119285714D01*
X144185714Y-119400000D01*
X144185714Y-119542857D01*
X144157142Y-119657143D01*
X144128571Y-119714286D01*
X144100000Y-119742857D01*
X144042857Y-119771429D01*
X143985714Y-119771429D01*
X143928571Y-119742857D01*
X143900000Y-119714286D01*
X143871428Y-119657143D01*
X143842857Y-119542857D01*
X143842857Y-119400000D01*
X143871428Y-119285714D01*
X143900000Y-119228571D01*
X143928571Y-119200000D01*
X143985714Y-119171429D01*
X144757143Y-119771429D02*
X144414286Y-119771429D01*
X144585714Y-119771429D02*
X144585714Y-119171429D01*
X144528571Y-119257143D01*
X144471429Y-119314286D01*
X144414286Y-119342857D01*
X138971428Y-102371429D02*
X138971428Y-102857143D01*
X139000000Y-102914286D01*
X139028571Y-102942857D01*
X139085714Y-102971429D01*
X139200000Y-102971429D01*
X139257142Y-102942857D01*
X139285714Y-102914286D01*
X139314285Y-102857143D01*
X139314285Y-102371429D01*
X139571428Y-102428571D02*
X139599999Y-102400000D01*
X139657142Y-102371429D01*
X139799999Y-102371429D01*
X139857142Y-102400000D01*
X139885713Y-102428571D01*
X139914285Y-102485714D01*
X139914285Y-102542857D01*
X139885713Y-102628571D01*
X139542856Y-102971429D01*
X139914285Y-102971429D01*
X140285714Y-102371429D02*
X140342857Y-102371429D01*
X140400000Y-102400000D01*
X140428571Y-102428571D01*
X140457142Y-102485714D01*
X140485714Y-102600000D01*
X140485714Y-102742857D01*
X140457142Y-102857143D01*
X140428571Y-102914286D01*
X140400000Y-102942857D01*
X140342857Y-102971429D01*
X140285714Y-102971429D01*
X140228571Y-102942857D01*
X140200000Y-102914286D01*
X140171428Y-102857143D01*
X140142857Y-102742857D01*
X140142857Y-102600000D01*
X140171428Y-102485714D01*
X140200000Y-102428571D01*
X140228571Y-102400000D01*
X140285714Y-102371429D01*
X140714286Y-102428571D02*
X140742857Y-102400000D01*
X140800000Y-102371429D01*
X140942857Y-102371429D01*
X141000000Y-102400000D01*
X141028571Y-102428571D01*
X141057143Y-102485714D01*
X141057143Y-102542857D01*
X141028571Y-102628571D01*
X140685714Y-102971429D01*
X141057143Y-102971429D01*
X146878429Y-112028572D02*
X147364143Y-112028572D01*
X147421286Y-112000000D01*
X147449857Y-111971429D01*
X147478429Y-111914286D01*
X147478429Y-111800000D01*
X147449857Y-111742858D01*
X147421286Y-111714286D01*
X147364143Y-111685715D01*
X146878429Y-111685715D01*
X146935571Y-111428572D02*
X146907000Y-111400001D01*
X146878429Y-111342858D01*
X146878429Y-111200001D01*
X146907000Y-111142858D01*
X146935571Y-111114287D01*
X146992714Y-111085715D01*
X147049857Y-111085715D01*
X147135571Y-111114287D01*
X147478429Y-111457144D01*
X147478429Y-111085715D01*
X146878429Y-110714286D02*
X146878429Y-110657143D01*
X146907000Y-110600000D01*
X146935571Y-110571429D01*
X146992714Y-110542858D01*
X147107000Y-110514286D01*
X147249857Y-110514286D01*
X147364143Y-110542858D01*
X147421286Y-110571429D01*
X147449857Y-110600000D01*
X147478429Y-110657143D01*
X147478429Y-110714286D01*
X147449857Y-110771429D01*
X147421286Y-110800000D01*
X147364143Y-110828572D01*
X147249857Y-110857143D01*
X147107000Y-110857143D01*
X146992714Y-110828572D01*
X146935571Y-110800000D01*
X146907000Y-110771429D01*
X146878429Y-110714286D01*
X146878429Y-110314286D02*
X146878429Y-109942857D01*
X147107000Y-110142857D01*
X147107000Y-110057143D01*
X147135571Y-110000000D01*
X147164143Y-109971429D01*
X147221286Y-109942857D01*
X147364143Y-109942857D01*
X147421286Y-109971429D01*
X147449857Y-110000000D01*
X147478429Y-110057143D01*
X147478429Y-110228571D01*
X147449857Y-110285714D01*
X147421286Y-110314286D01*
X168271428Y-138770429D02*
X168271428Y-139256143D01*
X168300000Y-139313286D01*
X168328571Y-139341857D01*
X168385714Y-139370429D01*
X168500000Y-139370429D01*
X168557142Y-139341857D01*
X168585714Y-139313286D01*
X168614285Y-139256143D01*
X168614285Y-138770429D01*
X168871428Y-138827571D02*
X168899999Y-138799000D01*
X168957142Y-138770429D01*
X169099999Y-138770429D01*
X169157142Y-138799000D01*
X169185713Y-138827571D01*
X169214285Y-138884714D01*
X169214285Y-138941857D01*
X169185713Y-139027571D01*
X168842856Y-139370429D01*
X169214285Y-139370429D01*
X169585714Y-138770429D02*
X169642857Y-138770429D01*
X169700000Y-138799000D01*
X169728571Y-138827571D01*
X169757142Y-138884714D01*
X169785714Y-138999000D01*
X169785714Y-139141857D01*
X169757142Y-139256143D01*
X169728571Y-139313286D01*
X169700000Y-139341857D01*
X169642857Y-139370429D01*
X169585714Y-139370429D01*
X169528571Y-139341857D01*
X169500000Y-139313286D01*
X169471428Y-139256143D01*
X169442857Y-139141857D01*
X169442857Y-138999000D01*
X169471428Y-138884714D01*
X169500000Y-138827571D01*
X169528571Y-138799000D01*
X169585714Y-138770429D01*
X170300000Y-138970429D02*
X170300000Y-139370429D01*
X170157143Y-138741857D02*
X170014286Y-139170429D01*
X170385714Y-139170429D01*
X168271428Y-119970429D02*
X168271428Y-120456143D01*
X168300000Y-120513286D01*
X168328571Y-120541857D01*
X168385714Y-120570429D01*
X168500000Y-120570429D01*
X168557142Y-120541857D01*
X168585714Y-120513286D01*
X168614285Y-120456143D01*
X168614285Y-119970429D01*
X168871428Y-120027571D02*
X168899999Y-119999000D01*
X168957142Y-119970429D01*
X169099999Y-119970429D01*
X169157142Y-119999000D01*
X169185713Y-120027571D01*
X169214285Y-120084714D01*
X169214285Y-120141857D01*
X169185713Y-120227571D01*
X168842856Y-120570429D01*
X169214285Y-120570429D01*
X169585714Y-119970429D02*
X169642857Y-119970429D01*
X169700000Y-119999000D01*
X169728571Y-120027571D01*
X169757142Y-120084714D01*
X169785714Y-120199000D01*
X169785714Y-120341857D01*
X169757142Y-120456143D01*
X169728571Y-120513286D01*
X169700000Y-120541857D01*
X169642857Y-120570429D01*
X169585714Y-120570429D01*
X169528571Y-120541857D01*
X169500000Y-120513286D01*
X169471428Y-120456143D01*
X169442857Y-120341857D01*
X169442857Y-120199000D01*
X169471428Y-120084714D01*
X169500000Y-120027571D01*
X169528571Y-119999000D01*
X169585714Y-119970429D01*
X170328571Y-119970429D02*
X170042857Y-119970429D01*
X170014286Y-120256143D01*
X170042857Y-120227571D01*
X170100000Y-120199000D01*
X170242857Y-120199000D01*
X170300000Y-120227571D01*
X170328571Y-120256143D01*
X170357143Y-120313286D01*
X170357143Y-120456143D01*
X170328571Y-120513286D01*
X170300000Y-120541857D01*
X170242857Y-120570429D01*
X170100000Y-120570429D01*
X170042857Y-120541857D01*
X170014286Y-120513286D01*
X180635714Y-123771429D02*
X180635714Y-123171429D01*
X180864286Y-123171429D01*
X180921428Y-123200000D01*
X180950000Y-123228571D01*
X180978571Y-123285714D01*
X180978571Y-123371429D01*
X180950000Y-123428571D01*
X180921428Y-123457143D01*
X180864286Y-123485714D01*
X180635714Y-123485714D01*
X181207143Y-123228571D02*
X181235714Y-123200000D01*
X181292857Y-123171429D01*
X181435714Y-123171429D01*
X181492857Y-123200000D01*
X181521428Y-123228571D01*
X181550000Y-123285714D01*
X181550000Y-123342857D01*
X181521428Y-123428571D01*
X181178571Y-123771429D01*
X181550000Y-123771429D01*
X181921429Y-123171429D02*
X181978572Y-123171429D01*
X182035715Y-123200000D01*
X182064286Y-123228571D01*
X182092857Y-123285714D01*
X182121429Y-123400000D01*
X182121429Y-123542857D01*
X182092857Y-123657143D01*
X182064286Y-123714286D01*
X182035715Y-123742857D01*
X181978572Y-123771429D01*
X181921429Y-123771429D01*
X181864286Y-123742857D01*
X181835715Y-123714286D01*
X181807143Y-123657143D01*
X181778572Y-123542857D01*
X181778572Y-123400000D01*
X181807143Y-123285714D01*
X181835715Y-123228571D01*
X181864286Y-123200000D01*
X181921429Y-123171429D01*
X182350001Y-123228571D02*
X182378572Y-123200000D01*
X182435715Y-123171429D01*
X182578572Y-123171429D01*
X182635715Y-123200000D01*
X182664286Y-123228571D01*
X182692858Y-123285714D01*
X182692858Y-123342857D01*
X182664286Y-123428571D01*
X182321429Y-123771429D01*
X182692858Y-123771429D01*
X150771429Y-108014286D02*
X150171429Y-108014286D01*
X150171429Y-107785714D01*
X150200000Y-107728572D01*
X150228571Y-107700000D01*
X150285714Y-107671429D01*
X150371429Y-107671429D01*
X150428571Y-107700000D01*
X150457143Y-107728572D01*
X150485714Y-107785714D01*
X150485714Y-108014286D01*
X150771429Y-107100000D02*
X150771429Y-107442857D01*
X150771429Y-107271429D02*
X150171429Y-107271429D01*
X150257143Y-107328572D01*
X150314286Y-107385714D01*
X150342857Y-107442857D01*
X150171429Y-106728571D02*
X150171429Y-106671428D01*
X150200000Y-106614285D01*
X150228571Y-106585714D01*
X150285714Y-106557143D01*
X150400000Y-106528571D01*
X150542857Y-106528571D01*
X150657143Y-106557143D01*
X150714286Y-106585714D01*
X150742857Y-106614285D01*
X150771429Y-106671428D01*
X150771429Y-106728571D01*
X150742857Y-106785714D01*
X150714286Y-106814285D01*
X150657143Y-106842857D01*
X150542857Y-106871428D01*
X150400000Y-106871428D01*
X150285714Y-106842857D01*
X150228571Y-106814285D01*
X150200000Y-106785714D01*
X150171429Y-106728571D01*
X150771429Y-105957142D02*
X150771429Y-106299999D01*
X150771429Y-106128571D02*
X150171429Y-106128571D01*
X150257143Y-106185714D01*
X150314286Y-106242856D01*
X150342857Y-106299999D01*
X132571429Y-130828572D02*
X133057143Y-130828572D01*
X133114286Y-130800000D01*
X133142857Y-130771429D01*
X133171429Y-130714286D01*
X133171429Y-130600000D01*
X133142857Y-130542858D01*
X133114286Y-130514286D01*
X133057143Y-130485715D01*
X132571429Y-130485715D01*
X133171429Y-129885715D02*
X133171429Y-130228572D01*
X133171429Y-130057144D02*
X132571429Y-130057144D01*
X132657143Y-130114287D01*
X132714286Y-130171429D01*
X132742857Y-130228572D01*
X132571429Y-129514286D02*
X132571429Y-129457143D01*
X132600000Y-129400000D01*
X132628571Y-129371429D01*
X132685714Y-129342858D01*
X132800000Y-129314286D01*
X132942857Y-129314286D01*
X133057143Y-129342858D01*
X133114286Y-129371429D01*
X133142857Y-129400000D01*
X133171429Y-129457143D01*
X133171429Y-129514286D01*
X133142857Y-129571429D01*
X133114286Y-129600000D01*
X133057143Y-129628572D01*
X132942857Y-129657143D01*
X132800000Y-129657143D01*
X132685714Y-129628572D01*
X132628571Y-129600000D01*
X132600000Y-129571429D01*
X132571429Y-129514286D01*
X133171429Y-128742857D02*
X133171429Y-129085714D01*
X133171429Y-128914286D02*
X132571429Y-128914286D01*
X132657143Y-128971429D01*
X132714286Y-129028571D01*
X132742857Y-129085714D01*
X129632885Y-106165594D02*
X129632885Y-106651308D01*
X129661457Y-106708451D01*
X129690028Y-106737022D01*
X129747171Y-106765594D01*
X129861457Y-106765594D01*
X129918599Y-106737022D01*
X129947171Y-106708451D01*
X129975742Y-106651308D01*
X129975742Y-106165594D01*
X130575742Y-106765594D02*
X130232885Y-106765594D01*
X130404313Y-106765594D02*
X130404313Y-106165594D01*
X130347170Y-106251308D01*
X130290028Y-106308451D01*
X130232885Y-106337022D01*
X130947171Y-106165594D02*
X131004314Y-106165594D01*
X131061457Y-106194165D01*
X131090028Y-106222736D01*
X131118599Y-106279879D01*
X131147171Y-106394165D01*
X131147171Y-106537022D01*
X131118599Y-106651308D01*
X131090028Y-106708451D01*
X131061457Y-106737022D01*
X131004314Y-106765594D01*
X130947171Y-106765594D01*
X130890028Y-106737022D01*
X130861457Y-106708451D01*
X130832885Y-106651308D01*
X130804314Y-106537022D01*
X130804314Y-106394165D01*
X130832885Y-106279879D01*
X130861457Y-106222736D01*
X130890028Y-106194165D01*
X130947171Y-106165594D01*
X131375743Y-106222736D02*
X131404314Y-106194165D01*
X131461457Y-106165594D01*
X131604314Y-106165594D01*
X131661457Y-106194165D01*
X131690028Y-106222736D01*
X131718600Y-106279879D01*
X131718600Y-106337022D01*
X131690028Y-106422736D01*
X131347171Y-106765594D01*
X131718600Y-106765594D01*
X125200000Y-136250286D02*
X125171429Y-136278857D01*
X125085715Y-136307429D01*
X125028572Y-136307429D01*
X124942857Y-136278857D01*
X124885715Y-136221714D01*
X124857143Y-136164571D01*
X124828572Y-136050286D01*
X124828572Y-135964571D01*
X124857143Y-135850286D01*
X124885715Y-135793143D01*
X124942857Y-135736000D01*
X125028572Y-135707429D01*
X125085715Y-135707429D01*
X125171429Y-135736000D01*
X125200000Y-135764571D01*
X125771429Y-136307429D02*
X125428572Y-136307429D01*
X125600000Y-136307429D02*
X125600000Y-135707429D01*
X125542857Y-135793143D01*
X125485715Y-135850286D01*
X125428572Y-135878857D01*
X179071429Y-103642857D02*
X178471429Y-103642857D01*
X178471429Y-103414285D01*
X178500000Y-103357143D01*
X178528571Y-103328571D01*
X178585714Y-103300000D01*
X178671429Y-103300000D01*
X178728571Y-103328571D01*
X178757143Y-103357143D01*
X178785714Y-103414285D01*
X178785714Y-103642857D01*
X179071429Y-102728571D02*
X179071429Y-103071428D01*
X179071429Y-102900000D02*
X178471429Y-102900000D01*
X178557143Y-102957143D01*
X178614286Y-103014285D01*
X178642857Y-103071428D01*
X147138429Y-123957143D02*
X147624143Y-123957143D01*
X147681286Y-123928571D01*
X147709857Y-123900000D01*
X147738429Y-123842857D01*
X147738429Y-123728571D01*
X147709857Y-123671429D01*
X147681286Y-123642857D01*
X147624143Y-123614286D01*
X147138429Y-123614286D01*
X147738429Y-123014286D02*
X147738429Y-123357143D01*
X147738429Y-123185715D02*
X147138429Y-123185715D01*
X147224143Y-123242858D01*
X147281286Y-123300000D01*
X147309857Y-123357143D01*
M02*
