G04 #@! TF.FileFunction,Copper,L2,Bot,Signal*
%FSLAX46Y46*%
G04 Gerber Fmt 4.6, Leading zero omitted, Abs format (unit mm)*
G04 Created by KiCad (PCBNEW (2015-12-27 BZR 6404, Git c4ea4dc)-product) date Sat 09 Jan 2016 11:17:19 AM EST*
%MOMM*%
G01*
G04 APERTURE LIST*
%ADD10C,0.100000*%
%ADD11C,1.300000*%
%ADD12R,1.650000X1.650000*%
%ADD13C,1.650000*%
%ADD14R,1.800000X1.800000*%
%ADD15C,1.800000*%
%ADD16C,3.050000*%
%ADD17C,5.650000*%
%ADD18C,0.685800*%
%ADD19C,0.203200*%
%ADD20C,0.635000*%
%ADD21C,0.254000*%
G04 APERTURE END LIST*
D10*
X113000000Y-150000000D02*
X113000000Y-100000000D01*
X188000000Y-150000000D02*
X113000000Y-150000000D01*
X188000000Y-100000000D02*
X188000000Y-150000000D01*
X113000000Y-100000000D02*
X188000000Y-100000000D01*
D11*
X182000000Y-139000000D03*
X182000000Y-137000000D03*
X182000000Y-135000000D03*
X182000000Y-133000000D03*
X182000000Y-131000000D03*
X182000000Y-129000000D03*
D12*
X164160000Y-146900000D03*
D13*
X161620000Y-146900000D03*
X159080000Y-146900000D03*
X156540000Y-146900000D03*
X154000000Y-146900000D03*
X151460000Y-146900000D03*
D14*
X120270000Y-129080000D03*
D15*
X117730000Y-129080000D03*
X120270000Y-126540000D03*
X117730000Y-126540000D03*
X120270000Y-124000000D03*
X117730000Y-124000000D03*
X120270000Y-121460000D03*
X117730000Y-121460000D03*
X120270000Y-118920000D03*
X117730000Y-118920000D03*
D12*
X142120000Y-147000000D03*
D13*
X139580000Y-147000000D03*
X137040000Y-147000000D03*
X134500000Y-147000000D03*
X131960000Y-147000000D03*
X129420000Y-147000000D03*
D11*
X182000000Y-121000000D03*
X182000000Y-119000000D03*
X182000000Y-117000000D03*
X182000000Y-115000000D03*
X182000000Y-113000000D03*
X182000000Y-111000000D03*
D13*
X154600000Y-108200000D03*
X157600000Y-108200000D03*
D16*
X156100000Y-103880000D03*
D12*
X172000000Y-103200000D03*
D13*
X174540000Y-103200000D03*
X177080000Y-103200000D03*
D17*
X117000000Y-146000000D03*
X184000000Y-146000000D03*
X184000000Y-104000000D03*
X117000000Y-104000000D03*
D18*
X141600000Y-137668664D03*
X132600000Y-137600000D03*
X176600000Y-105600000D03*
X176800000Y-110900000D03*
X175800000Y-121200000D03*
X175800000Y-131600000D03*
X175500000Y-140100000D03*
X175600000Y-145800000D03*
X131516556Y-104118918D03*
X144200000Y-139600000D03*
X131800000Y-135400000D03*
X128000000Y-130000000D03*
X126600000Y-125600000D03*
X123559190Y-104413245D03*
X144325408Y-132985798D03*
X146965172Y-126851498D03*
X146600000Y-139600000D03*
X147400000Y-140200000D03*
X131400000Y-144800000D03*
X161001937Y-102493070D03*
X153396950Y-104944264D03*
X158613594Y-104839513D03*
X145600000Y-112300000D03*
X163500000Y-126800000D03*
X164000000Y-121200000D03*
X164000000Y-134100000D03*
X163700000Y-108000000D03*
X143500000Y-119400000D03*
X142300000Y-127700000D03*
X137300000Y-125800000D03*
X136400000Y-123800000D03*
X174000000Y-137400000D03*
X174000000Y-136400000D03*
X174020590Y-135462393D03*
X174000000Y-133200000D03*
X174000000Y-132300000D03*
X174600000Y-130200000D03*
X174000000Y-131400000D03*
X174900000Y-110100000D03*
X174300000Y-112500000D03*
X174300000Y-113500000D03*
X173984021Y-114590235D03*
X173941031Y-116522932D03*
X174200000Y-117500000D03*
X174200000Y-118400000D03*
X160700000Y-118800000D03*
X160600000Y-117100000D03*
X162900000Y-112200000D03*
X155600000Y-130600000D03*
X158500000Y-130500000D03*
X156200000Y-129700000D03*
X157000000Y-129100000D03*
X157800000Y-129700000D03*
X160600000Y-132600000D03*
X160714410Y-135900000D03*
X160600000Y-137200000D03*
X163800000Y-140300000D03*
X130600000Y-107300000D03*
X136000000Y-111100000D03*
X130500000Y-110600000D03*
X120300000Y-141200000D03*
X119800000Y-140100000D03*
X120000000Y-139000000D03*
X152145730Y-143811000D03*
X148200000Y-145600000D03*
X152112624Y-144722463D03*
X148200000Y-146489003D03*
X138000000Y-130400000D03*
X142332167Y-133633518D03*
X151200000Y-141000000D03*
X148474247Y-140400000D03*
X125400000Y-127800000D03*
X148160297Y-122361913D03*
X150201467Y-145600000D03*
X150410664Y-139810664D03*
X149185192Y-138593478D03*
X150000000Y-127200000D03*
X165900000Y-148400000D03*
X127000000Y-148400000D03*
X124517871Y-124400000D03*
X123222460Y-125400000D03*
X137000000Y-129400000D03*
X139840843Y-137759157D03*
X123500000Y-109900000D03*
X128300000Y-109300000D03*
X131200000Y-113825162D03*
X136110997Y-129400000D03*
X138867009Y-137800000D03*
X126200000Y-108700000D03*
X130600000Y-108300000D03*
X140800000Y-117353898D03*
X143010122Y-134281228D03*
X143800000Y-109584204D03*
X143677688Y-134868323D03*
X142300000Y-116500000D03*
X143300000Y-115100000D03*
X139800000Y-109800000D03*
X138000000Y-111000000D03*
X144200000Y-106800000D03*
X141300000Y-106800000D03*
X158782647Y-124559602D03*
X161500000Y-127800000D03*
X155500000Y-121900000D03*
X150100000Y-116500000D03*
X159543156Y-123822859D03*
X150100000Y-115500000D03*
X155600000Y-120900000D03*
X162400000Y-127200000D03*
X146700000Y-108100000D03*
X147900000Y-106900000D03*
X160500000Y-105300000D03*
X162300000Y-109500000D03*
X145950690Y-109869234D03*
X147200000Y-106300000D03*
X161200000Y-104600000D03*
X163300000Y-109300000D03*
X148767372Y-137000000D03*
X144400000Y-135400000D03*
X151039283Y-139182045D03*
X157264365Y-139657537D03*
X140644449Y-137378971D03*
X161636291Y-139524078D03*
X159600000Y-121885590D03*
X154900000Y-135100000D03*
X157047736Y-124630900D03*
X143800000Y-122711352D03*
X135200000Y-137800000D03*
X146940612Y-120787498D03*
X136200000Y-137800000D03*
X144800000Y-127400000D03*
X138800000Y-129800000D03*
X141211963Y-128471340D03*
X139493051Y-130834843D03*
X126200000Y-106800000D03*
X121200000Y-105800000D03*
X135410963Y-128852025D03*
X137978006Y-137800000D03*
X126200000Y-105800000D03*
X121597847Y-105000000D03*
X134600000Y-129452290D03*
X137089003Y-137800000D03*
X146372597Y-128613718D03*
X155600000Y-127100000D03*
X145400000Y-131800000D03*
X145547045Y-129493342D03*
X155800000Y-128100000D03*
X149928987Y-121769152D03*
X149537886Y-108912526D03*
X149600000Y-125800000D03*
X149834873Y-122969106D03*
X150300000Y-109600000D03*
D19*
X132600000Y-137600000D02*
X133447701Y-138447701D01*
X133447701Y-138447701D02*
X140820963Y-138447701D01*
X140820963Y-138447701D02*
X141600000Y-137668664D01*
D20*
X176800000Y-110900000D02*
X176800000Y-105800000D01*
X176800000Y-105800000D02*
X176600000Y-105600000D01*
X175800000Y-131600000D02*
X175800000Y-121200000D01*
X175600000Y-145800000D02*
X175600000Y-140200000D01*
X175600000Y-140200000D02*
X175500000Y-140100000D01*
D19*
X158613594Y-104839513D02*
X160960037Y-102493070D01*
X160960037Y-102493070D02*
X161001937Y-102493070D01*
X157600000Y-108200000D02*
X154344264Y-104944264D01*
X154344264Y-104944264D02*
X153396950Y-104944264D01*
X157600000Y-108200000D02*
X157600000Y-105853107D01*
X157600000Y-105853107D02*
X158613594Y-104839513D01*
X151660797Y-143811000D02*
X152145730Y-143811000D01*
X148200000Y-145600000D02*
X149989000Y-143811000D01*
X149989000Y-143811000D02*
X151660797Y-143811000D01*
X151627691Y-144722463D02*
X152112624Y-144722463D01*
X148353866Y-146489003D02*
X150120406Y-144722463D01*
X148200000Y-146489003D02*
X148353866Y-146489003D01*
X150120406Y-144722463D02*
X151627691Y-144722463D01*
X142332167Y-133633518D02*
X141233518Y-133633518D01*
X141233518Y-133633518D02*
X138000000Y-130400000D01*
X149074247Y-141000000D02*
X151200000Y-141000000D01*
X148474247Y-140400000D02*
X149074247Y-141000000D01*
X117730000Y-126540000D02*
X118990000Y-127800000D01*
X118990000Y-127800000D02*
X119746894Y-127800000D01*
X119746894Y-127800000D02*
X125400000Y-127800000D01*
X148160297Y-125360297D02*
X148160297Y-122846846D01*
X150000000Y-127200000D02*
X148160297Y-125360297D01*
X148160297Y-122846846D02*
X148160297Y-122361913D01*
D20*
X127000000Y-148400000D02*
X150400000Y-148400000D01*
X150400000Y-148400000D02*
X165900000Y-148400000D01*
D19*
X150201467Y-145600000D02*
X149858568Y-145942899D01*
X149858568Y-145942899D02*
X149858568Y-147858568D01*
X149858568Y-147858568D02*
X150400000Y-148400000D01*
X149185192Y-138593478D02*
X149193478Y-138593478D01*
X149193478Y-138593478D02*
X150410664Y-139810664D01*
X124517871Y-124400000D02*
X120670000Y-124400000D01*
X120670000Y-124400000D02*
X120270000Y-124000000D01*
X123222460Y-125400000D02*
X123027261Y-125204801D01*
X123027261Y-125204801D02*
X118934801Y-125204801D01*
X118934801Y-125204801D02*
X118629999Y-124899999D01*
X118629999Y-124899999D02*
X117730000Y-124000000D01*
X137000000Y-130400000D02*
X137000000Y-129400000D01*
X139273419Y-132673419D02*
X137000000Y-130400000D01*
X139840843Y-137759157D02*
X139273419Y-137191733D01*
X139273419Y-137191733D02*
X139273419Y-132673419D01*
X128300000Y-109300000D02*
X127700000Y-109900000D01*
X127700000Y-109900000D02*
X123500000Y-109900000D01*
X131200000Y-113825162D02*
X131542899Y-113482263D01*
X130942899Y-108642899D02*
X130600000Y-108300000D01*
X131542899Y-113482263D02*
X131542899Y-109242899D01*
X131542899Y-109242899D02*
X130942899Y-108642899D01*
X136274750Y-130325250D02*
X136274750Y-129563753D01*
X136274750Y-129563753D02*
X136110997Y-129400000D01*
X137901821Y-131952321D02*
X136274750Y-130325250D01*
X138867009Y-137800000D02*
X138867009Y-132917509D01*
X138867009Y-132917509D02*
X137901821Y-131952321D01*
X130600000Y-108300000D02*
X126600000Y-108300000D01*
X126600000Y-108300000D02*
X126200000Y-108700000D01*
X145447701Y-124847701D02*
X145447701Y-123239007D01*
X145447701Y-123239007D02*
X147588313Y-121098395D01*
X147588313Y-121098395D02*
X147588313Y-120476601D01*
X147588313Y-120476601D02*
X144465610Y-117353898D01*
X144465610Y-117353898D02*
X140800000Y-117353898D01*
X143010122Y-134281228D02*
X143010122Y-130148476D01*
X143010122Y-130148476D02*
X145447701Y-127710897D01*
X145447701Y-127710897D02*
X145447701Y-124847701D01*
X144400000Y-109600000D02*
X144384204Y-109584204D01*
X144384204Y-109584204D02*
X143800000Y-109584204D01*
X145800000Y-111000000D02*
X144400000Y-109600000D01*
X143677688Y-134868323D02*
X143677688Y-130055660D01*
X143677688Y-130055660D02*
X145854111Y-127879237D01*
X147994723Y-121266735D02*
X147994723Y-113194723D01*
X147994723Y-113194723D02*
X145800000Y-111000000D01*
X145854111Y-127879237D02*
X145854111Y-123407347D01*
X145854111Y-123407347D02*
X147994723Y-121266735D01*
X143300000Y-115100000D02*
X143300000Y-115500000D01*
X143300000Y-115500000D02*
X142300000Y-116500000D01*
X138000000Y-111000000D02*
X139200000Y-109800000D01*
X139200000Y-109800000D02*
X139800000Y-109800000D01*
X141300000Y-106800000D02*
X144200000Y-106800000D01*
X159125546Y-124902501D02*
X158782647Y-124559602D01*
X161500000Y-127276955D02*
X159125546Y-124902501D01*
X161500000Y-127800000D02*
X161500000Y-127276955D01*
X150100000Y-116500000D02*
X155500000Y-121900000D01*
X159886055Y-124165758D02*
X159543156Y-123822859D01*
X162400000Y-127200000D02*
X162400000Y-126679703D01*
X162400000Y-126679703D02*
X159886055Y-124165758D01*
X155600000Y-120900000D02*
X150200000Y-115500000D01*
X150200000Y-115500000D02*
X150100000Y-115500000D01*
X147900000Y-106900000D02*
X146700000Y-108100000D01*
X162300000Y-109500000D02*
X160500000Y-107700000D01*
X160500000Y-107700000D02*
X160500000Y-105300000D01*
X145950690Y-109384301D02*
X145950690Y-109869234D01*
X145950690Y-107549310D02*
X145950690Y-109384301D01*
X147200000Y-106300000D02*
X145950690Y-107549310D01*
X161400000Y-104900000D02*
X161200000Y-104700000D01*
X161200000Y-104700000D02*
X161200000Y-104600000D01*
X163300000Y-109300000D02*
X161400000Y-107400000D01*
X161400000Y-107400000D02*
X161400000Y-104900000D01*
X148857238Y-137000000D02*
X148767372Y-137000000D01*
X151039283Y-139182045D02*
X148857238Y-137000000D01*
X144400000Y-135400000D02*
X143200000Y-136600000D01*
X143200000Y-136600000D02*
X141423420Y-136600000D01*
X141423420Y-136600000D02*
X140987348Y-137036072D01*
X140987348Y-137036072D02*
X140644449Y-137378971D01*
X159324078Y-139524078D02*
X157397824Y-139524078D01*
X157397824Y-139524078D02*
X157264365Y-139657537D01*
X154900000Y-135100000D02*
X159324078Y-139524078D01*
X159324078Y-139524078D02*
X161636291Y-139524078D01*
X140644449Y-137378971D02*
X141002466Y-137020954D01*
X157047736Y-124437854D02*
X157047736Y-124630900D01*
X159600000Y-121885590D02*
X157047736Y-124437854D01*
X139355446Y-127797914D02*
X143800000Y-123353360D01*
X143800000Y-123353360D02*
X143800000Y-122711352D01*
X133400000Y-130000000D02*
X133400000Y-129118942D01*
X133400000Y-129118942D02*
X134721028Y-127797914D01*
X134721028Y-127797914D02*
X139355446Y-127797914D01*
X135200000Y-131800000D02*
X133400000Y-130000000D01*
X135200000Y-137800000D02*
X135200000Y-131800000D01*
X134000000Y-130025250D02*
X133952299Y-129977549D01*
X133952299Y-129977549D02*
X133952299Y-129141393D01*
X133952299Y-129141393D02*
X134889368Y-128204324D01*
X139523786Y-128204324D02*
X146940612Y-120787498D01*
X134889368Y-128204324D02*
X139523786Y-128204324D01*
X136200000Y-137800000D02*
X136200000Y-132225250D01*
X136200000Y-132225250D02*
X134000000Y-130025250D01*
X138800000Y-129800000D02*
X141547701Y-127052299D01*
X144452299Y-127052299D02*
X144800000Y-127400000D01*
X141547701Y-127052299D02*
X144452299Y-127052299D01*
X140869064Y-128814239D02*
X141211963Y-128471340D01*
X139493051Y-130190252D02*
X140869064Y-128814239D01*
X139493051Y-130834843D02*
X139493051Y-130190252D01*
X121200000Y-105800000D02*
X125200000Y-105800000D01*
X125200000Y-105800000D02*
X126200000Y-106800000D01*
X135887375Y-130512625D02*
X135410963Y-130036213D01*
X135410963Y-130036213D02*
X135410963Y-128852025D01*
X137495412Y-132120662D02*
X135887375Y-130512625D01*
X137978006Y-137800000D02*
X137978006Y-132603256D01*
X137978006Y-132603256D02*
X137495412Y-132120662D01*
X121597847Y-105000000D02*
X121940746Y-105342899D01*
X121940746Y-105342899D02*
X125742899Y-105342899D01*
X125742899Y-105342899D02*
X126200000Y-105800000D01*
X137089003Y-137800000D02*
X137089003Y-132289003D01*
X137089003Y-132289003D02*
X134607475Y-129807475D01*
X134607475Y-129807475D02*
X134607475Y-129459765D01*
X134607475Y-129459765D02*
X134600000Y-129452290D01*
X154086282Y-128613718D02*
X146857530Y-128613718D01*
X146857530Y-128613718D02*
X146372597Y-128613718D01*
X155600000Y-127100000D02*
X154086282Y-128613718D01*
X155800000Y-128100000D02*
X154063759Y-129836241D01*
X154063759Y-129836241D02*
X145889944Y-129836241D01*
X145889944Y-129836241D02*
X145547045Y-129493342D01*
X145547045Y-129493342D02*
X145547045Y-131652955D01*
X145547045Y-131652955D02*
X145400000Y-131800000D01*
X149586088Y-121426253D02*
X149928987Y-121769152D01*
X148823145Y-120663310D02*
X149586088Y-121426253D01*
X148823145Y-109627267D02*
X148823145Y-120663310D01*
X149537886Y-108912526D02*
X148823145Y-109627267D01*
X149200000Y-109250412D02*
X149537886Y-108912526D01*
X149834873Y-122969106D02*
X149834873Y-125565127D01*
X149834873Y-125565127D02*
X149600000Y-125800000D01*
X150300000Y-109600000D02*
X149270188Y-110629812D01*
X149270188Y-110629812D02*
X149270188Y-119933923D01*
X150600218Y-121263953D02*
X150600218Y-122203761D01*
X150177772Y-122626207D02*
X149834873Y-122969106D01*
X149270188Y-119933923D02*
X150600218Y-121263953D01*
X150600218Y-122203761D02*
X150177772Y-122626207D01*
D21*
G36*
X182215058Y-101323592D02*
X181326711Y-102210389D01*
X180845349Y-103369639D01*
X180844254Y-104624855D01*
X181323592Y-105784942D01*
X182210389Y-106673289D01*
X183369639Y-107154651D01*
X184624855Y-107155746D01*
X185784942Y-106676408D01*
X186673289Y-105789611D01*
X186873000Y-105308653D01*
X186873000Y-144690847D01*
X186676408Y-144215058D01*
X185789611Y-143326711D01*
X184630361Y-142845349D01*
X183375145Y-142844254D01*
X182215058Y-143323592D01*
X181326711Y-144210389D01*
X180845349Y-145369639D01*
X180844254Y-146624855D01*
X181323592Y-147784942D01*
X182210389Y-148673289D01*
X182691347Y-148873000D01*
X166378913Y-148873000D01*
X166470294Y-148781778D01*
X166572983Y-148534475D01*
X166573217Y-148266699D01*
X166470959Y-148019217D01*
X166281778Y-147829706D01*
X166034475Y-147727017D01*
X165766699Y-147726783D01*
X165704943Y-147752300D01*
X165316141Y-147752300D01*
X165321669Y-147725000D01*
X165321669Y-146075000D01*
X165298644Y-145952635D01*
X165226327Y-145840251D01*
X165115983Y-145764856D01*
X164985000Y-145738331D01*
X163335000Y-145738331D01*
X163212635Y-145761356D01*
X163100251Y-145833673D01*
X163024856Y-145944017D01*
X162998331Y-146075000D01*
X162998331Y-147725000D01*
X163003468Y-147752300D01*
X162401339Y-147752300D01*
X162598760Y-147555223D01*
X162774999Y-147130792D01*
X162775400Y-146671225D01*
X162599902Y-146246486D01*
X162275223Y-145921240D01*
X161850792Y-145745001D01*
X161391225Y-145744600D01*
X160966486Y-145920098D01*
X160641240Y-146244777D01*
X160521327Y-146533560D01*
X160354563Y-146130956D01*
X160105853Y-146053752D01*
X159259605Y-146900000D01*
X159273748Y-146914143D01*
X159094143Y-147093748D01*
X159080000Y-147079605D01*
X159065858Y-147093748D01*
X158886253Y-146914143D01*
X158900395Y-146900000D01*
X158054147Y-146053752D01*
X157805437Y-146130956D01*
X157650006Y-146561364D01*
X157519902Y-146246486D01*
X157195223Y-145921240D01*
X157081811Y-145874147D01*
X158233752Y-145874147D01*
X159080000Y-146720395D01*
X159926248Y-145874147D01*
X159849044Y-145625437D01*
X159302750Y-145428157D01*
X158722544Y-145454952D01*
X158310956Y-145625437D01*
X158233752Y-145874147D01*
X157081811Y-145874147D01*
X156770792Y-145745001D01*
X156311225Y-145744600D01*
X155886486Y-145920098D01*
X155561240Y-146244777D01*
X155385001Y-146669208D01*
X155384600Y-147128775D01*
X155560098Y-147553514D01*
X155758537Y-147752300D01*
X154781339Y-147752300D01*
X154978760Y-147555223D01*
X155154999Y-147130792D01*
X155155400Y-146671225D01*
X154979902Y-146246486D01*
X154655223Y-145921240D01*
X154230792Y-145745001D01*
X153771225Y-145744600D01*
X153346486Y-145920098D01*
X153021240Y-146244777D01*
X152845001Y-146669208D01*
X152844600Y-147128775D01*
X153020098Y-147553514D01*
X153218537Y-147752300D01*
X152241339Y-147752300D01*
X152438760Y-147555223D01*
X152614999Y-147130792D01*
X152615400Y-146671225D01*
X152439902Y-146246486D01*
X152115223Y-145921240D01*
X151690792Y-145745001D01*
X151231225Y-145744600D01*
X150806486Y-145920098D01*
X150790921Y-145935636D01*
X150874450Y-145734475D01*
X150874684Y-145466699D01*
X150772426Y-145219217D01*
X150707585Y-145154263D01*
X151592593Y-145154263D01*
X151730846Y-145292757D01*
X151978149Y-145395446D01*
X152245925Y-145395680D01*
X152493407Y-145293422D01*
X152682918Y-145104241D01*
X152785607Y-144856938D01*
X152785841Y-144589162D01*
X152683583Y-144341680D01*
X152625324Y-144283320D01*
X152716024Y-144192778D01*
X152818713Y-143945475D01*
X152818947Y-143677699D01*
X152716689Y-143430217D01*
X152527508Y-143240706D01*
X152280205Y-143138017D01*
X152012429Y-143137783D01*
X151764947Y-143240041D01*
X151625545Y-143379200D01*
X149989000Y-143379200D01*
X149823757Y-143412069D01*
X149683671Y-143505671D01*
X148262388Y-144926954D01*
X148066699Y-144926783D01*
X147819217Y-145029041D01*
X147629706Y-145218222D01*
X147527017Y-145465525D01*
X147526783Y-145733301D01*
X147629041Y-145980783D01*
X147692594Y-146044447D01*
X147629706Y-146107225D01*
X147527017Y-146354528D01*
X147526783Y-146622304D01*
X147629041Y-146869786D01*
X147818222Y-147059297D01*
X148065525Y-147161986D01*
X148333301Y-147162220D01*
X148580783Y-147059962D01*
X148770294Y-146870781D01*
X148872983Y-146623478D01*
X148873021Y-146580506D01*
X149426768Y-146026759D01*
X149426768Y-147752300D01*
X143580000Y-147752300D01*
X143580000Y-147285750D01*
X143421250Y-147127000D01*
X142247000Y-147127000D01*
X142247000Y-147147000D01*
X141993000Y-147147000D01*
X141993000Y-147127000D01*
X141973000Y-147127000D01*
X141973000Y-146873000D01*
X141993000Y-146873000D01*
X141993000Y-145698750D01*
X142247000Y-145698750D01*
X142247000Y-146873000D01*
X143421250Y-146873000D01*
X143580000Y-146714250D01*
X143580000Y-146048690D01*
X143483327Y-145815301D01*
X143304698Y-145636673D01*
X143071309Y-145540000D01*
X142405750Y-145540000D01*
X142247000Y-145698750D01*
X141993000Y-145698750D01*
X141834250Y-145540000D01*
X141168691Y-145540000D01*
X140935302Y-145636673D01*
X140756673Y-145815301D01*
X140660000Y-146048690D01*
X140660000Y-146588742D01*
X140559902Y-146346486D01*
X140235223Y-146021240D01*
X139810792Y-145845001D01*
X139351225Y-145844600D01*
X138926486Y-146020098D01*
X138601240Y-146344777D01*
X138425001Y-146769208D01*
X138424600Y-147228775D01*
X138600098Y-147653514D01*
X138698712Y-147752300D01*
X137921513Y-147752300D01*
X138018760Y-147655223D01*
X138194999Y-147230792D01*
X138195400Y-146771225D01*
X138019902Y-146346486D01*
X137695223Y-146021240D01*
X137270792Y-145845001D01*
X136811225Y-145844600D01*
X136386486Y-146020098D01*
X136061240Y-146344777D01*
X135885001Y-146769208D01*
X135884600Y-147228775D01*
X136060098Y-147653514D01*
X136158712Y-147752300D01*
X135381513Y-147752300D01*
X135478760Y-147655223D01*
X135654999Y-147230792D01*
X135655400Y-146771225D01*
X135479902Y-146346486D01*
X135155223Y-146021240D01*
X134730792Y-145845001D01*
X134271225Y-145844600D01*
X133846486Y-146020098D01*
X133521240Y-146344777D01*
X133345001Y-146769208D01*
X133344600Y-147228775D01*
X133520098Y-147653514D01*
X133618712Y-147752300D01*
X132841513Y-147752300D01*
X132938760Y-147655223D01*
X133114999Y-147230792D01*
X133115400Y-146771225D01*
X132939902Y-146346486D01*
X132615223Y-146021240D01*
X132190792Y-145845001D01*
X131731225Y-145844600D01*
X131306486Y-146020098D01*
X130981240Y-146344777D01*
X130805001Y-146769208D01*
X130804600Y-147228775D01*
X130980098Y-147653514D01*
X131078712Y-147752300D01*
X130301513Y-147752300D01*
X130398760Y-147655223D01*
X130574999Y-147230792D01*
X130575400Y-146771225D01*
X130399902Y-146346486D01*
X130075223Y-146021240D01*
X129650792Y-145845001D01*
X129191225Y-145844600D01*
X128766486Y-146020098D01*
X128441240Y-146344777D01*
X128265001Y-146769208D01*
X128264600Y-147228775D01*
X128440098Y-147653514D01*
X128538712Y-147752300D01*
X127195363Y-147752300D01*
X127134475Y-147727017D01*
X126866699Y-147726783D01*
X126619217Y-147829041D01*
X126429706Y-148018222D01*
X126327017Y-148265525D01*
X126326783Y-148533301D01*
X126429041Y-148780783D01*
X126521097Y-148873000D01*
X118309153Y-148873000D01*
X118784942Y-148676408D01*
X119673289Y-147789611D01*
X120154651Y-146630361D01*
X120155746Y-145375145D01*
X119676408Y-144215058D01*
X118789611Y-143326711D01*
X117630361Y-142845349D01*
X116375145Y-142844254D01*
X115215058Y-143323592D01*
X114326711Y-144210389D01*
X114127000Y-144691347D01*
X114127000Y-140533301D01*
X147801030Y-140533301D01*
X147903288Y-140780783D01*
X148092469Y-140970294D01*
X148339772Y-141072983D01*
X148536744Y-141073155D01*
X148768918Y-141305329D01*
X148909004Y-141398931D01*
X149074247Y-141431800D01*
X150679969Y-141431800D01*
X150818222Y-141570294D01*
X151065525Y-141672983D01*
X151333301Y-141673217D01*
X151580783Y-141570959D01*
X151770294Y-141381778D01*
X151872983Y-141134475D01*
X151873217Y-140866699D01*
X151770959Y-140619217D01*
X151581778Y-140429706D01*
X151334475Y-140327017D01*
X151066699Y-140326783D01*
X150819217Y-140429041D01*
X150679815Y-140568200D01*
X149253105Y-140568200D01*
X149147293Y-140462388D01*
X149147464Y-140266699D01*
X149045206Y-140019217D01*
X148856025Y-139829706D01*
X148608722Y-139727017D01*
X148340946Y-139726783D01*
X148093464Y-139829041D01*
X147903953Y-140018222D01*
X147801264Y-140265525D01*
X147801030Y-140533301D01*
X114127000Y-140533301D01*
X114127000Y-137733301D01*
X131926783Y-137733301D01*
X132029041Y-137980783D01*
X132218222Y-138170294D01*
X132465525Y-138272983D01*
X132662497Y-138273155D01*
X133142372Y-138753030D01*
X133282458Y-138846632D01*
X133447701Y-138879501D01*
X140820963Y-138879501D01*
X140986206Y-138846632D01*
X141126292Y-138753030D01*
X141537611Y-138341710D01*
X141733301Y-138341881D01*
X141980783Y-138239623D01*
X142170294Y-138050442D01*
X142272983Y-137803139D01*
X142273217Y-137535363D01*
X142170959Y-137287881D01*
X142016649Y-137133301D01*
X148094155Y-137133301D01*
X148196413Y-137380783D01*
X148385594Y-137570294D01*
X148632897Y-137672983D01*
X148900673Y-137673217D01*
X148914206Y-137667625D01*
X149166942Y-137920362D01*
X149051891Y-137920261D01*
X148804409Y-138022519D01*
X148614898Y-138211700D01*
X148512209Y-138459003D01*
X148511975Y-138726779D01*
X148614233Y-138974261D01*
X148803414Y-139163772D01*
X149050717Y-139266461D01*
X149255982Y-139266640D01*
X149737618Y-139748276D01*
X149737447Y-139943965D01*
X149839705Y-140191447D01*
X150028886Y-140380958D01*
X150276189Y-140483647D01*
X150543965Y-140483881D01*
X150791447Y-140381623D01*
X150980958Y-140192442D01*
X151083647Y-139945139D01*
X151083726Y-139855184D01*
X151172584Y-139855262D01*
X151420066Y-139753004D01*
X151609577Y-139563823D01*
X151712266Y-139316520D01*
X151712500Y-139048744D01*
X151610242Y-138801262D01*
X151421061Y-138611751D01*
X151173758Y-138509062D01*
X150976785Y-138508890D01*
X149440496Y-136972601D01*
X149440589Y-136866699D01*
X149338331Y-136619217D01*
X149149150Y-136429706D01*
X148901847Y-136327017D01*
X148634071Y-136326783D01*
X148386589Y-136429041D01*
X148197078Y-136618222D01*
X148094389Y-136865525D01*
X148094155Y-137133301D01*
X142016649Y-137133301D01*
X141981778Y-137098370D01*
X141821459Y-137031800D01*
X143200000Y-137031800D01*
X143365243Y-136998931D01*
X143505329Y-136905329D01*
X144337612Y-136073046D01*
X144533301Y-136073217D01*
X144780783Y-135970959D01*
X144970294Y-135781778D01*
X145072983Y-135534475D01*
X145073217Y-135266699D01*
X145059418Y-135233301D01*
X154226783Y-135233301D01*
X154329041Y-135480783D01*
X154518222Y-135670294D01*
X154765525Y-135772983D01*
X154962497Y-135773155D01*
X158281620Y-139092278D01*
X157651169Y-139092278D01*
X157646143Y-139087243D01*
X157398840Y-138984554D01*
X157131064Y-138984320D01*
X156883582Y-139086578D01*
X156694071Y-139275759D01*
X156591382Y-139523062D01*
X156591148Y-139790838D01*
X156693406Y-140038320D01*
X156882587Y-140227831D01*
X157129890Y-140330520D01*
X157397666Y-140330754D01*
X157633519Y-140233301D01*
X174826783Y-140233301D01*
X174929041Y-140480783D01*
X174952300Y-140504083D01*
X174952300Y-145604637D01*
X174927017Y-145665525D01*
X174926783Y-145933301D01*
X175029041Y-146180783D01*
X175218222Y-146370294D01*
X175465525Y-146472983D01*
X175733301Y-146473217D01*
X175980783Y-146370959D01*
X176170294Y-146181778D01*
X176272983Y-145934475D01*
X176273217Y-145666699D01*
X176247700Y-145604943D01*
X176247700Y-140200000D01*
X176203125Y-139975906D01*
X176198397Y-139952135D01*
X176116645Y-139829786D01*
X176070959Y-139719217D01*
X175881778Y-139529706D01*
X175634475Y-139427017D01*
X175366699Y-139426783D01*
X175119217Y-139529041D01*
X174929706Y-139718222D01*
X174827017Y-139965525D01*
X174826783Y-140233301D01*
X157633519Y-140233301D01*
X157645148Y-140228496D01*
X157834659Y-140039315D01*
X157869305Y-139955878D01*
X161116260Y-139955878D01*
X161254513Y-140094372D01*
X161501816Y-140197061D01*
X161769592Y-140197295D01*
X162017074Y-140095037D01*
X162206585Y-139905856D01*
X162309274Y-139658553D01*
X162309508Y-139390777D01*
X162207250Y-139143295D01*
X162018069Y-138953784D01*
X161770766Y-138851095D01*
X161502990Y-138850861D01*
X161255508Y-138953119D01*
X161116106Y-139092278D01*
X159502936Y-139092278D01*
X157614837Y-137204179D01*
X180968822Y-137204179D01*
X181125451Y-137583251D01*
X181415223Y-137873529D01*
X181720081Y-138000117D01*
X181416749Y-138125451D01*
X181126471Y-138415223D01*
X180969180Y-138794022D01*
X180968822Y-139204179D01*
X181125451Y-139583251D01*
X181415223Y-139873529D01*
X181794022Y-140030820D01*
X182204179Y-140031178D01*
X182583251Y-139874549D01*
X182873529Y-139584777D01*
X183030820Y-139205978D01*
X183031178Y-138795821D01*
X182874549Y-138416749D01*
X182584777Y-138126471D01*
X182279919Y-137999883D01*
X182583251Y-137874549D01*
X182873529Y-137584777D01*
X183030820Y-137205978D01*
X183031178Y-136795821D01*
X182874549Y-136416749D01*
X182584777Y-136126471D01*
X182213570Y-135972333D01*
X182554513Y-135831457D01*
X182830488Y-135555964D01*
X182980029Y-135195829D01*
X182980370Y-134805882D01*
X182831457Y-134445487D01*
X182559309Y-134172863D01*
X182663729Y-134129611D01*
X182719410Y-133899016D01*
X182000000Y-133179605D01*
X181280590Y-133899016D01*
X181336271Y-134129611D01*
X181446704Y-134168040D01*
X181445487Y-134168543D01*
X181169512Y-134444036D01*
X181019971Y-134804171D01*
X181019630Y-135194118D01*
X181168543Y-135554513D01*
X181444036Y-135830488D01*
X181786478Y-135972682D01*
X181416749Y-136125451D01*
X181126471Y-136415223D01*
X180969180Y-136794022D01*
X180968822Y-137204179D01*
X157614837Y-137204179D01*
X155573046Y-135162388D01*
X155573217Y-134966699D01*
X155470959Y-134719217D01*
X155281778Y-134529706D01*
X155034475Y-134427017D01*
X154766699Y-134426783D01*
X154519217Y-134529041D01*
X154329706Y-134718222D01*
X154227017Y-134965525D01*
X154226783Y-135233301D01*
X145059418Y-135233301D01*
X144970959Y-135019217D01*
X144781778Y-134829706D01*
X144534475Y-134727017D01*
X144347530Y-134726854D01*
X144248647Y-134487540D01*
X144109488Y-134348138D01*
X144109488Y-132819078D01*
X180702378Y-132819078D01*
X180731917Y-133329428D01*
X180870389Y-133663729D01*
X181100984Y-133719410D01*
X181820395Y-133000000D01*
X182179605Y-133000000D01*
X182899016Y-133719410D01*
X183129611Y-133663729D01*
X183297622Y-133180922D01*
X183268083Y-132670572D01*
X183129611Y-132336271D01*
X182899016Y-132280590D01*
X182179605Y-133000000D01*
X181820395Y-133000000D01*
X181100984Y-132280590D01*
X180870389Y-132336271D01*
X180702378Y-132819078D01*
X144109488Y-132819078D01*
X144109488Y-130234518D01*
X144873965Y-129470041D01*
X144873828Y-129626643D01*
X144976086Y-129874125D01*
X145115245Y-130013527D01*
X145115245Y-131189363D01*
X145019217Y-131229041D01*
X144829706Y-131418222D01*
X144727017Y-131665525D01*
X144726783Y-131933301D01*
X144829041Y-132180783D01*
X145018222Y-132370294D01*
X145265525Y-132472983D01*
X145533301Y-132473217D01*
X145780783Y-132370959D01*
X145970294Y-132181778D01*
X146072983Y-131934475D01*
X146073217Y-131666699D01*
X145978845Y-131438302D01*
X145978845Y-130268041D01*
X154063759Y-130268041D01*
X154229002Y-130235172D01*
X154369088Y-130141570D01*
X154369089Y-130141569D01*
X155737611Y-128773046D01*
X155933301Y-128773217D01*
X156180783Y-128670959D01*
X156370294Y-128481778D01*
X156472983Y-128234475D01*
X156473217Y-127966699D01*
X156370959Y-127719217D01*
X156181778Y-127529706D01*
X156139760Y-127512259D01*
X156170294Y-127481778D01*
X156272983Y-127234475D01*
X156273217Y-126966699D01*
X156170959Y-126719217D01*
X155981778Y-126529706D01*
X155734475Y-126427017D01*
X155466699Y-126426783D01*
X155219217Y-126529041D01*
X155029706Y-126718222D01*
X154927017Y-126965525D01*
X154926845Y-127162498D01*
X153907424Y-128181918D01*
X146892628Y-128181918D01*
X146754375Y-128043424D01*
X146507072Y-127940735D01*
X146273719Y-127940531D01*
X146285911Y-127879237D01*
X146285911Y-123586205D01*
X147487176Y-122384939D01*
X147487080Y-122495214D01*
X147589338Y-122742696D01*
X147728497Y-122882098D01*
X147728497Y-125360297D01*
X147761366Y-125525540D01*
X147787894Y-125565242D01*
X147854968Y-125665626D01*
X149326954Y-127137612D01*
X149326783Y-127333301D01*
X149429041Y-127580783D01*
X149618222Y-127770294D01*
X149865525Y-127872983D01*
X150133301Y-127873217D01*
X150380783Y-127770959D01*
X150570294Y-127581778D01*
X150672983Y-127334475D01*
X150673217Y-127066699D01*
X150570959Y-126819217D01*
X150381778Y-126629706D01*
X150134475Y-126527017D01*
X149937503Y-126526845D01*
X149839850Y-126429192D01*
X149980783Y-126370959D01*
X150170294Y-126181778D01*
X150272983Y-125934475D01*
X150273217Y-125666699D01*
X150255162Y-125623002D01*
X150266674Y-125565127D01*
X150266673Y-125565122D01*
X150266673Y-124764201D01*
X156374519Y-124764201D01*
X156476777Y-125011683D01*
X156665958Y-125201194D01*
X156913261Y-125303883D01*
X157181037Y-125304117D01*
X157428519Y-125201859D01*
X157618030Y-125012678D01*
X157720719Y-124765375D01*
X157720782Y-124692903D01*
X158109430Y-124692903D01*
X158211688Y-124940385D01*
X158400869Y-125129896D01*
X158648172Y-125232585D01*
X158845144Y-125232757D01*
X160980201Y-127367814D01*
X160929706Y-127418222D01*
X160827017Y-127665525D01*
X160826783Y-127933301D01*
X160929041Y-128180783D01*
X161118222Y-128370294D01*
X161365525Y-128472983D01*
X161633301Y-128473217D01*
X161880783Y-128370959D01*
X162070294Y-128181778D01*
X162172983Y-127934475D01*
X162173070Y-127834593D01*
X162265525Y-127872983D01*
X162533301Y-127873217D01*
X162780783Y-127770959D01*
X162970294Y-127581778D01*
X163072983Y-127334475D01*
X163073217Y-127066699D01*
X162970959Y-126819217D01*
X162831800Y-126679815D01*
X162831800Y-126679703D01*
X162798931Y-126514460D01*
X162705329Y-126374374D01*
X160216202Y-123885247D01*
X160216373Y-123689558D01*
X160114115Y-123442076D01*
X159924934Y-123252565D01*
X159677631Y-123149876D01*
X159409855Y-123149642D01*
X159162373Y-123251900D01*
X158972862Y-123441081D01*
X158870173Y-123688384D01*
X158870000Y-123886578D01*
X158649346Y-123886385D01*
X158401864Y-123988643D01*
X158212353Y-124177824D01*
X158109664Y-124425127D01*
X158109430Y-124692903D01*
X157720782Y-124692903D01*
X157720953Y-124497599D01*
X157685193Y-124411055D01*
X159537611Y-122558636D01*
X159733301Y-122558807D01*
X159980783Y-122456549D01*
X160170294Y-122267368D01*
X160272983Y-122020065D01*
X160273217Y-121752289D01*
X160170959Y-121504807D01*
X159999752Y-121333301D01*
X175126783Y-121333301D01*
X175152300Y-121395057D01*
X175152300Y-131404637D01*
X175127017Y-131465525D01*
X175126783Y-131733301D01*
X175229041Y-131980783D01*
X175418222Y-132170294D01*
X175665525Y-132272983D01*
X175933301Y-132273217D01*
X176180783Y-132170959D01*
X176370294Y-131981778D01*
X176472983Y-131734475D01*
X176473217Y-131466699D01*
X176447700Y-131404943D01*
X176447700Y-131194118D01*
X181019630Y-131194118D01*
X181168543Y-131554513D01*
X181440691Y-131827137D01*
X181336271Y-131870389D01*
X181280590Y-132100984D01*
X182000000Y-132820395D01*
X182719410Y-132100984D01*
X182663729Y-131870389D01*
X182553296Y-131831960D01*
X182554513Y-131831457D01*
X182830488Y-131555964D01*
X182980029Y-131195829D01*
X182980370Y-130805882D01*
X182831457Y-130445487D01*
X182555964Y-130169512D01*
X182195829Y-130019971D01*
X181805882Y-130019630D01*
X181445487Y-130168543D01*
X181169512Y-130444036D01*
X181019971Y-130804171D01*
X181019630Y-131194118D01*
X176447700Y-131194118D01*
X176447700Y-129194118D01*
X181019630Y-129194118D01*
X181168543Y-129554513D01*
X181444036Y-129830488D01*
X181804171Y-129980029D01*
X182194118Y-129980370D01*
X182554513Y-129831457D01*
X182830488Y-129555964D01*
X182980029Y-129195829D01*
X182980370Y-128805882D01*
X182831457Y-128445487D01*
X182555964Y-128169512D01*
X182195829Y-128019971D01*
X181805882Y-128019630D01*
X181445487Y-128168543D01*
X181169512Y-128444036D01*
X181019971Y-128804171D01*
X181019630Y-129194118D01*
X176447700Y-129194118D01*
X176447700Y-121395363D01*
X176472983Y-121334475D01*
X176473217Y-121066699D01*
X176370959Y-120819217D01*
X176181778Y-120629706D01*
X175934475Y-120527017D01*
X175666699Y-120526783D01*
X175419217Y-120629041D01*
X175229706Y-120818222D01*
X175127017Y-121065525D01*
X175126783Y-121333301D01*
X159999752Y-121333301D01*
X159981778Y-121315296D01*
X159734475Y-121212607D01*
X159466699Y-121212373D01*
X159219217Y-121314631D01*
X159029706Y-121503812D01*
X158927017Y-121751115D01*
X158926845Y-121948088D01*
X156917247Y-123957685D01*
X156914435Y-123957683D01*
X156666953Y-124059941D01*
X156477442Y-124249122D01*
X156374753Y-124496425D01*
X156374519Y-124764201D01*
X150266673Y-124764201D01*
X150266673Y-123489137D01*
X150405167Y-123350884D01*
X150507856Y-123103581D01*
X150508028Y-122906609D01*
X150905547Y-122509090D01*
X150931025Y-122470959D01*
X150999149Y-122369004D01*
X151010404Y-122312421D01*
X151032019Y-122203761D01*
X151032018Y-122203756D01*
X151032018Y-121263953D01*
X150999149Y-121098710D01*
X150905547Y-120958624D01*
X150905544Y-120958622D01*
X149701988Y-119755065D01*
X149701988Y-117054032D01*
X149718222Y-117070294D01*
X149965525Y-117172983D01*
X150162497Y-117173155D01*
X154826954Y-121837612D01*
X154826783Y-122033301D01*
X154929041Y-122280783D01*
X155118222Y-122470294D01*
X155365525Y-122572983D01*
X155633301Y-122573217D01*
X155880783Y-122470959D01*
X156070294Y-122281778D01*
X156172983Y-122034475D01*
X156173217Y-121766699D01*
X156070959Y-121519217D01*
X156001821Y-121449958D01*
X156170294Y-121281778D01*
X156272983Y-121034475D01*
X156273217Y-120766699D01*
X156170959Y-120519217D01*
X155981778Y-120329706D01*
X155734475Y-120227017D01*
X155537503Y-120226845D01*
X154514837Y-119204179D01*
X180968822Y-119204179D01*
X181125451Y-119583251D01*
X181415223Y-119873529D01*
X181720081Y-120000117D01*
X181416749Y-120125451D01*
X181126471Y-120415223D01*
X180969180Y-120794022D01*
X180968822Y-121204179D01*
X181125451Y-121583251D01*
X181415223Y-121873529D01*
X181794022Y-122030820D01*
X182204179Y-122031178D01*
X182583251Y-121874549D01*
X182873529Y-121584777D01*
X183030820Y-121205978D01*
X183031178Y-120795821D01*
X182874549Y-120416749D01*
X182584777Y-120126471D01*
X182279919Y-119999883D01*
X182583251Y-119874549D01*
X182873529Y-119584777D01*
X183030820Y-119205978D01*
X183031178Y-118795821D01*
X182874549Y-118416749D01*
X182584777Y-118126471D01*
X182213570Y-117972333D01*
X182554513Y-117831457D01*
X182830488Y-117555964D01*
X182980029Y-117195829D01*
X182980370Y-116805882D01*
X182831457Y-116445487D01*
X182559309Y-116172863D01*
X182663729Y-116129611D01*
X182719410Y-115899016D01*
X182000000Y-115179605D01*
X181280590Y-115899016D01*
X181336271Y-116129611D01*
X181446704Y-116168040D01*
X181445487Y-116168543D01*
X181169512Y-116444036D01*
X181019971Y-116804171D01*
X181019630Y-117194118D01*
X181168543Y-117554513D01*
X181444036Y-117830488D01*
X181786478Y-117972682D01*
X181416749Y-118125451D01*
X181126471Y-118415223D01*
X180969180Y-118794022D01*
X180968822Y-119204179D01*
X154514837Y-119204179D01*
X150773133Y-115462475D01*
X150773217Y-115366699D01*
X150670959Y-115119217D01*
X150481778Y-114929706D01*
X150234475Y-114827017D01*
X149966699Y-114826783D01*
X149719217Y-114929041D01*
X149701988Y-114946240D01*
X149701988Y-114819078D01*
X180702378Y-114819078D01*
X180731917Y-115329428D01*
X180870389Y-115663729D01*
X181100984Y-115719410D01*
X181820395Y-115000000D01*
X182179605Y-115000000D01*
X182899016Y-115719410D01*
X183129611Y-115663729D01*
X183297622Y-115180922D01*
X183268083Y-114670572D01*
X183129611Y-114336271D01*
X182899016Y-114280590D01*
X182179605Y-115000000D01*
X181820395Y-115000000D01*
X181100984Y-114280590D01*
X180870389Y-114336271D01*
X180702378Y-114819078D01*
X149701988Y-114819078D01*
X149701988Y-113194118D01*
X181019630Y-113194118D01*
X181168543Y-113554513D01*
X181440691Y-113827137D01*
X181336271Y-113870389D01*
X181280590Y-114100984D01*
X182000000Y-114820395D01*
X182719410Y-114100984D01*
X182663729Y-113870389D01*
X182553296Y-113831960D01*
X182554513Y-113831457D01*
X182830488Y-113555964D01*
X182980029Y-113195829D01*
X182980370Y-112805882D01*
X182831457Y-112445487D01*
X182555964Y-112169512D01*
X182195829Y-112019971D01*
X181805882Y-112019630D01*
X181445487Y-112168543D01*
X181169512Y-112444036D01*
X181019971Y-112804171D01*
X181019630Y-113194118D01*
X149701988Y-113194118D01*
X149701988Y-110808670D01*
X150237612Y-110273046D01*
X150433301Y-110273217D01*
X150680783Y-110170959D01*
X150870294Y-109981778D01*
X150972983Y-109734475D01*
X150973217Y-109466699D01*
X150870959Y-109219217D01*
X150681778Y-109029706D01*
X150434475Y-108927017D01*
X150210974Y-108926822D01*
X150211103Y-108779225D01*
X150108845Y-108531743D01*
X150016100Y-108438836D01*
X153393791Y-108438836D01*
X153577007Y-108882252D01*
X153915964Y-109221801D01*
X154359059Y-109405790D01*
X154838836Y-109406209D01*
X155275330Y-109225853D01*
X156753752Y-109225853D01*
X156830956Y-109474563D01*
X157377250Y-109671843D01*
X157957456Y-109645048D01*
X158369044Y-109474563D01*
X158446248Y-109225853D01*
X157600000Y-108379605D01*
X156753752Y-109225853D01*
X155275330Y-109225853D01*
X155282252Y-109222993D01*
X155621801Y-108884036D01*
X155805790Y-108440941D01*
X155806194Y-107977250D01*
X156128157Y-107977250D01*
X156154952Y-108557456D01*
X156325437Y-108969044D01*
X156574147Y-109046248D01*
X157420395Y-108200000D01*
X157779605Y-108200000D01*
X158625853Y-109046248D01*
X158874563Y-108969044D01*
X159071843Y-108422750D01*
X159045048Y-107842544D01*
X158874563Y-107430956D01*
X158625853Y-107353752D01*
X157779605Y-108200000D01*
X157420395Y-108200000D01*
X156574147Y-107353752D01*
X156325437Y-107430956D01*
X156128157Y-107977250D01*
X155806194Y-107977250D01*
X155806209Y-107961164D01*
X155622993Y-107517748D01*
X155284036Y-107178199D01*
X155274278Y-107174147D01*
X156753752Y-107174147D01*
X157600000Y-108020395D01*
X158446248Y-107174147D01*
X158369044Y-106925437D01*
X157822750Y-106728157D01*
X157242544Y-106754952D01*
X156830956Y-106925437D01*
X156753752Y-107174147D01*
X155274278Y-107174147D01*
X154840941Y-106994210D01*
X154361164Y-106993791D01*
X153917748Y-107177007D01*
X153578199Y-107515964D01*
X153394210Y-107959059D01*
X153393791Y-108438836D01*
X150016100Y-108438836D01*
X149919664Y-108342232D01*
X149672361Y-108239543D01*
X149404585Y-108239309D01*
X149157103Y-108341567D01*
X148967592Y-108530748D01*
X148864903Y-108778051D01*
X148864731Y-108975024D01*
X148517816Y-109321938D01*
X148424214Y-109462024D01*
X148391345Y-109627267D01*
X148391345Y-113026024D01*
X148300052Y-112889394D01*
X145952995Y-110542337D01*
X146083991Y-110542451D01*
X146331473Y-110440193D01*
X146520984Y-110251012D01*
X146623673Y-110003709D01*
X146623907Y-109735933D01*
X146521649Y-109488451D01*
X146382490Y-109349049D01*
X146382490Y-108696980D01*
X146565525Y-108772983D01*
X146833301Y-108773217D01*
X147080783Y-108670959D01*
X147270294Y-108481778D01*
X147372983Y-108234475D01*
X147373155Y-108037503D01*
X147837612Y-107573046D01*
X148033301Y-107573217D01*
X148280783Y-107470959D01*
X148470294Y-107281778D01*
X148572983Y-107034475D01*
X148573217Y-106766699D01*
X148470959Y-106519217D01*
X148281778Y-106329706D01*
X148034475Y-106227017D01*
X147873164Y-106226876D01*
X147873217Y-106166699D01*
X147770959Y-105919217D01*
X147581778Y-105729706D01*
X147334475Y-105627017D01*
X147066699Y-105626783D01*
X146819217Y-105729041D01*
X146629706Y-105918222D01*
X146527017Y-106165525D01*
X146526845Y-106362497D01*
X145645361Y-107243981D01*
X145551759Y-107384067D01*
X145518890Y-107549310D01*
X145518890Y-109349203D01*
X145380396Y-109487456D01*
X145277707Y-109734759D01*
X145277591Y-109866933D01*
X144689533Y-109278875D01*
X144677686Y-109270959D01*
X144549447Y-109185273D01*
X144384204Y-109152404D01*
X144320031Y-109152404D01*
X144181778Y-109013910D01*
X143934475Y-108911221D01*
X143666699Y-108910987D01*
X143419217Y-109013245D01*
X143229706Y-109202426D01*
X143127017Y-109449729D01*
X143126783Y-109717505D01*
X143229041Y-109964987D01*
X143418222Y-110154498D01*
X143665525Y-110257187D01*
X143933301Y-110257421D01*
X144180783Y-110155163D01*
X144262715Y-110073373D01*
X147562923Y-113373581D01*
X147562923Y-119840553D01*
X144770939Y-117048569D01*
X144630853Y-116954967D01*
X144465610Y-116922098D01*
X142829904Y-116922098D01*
X142870294Y-116881778D01*
X142972983Y-116634475D01*
X142973155Y-116437503D01*
X143605326Y-115805331D01*
X143605329Y-115805329D01*
X143698931Y-115665243D01*
X143698932Y-115665242D01*
X143702010Y-115649769D01*
X143870294Y-115481778D01*
X143972983Y-115234475D01*
X143973217Y-114966699D01*
X143870959Y-114719217D01*
X143681778Y-114529706D01*
X143434475Y-114427017D01*
X143166699Y-114426783D01*
X142919217Y-114529041D01*
X142729706Y-114718222D01*
X142627017Y-114965525D01*
X142626783Y-115233301D01*
X142723053Y-115466290D01*
X142362388Y-115826954D01*
X142166699Y-115826783D01*
X141919217Y-115929041D01*
X141729706Y-116118222D01*
X141627017Y-116365525D01*
X141626783Y-116633301D01*
X141729041Y-116880783D01*
X141770284Y-116922098D01*
X141320031Y-116922098D01*
X141181778Y-116783604D01*
X140934475Y-116680915D01*
X140666699Y-116680681D01*
X140419217Y-116782939D01*
X140229706Y-116972120D01*
X140127017Y-117219423D01*
X140126783Y-117487199D01*
X140229041Y-117734681D01*
X140418222Y-117924192D01*
X140665525Y-118026881D01*
X140933301Y-118027115D01*
X141180783Y-117924857D01*
X141320185Y-117785698D01*
X144286752Y-117785698D01*
X146671466Y-120170412D01*
X146559829Y-120216539D01*
X146370318Y-120405720D01*
X146267629Y-120653023D01*
X146267457Y-120849995D01*
X144473159Y-122644293D01*
X144473217Y-122578051D01*
X144370959Y-122330569D01*
X144181778Y-122141058D01*
X143934475Y-122038369D01*
X143666699Y-122038135D01*
X143419217Y-122140393D01*
X143229706Y-122329574D01*
X143127017Y-122576877D01*
X143126783Y-122844653D01*
X143229041Y-123092135D01*
X143339708Y-123202995D01*
X139176588Y-127366114D01*
X134721033Y-127366114D01*
X134721028Y-127366113D01*
X134583201Y-127393529D01*
X134555785Y-127398983D01*
X134434076Y-127480306D01*
X134415699Y-127492585D01*
X133094671Y-128813613D01*
X133001069Y-128953699D01*
X132968200Y-129118942D01*
X132968200Y-130000000D01*
X133001069Y-130165243D01*
X133069756Y-130268041D01*
X133094671Y-130305329D01*
X134768200Y-131978857D01*
X134768200Y-137279969D01*
X134629706Y-137418222D01*
X134527017Y-137665525D01*
X134526783Y-137933301D01*
X134560913Y-138015901D01*
X133626559Y-138015901D01*
X133273046Y-137662388D01*
X133273217Y-137466699D01*
X133170959Y-137219217D01*
X132981778Y-137029706D01*
X132734475Y-136927017D01*
X132466699Y-136926783D01*
X132219217Y-137029041D01*
X132029706Y-137218222D01*
X131927017Y-137465525D01*
X131926783Y-137733301D01*
X114127000Y-137733301D01*
X114127000Y-129323628D01*
X116499587Y-129323628D01*
X116686479Y-129775942D01*
X117032238Y-130122305D01*
X117484225Y-130309986D01*
X117973628Y-130310413D01*
X118425942Y-130123521D01*
X118772305Y-129777762D01*
X118959986Y-129325775D01*
X118960413Y-128836372D01*
X118773521Y-128384058D01*
X118427762Y-128037695D01*
X117975775Y-127850014D01*
X117486372Y-127849587D01*
X117034058Y-128036479D01*
X116687695Y-128382238D01*
X116500014Y-128834225D01*
X116499587Y-129323628D01*
X114127000Y-129323628D01*
X114127000Y-124243628D01*
X116499587Y-124243628D01*
X116686479Y-124695942D01*
X117032238Y-125042305D01*
X117484225Y-125229986D01*
X117973628Y-125230413D01*
X118239782Y-125120440D01*
X118629472Y-125510130D01*
X118769558Y-125603732D01*
X118934801Y-125636601D01*
X119433691Y-125636601D01*
X119227695Y-125842238D01*
X119040014Y-126294225D01*
X119039587Y-126783628D01*
X119226479Y-127235942D01*
X119358506Y-127368200D01*
X119168858Y-127368200D01*
X118850384Y-127049726D01*
X118959986Y-126785775D01*
X118960413Y-126296372D01*
X118773521Y-125844058D01*
X118427762Y-125497695D01*
X117975775Y-125310014D01*
X117486372Y-125309587D01*
X117034058Y-125496479D01*
X116687695Y-125842238D01*
X116500014Y-126294225D01*
X116499587Y-126783628D01*
X116686479Y-127235942D01*
X117032238Y-127582305D01*
X117484225Y-127769986D01*
X117973628Y-127770413D01*
X118239782Y-127660440D01*
X118684671Y-128105329D01*
X118824757Y-128198931D01*
X118990000Y-128231800D01*
X119033331Y-128231800D01*
X119033331Y-129980000D01*
X119056356Y-130102365D01*
X119128673Y-130214749D01*
X119239017Y-130290144D01*
X119370000Y-130316669D01*
X121170000Y-130316669D01*
X121292365Y-130293644D01*
X121404749Y-130221327D01*
X121480144Y-130110983D01*
X121506669Y-129980000D01*
X121506669Y-128231800D01*
X124879969Y-128231800D01*
X125018222Y-128370294D01*
X125265525Y-128472983D01*
X125533301Y-128473217D01*
X125780783Y-128370959D01*
X125970294Y-128181778D01*
X126072983Y-127934475D01*
X126073217Y-127666699D01*
X125970959Y-127419217D01*
X125781778Y-127229706D01*
X125534475Y-127127017D01*
X125266699Y-127126783D01*
X125019217Y-127229041D01*
X124879815Y-127368200D01*
X121181639Y-127368200D01*
X121312305Y-127237762D01*
X121499986Y-126785775D01*
X121500413Y-126296372D01*
X121313521Y-125844058D01*
X121106426Y-125636601D01*
X122591926Y-125636601D01*
X122651501Y-125780783D01*
X122840682Y-125970294D01*
X123087985Y-126072983D01*
X123355761Y-126073217D01*
X123603243Y-125970959D01*
X123792754Y-125781778D01*
X123895443Y-125534475D01*
X123895677Y-125266699D01*
X123793419Y-125019217D01*
X123606328Y-124831800D01*
X123997840Y-124831800D01*
X124136093Y-124970294D01*
X124383396Y-125072983D01*
X124651172Y-125073217D01*
X124898654Y-124970959D01*
X125088165Y-124781778D01*
X125190854Y-124534475D01*
X125191088Y-124266699D01*
X125088830Y-124019217D01*
X124899649Y-123829706D01*
X124652346Y-123727017D01*
X124384570Y-123726783D01*
X124137088Y-123829041D01*
X123997686Y-123968200D01*
X121500228Y-123968200D01*
X121500413Y-123756372D01*
X121313521Y-123304058D01*
X120967762Y-122957695D01*
X120515775Y-122770014D01*
X120026372Y-122769587D01*
X119574058Y-122956479D01*
X119227695Y-123302238D01*
X119040014Y-123754225D01*
X119039587Y-124243628D01*
X119226479Y-124695942D01*
X119303404Y-124773001D01*
X119113659Y-124773001D01*
X118850384Y-124509726D01*
X118959986Y-124245775D01*
X118960413Y-123756372D01*
X118773521Y-123304058D01*
X118427762Y-122957695D01*
X117975775Y-122770014D01*
X117486372Y-122769587D01*
X117034058Y-122956479D01*
X116687695Y-123302238D01*
X116500014Y-123754225D01*
X116499587Y-124243628D01*
X114127000Y-124243628D01*
X114127000Y-121703628D01*
X116499587Y-121703628D01*
X116686479Y-122155942D01*
X117032238Y-122502305D01*
X117484225Y-122689986D01*
X117973628Y-122690413D01*
X118425942Y-122503521D01*
X118772305Y-122157762D01*
X118959986Y-121705775D01*
X118959987Y-121703628D01*
X119039587Y-121703628D01*
X119226479Y-122155942D01*
X119572238Y-122502305D01*
X120024225Y-122689986D01*
X120513628Y-122690413D01*
X120965942Y-122503521D01*
X121312305Y-122157762D01*
X121499986Y-121705775D01*
X121500413Y-121216372D01*
X121313521Y-120764058D01*
X120967762Y-120417695D01*
X120831716Y-120361204D01*
X121084148Y-120256643D01*
X121170554Y-120000159D01*
X120270000Y-119099605D01*
X119369446Y-120000159D01*
X119455852Y-120256643D01*
X119723713Y-120354643D01*
X119574058Y-120416479D01*
X119227695Y-120762238D01*
X119040014Y-121214225D01*
X119039587Y-121703628D01*
X118959987Y-121703628D01*
X118960413Y-121216372D01*
X118773521Y-120764058D01*
X118427762Y-120417695D01*
X118291716Y-120361204D01*
X118544148Y-120256643D01*
X118630554Y-120000159D01*
X117730000Y-119099605D01*
X116829446Y-120000159D01*
X116915852Y-120256643D01*
X117183713Y-120354643D01*
X117034058Y-120416479D01*
X116687695Y-120762238D01*
X116500014Y-121214225D01*
X116499587Y-121703628D01*
X114127000Y-121703628D01*
X114127000Y-118679336D01*
X116183542Y-118679336D01*
X116209161Y-119289460D01*
X116393357Y-119734148D01*
X116649841Y-119820554D01*
X117550395Y-118920000D01*
X117909605Y-118920000D01*
X118810159Y-119820554D01*
X119000000Y-119756599D01*
X119189841Y-119820554D01*
X120090395Y-118920000D01*
X120449605Y-118920000D01*
X121350159Y-119820554D01*
X121606643Y-119734148D01*
X121816458Y-119160664D01*
X121790839Y-118550540D01*
X121606643Y-118105852D01*
X121350159Y-118019446D01*
X120449605Y-118920000D01*
X120090395Y-118920000D01*
X119189841Y-118019446D01*
X119000000Y-118083401D01*
X118810159Y-118019446D01*
X117909605Y-118920000D01*
X117550395Y-118920000D01*
X116649841Y-118019446D01*
X116393357Y-118105852D01*
X116183542Y-118679336D01*
X114127000Y-118679336D01*
X114127000Y-117839841D01*
X116829446Y-117839841D01*
X117730000Y-118740395D01*
X118630554Y-117839841D01*
X119369446Y-117839841D01*
X120270000Y-118740395D01*
X121170554Y-117839841D01*
X121084148Y-117583357D01*
X120510664Y-117373542D01*
X119900540Y-117399161D01*
X119455852Y-117583357D01*
X119369446Y-117839841D01*
X118630554Y-117839841D01*
X118544148Y-117583357D01*
X117970664Y-117373542D01*
X117360540Y-117399161D01*
X116915852Y-117583357D01*
X116829446Y-117839841D01*
X114127000Y-117839841D01*
X114127000Y-110033301D01*
X122826783Y-110033301D01*
X122929041Y-110280783D01*
X123118222Y-110470294D01*
X123365525Y-110572983D01*
X123633301Y-110573217D01*
X123880783Y-110470959D01*
X124020185Y-110331800D01*
X127700000Y-110331800D01*
X127865243Y-110298931D01*
X128005329Y-110205329D01*
X128237612Y-109973046D01*
X128433301Y-109973217D01*
X128680783Y-109870959D01*
X128870294Y-109681778D01*
X128972983Y-109434475D01*
X128973217Y-109166699D01*
X128870959Y-108919217D01*
X128683868Y-108731800D01*
X130079969Y-108731800D01*
X130218222Y-108870294D01*
X130465525Y-108972983D01*
X130662497Y-108973155D01*
X131111099Y-109421757D01*
X131111099Y-113151984D01*
X131066699Y-113151945D01*
X130819217Y-113254203D01*
X130629706Y-113443384D01*
X130527017Y-113690687D01*
X130526783Y-113958463D01*
X130629041Y-114205945D01*
X130818222Y-114395456D01*
X131065525Y-114498145D01*
X131333301Y-114498379D01*
X131580783Y-114396121D01*
X131770294Y-114206940D01*
X131872983Y-113959637D01*
X131873166Y-113750270D01*
X131941830Y-113647506D01*
X131974699Y-113482263D01*
X131974699Y-111133301D01*
X137326783Y-111133301D01*
X137429041Y-111380783D01*
X137618222Y-111570294D01*
X137865525Y-111672983D01*
X138133301Y-111673217D01*
X138380783Y-111570959D01*
X138570294Y-111381778D01*
X138672983Y-111134475D01*
X138673155Y-110937503D01*
X139329370Y-110281288D01*
X139418222Y-110370294D01*
X139665525Y-110472983D01*
X139933301Y-110473217D01*
X140180783Y-110370959D01*
X140370294Y-110181778D01*
X140472983Y-109934475D01*
X140473217Y-109666699D01*
X140370959Y-109419217D01*
X140181778Y-109229706D01*
X139934475Y-109127017D01*
X139666699Y-109126783D01*
X139419217Y-109229041D01*
X139279815Y-109368200D01*
X139200000Y-109368200D01*
X139034757Y-109401069D01*
X138894671Y-109494671D01*
X138062388Y-110326954D01*
X137866699Y-110326783D01*
X137619217Y-110429041D01*
X137429706Y-110618222D01*
X137327017Y-110865525D01*
X137326783Y-111133301D01*
X131974699Y-111133301D01*
X131974699Y-109242899D01*
X131941830Y-109077656D01*
X131848228Y-108937570D01*
X131273046Y-108362388D01*
X131273217Y-108166699D01*
X131170959Y-107919217D01*
X130981778Y-107729706D01*
X130734475Y-107627017D01*
X130466699Y-107626783D01*
X130219217Y-107729041D01*
X130079815Y-107868200D01*
X126600000Y-107868200D01*
X126434757Y-107901069D01*
X126294671Y-107994671D01*
X126294669Y-107994674D01*
X126262389Y-108026954D01*
X126066699Y-108026783D01*
X125819217Y-108129041D01*
X125629706Y-108318222D01*
X125527017Y-108565525D01*
X125526783Y-108833301D01*
X125629041Y-109080783D01*
X125818222Y-109270294D01*
X126065525Y-109372983D01*
X126333301Y-109373217D01*
X126580783Y-109270959D01*
X126770294Y-109081778D01*
X126872983Y-108834475D01*
X126873073Y-108731800D01*
X127916453Y-108731800D01*
X127729706Y-108918222D01*
X127627017Y-109165525D01*
X127626845Y-109362497D01*
X127521142Y-109468200D01*
X124020031Y-109468200D01*
X123881778Y-109329706D01*
X123634475Y-109227017D01*
X123366699Y-109226783D01*
X123119217Y-109329041D01*
X122929706Y-109518222D01*
X122827017Y-109765525D01*
X122826783Y-110033301D01*
X114127000Y-110033301D01*
X114127000Y-105309153D01*
X114323592Y-105784942D01*
X115210389Y-106673289D01*
X116369639Y-107154651D01*
X117624855Y-107155746D01*
X118784942Y-106676408D01*
X119529347Y-105933301D01*
X120526783Y-105933301D01*
X120629041Y-106180783D01*
X120818222Y-106370294D01*
X121065525Y-106472983D01*
X121333301Y-106473217D01*
X121580783Y-106370959D01*
X121720185Y-106231800D01*
X125021142Y-106231800D01*
X125526954Y-106737611D01*
X125526783Y-106933301D01*
X125629041Y-107180783D01*
X125818222Y-107370294D01*
X126065525Y-107472983D01*
X126333301Y-107473217D01*
X126580783Y-107370959D01*
X126770294Y-107181778D01*
X126872983Y-106934475D01*
X126872984Y-106933301D01*
X140626783Y-106933301D01*
X140729041Y-107180783D01*
X140918222Y-107370294D01*
X141165525Y-107472983D01*
X141433301Y-107473217D01*
X141680783Y-107370959D01*
X141820185Y-107231800D01*
X143679969Y-107231800D01*
X143818222Y-107370294D01*
X144065525Y-107472983D01*
X144333301Y-107473217D01*
X144580783Y-107370959D01*
X144770294Y-107181778D01*
X144872983Y-106934475D01*
X144873217Y-106666699D01*
X144770959Y-106419217D01*
X144581778Y-106229706D01*
X144334475Y-106127017D01*
X144066699Y-106126783D01*
X143819217Y-106229041D01*
X143679815Y-106368200D01*
X141820031Y-106368200D01*
X141681778Y-106229706D01*
X141434475Y-106127017D01*
X141166699Y-106126783D01*
X140919217Y-106229041D01*
X140729706Y-106418222D01*
X140627017Y-106665525D01*
X140626783Y-106933301D01*
X126872984Y-106933301D01*
X126873217Y-106666699D01*
X126770959Y-106419217D01*
X126651908Y-106299958D01*
X126770294Y-106181778D01*
X126872983Y-105934475D01*
X126873217Y-105666699D01*
X126770959Y-105419217D01*
X126581778Y-105229706D01*
X126334475Y-105127017D01*
X126137503Y-105126845D01*
X126048228Y-105037570D01*
X126035463Y-105029041D01*
X125908142Y-104943968D01*
X125742899Y-104911099D01*
X122271025Y-104911099D01*
X122271064Y-104866699D01*
X122168806Y-104619217D01*
X121979625Y-104429706D01*
X121732322Y-104327017D01*
X121464546Y-104326783D01*
X121217064Y-104429041D01*
X121027553Y-104618222D01*
X120924864Y-104865525D01*
X120924630Y-105133301D01*
X120943048Y-105177875D01*
X120819217Y-105229041D01*
X120629706Y-105418222D01*
X120527017Y-105665525D01*
X120526783Y-105933301D01*
X119529347Y-105933301D01*
X119673289Y-105789611D01*
X120154651Y-104630361D01*
X120154985Y-104247403D01*
X154244478Y-104247403D01*
X154526321Y-104929514D01*
X155047741Y-105451845D01*
X155729359Y-105734878D01*
X156467403Y-105735522D01*
X157149514Y-105453679D01*
X157169927Y-105433301D01*
X159826783Y-105433301D01*
X159929041Y-105680783D01*
X160068200Y-105820185D01*
X160068200Y-107700000D01*
X160101069Y-107865243D01*
X160187550Y-107994671D01*
X160194671Y-108005329D01*
X161626954Y-109437611D01*
X161626783Y-109633301D01*
X161729041Y-109880783D01*
X161918222Y-110070294D01*
X162165525Y-110172983D01*
X162433301Y-110173217D01*
X162680783Y-110070959D01*
X162870294Y-109881778D01*
X162887741Y-109839760D01*
X162918222Y-109870294D01*
X163165525Y-109972983D01*
X163433301Y-109973217D01*
X163680783Y-109870959D01*
X163870294Y-109681778D01*
X163972983Y-109434475D01*
X163973217Y-109166699D01*
X163870959Y-108919217D01*
X163681778Y-108729706D01*
X163434475Y-108627017D01*
X163237503Y-108626845D01*
X161831800Y-107221142D01*
X161831800Y-105733301D01*
X175926783Y-105733301D01*
X176029041Y-105980783D01*
X176152300Y-106104257D01*
X176152300Y-110704637D01*
X176127017Y-110765525D01*
X176126783Y-111033301D01*
X176229041Y-111280783D01*
X176418222Y-111470294D01*
X176665525Y-111572983D01*
X176933301Y-111573217D01*
X177180783Y-111470959D01*
X177370294Y-111281778D01*
X177406693Y-111194118D01*
X181019630Y-111194118D01*
X181168543Y-111554513D01*
X181444036Y-111830488D01*
X181804171Y-111980029D01*
X182194118Y-111980370D01*
X182554513Y-111831457D01*
X182830488Y-111555964D01*
X182980029Y-111195829D01*
X182980370Y-110805882D01*
X182831457Y-110445487D01*
X182555964Y-110169512D01*
X182195829Y-110019971D01*
X181805882Y-110019630D01*
X181445487Y-110168543D01*
X181169512Y-110444036D01*
X181019971Y-110804171D01*
X181019630Y-111194118D01*
X177406693Y-111194118D01*
X177472983Y-111034475D01*
X177473217Y-110766699D01*
X177447700Y-110704943D01*
X177447700Y-105800000D01*
X177398397Y-105552136D01*
X177257993Y-105342007D01*
X177196136Y-105280150D01*
X177170959Y-105219217D01*
X176981778Y-105029706D01*
X176734475Y-104927017D01*
X176466699Y-104926783D01*
X176219217Y-105029041D01*
X176029706Y-105218222D01*
X175927017Y-105465525D01*
X175926783Y-105733301D01*
X161831800Y-105733301D01*
X161831800Y-104900005D01*
X161831801Y-104900000D01*
X161822878Y-104855142D01*
X161872983Y-104734475D01*
X161873217Y-104466699D01*
X161770959Y-104219217D01*
X161581778Y-104029706D01*
X161334475Y-103927017D01*
X161066699Y-103926783D01*
X160819217Y-104029041D01*
X160629706Y-104218222D01*
X160527017Y-104465525D01*
X160526876Y-104626923D01*
X160366699Y-104626783D01*
X160119217Y-104729041D01*
X159929706Y-104918222D01*
X159827017Y-105165525D01*
X159826783Y-105433301D01*
X157169927Y-105433301D01*
X157671845Y-104932259D01*
X157954878Y-104250641D01*
X157955522Y-103512597D01*
X157673679Y-102830486D01*
X157218988Y-102375000D01*
X170786536Y-102375000D01*
X170786536Y-104025000D01*
X170813103Y-104166190D01*
X170896546Y-104295865D01*
X171023866Y-104382859D01*
X171175000Y-104413464D01*
X172825000Y-104413464D01*
X172966190Y-104386897D01*
X173095865Y-104303454D01*
X173182859Y-104176134D01*
X173213464Y-104025000D01*
X173213464Y-103428775D01*
X173384600Y-103428775D01*
X173560098Y-103853514D01*
X173884777Y-104178760D01*
X174309208Y-104354999D01*
X174768775Y-104355400D01*
X175082303Y-104225853D01*
X176233752Y-104225853D01*
X176310956Y-104474563D01*
X176857250Y-104671843D01*
X177437456Y-104645048D01*
X177849044Y-104474563D01*
X177926248Y-104225853D01*
X177080000Y-103379605D01*
X176233752Y-104225853D01*
X175082303Y-104225853D01*
X175193514Y-104179902D01*
X175518760Y-103855223D01*
X175638673Y-103566440D01*
X175805437Y-103969044D01*
X176054147Y-104046248D01*
X176900395Y-103200000D01*
X177259605Y-103200000D01*
X178105853Y-104046248D01*
X178354563Y-103969044D01*
X178551843Y-103422750D01*
X178525048Y-102842544D01*
X178354563Y-102430956D01*
X178105853Y-102353752D01*
X177259605Y-103200000D01*
X176900395Y-103200000D01*
X176054147Y-102353752D01*
X175805437Y-102430956D01*
X175650006Y-102861364D01*
X175519902Y-102546486D01*
X175195223Y-102221240D01*
X175081811Y-102174147D01*
X176233752Y-102174147D01*
X177080000Y-103020395D01*
X177926248Y-102174147D01*
X177849044Y-101925437D01*
X177302750Y-101728157D01*
X176722544Y-101754952D01*
X176310956Y-101925437D01*
X176233752Y-102174147D01*
X175081811Y-102174147D01*
X174770792Y-102045001D01*
X174311225Y-102044600D01*
X173886486Y-102220098D01*
X173561240Y-102544777D01*
X173385001Y-102969208D01*
X173384600Y-103428775D01*
X173213464Y-103428775D01*
X173213464Y-102375000D01*
X173186897Y-102233810D01*
X173103454Y-102104135D01*
X172976134Y-102017141D01*
X172825000Y-101986536D01*
X171175000Y-101986536D01*
X171033810Y-102013103D01*
X170904135Y-102096546D01*
X170817141Y-102223866D01*
X170786536Y-102375000D01*
X157218988Y-102375000D01*
X157152259Y-102308155D01*
X156470641Y-102025122D01*
X155732597Y-102024478D01*
X155050486Y-102306321D01*
X154528155Y-102827741D01*
X154245122Y-103509359D01*
X154244478Y-104247403D01*
X120154985Y-104247403D01*
X120155746Y-103375145D01*
X119676408Y-102215058D01*
X118789611Y-101326711D01*
X118308653Y-101127000D01*
X182690847Y-101127000D01*
X182215058Y-101323592D01*
X182215058Y-101323592D01*
G37*
X182215058Y-101323592D02*
X181326711Y-102210389D01*
X180845349Y-103369639D01*
X180844254Y-104624855D01*
X181323592Y-105784942D01*
X182210389Y-106673289D01*
X183369639Y-107154651D01*
X184624855Y-107155746D01*
X185784942Y-106676408D01*
X186673289Y-105789611D01*
X186873000Y-105308653D01*
X186873000Y-144690847D01*
X186676408Y-144215058D01*
X185789611Y-143326711D01*
X184630361Y-142845349D01*
X183375145Y-142844254D01*
X182215058Y-143323592D01*
X181326711Y-144210389D01*
X180845349Y-145369639D01*
X180844254Y-146624855D01*
X181323592Y-147784942D01*
X182210389Y-148673289D01*
X182691347Y-148873000D01*
X166378913Y-148873000D01*
X166470294Y-148781778D01*
X166572983Y-148534475D01*
X166573217Y-148266699D01*
X166470959Y-148019217D01*
X166281778Y-147829706D01*
X166034475Y-147727017D01*
X165766699Y-147726783D01*
X165704943Y-147752300D01*
X165316141Y-147752300D01*
X165321669Y-147725000D01*
X165321669Y-146075000D01*
X165298644Y-145952635D01*
X165226327Y-145840251D01*
X165115983Y-145764856D01*
X164985000Y-145738331D01*
X163335000Y-145738331D01*
X163212635Y-145761356D01*
X163100251Y-145833673D01*
X163024856Y-145944017D01*
X162998331Y-146075000D01*
X162998331Y-147725000D01*
X163003468Y-147752300D01*
X162401339Y-147752300D01*
X162598760Y-147555223D01*
X162774999Y-147130792D01*
X162775400Y-146671225D01*
X162599902Y-146246486D01*
X162275223Y-145921240D01*
X161850792Y-145745001D01*
X161391225Y-145744600D01*
X160966486Y-145920098D01*
X160641240Y-146244777D01*
X160521327Y-146533560D01*
X160354563Y-146130956D01*
X160105853Y-146053752D01*
X159259605Y-146900000D01*
X159273748Y-146914143D01*
X159094143Y-147093748D01*
X159080000Y-147079605D01*
X159065858Y-147093748D01*
X158886253Y-146914143D01*
X158900395Y-146900000D01*
X158054147Y-146053752D01*
X157805437Y-146130956D01*
X157650006Y-146561364D01*
X157519902Y-146246486D01*
X157195223Y-145921240D01*
X157081811Y-145874147D01*
X158233752Y-145874147D01*
X159080000Y-146720395D01*
X159926248Y-145874147D01*
X159849044Y-145625437D01*
X159302750Y-145428157D01*
X158722544Y-145454952D01*
X158310956Y-145625437D01*
X158233752Y-145874147D01*
X157081811Y-145874147D01*
X156770792Y-145745001D01*
X156311225Y-145744600D01*
X155886486Y-145920098D01*
X155561240Y-146244777D01*
X155385001Y-146669208D01*
X155384600Y-147128775D01*
X155560098Y-147553514D01*
X155758537Y-147752300D01*
X154781339Y-147752300D01*
X154978760Y-147555223D01*
X155154999Y-147130792D01*
X155155400Y-146671225D01*
X154979902Y-146246486D01*
X154655223Y-145921240D01*
X154230792Y-145745001D01*
X153771225Y-145744600D01*
X153346486Y-145920098D01*
X153021240Y-146244777D01*
X152845001Y-146669208D01*
X152844600Y-147128775D01*
X153020098Y-147553514D01*
X153218537Y-147752300D01*
X152241339Y-147752300D01*
X152438760Y-147555223D01*
X152614999Y-147130792D01*
X152615400Y-146671225D01*
X152439902Y-146246486D01*
X152115223Y-145921240D01*
X151690792Y-145745001D01*
X151231225Y-145744600D01*
X150806486Y-145920098D01*
X150790921Y-145935636D01*
X150874450Y-145734475D01*
X150874684Y-145466699D01*
X150772426Y-145219217D01*
X150707585Y-145154263D01*
X151592593Y-145154263D01*
X151730846Y-145292757D01*
X151978149Y-145395446D01*
X152245925Y-145395680D01*
X152493407Y-145293422D01*
X152682918Y-145104241D01*
X152785607Y-144856938D01*
X152785841Y-144589162D01*
X152683583Y-144341680D01*
X152625324Y-144283320D01*
X152716024Y-144192778D01*
X152818713Y-143945475D01*
X152818947Y-143677699D01*
X152716689Y-143430217D01*
X152527508Y-143240706D01*
X152280205Y-143138017D01*
X152012429Y-143137783D01*
X151764947Y-143240041D01*
X151625545Y-143379200D01*
X149989000Y-143379200D01*
X149823757Y-143412069D01*
X149683671Y-143505671D01*
X148262388Y-144926954D01*
X148066699Y-144926783D01*
X147819217Y-145029041D01*
X147629706Y-145218222D01*
X147527017Y-145465525D01*
X147526783Y-145733301D01*
X147629041Y-145980783D01*
X147692594Y-146044447D01*
X147629706Y-146107225D01*
X147527017Y-146354528D01*
X147526783Y-146622304D01*
X147629041Y-146869786D01*
X147818222Y-147059297D01*
X148065525Y-147161986D01*
X148333301Y-147162220D01*
X148580783Y-147059962D01*
X148770294Y-146870781D01*
X148872983Y-146623478D01*
X148873021Y-146580506D01*
X149426768Y-146026759D01*
X149426768Y-147752300D01*
X143580000Y-147752300D01*
X143580000Y-147285750D01*
X143421250Y-147127000D01*
X142247000Y-147127000D01*
X142247000Y-147147000D01*
X141993000Y-147147000D01*
X141993000Y-147127000D01*
X141973000Y-147127000D01*
X141973000Y-146873000D01*
X141993000Y-146873000D01*
X141993000Y-145698750D01*
X142247000Y-145698750D01*
X142247000Y-146873000D01*
X143421250Y-146873000D01*
X143580000Y-146714250D01*
X143580000Y-146048690D01*
X143483327Y-145815301D01*
X143304698Y-145636673D01*
X143071309Y-145540000D01*
X142405750Y-145540000D01*
X142247000Y-145698750D01*
X141993000Y-145698750D01*
X141834250Y-145540000D01*
X141168691Y-145540000D01*
X140935302Y-145636673D01*
X140756673Y-145815301D01*
X140660000Y-146048690D01*
X140660000Y-146588742D01*
X140559902Y-146346486D01*
X140235223Y-146021240D01*
X139810792Y-145845001D01*
X139351225Y-145844600D01*
X138926486Y-146020098D01*
X138601240Y-146344777D01*
X138425001Y-146769208D01*
X138424600Y-147228775D01*
X138600098Y-147653514D01*
X138698712Y-147752300D01*
X137921513Y-147752300D01*
X138018760Y-147655223D01*
X138194999Y-147230792D01*
X138195400Y-146771225D01*
X138019902Y-146346486D01*
X137695223Y-146021240D01*
X137270792Y-145845001D01*
X136811225Y-145844600D01*
X136386486Y-146020098D01*
X136061240Y-146344777D01*
X135885001Y-146769208D01*
X135884600Y-147228775D01*
X136060098Y-147653514D01*
X136158712Y-147752300D01*
X135381513Y-147752300D01*
X135478760Y-147655223D01*
X135654999Y-147230792D01*
X135655400Y-146771225D01*
X135479902Y-146346486D01*
X135155223Y-146021240D01*
X134730792Y-145845001D01*
X134271225Y-145844600D01*
X133846486Y-146020098D01*
X133521240Y-146344777D01*
X133345001Y-146769208D01*
X133344600Y-147228775D01*
X133520098Y-147653514D01*
X133618712Y-147752300D01*
X132841513Y-147752300D01*
X132938760Y-147655223D01*
X133114999Y-147230792D01*
X133115400Y-146771225D01*
X132939902Y-146346486D01*
X132615223Y-146021240D01*
X132190792Y-145845001D01*
X131731225Y-145844600D01*
X131306486Y-146020098D01*
X130981240Y-146344777D01*
X130805001Y-146769208D01*
X130804600Y-147228775D01*
X130980098Y-147653514D01*
X131078712Y-147752300D01*
X130301513Y-147752300D01*
X130398760Y-147655223D01*
X130574999Y-147230792D01*
X130575400Y-146771225D01*
X130399902Y-146346486D01*
X130075223Y-146021240D01*
X129650792Y-145845001D01*
X129191225Y-145844600D01*
X128766486Y-146020098D01*
X128441240Y-146344777D01*
X128265001Y-146769208D01*
X128264600Y-147228775D01*
X128440098Y-147653514D01*
X128538712Y-147752300D01*
X127195363Y-147752300D01*
X127134475Y-147727017D01*
X126866699Y-147726783D01*
X126619217Y-147829041D01*
X126429706Y-148018222D01*
X126327017Y-148265525D01*
X126326783Y-148533301D01*
X126429041Y-148780783D01*
X126521097Y-148873000D01*
X118309153Y-148873000D01*
X118784942Y-148676408D01*
X119673289Y-147789611D01*
X120154651Y-146630361D01*
X120155746Y-145375145D01*
X119676408Y-144215058D01*
X118789611Y-143326711D01*
X117630361Y-142845349D01*
X116375145Y-142844254D01*
X115215058Y-143323592D01*
X114326711Y-144210389D01*
X114127000Y-144691347D01*
X114127000Y-140533301D01*
X147801030Y-140533301D01*
X147903288Y-140780783D01*
X148092469Y-140970294D01*
X148339772Y-141072983D01*
X148536744Y-141073155D01*
X148768918Y-141305329D01*
X148909004Y-141398931D01*
X149074247Y-141431800D01*
X150679969Y-141431800D01*
X150818222Y-141570294D01*
X151065525Y-141672983D01*
X151333301Y-141673217D01*
X151580783Y-141570959D01*
X151770294Y-141381778D01*
X151872983Y-141134475D01*
X151873217Y-140866699D01*
X151770959Y-140619217D01*
X151581778Y-140429706D01*
X151334475Y-140327017D01*
X151066699Y-140326783D01*
X150819217Y-140429041D01*
X150679815Y-140568200D01*
X149253105Y-140568200D01*
X149147293Y-140462388D01*
X149147464Y-140266699D01*
X149045206Y-140019217D01*
X148856025Y-139829706D01*
X148608722Y-139727017D01*
X148340946Y-139726783D01*
X148093464Y-139829041D01*
X147903953Y-140018222D01*
X147801264Y-140265525D01*
X147801030Y-140533301D01*
X114127000Y-140533301D01*
X114127000Y-137733301D01*
X131926783Y-137733301D01*
X132029041Y-137980783D01*
X132218222Y-138170294D01*
X132465525Y-138272983D01*
X132662497Y-138273155D01*
X133142372Y-138753030D01*
X133282458Y-138846632D01*
X133447701Y-138879501D01*
X140820963Y-138879501D01*
X140986206Y-138846632D01*
X141126292Y-138753030D01*
X141537611Y-138341710D01*
X141733301Y-138341881D01*
X141980783Y-138239623D01*
X142170294Y-138050442D01*
X142272983Y-137803139D01*
X142273217Y-137535363D01*
X142170959Y-137287881D01*
X142016649Y-137133301D01*
X148094155Y-137133301D01*
X148196413Y-137380783D01*
X148385594Y-137570294D01*
X148632897Y-137672983D01*
X148900673Y-137673217D01*
X148914206Y-137667625D01*
X149166942Y-137920362D01*
X149051891Y-137920261D01*
X148804409Y-138022519D01*
X148614898Y-138211700D01*
X148512209Y-138459003D01*
X148511975Y-138726779D01*
X148614233Y-138974261D01*
X148803414Y-139163772D01*
X149050717Y-139266461D01*
X149255982Y-139266640D01*
X149737618Y-139748276D01*
X149737447Y-139943965D01*
X149839705Y-140191447D01*
X150028886Y-140380958D01*
X150276189Y-140483647D01*
X150543965Y-140483881D01*
X150791447Y-140381623D01*
X150980958Y-140192442D01*
X151083647Y-139945139D01*
X151083726Y-139855184D01*
X151172584Y-139855262D01*
X151420066Y-139753004D01*
X151609577Y-139563823D01*
X151712266Y-139316520D01*
X151712500Y-139048744D01*
X151610242Y-138801262D01*
X151421061Y-138611751D01*
X151173758Y-138509062D01*
X150976785Y-138508890D01*
X149440496Y-136972601D01*
X149440589Y-136866699D01*
X149338331Y-136619217D01*
X149149150Y-136429706D01*
X148901847Y-136327017D01*
X148634071Y-136326783D01*
X148386589Y-136429041D01*
X148197078Y-136618222D01*
X148094389Y-136865525D01*
X148094155Y-137133301D01*
X142016649Y-137133301D01*
X141981778Y-137098370D01*
X141821459Y-137031800D01*
X143200000Y-137031800D01*
X143365243Y-136998931D01*
X143505329Y-136905329D01*
X144337612Y-136073046D01*
X144533301Y-136073217D01*
X144780783Y-135970959D01*
X144970294Y-135781778D01*
X145072983Y-135534475D01*
X145073217Y-135266699D01*
X145059418Y-135233301D01*
X154226783Y-135233301D01*
X154329041Y-135480783D01*
X154518222Y-135670294D01*
X154765525Y-135772983D01*
X154962497Y-135773155D01*
X158281620Y-139092278D01*
X157651169Y-139092278D01*
X157646143Y-139087243D01*
X157398840Y-138984554D01*
X157131064Y-138984320D01*
X156883582Y-139086578D01*
X156694071Y-139275759D01*
X156591382Y-139523062D01*
X156591148Y-139790838D01*
X156693406Y-140038320D01*
X156882587Y-140227831D01*
X157129890Y-140330520D01*
X157397666Y-140330754D01*
X157633519Y-140233301D01*
X174826783Y-140233301D01*
X174929041Y-140480783D01*
X174952300Y-140504083D01*
X174952300Y-145604637D01*
X174927017Y-145665525D01*
X174926783Y-145933301D01*
X175029041Y-146180783D01*
X175218222Y-146370294D01*
X175465525Y-146472983D01*
X175733301Y-146473217D01*
X175980783Y-146370959D01*
X176170294Y-146181778D01*
X176272983Y-145934475D01*
X176273217Y-145666699D01*
X176247700Y-145604943D01*
X176247700Y-140200000D01*
X176203125Y-139975906D01*
X176198397Y-139952135D01*
X176116645Y-139829786D01*
X176070959Y-139719217D01*
X175881778Y-139529706D01*
X175634475Y-139427017D01*
X175366699Y-139426783D01*
X175119217Y-139529041D01*
X174929706Y-139718222D01*
X174827017Y-139965525D01*
X174826783Y-140233301D01*
X157633519Y-140233301D01*
X157645148Y-140228496D01*
X157834659Y-140039315D01*
X157869305Y-139955878D01*
X161116260Y-139955878D01*
X161254513Y-140094372D01*
X161501816Y-140197061D01*
X161769592Y-140197295D01*
X162017074Y-140095037D01*
X162206585Y-139905856D01*
X162309274Y-139658553D01*
X162309508Y-139390777D01*
X162207250Y-139143295D01*
X162018069Y-138953784D01*
X161770766Y-138851095D01*
X161502990Y-138850861D01*
X161255508Y-138953119D01*
X161116106Y-139092278D01*
X159502936Y-139092278D01*
X157614837Y-137204179D01*
X180968822Y-137204179D01*
X181125451Y-137583251D01*
X181415223Y-137873529D01*
X181720081Y-138000117D01*
X181416749Y-138125451D01*
X181126471Y-138415223D01*
X180969180Y-138794022D01*
X180968822Y-139204179D01*
X181125451Y-139583251D01*
X181415223Y-139873529D01*
X181794022Y-140030820D01*
X182204179Y-140031178D01*
X182583251Y-139874549D01*
X182873529Y-139584777D01*
X183030820Y-139205978D01*
X183031178Y-138795821D01*
X182874549Y-138416749D01*
X182584777Y-138126471D01*
X182279919Y-137999883D01*
X182583251Y-137874549D01*
X182873529Y-137584777D01*
X183030820Y-137205978D01*
X183031178Y-136795821D01*
X182874549Y-136416749D01*
X182584777Y-136126471D01*
X182213570Y-135972333D01*
X182554513Y-135831457D01*
X182830488Y-135555964D01*
X182980029Y-135195829D01*
X182980370Y-134805882D01*
X182831457Y-134445487D01*
X182559309Y-134172863D01*
X182663729Y-134129611D01*
X182719410Y-133899016D01*
X182000000Y-133179605D01*
X181280590Y-133899016D01*
X181336271Y-134129611D01*
X181446704Y-134168040D01*
X181445487Y-134168543D01*
X181169512Y-134444036D01*
X181019971Y-134804171D01*
X181019630Y-135194118D01*
X181168543Y-135554513D01*
X181444036Y-135830488D01*
X181786478Y-135972682D01*
X181416749Y-136125451D01*
X181126471Y-136415223D01*
X180969180Y-136794022D01*
X180968822Y-137204179D01*
X157614837Y-137204179D01*
X155573046Y-135162388D01*
X155573217Y-134966699D01*
X155470959Y-134719217D01*
X155281778Y-134529706D01*
X155034475Y-134427017D01*
X154766699Y-134426783D01*
X154519217Y-134529041D01*
X154329706Y-134718222D01*
X154227017Y-134965525D01*
X154226783Y-135233301D01*
X145059418Y-135233301D01*
X144970959Y-135019217D01*
X144781778Y-134829706D01*
X144534475Y-134727017D01*
X144347530Y-134726854D01*
X144248647Y-134487540D01*
X144109488Y-134348138D01*
X144109488Y-132819078D01*
X180702378Y-132819078D01*
X180731917Y-133329428D01*
X180870389Y-133663729D01*
X181100984Y-133719410D01*
X181820395Y-133000000D01*
X182179605Y-133000000D01*
X182899016Y-133719410D01*
X183129611Y-133663729D01*
X183297622Y-133180922D01*
X183268083Y-132670572D01*
X183129611Y-132336271D01*
X182899016Y-132280590D01*
X182179605Y-133000000D01*
X181820395Y-133000000D01*
X181100984Y-132280590D01*
X180870389Y-132336271D01*
X180702378Y-132819078D01*
X144109488Y-132819078D01*
X144109488Y-130234518D01*
X144873965Y-129470041D01*
X144873828Y-129626643D01*
X144976086Y-129874125D01*
X145115245Y-130013527D01*
X145115245Y-131189363D01*
X145019217Y-131229041D01*
X144829706Y-131418222D01*
X144727017Y-131665525D01*
X144726783Y-131933301D01*
X144829041Y-132180783D01*
X145018222Y-132370294D01*
X145265525Y-132472983D01*
X145533301Y-132473217D01*
X145780783Y-132370959D01*
X145970294Y-132181778D01*
X146072983Y-131934475D01*
X146073217Y-131666699D01*
X145978845Y-131438302D01*
X145978845Y-130268041D01*
X154063759Y-130268041D01*
X154229002Y-130235172D01*
X154369088Y-130141570D01*
X154369089Y-130141569D01*
X155737611Y-128773046D01*
X155933301Y-128773217D01*
X156180783Y-128670959D01*
X156370294Y-128481778D01*
X156472983Y-128234475D01*
X156473217Y-127966699D01*
X156370959Y-127719217D01*
X156181778Y-127529706D01*
X156139760Y-127512259D01*
X156170294Y-127481778D01*
X156272983Y-127234475D01*
X156273217Y-126966699D01*
X156170959Y-126719217D01*
X155981778Y-126529706D01*
X155734475Y-126427017D01*
X155466699Y-126426783D01*
X155219217Y-126529041D01*
X155029706Y-126718222D01*
X154927017Y-126965525D01*
X154926845Y-127162498D01*
X153907424Y-128181918D01*
X146892628Y-128181918D01*
X146754375Y-128043424D01*
X146507072Y-127940735D01*
X146273719Y-127940531D01*
X146285911Y-127879237D01*
X146285911Y-123586205D01*
X147487176Y-122384939D01*
X147487080Y-122495214D01*
X147589338Y-122742696D01*
X147728497Y-122882098D01*
X147728497Y-125360297D01*
X147761366Y-125525540D01*
X147787894Y-125565242D01*
X147854968Y-125665626D01*
X149326954Y-127137612D01*
X149326783Y-127333301D01*
X149429041Y-127580783D01*
X149618222Y-127770294D01*
X149865525Y-127872983D01*
X150133301Y-127873217D01*
X150380783Y-127770959D01*
X150570294Y-127581778D01*
X150672983Y-127334475D01*
X150673217Y-127066699D01*
X150570959Y-126819217D01*
X150381778Y-126629706D01*
X150134475Y-126527017D01*
X149937503Y-126526845D01*
X149839850Y-126429192D01*
X149980783Y-126370959D01*
X150170294Y-126181778D01*
X150272983Y-125934475D01*
X150273217Y-125666699D01*
X150255162Y-125623002D01*
X150266674Y-125565127D01*
X150266673Y-125565122D01*
X150266673Y-124764201D01*
X156374519Y-124764201D01*
X156476777Y-125011683D01*
X156665958Y-125201194D01*
X156913261Y-125303883D01*
X157181037Y-125304117D01*
X157428519Y-125201859D01*
X157618030Y-125012678D01*
X157720719Y-124765375D01*
X157720782Y-124692903D01*
X158109430Y-124692903D01*
X158211688Y-124940385D01*
X158400869Y-125129896D01*
X158648172Y-125232585D01*
X158845144Y-125232757D01*
X160980201Y-127367814D01*
X160929706Y-127418222D01*
X160827017Y-127665525D01*
X160826783Y-127933301D01*
X160929041Y-128180783D01*
X161118222Y-128370294D01*
X161365525Y-128472983D01*
X161633301Y-128473217D01*
X161880783Y-128370959D01*
X162070294Y-128181778D01*
X162172983Y-127934475D01*
X162173070Y-127834593D01*
X162265525Y-127872983D01*
X162533301Y-127873217D01*
X162780783Y-127770959D01*
X162970294Y-127581778D01*
X163072983Y-127334475D01*
X163073217Y-127066699D01*
X162970959Y-126819217D01*
X162831800Y-126679815D01*
X162831800Y-126679703D01*
X162798931Y-126514460D01*
X162705329Y-126374374D01*
X160216202Y-123885247D01*
X160216373Y-123689558D01*
X160114115Y-123442076D01*
X159924934Y-123252565D01*
X159677631Y-123149876D01*
X159409855Y-123149642D01*
X159162373Y-123251900D01*
X158972862Y-123441081D01*
X158870173Y-123688384D01*
X158870000Y-123886578D01*
X158649346Y-123886385D01*
X158401864Y-123988643D01*
X158212353Y-124177824D01*
X158109664Y-124425127D01*
X158109430Y-124692903D01*
X157720782Y-124692903D01*
X157720953Y-124497599D01*
X157685193Y-124411055D01*
X159537611Y-122558636D01*
X159733301Y-122558807D01*
X159980783Y-122456549D01*
X160170294Y-122267368D01*
X160272983Y-122020065D01*
X160273217Y-121752289D01*
X160170959Y-121504807D01*
X159999752Y-121333301D01*
X175126783Y-121333301D01*
X175152300Y-121395057D01*
X175152300Y-131404637D01*
X175127017Y-131465525D01*
X175126783Y-131733301D01*
X175229041Y-131980783D01*
X175418222Y-132170294D01*
X175665525Y-132272983D01*
X175933301Y-132273217D01*
X176180783Y-132170959D01*
X176370294Y-131981778D01*
X176472983Y-131734475D01*
X176473217Y-131466699D01*
X176447700Y-131404943D01*
X176447700Y-131194118D01*
X181019630Y-131194118D01*
X181168543Y-131554513D01*
X181440691Y-131827137D01*
X181336271Y-131870389D01*
X181280590Y-132100984D01*
X182000000Y-132820395D01*
X182719410Y-132100984D01*
X182663729Y-131870389D01*
X182553296Y-131831960D01*
X182554513Y-131831457D01*
X182830488Y-131555964D01*
X182980029Y-131195829D01*
X182980370Y-130805882D01*
X182831457Y-130445487D01*
X182555964Y-130169512D01*
X182195829Y-130019971D01*
X181805882Y-130019630D01*
X181445487Y-130168543D01*
X181169512Y-130444036D01*
X181019971Y-130804171D01*
X181019630Y-131194118D01*
X176447700Y-131194118D01*
X176447700Y-129194118D01*
X181019630Y-129194118D01*
X181168543Y-129554513D01*
X181444036Y-129830488D01*
X181804171Y-129980029D01*
X182194118Y-129980370D01*
X182554513Y-129831457D01*
X182830488Y-129555964D01*
X182980029Y-129195829D01*
X182980370Y-128805882D01*
X182831457Y-128445487D01*
X182555964Y-128169512D01*
X182195829Y-128019971D01*
X181805882Y-128019630D01*
X181445487Y-128168543D01*
X181169512Y-128444036D01*
X181019971Y-128804171D01*
X181019630Y-129194118D01*
X176447700Y-129194118D01*
X176447700Y-121395363D01*
X176472983Y-121334475D01*
X176473217Y-121066699D01*
X176370959Y-120819217D01*
X176181778Y-120629706D01*
X175934475Y-120527017D01*
X175666699Y-120526783D01*
X175419217Y-120629041D01*
X175229706Y-120818222D01*
X175127017Y-121065525D01*
X175126783Y-121333301D01*
X159999752Y-121333301D01*
X159981778Y-121315296D01*
X159734475Y-121212607D01*
X159466699Y-121212373D01*
X159219217Y-121314631D01*
X159029706Y-121503812D01*
X158927017Y-121751115D01*
X158926845Y-121948088D01*
X156917247Y-123957685D01*
X156914435Y-123957683D01*
X156666953Y-124059941D01*
X156477442Y-124249122D01*
X156374753Y-124496425D01*
X156374519Y-124764201D01*
X150266673Y-124764201D01*
X150266673Y-123489137D01*
X150405167Y-123350884D01*
X150507856Y-123103581D01*
X150508028Y-122906609D01*
X150905547Y-122509090D01*
X150931025Y-122470959D01*
X150999149Y-122369004D01*
X151010404Y-122312421D01*
X151032019Y-122203761D01*
X151032018Y-122203756D01*
X151032018Y-121263953D01*
X150999149Y-121098710D01*
X150905547Y-120958624D01*
X150905544Y-120958622D01*
X149701988Y-119755065D01*
X149701988Y-117054032D01*
X149718222Y-117070294D01*
X149965525Y-117172983D01*
X150162497Y-117173155D01*
X154826954Y-121837612D01*
X154826783Y-122033301D01*
X154929041Y-122280783D01*
X155118222Y-122470294D01*
X155365525Y-122572983D01*
X155633301Y-122573217D01*
X155880783Y-122470959D01*
X156070294Y-122281778D01*
X156172983Y-122034475D01*
X156173217Y-121766699D01*
X156070959Y-121519217D01*
X156001821Y-121449958D01*
X156170294Y-121281778D01*
X156272983Y-121034475D01*
X156273217Y-120766699D01*
X156170959Y-120519217D01*
X155981778Y-120329706D01*
X155734475Y-120227017D01*
X155537503Y-120226845D01*
X154514837Y-119204179D01*
X180968822Y-119204179D01*
X181125451Y-119583251D01*
X181415223Y-119873529D01*
X181720081Y-120000117D01*
X181416749Y-120125451D01*
X181126471Y-120415223D01*
X180969180Y-120794022D01*
X180968822Y-121204179D01*
X181125451Y-121583251D01*
X181415223Y-121873529D01*
X181794022Y-122030820D01*
X182204179Y-122031178D01*
X182583251Y-121874549D01*
X182873529Y-121584777D01*
X183030820Y-121205978D01*
X183031178Y-120795821D01*
X182874549Y-120416749D01*
X182584777Y-120126471D01*
X182279919Y-119999883D01*
X182583251Y-119874549D01*
X182873529Y-119584777D01*
X183030820Y-119205978D01*
X183031178Y-118795821D01*
X182874549Y-118416749D01*
X182584777Y-118126471D01*
X182213570Y-117972333D01*
X182554513Y-117831457D01*
X182830488Y-117555964D01*
X182980029Y-117195829D01*
X182980370Y-116805882D01*
X182831457Y-116445487D01*
X182559309Y-116172863D01*
X182663729Y-116129611D01*
X182719410Y-115899016D01*
X182000000Y-115179605D01*
X181280590Y-115899016D01*
X181336271Y-116129611D01*
X181446704Y-116168040D01*
X181445487Y-116168543D01*
X181169512Y-116444036D01*
X181019971Y-116804171D01*
X181019630Y-117194118D01*
X181168543Y-117554513D01*
X181444036Y-117830488D01*
X181786478Y-117972682D01*
X181416749Y-118125451D01*
X181126471Y-118415223D01*
X180969180Y-118794022D01*
X180968822Y-119204179D01*
X154514837Y-119204179D01*
X150773133Y-115462475D01*
X150773217Y-115366699D01*
X150670959Y-115119217D01*
X150481778Y-114929706D01*
X150234475Y-114827017D01*
X149966699Y-114826783D01*
X149719217Y-114929041D01*
X149701988Y-114946240D01*
X149701988Y-114819078D01*
X180702378Y-114819078D01*
X180731917Y-115329428D01*
X180870389Y-115663729D01*
X181100984Y-115719410D01*
X181820395Y-115000000D01*
X182179605Y-115000000D01*
X182899016Y-115719410D01*
X183129611Y-115663729D01*
X183297622Y-115180922D01*
X183268083Y-114670572D01*
X183129611Y-114336271D01*
X182899016Y-114280590D01*
X182179605Y-115000000D01*
X181820395Y-115000000D01*
X181100984Y-114280590D01*
X180870389Y-114336271D01*
X180702378Y-114819078D01*
X149701988Y-114819078D01*
X149701988Y-113194118D01*
X181019630Y-113194118D01*
X181168543Y-113554513D01*
X181440691Y-113827137D01*
X181336271Y-113870389D01*
X181280590Y-114100984D01*
X182000000Y-114820395D01*
X182719410Y-114100984D01*
X182663729Y-113870389D01*
X182553296Y-113831960D01*
X182554513Y-113831457D01*
X182830488Y-113555964D01*
X182980029Y-113195829D01*
X182980370Y-112805882D01*
X182831457Y-112445487D01*
X182555964Y-112169512D01*
X182195829Y-112019971D01*
X181805882Y-112019630D01*
X181445487Y-112168543D01*
X181169512Y-112444036D01*
X181019971Y-112804171D01*
X181019630Y-113194118D01*
X149701988Y-113194118D01*
X149701988Y-110808670D01*
X150237612Y-110273046D01*
X150433301Y-110273217D01*
X150680783Y-110170959D01*
X150870294Y-109981778D01*
X150972983Y-109734475D01*
X150973217Y-109466699D01*
X150870959Y-109219217D01*
X150681778Y-109029706D01*
X150434475Y-108927017D01*
X150210974Y-108926822D01*
X150211103Y-108779225D01*
X150108845Y-108531743D01*
X150016100Y-108438836D01*
X153393791Y-108438836D01*
X153577007Y-108882252D01*
X153915964Y-109221801D01*
X154359059Y-109405790D01*
X154838836Y-109406209D01*
X155275330Y-109225853D01*
X156753752Y-109225853D01*
X156830956Y-109474563D01*
X157377250Y-109671843D01*
X157957456Y-109645048D01*
X158369044Y-109474563D01*
X158446248Y-109225853D01*
X157600000Y-108379605D01*
X156753752Y-109225853D01*
X155275330Y-109225853D01*
X155282252Y-109222993D01*
X155621801Y-108884036D01*
X155805790Y-108440941D01*
X155806194Y-107977250D01*
X156128157Y-107977250D01*
X156154952Y-108557456D01*
X156325437Y-108969044D01*
X156574147Y-109046248D01*
X157420395Y-108200000D01*
X157779605Y-108200000D01*
X158625853Y-109046248D01*
X158874563Y-108969044D01*
X159071843Y-108422750D01*
X159045048Y-107842544D01*
X158874563Y-107430956D01*
X158625853Y-107353752D01*
X157779605Y-108200000D01*
X157420395Y-108200000D01*
X156574147Y-107353752D01*
X156325437Y-107430956D01*
X156128157Y-107977250D01*
X155806194Y-107977250D01*
X155806209Y-107961164D01*
X155622993Y-107517748D01*
X155284036Y-107178199D01*
X155274278Y-107174147D01*
X156753752Y-107174147D01*
X157600000Y-108020395D01*
X158446248Y-107174147D01*
X158369044Y-106925437D01*
X157822750Y-106728157D01*
X157242544Y-106754952D01*
X156830956Y-106925437D01*
X156753752Y-107174147D01*
X155274278Y-107174147D01*
X154840941Y-106994210D01*
X154361164Y-106993791D01*
X153917748Y-107177007D01*
X153578199Y-107515964D01*
X153394210Y-107959059D01*
X153393791Y-108438836D01*
X150016100Y-108438836D01*
X149919664Y-108342232D01*
X149672361Y-108239543D01*
X149404585Y-108239309D01*
X149157103Y-108341567D01*
X148967592Y-108530748D01*
X148864903Y-108778051D01*
X148864731Y-108975024D01*
X148517816Y-109321938D01*
X148424214Y-109462024D01*
X148391345Y-109627267D01*
X148391345Y-113026024D01*
X148300052Y-112889394D01*
X145952995Y-110542337D01*
X146083991Y-110542451D01*
X146331473Y-110440193D01*
X146520984Y-110251012D01*
X146623673Y-110003709D01*
X146623907Y-109735933D01*
X146521649Y-109488451D01*
X146382490Y-109349049D01*
X146382490Y-108696980D01*
X146565525Y-108772983D01*
X146833301Y-108773217D01*
X147080783Y-108670959D01*
X147270294Y-108481778D01*
X147372983Y-108234475D01*
X147373155Y-108037503D01*
X147837612Y-107573046D01*
X148033301Y-107573217D01*
X148280783Y-107470959D01*
X148470294Y-107281778D01*
X148572983Y-107034475D01*
X148573217Y-106766699D01*
X148470959Y-106519217D01*
X148281778Y-106329706D01*
X148034475Y-106227017D01*
X147873164Y-106226876D01*
X147873217Y-106166699D01*
X147770959Y-105919217D01*
X147581778Y-105729706D01*
X147334475Y-105627017D01*
X147066699Y-105626783D01*
X146819217Y-105729041D01*
X146629706Y-105918222D01*
X146527017Y-106165525D01*
X146526845Y-106362497D01*
X145645361Y-107243981D01*
X145551759Y-107384067D01*
X145518890Y-107549310D01*
X145518890Y-109349203D01*
X145380396Y-109487456D01*
X145277707Y-109734759D01*
X145277591Y-109866933D01*
X144689533Y-109278875D01*
X144677686Y-109270959D01*
X144549447Y-109185273D01*
X144384204Y-109152404D01*
X144320031Y-109152404D01*
X144181778Y-109013910D01*
X143934475Y-108911221D01*
X143666699Y-108910987D01*
X143419217Y-109013245D01*
X143229706Y-109202426D01*
X143127017Y-109449729D01*
X143126783Y-109717505D01*
X143229041Y-109964987D01*
X143418222Y-110154498D01*
X143665525Y-110257187D01*
X143933301Y-110257421D01*
X144180783Y-110155163D01*
X144262715Y-110073373D01*
X147562923Y-113373581D01*
X147562923Y-119840553D01*
X144770939Y-117048569D01*
X144630853Y-116954967D01*
X144465610Y-116922098D01*
X142829904Y-116922098D01*
X142870294Y-116881778D01*
X142972983Y-116634475D01*
X142973155Y-116437503D01*
X143605326Y-115805331D01*
X143605329Y-115805329D01*
X143698931Y-115665243D01*
X143698932Y-115665242D01*
X143702010Y-115649769D01*
X143870294Y-115481778D01*
X143972983Y-115234475D01*
X143973217Y-114966699D01*
X143870959Y-114719217D01*
X143681778Y-114529706D01*
X143434475Y-114427017D01*
X143166699Y-114426783D01*
X142919217Y-114529041D01*
X142729706Y-114718222D01*
X142627017Y-114965525D01*
X142626783Y-115233301D01*
X142723053Y-115466290D01*
X142362388Y-115826954D01*
X142166699Y-115826783D01*
X141919217Y-115929041D01*
X141729706Y-116118222D01*
X141627017Y-116365525D01*
X141626783Y-116633301D01*
X141729041Y-116880783D01*
X141770284Y-116922098D01*
X141320031Y-116922098D01*
X141181778Y-116783604D01*
X140934475Y-116680915D01*
X140666699Y-116680681D01*
X140419217Y-116782939D01*
X140229706Y-116972120D01*
X140127017Y-117219423D01*
X140126783Y-117487199D01*
X140229041Y-117734681D01*
X140418222Y-117924192D01*
X140665525Y-118026881D01*
X140933301Y-118027115D01*
X141180783Y-117924857D01*
X141320185Y-117785698D01*
X144286752Y-117785698D01*
X146671466Y-120170412D01*
X146559829Y-120216539D01*
X146370318Y-120405720D01*
X146267629Y-120653023D01*
X146267457Y-120849995D01*
X144473159Y-122644293D01*
X144473217Y-122578051D01*
X144370959Y-122330569D01*
X144181778Y-122141058D01*
X143934475Y-122038369D01*
X143666699Y-122038135D01*
X143419217Y-122140393D01*
X143229706Y-122329574D01*
X143127017Y-122576877D01*
X143126783Y-122844653D01*
X143229041Y-123092135D01*
X143339708Y-123202995D01*
X139176588Y-127366114D01*
X134721033Y-127366114D01*
X134721028Y-127366113D01*
X134583201Y-127393529D01*
X134555785Y-127398983D01*
X134434076Y-127480306D01*
X134415699Y-127492585D01*
X133094671Y-128813613D01*
X133001069Y-128953699D01*
X132968200Y-129118942D01*
X132968200Y-130000000D01*
X133001069Y-130165243D01*
X133069756Y-130268041D01*
X133094671Y-130305329D01*
X134768200Y-131978857D01*
X134768200Y-137279969D01*
X134629706Y-137418222D01*
X134527017Y-137665525D01*
X134526783Y-137933301D01*
X134560913Y-138015901D01*
X133626559Y-138015901D01*
X133273046Y-137662388D01*
X133273217Y-137466699D01*
X133170959Y-137219217D01*
X132981778Y-137029706D01*
X132734475Y-136927017D01*
X132466699Y-136926783D01*
X132219217Y-137029041D01*
X132029706Y-137218222D01*
X131927017Y-137465525D01*
X131926783Y-137733301D01*
X114127000Y-137733301D01*
X114127000Y-129323628D01*
X116499587Y-129323628D01*
X116686479Y-129775942D01*
X117032238Y-130122305D01*
X117484225Y-130309986D01*
X117973628Y-130310413D01*
X118425942Y-130123521D01*
X118772305Y-129777762D01*
X118959986Y-129325775D01*
X118960413Y-128836372D01*
X118773521Y-128384058D01*
X118427762Y-128037695D01*
X117975775Y-127850014D01*
X117486372Y-127849587D01*
X117034058Y-128036479D01*
X116687695Y-128382238D01*
X116500014Y-128834225D01*
X116499587Y-129323628D01*
X114127000Y-129323628D01*
X114127000Y-124243628D01*
X116499587Y-124243628D01*
X116686479Y-124695942D01*
X117032238Y-125042305D01*
X117484225Y-125229986D01*
X117973628Y-125230413D01*
X118239782Y-125120440D01*
X118629472Y-125510130D01*
X118769558Y-125603732D01*
X118934801Y-125636601D01*
X119433691Y-125636601D01*
X119227695Y-125842238D01*
X119040014Y-126294225D01*
X119039587Y-126783628D01*
X119226479Y-127235942D01*
X119358506Y-127368200D01*
X119168858Y-127368200D01*
X118850384Y-127049726D01*
X118959986Y-126785775D01*
X118960413Y-126296372D01*
X118773521Y-125844058D01*
X118427762Y-125497695D01*
X117975775Y-125310014D01*
X117486372Y-125309587D01*
X117034058Y-125496479D01*
X116687695Y-125842238D01*
X116500014Y-126294225D01*
X116499587Y-126783628D01*
X116686479Y-127235942D01*
X117032238Y-127582305D01*
X117484225Y-127769986D01*
X117973628Y-127770413D01*
X118239782Y-127660440D01*
X118684671Y-128105329D01*
X118824757Y-128198931D01*
X118990000Y-128231800D01*
X119033331Y-128231800D01*
X119033331Y-129980000D01*
X119056356Y-130102365D01*
X119128673Y-130214749D01*
X119239017Y-130290144D01*
X119370000Y-130316669D01*
X121170000Y-130316669D01*
X121292365Y-130293644D01*
X121404749Y-130221327D01*
X121480144Y-130110983D01*
X121506669Y-129980000D01*
X121506669Y-128231800D01*
X124879969Y-128231800D01*
X125018222Y-128370294D01*
X125265525Y-128472983D01*
X125533301Y-128473217D01*
X125780783Y-128370959D01*
X125970294Y-128181778D01*
X126072983Y-127934475D01*
X126073217Y-127666699D01*
X125970959Y-127419217D01*
X125781778Y-127229706D01*
X125534475Y-127127017D01*
X125266699Y-127126783D01*
X125019217Y-127229041D01*
X124879815Y-127368200D01*
X121181639Y-127368200D01*
X121312305Y-127237762D01*
X121499986Y-126785775D01*
X121500413Y-126296372D01*
X121313521Y-125844058D01*
X121106426Y-125636601D01*
X122591926Y-125636601D01*
X122651501Y-125780783D01*
X122840682Y-125970294D01*
X123087985Y-126072983D01*
X123355761Y-126073217D01*
X123603243Y-125970959D01*
X123792754Y-125781778D01*
X123895443Y-125534475D01*
X123895677Y-125266699D01*
X123793419Y-125019217D01*
X123606328Y-124831800D01*
X123997840Y-124831800D01*
X124136093Y-124970294D01*
X124383396Y-125072983D01*
X124651172Y-125073217D01*
X124898654Y-124970959D01*
X125088165Y-124781778D01*
X125190854Y-124534475D01*
X125191088Y-124266699D01*
X125088830Y-124019217D01*
X124899649Y-123829706D01*
X124652346Y-123727017D01*
X124384570Y-123726783D01*
X124137088Y-123829041D01*
X123997686Y-123968200D01*
X121500228Y-123968200D01*
X121500413Y-123756372D01*
X121313521Y-123304058D01*
X120967762Y-122957695D01*
X120515775Y-122770014D01*
X120026372Y-122769587D01*
X119574058Y-122956479D01*
X119227695Y-123302238D01*
X119040014Y-123754225D01*
X119039587Y-124243628D01*
X119226479Y-124695942D01*
X119303404Y-124773001D01*
X119113659Y-124773001D01*
X118850384Y-124509726D01*
X118959986Y-124245775D01*
X118960413Y-123756372D01*
X118773521Y-123304058D01*
X118427762Y-122957695D01*
X117975775Y-122770014D01*
X117486372Y-122769587D01*
X117034058Y-122956479D01*
X116687695Y-123302238D01*
X116500014Y-123754225D01*
X116499587Y-124243628D01*
X114127000Y-124243628D01*
X114127000Y-121703628D01*
X116499587Y-121703628D01*
X116686479Y-122155942D01*
X117032238Y-122502305D01*
X117484225Y-122689986D01*
X117973628Y-122690413D01*
X118425942Y-122503521D01*
X118772305Y-122157762D01*
X118959986Y-121705775D01*
X118959987Y-121703628D01*
X119039587Y-121703628D01*
X119226479Y-122155942D01*
X119572238Y-122502305D01*
X120024225Y-122689986D01*
X120513628Y-122690413D01*
X120965942Y-122503521D01*
X121312305Y-122157762D01*
X121499986Y-121705775D01*
X121500413Y-121216372D01*
X121313521Y-120764058D01*
X120967762Y-120417695D01*
X120831716Y-120361204D01*
X121084148Y-120256643D01*
X121170554Y-120000159D01*
X120270000Y-119099605D01*
X119369446Y-120000159D01*
X119455852Y-120256643D01*
X119723713Y-120354643D01*
X119574058Y-120416479D01*
X119227695Y-120762238D01*
X119040014Y-121214225D01*
X119039587Y-121703628D01*
X118959987Y-121703628D01*
X118960413Y-121216372D01*
X118773521Y-120764058D01*
X118427762Y-120417695D01*
X118291716Y-120361204D01*
X118544148Y-120256643D01*
X118630554Y-120000159D01*
X117730000Y-119099605D01*
X116829446Y-120000159D01*
X116915852Y-120256643D01*
X117183713Y-120354643D01*
X117034058Y-120416479D01*
X116687695Y-120762238D01*
X116500014Y-121214225D01*
X116499587Y-121703628D01*
X114127000Y-121703628D01*
X114127000Y-118679336D01*
X116183542Y-118679336D01*
X116209161Y-119289460D01*
X116393357Y-119734148D01*
X116649841Y-119820554D01*
X117550395Y-118920000D01*
X117909605Y-118920000D01*
X118810159Y-119820554D01*
X119000000Y-119756599D01*
X119189841Y-119820554D01*
X120090395Y-118920000D01*
X120449605Y-118920000D01*
X121350159Y-119820554D01*
X121606643Y-119734148D01*
X121816458Y-119160664D01*
X121790839Y-118550540D01*
X121606643Y-118105852D01*
X121350159Y-118019446D01*
X120449605Y-118920000D01*
X120090395Y-118920000D01*
X119189841Y-118019446D01*
X119000000Y-118083401D01*
X118810159Y-118019446D01*
X117909605Y-118920000D01*
X117550395Y-118920000D01*
X116649841Y-118019446D01*
X116393357Y-118105852D01*
X116183542Y-118679336D01*
X114127000Y-118679336D01*
X114127000Y-117839841D01*
X116829446Y-117839841D01*
X117730000Y-118740395D01*
X118630554Y-117839841D01*
X119369446Y-117839841D01*
X120270000Y-118740395D01*
X121170554Y-117839841D01*
X121084148Y-117583357D01*
X120510664Y-117373542D01*
X119900540Y-117399161D01*
X119455852Y-117583357D01*
X119369446Y-117839841D01*
X118630554Y-117839841D01*
X118544148Y-117583357D01*
X117970664Y-117373542D01*
X117360540Y-117399161D01*
X116915852Y-117583357D01*
X116829446Y-117839841D01*
X114127000Y-117839841D01*
X114127000Y-110033301D01*
X122826783Y-110033301D01*
X122929041Y-110280783D01*
X123118222Y-110470294D01*
X123365525Y-110572983D01*
X123633301Y-110573217D01*
X123880783Y-110470959D01*
X124020185Y-110331800D01*
X127700000Y-110331800D01*
X127865243Y-110298931D01*
X128005329Y-110205329D01*
X128237612Y-109973046D01*
X128433301Y-109973217D01*
X128680783Y-109870959D01*
X128870294Y-109681778D01*
X128972983Y-109434475D01*
X128973217Y-109166699D01*
X128870959Y-108919217D01*
X128683868Y-108731800D01*
X130079969Y-108731800D01*
X130218222Y-108870294D01*
X130465525Y-108972983D01*
X130662497Y-108973155D01*
X131111099Y-109421757D01*
X131111099Y-113151984D01*
X131066699Y-113151945D01*
X130819217Y-113254203D01*
X130629706Y-113443384D01*
X130527017Y-113690687D01*
X130526783Y-113958463D01*
X130629041Y-114205945D01*
X130818222Y-114395456D01*
X131065525Y-114498145D01*
X131333301Y-114498379D01*
X131580783Y-114396121D01*
X131770294Y-114206940D01*
X131872983Y-113959637D01*
X131873166Y-113750270D01*
X131941830Y-113647506D01*
X131974699Y-113482263D01*
X131974699Y-111133301D01*
X137326783Y-111133301D01*
X137429041Y-111380783D01*
X137618222Y-111570294D01*
X137865525Y-111672983D01*
X138133301Y-111673217D01*
X138380783Y-111570959D01*
X138570294Y-111381778D01*
X138672983Y-111134475D01*
X138673155Y-110937503D01*
X139329370Y-110281288D01*
X139418222Y-110370294D01*
X139665525Y-110472983D01*
X139933301Y-110473217D01*
X140180783Y-110370959D01*
X140370294Y-110181778D01*
X140472983Y-109934475D01*
X140473217Y-109666699D01*
X140370959Y-109419217D01*
X140181778Y-109229706D01*
X139934475Y-109127017D01*
X139666699Y-109126783D01*
X139419217Y-109229041D01*
X139279815Y-109368200D01*
X139200000Y-109368200D01*
X139034757Y-109401069D01*
X138894671Y-109494671D01*
X138062388Y-110326954D01*
X137866699Y-110326783D01*
X137619217Y-110429041D01*
X137429706Y-110618222D01*
X137327017Y-110865525D01*
X137326783Y-111133301D01*
X131974699Y-111133301D01*
X131974699Y-109242899D01*
X131941830Y-109077656D01*
X131848228Y-108937570D01*
X131273046Y-108362388D01*
X131273217Y-108166699D01*
X131170959Y-107919217D01*
X130981778Y-107729706D01*
X130734475Y-107627017D01*
X130466699Y-107626783D01*
X130219217Y-107729041D01*
X130079815Y-107868200D01*
X126600000Y-107868200D01*
X126434757Y-107901069D01*
X126294671Y-107994671D01*
X126294669Y-107994674D01*
X126262389Y-108026954D01*
X126066699Y-108026783D01*
X125819217Y-108129041D01*
X125629706Y-108318222D01*
X125527017Y-108565525D01*
X125526783Y-108833301D01*
X125629041Y-109080783D01*
X125818222Y-109270294D01*
X126065525Y-109372983D01*
X126333301Y-109373217D01*
X126580783Y-109270959D01*
X126770294Y-109081778D01*
X126872983Y-108834475D01*
X126873073Y-108731800D01*
X127916453Y-108731800D01*
X127729706Y-108918222D01*
X127627017Y-109165525D01*
X127626845Y-109362497D01*
X127521142Y-109468200D01*
X124020031Y-109468200D01*
X123881778Y-109329706D01*
X123634475Y-109227017D01*
X123366699Y-109226783D01*
X123119217Y-109329041D01*
X122929706Y-109518222D01*
X122827017Y-109765525D01*
X122826783Y-110033301D01*
X114127000Y-110033301D01*
X114127000Y-105309153D01*
X114323592Y-105784942D01*
X115210389Y-106673289D01*
X116369639Y-107154651D01*
X117624855Y-107155746D01*
X118784942Y-106676408D01*
X119529347Y-105933301D01*
X120526783Y-105933301D01*
X120629041Y-106180783D01*
X120818222Y-106370294D01*
X121065525Y-106472983D01*
X121333301Y-106473217D01*
X121580783Y-106370959D01*
X121720185Y-106231800D01*
X125021142Y-106231800D01*
X125526954Y-106737611D01*
X125526783Y-106933301D01*
X125629041Y-107180783D01*
X125818222Y-107370294D01*
X126065525Y-107472983D01*
X126333301Y-107473217D01*
X126580783Y-107370959D01*
X126770294Y-107181778D01*
X126872983Y-106934475D01*
X126872984Y-106933301D01*
X140626783Y-106933301D01*
X140729041Y-107180783D01*
X140918222Y-107370294D01*
X141165525Y-107472983D01*
X141433301Y-107473217D01*
X141680783Y-107370959D01*
X141820185Y-107231800D01*
X143679969Y-107231800D01*
X143818222Y-107370294D01*
X144065525Y-107472983D01*
X144333301Y-107473217D01*
X144580783Y-107370959D01*
X144770294Y-107181778D01*
X144872983Y-106934475D01*
X144873217Y-106666699D01*
X144770959Y-106419217D01*
X144581778Y-106229706D01*
X144334475Y-106127017D01*
X144066699Y-106126783D01*
X143819217Y-106229041D01*
X143679815Y-106368200D01*
X141820031Y-106368200D01*
X141681778Y-106229706D01*
X141434475Y-106127017D01*
X141166699Y-106126783D01*
X140919217Y-106229041D01*
X140729706Y-106418222D01*
X140627017Y-106665525D01*
X140626783Y-106933301D01*
X126872984Y-106933301D01*
X126873217Y-106666699D01*
X126770959Y-106419217D01*
X126651908Y-106299958D01*
X126770294Y-106181778D01*
X126872983Y-105934475D01*
X126873217Y-105666699D01*
X126770959Y-105419217D01*
X126581778Y-105229706D01*
X126334475Y-105127017D01*
X126137503Y-105126845D01*
X126048228Y-105037570D01*
X126035463Y-105029041D01*
X125908142Y-104943968D01*
X125742899Y-104911099D01*
X122271025Y-104911099D01*
X122271064Y-104866699D01*
X122168806Y-104619217D01*
X121979625Y-104429706D01*
X121732322Y-104327017D01*
X121464546Y-104326783D01*
X121217064Y-104429041D01*
X121027553Y-104618222D01*
X120924864Y-104865525D01*
X120924630Y-105133301D01*
X120943048Y-105177875D01*
X120819217Y-105229041D01*
X120629706Y-105418222D01*
X120527017Y-105665525D01*
X120526783Y-105933301D01*
X119529347Y-105933301D01*
X119673289Y-105789611D01*
X120154651Y-104630361D01*
X120154985Y-104247403D01*
X154244478Y-104247403D01*
X154526321Y-104929514D01*
X155047741Y-105451845D01*
X155729359Y-105734878D01*
X156467403Y-105735522D01*
X157149514Y-105453679D01*
X157169927Y-105433301D01*
X159826783Y-105433301D01*
X159929041Y-105680783D01*
X160068200Y-105820185D01*
X160068200Y-107700000D01*
X160101069Y-107865243D01*
X160187550Y-107994671D01*
X160194671Y-108005329D01*
X161626954Y-109437611D01*
X161626783Y-109633301D01*
X161729041Y-109880783D01*
X161918222Y-110070294D01*
X162165525Y-110172983D01*
X162433301Y-110173217D01*
X162680783Y-110070959D01*
X162870294Y-109881778D01*
X162887741Y-109839760D01*
X162918222Y-109870294D01*
X163165525Y-109972983D01*
X163433301Y-109973217D01*
X163680783Y-109870959D01*
X163870294Y-109681778D01*
X163972983Y-109434475D01*
X163973217Y-109166699D01*
X163870959Y-108919217D01*
X163681778Y-108729706D01*
X163434475Y-108627017D01*
X163237503Y-108626845D01*
X161831800Y-107221142D01*
X161831800Y-105733301D01*
X175926783Y-105733301D01*
X176029041Y-105980783D01*
X176152300Y-106104257D01*
X176152300Y-110704637D01*
X176127017Y-110765525D01*
X176126783Y-111033301D01*
X176229041Y-111280783D01*
X176418222Y-111470294D01*
X176665525Y-111572983D01*
X176933301Y-111573217D01*
X177180783Y-111470959D01*
X177370294Y-111281778D01*
X177406693Y-111194118D01*
X181019630Y-111194118D01*
X181168543Y-111554513D01*
X181444036Y-111830488D01*
X181804171Y-111980029D01*
X182194118Y-111980370D01*
X182554513Y-111831457D01*
X182830488Y-111555964D01*
X182980029Y-111195829D01*
X182980370Y-110805882D01*
X182831457Y-110445487D01*
X182555964Y-110169512D01*
X182195829Y-110019971D01*
X181805882Y-110019630D01*
X181445487Y-110168543D01*
X181169512Y-110444036D01*
X181019971Y-110804171D01*
X181019630Y-111194118D01*
X177406693Y-111194118D01*
X177472983Y-111034475D01*
X177473217Y-110766699D01*
X177447700Y-110704943D01*
X177447700Y-105800000D01*
X177398397Y-105552136D01*
X177257993Y-105342007D01*
X177196136Y-105280150D01*
X177170959Y-105219217D01*
X176981778Y-105029706D01*
X176734475Y-104927017D01*
X176466699Y-104926783D01*
X176219217Y-105029041D01*
X176029706Y-105218222D01*
X175927017Y-105465525D01*
X175926783Y-105733301D01*
X161831800Y-105733301D01*
X161831800Y-104900005D01*
X161831801Y-104900000D01*
X161822878Y-104855142D01*
X161872983Y-104734475D01*
X161873217Y-104466699D01*
X161770959Y-104219217D01*
X161581778Y-104029706D01*
X161334475Y-103927017D01*
X161066699Y-103926783D01*
X160819217Y-104029041D01*
X160629706Y-104218222D01*
X160527017Y-104465525D01*
X160526876Y-104626923D01*
X160366699Y-104626783D01*
X160119217Y-104729041D01*
X159929706Y-104918222D01*
X159827017Y-105165525D01*
X159826783Y-105433301D01*
X157169927Y-105433301D01*
X157671845Y-104932259D01*
X157954878Y-104250641D01*
X157955522Y-103512597D01*
X157673679Y-102830486D01*
X157218988Y-102375000D01*
X170786536Y-102375000D01*
X170786536Y-104025000D01*
X170813103Y-104166190D01*
X170896546Y-104295865D01*
X171023866Y-104382859D01*
X171175000Y-104413464D01*
X172825000Y-104413464D01*
X172966190Y-104386897D01*
X173095865Y-104303454D01*
X173182859Y-104176134D01*
X173213464Y-104025000D01*
X173213464Y-103428775D01*
X173384600Y-103428775D01*
X173560098Y-103853514D01*
X173884777Y-104178760D01*
X174309208Y-104354999D01*
X174768775Y-104355400D01*
X175082303Y-104225853D01*
X176233752Y-104225853D01*
X176310956Y-104474563D01*
X176857250Y-104671843D01*
X177437456Y-104645048D01*
X177849044Y-104474563D01*
X177926248Y-104225853D01*
X177080000Y-103379605D01*
X176233752Y-104225853D01*
X175082303Y-104225853D01*
X175193514Y-104179902D01*
X175518760Y-103855223D01*
X175638673Y-103566440D01*
X175805437Y-103969044D01*
X176054147Y-104046248D01*
X176900395Y-103200000D01*
X177259605Y-103200000D01*
X178105853Y-104046248D01*
X178354563Y-103969044D01*
X178551843Y-103422750D01*
X178525048Y-102842544D01*
X178354563Y-102430956D01*
X178105853Y-102353752D01*
X177259605Y-103200000D01*
X176900395Y-103200000D01*
X176054147Y-102353752D01*
X175805437Y-102430956D01*
X175650006Y-102861364D01*
X175519902Y-102546486D01*
X175195223Y-102221240D01*
X175081811Y-102174147D01*
X176233752Y-102174147D01*
X177080000Y-103020395D01*
X177926248Y-102174147D01*
X177849044Y-101925437D01*
X177302750Y-101728157D01*
X176722544Y-101754952D01*
X176310956Y-101925437D01*
X176233752Y-102174147D01*
X175081811Y-102174147D01*
X174770792Y-102045001D01*
X174311225Y-102044600D01*
X173886486Y-102220098D01*
X173561240Y-102544777D01*
X173385001Y-102969208D01*
X173384600Y-103428775D01*
X173213464Y-103428775D01*
X173213464Y-102375000D01*
X173186897Y-102233810D01*
X173103454Y-102104135D01*
X172976134Y-102017141D01*
X172825000Y-101986536D01*
X171175000Y-101986536D01*
X171033810Y-102013103D01*
X170904135Y-102096546D01*
X170817141Y-102223866D01*
X170786536Y-102375000D01*
X157218988Y-102375000D01*
X157152259Y-102308155D01*
X156470641Y-102025122D01*
X155732597Y-102024478D01*
X155050486Y-102306321D01*
X154528155Y-102827741D01*
X154245122Y-103509359D01*
X154244478Y-104247403D01*
X120154985Y-104247403D01*
X120155746Y-103375145D01*
X119676408Y-102215058D01*
X118789611Y-101326711D01*
X118308653Y-101127000D01*
X182690847Y-101127000D01*
X182215058Y-101323592D01*
G36*
X144126783Y-127533301D02*
X144229041Y-127780783D01*
X144418222Y-127970294D01*
X144530870Y-128017070D01*
X142704793Y-129843147D01*
X142611191Y-129983233D01*
X142578322Y-130148476D01*
X142578322Y-133006909D01*
X142466642Y-132960535D01*
X142198866Y-132960301D01*
X141951384Y-133062559D01*
X141811982Y-133201718D01*
X141412376Y-133201718D01*
X139691712Y-131481054D01*
X139873834Y-131405802D01*
X140063345Y-131216621D01*
X140166034Y-130969318D01*
X140166268Y-130701542D01*
X140064010Y-130454060D01*
X139952053Y-130341908D01*
X141149575Y-129144386D01*
X141345264Y-129144557D01*
X141592746Y-129042299D01*
X141782257Y-128853118D01*
X141884946Y-128605815D01*
X141885180Y-128338039D01*
X141782922Y-128090557D01*
X141593741Y-127901046D01*
X141392977Y-127817681D01*
X141726559Y-127484099D01*
X144126826Y-127484099D01*
X144126783Y-127533301D01*
X144126783Y-127533301D01*
G37*
X144126783Y-127533301D02*
X144229041Y-127780783D01*
X144418222Y-127970294D01*
X144530870Y-128017070D01*
X142704793Y-129843147D01*
X142611191Y-129983233D01*
X142578322Y-130148476D01*
X142578322Y-133006909D01*
X142466642Y-132960535D01*
X142198866Y-132960301D01*
X141951384Y-133062559D01*
X141811982Y-133201718D01*
X141412376Y-133201718D01*
X139691712Y-131481054D01*
X139873834Y-131405802D01*
X140063345Y-131216621D01*
X140166034Y-130969318D01*
X140166268Y-130701542D01*
X140064010Y-130454060D01*
X139952053Y-130341908D01*
X141149575Y-129144386D01*
X141345264Y-129144557D01*
X141592746Y-129042299D01*
X141782257Y-128853118D01*
X141884946Y-128605815D01*
X141885180Y-128338039D01*
X141782922Y-128090557D01*
X141593741Y-127901046D01*
X141392977Y-127817681D01*
X141726559Y-127484099D01*
X144126826Y-127484099D01*
X144126783Y-127533301D01*
M02*
